G04 #@! TF.GenerationSoftware,KiCad,Pcbnew,(5.1.6)-1*
G04 #@! TF.CreationDate,2020-10-30T01:23:07+08:00*
G04 #@! TF.ProjectId,panelized2,70616e65-6c69-47a6-9564-322e6b696361,rev?*
G04 #@! TF.SameCoordinates,Original*
G04 #@! TF.FileFunction,Other,ECO2*
%FSLAX46Y46*%
G04 Gerber Fmt 4.6, Leading zero omitted, Abs format (unit mm)*
G04 Created by KiCad (PCBNEW (5.1.6)-1) date 2020-10-30 01:23:07*
%MOMM*%
%LPD*%
G01*
G04 APERTURE LIST*
G04 #@! TA.AperFunction,Profile*
%ADD10C,0.050000*%
G04 #@! TD*
G04 APERTURE END LIST*
D10*
X156209998Y-82803999D02*
G75*
G02*
X153670002Y-82804000I-1269998J-1D01*
G01*
X153670063Y-60756801D02*
G75*
G02*
X156210000Y-60769500I1269937J-12699D01*
G01*
X153670063Y-111048801D02*
G75*
G02*
X156210000Y-111061500I1269937J-12699D01*
G01*
X156209998Y-133095999D02*
G75*
G02*
X153670002Y-133096000I-1269998J-1D01*
G01*
X179070000Y-146812000D02*
X161290000Y-146812000D01*
X125729998Y-82803999D02*
G75*
G02*
X123190002Y-82804000I-1269998J-1D01*
G01*
X123190063Y-60756801D02*
G75*
G02*
X125730000Y-60769500I1269937J-12699D01*
G01*
X153670063Y-87426801D02*
G75*
G02*
X156210000Y-87439500I1269937J-12699D01*
G01*
X141541500Y-99060000D02*
X148590000Y-99060000D01*
X130810000Y-99060000D02*
X136855200Y-99060000D01*
X172021500Y-99060000D02*
X179070000Y-99060000D01*
X161290000Y-99060000D02*
X167335200Y-99060000D01*
X156209998Y-106425999D02*
G75*
G02*
X153670002Y-106426000I-1269998J-1D01*
G01*
X125729998Y-106425999D02*
G75*
G02*
X123190002Y-106426000I-1269998J-1D01*
G01*
X123190063Y-87426801D02*
G75*
G02*
X125730000Y-87439500I1269937J-12699D01*
G01*
X125729998Y-133095999D02*
G75*
G02*
X123190002Y-133096000I-1269998J-1D01*
G01*
X123190063Y-111048801D02*
G75*
G02*
X125730000Y-111061500I1269937J-12699D01*
G01*
X123190063Y-137718801D02*
G75*
G02*
X125730000Y-137731500I1269937J-12699D01*
G01*
X156210000Y-137731500D02*
X156210000Y-141732000D01*
X153670063Y-137718801D02*
G75*
G02*
X156210000Y-137731500I1269937J-12699D01*
G01*
X156209997Y-56134001D02*
G75*
G02*
X153670002Y-56133998I-1269997J63501D01*
G01*
X125729998Y-56133999D02*
G75*
G02*
X123190002Y-56134000I-1269998J-1D01*
G01*
X125730000Y-53848000D02*
X125730000Y-56134000D01*
X117602000Y-146812000D02*
X123190000Y-146812000D01*
X123190000Y-111048800D02*
X123190001Y-133095999D01*
X123190000Y-87426800D02*
X123190001Y-106425999D01*
X123190000Y-60756800D02*
X123190001Y-82803999D01*
X123190000Y-48768000D02*
X123190001Y-56133999D01*
X117602000Y-48768000D02*
X123190000Y-48768000D01*
X117602000Y-146812000D02*
X117602000Y-48768000D01*
X123190000Y-137718800D02*
X123190000Y-146812000D01*
X186691015Y-82753201D02*
X186690000Y-60756800D01*
X186690000Y-87426800D02*
X186691015Y-106375201D01*
X186691015Y-133045201D02*
X186690000Y-111048800D01*
X186690000Y-146812000D02*
X192532000Y-146812000D01*
X192532000Y-48768000D02*
X192532000Y-146812000D01*
X186690000Y-137718800D02*
X186690000Y-146812000D01*
X186690000Y-48768000D02*
X192532000Y-48768000D01*
X186691015Y-56083201D02*
X186690000Y-48768000D01*
X136855200Y-146812000D02*
X141541500Y-146812000D01*
X184150000Y-111048800D02*
G75*
G02*
X186690000Y-111048800I1270000J0D01*
G01*
X184150000Y-60756800D02*
G75*
G02*
X186690000Y-60756800I1270000J0D01*
G01*
X186691015Y-133045201D02*
G75*
G02*
X184150001Y-133095999I-1271015J1D01*
G01*
X184150000Y-87426800D02*
G75*
G02*
X186690000Y-87426800I1270000J0D01*
G01*
X184150000Y-137718800D02*
G75*
G02*
X186690000Y-137718800I1270000J0D01*
G01*
X186691015Y-106375201D02*
G75*
G02*
X184150001Y-106425999I-1271015J1D01*
G01*
X186691015Y-56083201D02*
G75*
G02*
X184150001Y-56133999I-1271015J1D01*
G01*
X186691015Y-82753201D02*
G75*
G02*
X184150001Y-82803999I-1271015J1D01*
G01*
X184150000Y-104140000D02*
X184150001Y-106425999D01*
X153670000Y-104140000D02*
X153670001Y-106425999D01*
X184150000Y-53848000D02*
X184150001Y-56133999D01*
X136855200Y-146812000D02*
X130810000Y-146812000D01*
X167335200Y-96520000D02*
X161290000Y-96520000D01*
X156210000Y-104140000D02*
X156210000Y-106426000D01*
X125730000Y-104140000D02*
X125730000Y-106426000D01*
X156210000Y-53848000D02*
X156210000Y-56134000D01*
X167335200Y-96520000D02*
G75*
G02*
X167335200Y-99060000I0J-1270000D01*
G01*
X156210000Y-111061500D02*
X156210000Y-133096000D01*
X125730000Y-111061500D02*
X125730000Y-133096000D01*
X156210000Y-60769500D02*
X156210000Y-82804000D01*
X172021500Y-99060000D02*
G75*
G02*
X172021500Y-96520000I0J1270000D01*
G01*
X184150000Y-141732000D02*
X184150000Y-137718800D01*
X153670000Y-141732000D02*
X153670000Y-137718800D01*
X184150000Y-91440000D02*
X184150000Y-87426800D01*
X148590000Y-146812000D02*
X141541500Y-146812000D01*
X179070000Y-96520000D02*
X172021500Y-96520000D01*
X184150001Y-133095999D02*
X184150000Y-111048800D01*
X153670001Y-133095999D02*
X153670000Y-111048800D01*
X184150001Y-82803999D02*
X184150000Y-60756800D01*
X125730000Y-141732000D02*
X125730000Y-137731500D01*
X156210000Y-91440000D02*
X156210000Y-87439500D01*
X161290000Y-48768000D02*
X179070000Y-48768000D01*
X161290000Y-146812000D02*
G75*
G02*
X156210000Y-141732000I0J5080000D01*
G01*
X130810000Y-146812000D02*
G75*
G02*
X125730000Y-141732000I0J5080000D01*
G01*
X161290000Y-96520000D02*
G75*
G02*
X156210000Y-91440000I0J5080000D01*
G01*
X184150000Y-141732000D02*
G75*
G02*
X179070000Y-146812000I-5080000J0D01*
G01*
X153670000Y-141732000D02*
G75*
G02*
X148590000Y-146812000I-5080000J0D01*
G01*
X184150000Y-91440000D02*
G75*
G02*
X179070000Y-96520000I-5080000J0D01*
G01*
X179070000Y-99060000D02*
G75*
G02*
X184150000Y-104140000I0J-5080000D01*
G01*
X148590000Y-99060000D02*
G75*
G02*
X153670000Y-104140000I0J-5080000D01*
G01*
X179070000Y-48768000D02*
G75*
G02*
X184150000Y-53848000I0J-5080000D01*
G01*
X156210000Y-104140000D02*
G75*
G02*
X161290000Y-99060000I5080000J0D01*
G01*
X125730000Y-104140000D02*
G75*
G02*
X130810000Y-99060000I5080000J0D01*
G01*
X156210000Y-53848000D02*
G75*
G02*
X161290000Y-48768000I5080000J0D01*
G01*
X125730000Y-91440000D02*
X125730000Y-87439500D01*
X125730000Y-60769500D02*
X125730000Y-82804000D01*
X136855200Y-96520000D02*
X130810000Y-96520000D01*
X148590000Y-96520000D02*
X141541500Y-96520000D01*
X136855200Y-96520000D02*
G75*
G02*
X136855200Y-99060000I0J-1270000D01*
G01*
X141541500Y-99060000D02*
G75*
G02*
X141541500Y-96520000I0J1270000D01*
G01*
X153670000Y-91440000D02*
X153670000Y-87426800D01*
X153670000Y-53848000D02*
X153670001Y-56133999D01*
X153670001Y-82803999D02*
X153670000Y-60756800D01*
X130810000Y-48768000D02*
X148590000Y-48768000D01*
X153670000Y-91440000D02*
G75*
G02*
X148590000Y-96520000I-5080000J0D01*
G01*
X130810000Y-96520000D02*
G75*
G02*
X125730000Y-91440000I0J5080000D01*
G01*
X148590000Y-48768000D02*
G75*
G02*
X153670000Y-53848000I0J-5080000D01*
G01*
X125730000Y-53848000D02*
G75*
G02*
X130810000Y-48768000I5080000J0D01*
G01*
M02*
