M48
; DRILL file {KiCad (5.1.6)-1} date 10/30/20 01:23:21
; FORMAT={-:-/ absolute / inch / decimal}
; #@! TF.CreationDate,2020-10-30T01:23:21+08:00
; #@! TF.GenerationSoftware,Kicad,Pcbnew,(5.1.6)-1
FMAT,2
INCH
T1C0.0157
T2C0.0394
T3C0.0197
%
G90
G05
T1
X5.305Y-2.2266
X5.305Y-4.2066
X5.35Y-2.3793
X5.35Y-4.3593
X5.3626Y-3.0871
X5.3626Y-3.1671
X5.3626Y-5.0671
X5.3626Y-5.1471
X5.3636Y-3.282
X5.3636Y-5.262
X5.3713Y-2.6637
X5.3713Y-4.6437
X5.3716Y-2.7433
X5.3716Y-4.7233
X5.4026Y-3.43
X5.4026Y-5.41
X5.4094Y-2.269
X5.4094Y-4.249
X5.4278Y-2.9746
X5.4278Y-4.9546
X5.43Y-2.92
X5.43Y-4.9
X5.4383Y-2.8017
X5.4383Y-4.7817
X5.4438Y-2.3774
X5.4438Y-4.3574
X5.49Y-2.97
X5.49Y-4.95
X5.558Y-2.468
X5.558Y-4.448
X5.58Y-3.31
X5.58Y-5.29
X5.5974Y-3.38
X5.5974Y-3.53
X5.5974Y-5.36
X5.5974Y-5.51
X5.6228Y-2.8654
X5.6228Y-2.9454
X5.6228Y-3.0254
X5.6228Y-4.8454
X5.6228Y-4.9254
X5.6228Y-5.0054
X5.65Y-2.4604
X5.65Y-4.4404
X5.6939Y-3.1509
X5.6939Y-5.1309
X5.7Y-2.225
X5.7Y-4.205
X5.7035Y-2.8654
X5.7035Y-2.9454
X5.7035Y-3.0254
X5.7035Y-4.8454
X5.7035Y-4.9254
X5.7035Y-5.0054
X5.8025Y-2.3282
X5.8025Y-4.3082
X6.505Y-2.2266
X6.505Y-4.2066
X6.55Y-2.3793
X6.55Y-4.3593
X6.5626Y-3.0871
X6.5626Y-3.1671
X6.5626Y-5.0671
X6.5626Y-5.1471
X6.5636Y-3.282
X6.5636Y-5.262
X6.5713Y-2.6637
X6.5713Y-4.6437
X6.5716Y-2.7433
X6.5716Y-4.7233
X6.6026Y-3.43
X6.6026Y-5.41
X6.6094Y-2.269
X6.6094Y-4.249
X6.6278Y-2.9746
X6.6278Y-4.9546
X6.63Y-2.92
X6.63Y-4.9
X6.6383Y-2.8017
X6.6383Y-4.7817
X6.6438Y-2.3774
X6.6438Y-4.3574
X6.69Y-2.97
X6.69Y-4.95
X6.758Y-2.468
X6.758Y-4.448
X6.78Y-3.31
X6.78Y-5.29
X6.7974Y-3.38
X6.7974Y-3.53
X6.7974Y-5.36
X6.7974Y-5.51
X6.8228Y-2.8654
X6.8228Y-2.9454
X6.8228Y-3.0254
X6.8228Y-4.8454
X6.8228Y-4.9254
X6.8228Y-5.0054
X6.85Y-2.4604
X6.85Y-4.4404
X6.8939Y-3.1509
X6.8939Y-5.1309
X6.9Y-2.225
X6.9Y-4.205
X6.9035Y-2.8654
X6.9035Y-2.9454
X6.9035Y-3.0254
X6.9035Y-4.8454
X6.9035Y-4.9254
X6.9035Y-5.0054
X7.0025Y-2.3282
X7.0025Y-4.3082
T2
X5.95Y-3.37
X5.95Y-3.47
X7.15Y-3.37
X7.15Y-3.47
X5.05Y-4.55
X5.05Y-4.65
X5.05Y-4.75
X5.05Y-4.85
X5.05Y-4.95
X5.05Y-5.05
X5.05Y-5.15
X5.05Y-5.25
X6.505Y-3.685
X6.605Y-3.685
X6.705Y-3.685
X6.805Y-3.685
X6.905Y-3.685
X5.05Y-4.35
X5.05Y-4.45
X7.15Y-3.17
X7.15Y-3.27
X7.15Y-5.35
X7.15Y-5.45
X5.305Y-5.665
X5.405Y-5.665
X5.505Y-5.665
X5.605Y-5.665
X5.705Y-5.665
X5.95Y-5.15
X5.95Y-5.25
X5.05Y-2.57
X5.05Y-2.67
X5.05Y-2.77
X5.05Y-2.87
X5.05Y-2.97
X5.05Y-3.07
X5.05Y-3.17
X5.05Y-3.27
X6.505Y-5.665
X6.605Y-5.665
X6.705Y-5.665
X6.805Y-5.665
X6.905Y-5.665
X6.25Y-4.55
X6.25Y-4.65
X6.25Y-4.75
X6.25Y-4.85
X6.25Y-4.95
X6.25Y-5.05
X6.25Y-5.15
X6.25Y-5.25
X5.95Y-5.35
X5.95Y-5.45
X5.95Y-3.17
X5.95Y-3.27
X5.95Y-2.57
X5.95Y-2.67
X5.95Y-2.77
X5.95Y-2.87
X5.95Y-2.97
X5.95Y-3.07
X7.15Y-4.55
X7.15Y-4.65
X7.15Y-4.75
X7.15Y-4.85
X7.15Y-4.95
X7.15Y-5.05
X6.25Y-2.37
X6.25Y-2.47
X7.15Y-5.15
X7.15Y-5.25
X6.25Y-3.37
X6.25Y-3.47
X5.05Y-2.37
X5.05Y-2.47
X6.25Y-2.57
X6.25Y-2.67
X6.25Y-2.77
X6.25Y-2.87
X6.25Y-2.97
X6.25Y-3.07
X6.25Y-3.17
X6.25Y-3.27
X6.25Y-4.35
X6.25Y-4.45
X5.95Y-4.55
X5.95Y-4.65
X5.95Y-4.75
X5.95Y-4.85
X5.95Y-4.95
X5.95Y-5.05
X5.305Y-3.685
X5.405Y-3.685
X5.505Y-3.685
X5.605Y-3.685
X5.705Y-3.685
X5.05Y-5.35
X5.05Y-5.45
X5.05Y-3.37
X5.05Y-3.47
X6.25Y-5.35
X6.25Y-5.45
X7.15Y-2.57
X7.15Y-2.67
X7.15Y-2.77
X7.15Y-2.87
X7.15Y-2.97
X7.15Y-3.07
T3
X7.2567Y-4.2485
X7.2567Y-4.28
X7.2567Y-4.3115
X7.3433Y-4.2485
X7.3433Y-4.28
X7.3433Y-4.3115
X6.0567Y-2.2685
X6.0567Y-2.3
X6.0567Y-2.3315
X6.1433Y-2.2685
X6.1433Y-2.3
X6.1433Y-2.3315
X4.8567Y-3.3185
X4.8567Y-3.35
X4.8567Y-3.3815
X4.9433Y-3.3185
X4.9433Y-3.35
X4.9433Y-3.3815
X7.2567Y-5.2985
X7.2567Y-5.33
X7.2567Y-5.3615
X7.3433Y-5.2985
X7.3433Y-5.33
X7.3433Y-5.3615
X7.2567Y-2.2685
X7.2567Y-2.3
X7.2567Y-2.3315
X7.3433Y-2.2685
X7.3433Y-2.3
X7.3433Y-2.3315
X4.8567Y-5.2985
X4.8567Y-5.33
X4.8567Y-5.3615
X4.9433Y-5.2985
X4.9433Y-5.33
X4.9433Y-5.3615
X6.6485Y-3.8067
X6.6485Y-3.8933
X6.68Y-3.8067
X6.68Y-3.8933
X6.7115Y-3.8067
X6.7115Y-3.8933
X5.4485Y-3.8067
X5.4485Y-3.8933
X5.48Y-3.8067
X5.48Y-3.8933
X5.5115Y-3.8067
X5.5115Y-3.8933
X4.8567Y-2.2685
X4.8567Y-2.3
X4.8567Y-2.3315
X4.9433Y-2.2685
X4.9433Y-2.3
X4.9433Y-2.3315
X7.2567Y-3.3185
X7.2567Y-3.35
X7.2567Y-3.3815
X7.3433Y-3.3185
X7.3433Y-3.35
X7.3433Y-3.3815
X6.0567Y-5.2985
X6.0567Y-5.33
X6.0567Y-5.3615
X6.1433Y-5.2985
X6.1433Y-5.33
X6.1433Y-5.3615
X6.0567Y-4.2485
X6.0567Y-4.28
X6.0567Y-4.3115
X6.1433Y-4.2485
X6.1433Y-4.28
X6.1433Y-4.3115
X6.0567Y-3.3185
X6.0567Y-3.35
X6.0567Y-3.3815
X6.1433Y-3.3185
X6.1433Y-3.35
X6.1433Y-3.3815
X4.8567Y-4.2485
X4.8567Y-4.28
X4.8567Y-4.3115
X4.9433Y-4.2485
X4.9433Y-4.28
X4.9433Y-4.3115
T0
M30
