%
M48
METRIC,000.000
T10C0.40
T11C1.00
%
T10
X031477Y040532
X032619Y036653
X032940Y018675
X032940Y016643
X032965Y013725
X033161Y029430
X033168Y027408
X033956Y009966
X034128Y039455
X034596Y021533
X034651Y022920
X034862Y025924
X035002Y036702
X036176Y021650
X037903Y034400
X038461Y013014
X038903Y011236
X038903Y007426
X039549Y024306
X039549Y022274
X039549Y020242
X040239Y034593
X041355Y017055
X041509Y040573
X041598Y024306
X041598Y022274
X041598Y020242
X044113Y037951
X031477Y090532
X032619Y086653
X032940Y068675
X032940Y066643
X032965Y063725
X033161Y079430
X033168Y077408
X033956Y059966
X034128Y089455
X034596Y071533
X034651Y072920
X034862Y075924
X035002Y086702
X036176Y071650
X037903Y084400
X038461Y063014
X038903Y061236
X038903Y057426
X039549Y074306
X039549Y072274
X039549Y070242
X040239Y084593
X041355Y067055
X041509Y090573
X041598Y074306
X041598Y072274
X041598Y070242
X044113Y087951
X062477Y040532
X063619Y036653
X063940Y018675
X063940Y016643
X063965Y013725
X064161Y029430
X064168Y027408
X064956Y009966
X065128Y039455
X065596Y021533
X065651Y022920
X065862Y025924
X066002Y036702
X067176Y021650
X068903Y034400
X069461Y013014
X069903Y011236
X069903Y007426
X070549Y024306
X070549Y022274
X070549Y020242
X071239Y034593
X072355Y017055
X072509Y040573
X072598Y024306
X072598Y022274
X072598Y020242
X075113Y037951
X062477Y090532
X063619Y086653
X063940Y068675
X063940Y066643
X063965Y063725
X064161Y079430
X064168Y077408
X064956Y059966
X065128Y089455
X065596Y071533
X065651Y072920
X065862Y075924
X066002Y086702
X067176Y071650
X068903Y084400
X069461Y063014
X069903Y061236
X069903Y057426
X070549Y074306
X070549Y072274
X070549Y070242
X071239Y084593
X072355Y067055
X072509Y090573
X072598Y074306
X072598Y072274
X072598Y070242
X075113Y087951
T11
X025000Y011490
X025000Y008950
X025000Y031810
X025000Y029269
X025000Y026730
X025000Y024189
X025000Y021650
X025000Y019110
X025000Y016569
X025000Y014030
X025000Y036890
X025000Y034350
X047860Y031810
X047860Y029269
X047860Y026730
X047860Y024189
X047860Y021650
X047860Y019110
X031477Y003489
X034016Y003489
X036556Y003489
X039096Y003489
X041637Y003489
X047860Y011490
X047860Y008950
X047860Y016569
X047860Y014030
X025000Y061490
X025000Y058950
X025000Y081810
X025000Y079270
X025000Y076730
X025000Y074190
X025000Y071650
X025000Y069110
X025000Y066570
X025000Y064030
X025000Y086890
X025000Y084350
X047860Y081810
X047860Y079270
X047860Y076730
X047860Y074190
X047860Y071650
X047860Y069110
X031477Y053489
X034016Y053489
X036556Y053489
X039096Y053489
X041637Y053489
X047860Y061490
X047860Y058950
X047860Y066570
X047860Y064030
X056000Y011490
X056000Y008950
X056000Y031810
X056000Y029269
X056000Y026730
X056000Y024189
X056000Y021650
X056000Y019110
X056000Y016569
X056000Y014030
X056000Y036890
X056000Y034350
X078860Y031810
X078860Y029269
X078860Y026730
X078860Y024189
X078860Y021650
X078860Y019110
X062477Y003489
X065016Y003489
X067556Y003489
X070096Y003489
X072637Y003489
X078860Y011490
X078860Y008950
X078860Y016569
X078860Y014030
X056000Y061490
X056000Y058950
X056000Y081810
X056000Y079270
X056000Y076730
X056000Y074190
X056000Y071650
X056000Y069110
X056000Y066570
X056000Y064030
X056000Y086890
X056000Y084350
X078860Y081810
X078860Y079270
X078860Y076730
X078860Y074190
X078860Y071650
X078860Y069110
X062477Y053489
X065016Y053489
X067556Y053489
X070096Y053489
X072637Y053489
X078860Y061490
X078860Y058950
X078860Y066570
X078860Y064030
M30