%MOIN*%
%OFA0B0*%
%FSLAX46Y46*%
%IPPOS*%
%LPD*%
%ADD10C,0.0039370078740157488*%
%ADD21C,0.0039370078740157488*%
%ADD22C,0.0039370078740157488*%
%ADD23C,0.0039370078740157488*%
D10*
G36*
X0001443600Y0000172577D02*
G01*
X0001446205Y0000172321D01*
X0001452892Y0000170293D01*
X0001459054Y0000166999D01*
X0001460461Y0000165844D01*
X0001464456Y0000162566D01*
X0001467734Y0000158571D01*
X0001468888Y0000157165D01*
X0001472182Y0000151002D01*
X0001474211Y0000144316D01*
X0001474895Y0000137362D01*
X0001474211Y0000130408D01*
X0001472182Y0000123721D01*
X0001468888Y0000117559D01*
X0001467734Y0000116152D01*
X0001464456Y0000112158D01*
X0001460461Y0000108880D01*
X0001459054Y0000107725D01*
X0001452892Y0000104431D01*
X0001446205Y0000102402D01*
X0001443600Y0000102146D01*
X0001440994Y0000101889D01*
X0001437509Y0000101889D01*
X0001434903Y0000102146D01*
X0001432298Y0000102402D01*
X0001425611Y0000104431D01*
X0001419449Y0000107725D01*
X0001418042Y0000108880D01*
X0001414047Y0000112158D01*
X0001410769Y0000116152D01*
X0001409615Y0000117559D01*
X0001406321Y0000123721D01*
X0001404292Y0000130408D01*
X0001403607Y0000137362D01*
X0001404292Y0000144316D01*
X0001406321Y0000151002D01*
X0001409615Y0000157165D01*
X0001410769Y0000158571D01*
X0001414047Y0000162566D01*
X0001418042Y0000165844D01*
X0001419449Y0000166999D01*
X0001425611Y0000170293D01*
X0001432298Y0000172321D01*
X0001434903Y0000172577D01*
X0001437509Y0000172834D01*
X0001440994Y0000172834D01*
X0001443600Y0000172577D01*
X0001443600Y0000172577D01*
G37*
G36*
X0001343600Y0000172577D02*
G01*
X0001346205Y0000172321D01*
X0001352892Y0000170293D01*
X0001359054Y0000166999D01*
X0001360461Y0000165844D01*
X0001364456Y0000162566D01*
X0001367734Y0000158571D01*
X0001368888Y0000157165D01*
X0001372182Y0000151002D01*
X0001374211Y0000144316D01*
X0001374896Y0000137362D01*
X0001374211Y0000130408D01*
X0001372182Y0000123721D01*
X0001368888Y0000117559D01*
X0001367734Y0000116152D01*
X0001364456Y0000112158D01*
X0001360461Y0000108880D01*
X0001359054Y0000107725D01*
X0001352892Y0000104431D01*
X0001346205Y0000102402D01*
X0001343600Y0000102146D01*
X0001340994Y0000101889D01*
X0001337509Y0000101889D01*
X0001334903Y0000102146D01*
X0001332298Y0000102402D01*
X0001325611Y0000104431D01*
X0001319449Y0000107725D01*
X0001318042Y0000108880D01*
X0001314047Y0000112158D01*
X0001310769Y0000116152D01*
X0001309615Y0000117559D01*
X0001306321Y0000123721D01*
X0001304292Y0000130408D01*
X0001303607Y0000137362D01*
X0001304292Y0000144316D01*
X0001306321Y0000151002D01*
X0001309615Y0000157165D01*
X0001310769Y0000158571D01*
X0001314047Y0000162566D01*
X0001318042Y0000165844D01*
X0001319449Y0000166999D01*
X0001325611Y0000170293D01*
X0001332298Y0000172321D01*
X0001334903Y0000172577D01*
X0001337509Y0000172834D01*
X0001340994Y0000172834D01*
X0001343600Y0000172577D01*
X0001343600Y0000172577D01*
G37*
G36*
X0001243600Y0000172577D02*
G01*
X0001246205Y0000172321D01*
X0001252892Y0000170293D01*
X0001259054Y0000166999D01*
X0001260461Y0000165844D01*
X0001264456Y0000162566D01*
X0001267734Y0000158571D01*
X0001268888Y0000157165D01*
X0001272182Y0000151002D01*
X0001274211Y0000144316D01*
X0001274896Y0000137362D01*
X0001274211Y0000130408D01*
X0001272182Y0000123721D01*
X0001268888Y0000117559D01*
X0001267734Y0000116152D01*
X0001264456Y0000112158D01*
X0001260461Y0000108880D01*
X0001259054Y0000107725D01*
X0001252892Y0000104431D01*
X0001246205Y0000102402D01*
X0001243600Y0000102146D01*
X0001240994Y0000101889D01*
X0001237509Y0000101889D01*
X0001234903Y0000102146D01*
X0001232298Y0000102402D01*
X0001225611Y0000104431D01*
X0001219449Y0000107725D01*
X0001218042Y0000108880D01*
X0001214047Y0000112158D01*
X0001210769Y0000116152D01*
X0001209615Y0000117559D01*
X0001206321Y0000123721D01*
X0001204292Y0000130408D01*
X0001203607Y0000137362D01*
X0001204292Y0000144316D01*
X0001206321Y0000151002D01*
X0001209615Y0000157165D01*
X0001210769Y0000158571D01*
X0001214047Y0000162566D01*
X0001218042Y0000165844D01*
X0001219449Y0000166999D01*
X0001225611Y0000170293D01*
X0001232298Y0000172321D01*
X0001234903Y0000172577D01*
X0001237509Y0000172834D01*
X0001240994Y0000172834D01*
X0001243600Y0000172577D01*
X0001243600Y0000172577D01*
G37*
G36*
X0001674724Y0000101889D02*
G01*
X0001603779Y0000101889D01*
X0001603779Y0000172834D01*
X0001674724Y0000172834D01*
X0001674724Y0000101889D01*
X0001674724Y0000101889D01*
G37*
G36*
X0001543600Y0000172577D02*
G01*
X0001546205Y0000172321D01*
X0001552892Y0000170293D01*
X0001559054Y0000166999D01*
X0001560461Y0000165844D01*
X0001564456Y0000162566D01*
X0001567734Y0000158571D01*
X0001568888Y0000157165D01*
X0001572182Y0000151002D01*
X0001574211Y0000144316D01*
X0001574896Y0000137362D01*
X0001574211Y0000130408D01*
X0001572182Y0000123721D01*
X0001568888Y0000117559D01*
X0001567734Y0000116152D01*
X0001564456Y0000112158D01*
X0001560461Y0000108880D01*
X0001559054Y0000107725D01*
X0001552892Y0000104431D01*
X0001546205Y0000102402D01*
X0001543600Y0000102146D01*
X0001540994Y0000101889D01*
X0001537509Y0000101889D01*
X0001534903Y0000102146D01*
X0001532298Y0000102402D01*
X0001525611Y0000104431D01*
X0001519449Y0000107725D01*
X0001518042Y0000108880D01*
X0001514047Y0000112158D01*
X0001510769Y0000116152D01*
X0001509615Y0000117559D01*
X0001506321Y0000123721D01*
X0001504292Y0000130408D01*
X0001503607Y0000137362D01*
X0001504292Y0000144316D01*
X0001506321Y0000151002D01*
X0001509615Y0000157165D01*
X0001510769Y0000158571D01*
X0001514047Y0000162566D01*
X0001518042Y0000165844D01*
X0001519449Y0000166999D01*
X0001525611Y0000170293D01*
X0001532298Y0000172321D01*
X0001534903Y0000172577D01*
X0001537509Y0000172834D01*
X0001540994Y0000172834D01*
X0001543600Y0000172577D01*
X0001543600Y0000172577D01*
G37*
G36*
X0001888600Y0000387577D02*
G01*
X0001891205Y0000387321D01*
X0001897892Y0000385292D01*
X0001904054Y0000381999D01*
X0001905461Y0000380844D01*
X0001909456Y0000377566D01*
X0001912734Y0000373572D01*
X0001913888Y0000372164D01*
X0001917182Y0000366002D01*
X0001919211Y0000359316D01*
X0001919895Y0000352362D01*
X0001919211Y0000345408D01*
X0001917182Y0000338721D01*
X0001913888Y0000332559D01*
X0001912734Y0000331152D01*
X0001909456Y0000327157D01*
X0001905461Y0000323879D01*
X0001904054Y0000322725D01*
X0001897892Y0000319431D01*
X0001891205Y0000317403D01*
X0001888600Y0000317146D01*
X0001885994Y0000316889D01*
X0001882509Y0000316889D01*
X0001879903Y0000317146D01*
X0001877298Y0000317403D01*
X0001870611Y0000319431D01*
X0001864449Y0000322725D01*
X0001863042Y0000323879D01*
X0001859047Y0000327157D01*
X0001855769Y0000331152D01*
X0001854615Y0000332559D01*
X0001851321Y0000338721D01*
X0001849292Y0000345408D01*
X0001848607Y0000352362D01*
X0001849292Y0000359316D01*
X0001851321Y0000366002D01*
X0001854615Y0000372164D01*
X0001855769Y0000373572D01*
X0001859047Y0000377566D01*
X0001863042Y0000380844D01*
X0001864449Y0000381999D01*
X0001870611Y0000385292D01*
X0001877298Y0000387321D01*
X0001879903Y0000387577D01*
X0001882509Y0000387834D01*
X0001885994Y0000387834D01*
X0001888600Y0000387577D01*
X0001888600Y0000387577D01*
G37*
G36*
X0000988600Y0000387577D02*
G01*
X0000991205Y0000387321D01*
X0000997892Y0000385292D01*
X0001004054Y0000381999D01*
X0001005461Y0000380844D01*
X0001009456Y0000377566D01*
X0001012734Y0000373572D01*
X0001013888Y0000372164D01*
X0001017182Y0000366002D01*
X0001019211Y0000359316D01*
X0001019896Y0000352362D01*
X0001019211Y0000345408D01*
X0001017182Y0000338721D01*
X0001013888Y0000332559D01*
X0001012734Y0000331152D01*
X0001009456Y0000327157D01*
X0001005461Y0000323879D01*
X0001004054Y0000322725D01*
X0000997892Y0000319431D01*
X0000991205Y0000317403D01*
X0000988600Y0000317146D01*
X0000985994Y0000316889D01*
X0000982509Y0000316889D01*
X0000979903Y0000317146D01*
X0000977298Y0000317403D01*
X0000970611Y0000319431D01*
X0000964449Y0000322725D01*
X0000963042Y0000323879D01*
X0000959047Y0000327157D01*
X0000955769Y0000331152D01*
X0000954615Y0000332559D01*
X0000951321Y0000338721D01*
X0000949292Y0000345408D01*
X0000948607Y0000352362D01*
X0000949292Y0000359316D01*
X0000951321Y0000366002D01*
X0000954615Y0000372164D01*
X0000955769Y0000373572D01*
X0000959047Y0000377566D01*
X0000963042Y0000380844D01*
X0000964449Y0000381999D01*
X0000970611Y0000385292D01*
X0000977298Y0000387321D01*
X0000979903Y0000387577D01*
X0000982509Y0000387834D01*
X0000985994Y0000387834D01*
X0000988600Y0000387577D01*
X0000988600Y0000387577D01*
G37*
G36*
X0001019724Y0000416889D02*
G01*
X0000948779Y0000416889D01*
X0000948779Y0000487834D01*
X0001019724Y0000487834D01*
X0001019724Y0000416889D01*
X0001019724Y0000416889D01*
G37*
G36*
X0001919724Y0000416889D02*
G01*
X0001848779Y0000416889D01*
X0001848779Y0000487834D01*
X0001919724Y0000487834D01*
X0001919724Y0000416889D01*
X0001919724Y0000416889D01*
G37*
G36*
X0001019724Y0000516889D02*
G01*
X0000948779Y0000516889D01*
X0000948779Y0000587834D01*
X0001019724Y0000587834D01*
X0001019724Y0000516889D01*
X0001019724Y0000516889D01*
G37*
G36*
X0001888600Y0000587577D02*
G01*
X0001891205Y0000587321D01*
X0001897892Y0000585293D01*
X0001904054Y0000581999D01*
X0001905461Y0000580844D01*
X0001909456Y0000577566D01*
X0001912734Y0000573571D01*
X0001913888Y0000572165D01*
X0001917182Y0000566002D01*
X0001919211Y0000559315D01*
X0001919895Y0000552362D01*
X0001919211Y0000545408D01*
X0001917182Y0000538721D01*
X0001913888Y0000532559D01*
X0001912734Y0000531152D01*
X0001909456Y0000527158D01*
X0001905461Y0000523880D01*
X0001904054Y0000522725D01*
X0001897892Y0000519431D01*
X0001891205Y0000517402D01*
X0001888600Y0000517146D01*
X0001885994Y0000516889D01*
X0001882509Y0000516889D01*
X0001879903Y0000517146D01*
X0001877298Y0000517402D01*
X0001870611Y0000519431D01*
X0001864449Y0000522725D01*
X0001863042Y0000523880D01*
X0001859047Y0000527158D01*
X0001855769Y0000531152D01*
X0001854615Y0000532559D01*
X0001851321Y0000538721D01*
X0001849292Y0000545408D01*
X0001848607Y0000552362D01*
X0001849292Y0000559315D01*
X0001851321Y0000566002D01*
X0001854615Y0000572165D01*
X0001855769Y0000573571D01*
X0001859047Y0000577566D01*
X0001863042Y0000580844D01*
X0001864449Y0000581999D01*
X0001870611Y0000585293D01*
X0001877298Y0000587321D01*
X0001879903Y0000587577D01*
X0001882509Y0000587834D01*
X0001885994Y0000587834D01*
X0001888600Y0000587577D01*
X0001888600Y0000587577D01*
G37*
G36*
X0000988600Y0000687577D02*
G01*
X0000991205Y0000687321D01*
X0000997892Y0000685292D01*
X0001004054Y0000681999D01*
X0001005461Y0000680844D01*
X0001009456Y0000677566D01*
X0001012734Y0000673572D01*
X0001013888Y0000672165D01*
X0001017182Y0000666002D01*
X0001019211Y0000659315D01*
X0001019896Y0000652362D01*
X0001019211Y0000645408D01*
X0001017182Y0000638721D01*
X0001013888Y0000632559D01*
X0001012734Y0000631152D01*
X0001009456Y0000627157D01*
X0001005461Y0000623880D01*
X0001004054Y0000622725D01*
X0000997892Y0000619431D01*
X0000991205Y0000617403D01*
X0000988600Y0000617146D01*
X0000985994Y0000616889D01*
X0000982509Y0000616889D01*
X0000979903Y0000617146D01*
X0000977298Y0000617403D01*
X0000970611Y0000619431D01*
X0000964449Y0000622725D01*
X0000963042Y0000623880D01*
X0000959047Y0000627157D01*
X0000955769Y0000631152D01*
X0000954615Y0000632559D01*
X0000951321Y0000638721D01*
X0000949292Y0000645408D01*
X0000948607Y0000652362D01*
X0000949292Y0000659315D01*
X0000951321Y0000666002D01*
X0000954615Y0000672165D01*
X0000955769Y0000673572D01*
X0000959047Y0000677566D01*
X0000963042Y0000680844D01*
X0000964449Y0000681999D01*
X0000970611Y0000685292D01*
X0000977298Y0000687321D01*
X0000979903Y0000687577D01*
X0000982509Y0000687834D01*
X0000985994Y0000687834D01*
X0000988600Y0000687577D01*
X0000988600Y0000687577D01*
G37*
G36*
X0001919724Y0000616889D02*
G01*
X0001848779Y0000616889D01*
X0001848779Y0000687834D01*
X0001919724Y0000687834D01*
X0001919724Y0000616889D01*
X0001919724Y0000616889D01*
G37*
G36*
X0000988600Y0000787577D02*
G01*
X0000991205Y0000787321D01*
X0000997892Y0000785292D01*
X0001004054Y0000781999D01*
X0001005461Y0000780844D01*
X0001009456Y0000777566D01*
X0001012734Y0000773572D01*
X0001013888Y0000772164D01*
X0001017182Y0000766002D01*
X0001019211Y0000759316D01*
X0001019896Y0000752362D01*
X0001019211Y0000745408D01*
X0001017182Y0000738721D01*
X0001013888Y0000732559D01*
X0001012734Y0000731152D01*
X0001009456Y0000727158D01*
X0001005461Y0000723879D01*
X0001004054Y0000722725D01*
X0000997892Y0000719431D01*
X0000991205Y0000717403D01*
X0000988600Y0000717146D01*
X0000985994Y0000716889D01*
X0000982509Y0000716889D01*
X0000979903Y0000717146D01*
X0000977298Y0000717403D01*
X0000970611Y0000719431D01*
X0000964449Y0000722725D01*
X0000963042Y0000723879D01*
X0000959047Y0000727158D01*
X0000955769Y0000731152D01*
X0000954615Y0000732559D01*
X0000951321Y0000738721D01*
X0000949292Y0000745408D01*
X0000948607Y0000752362D01*
X0000949292Y0000759316D01*
X0000951321Y0000766002D01*
X0000954615Y0000772164D01*
X0000955769Y0000773572D01*
X0000959047Y0000777566D01*
X0000963042Y0000780844D01*
X0000964449Y0000781999D01*
X0000970611Y0000785292D01*
X0000977298Y0000787321D01*
X0000979903Y0000787577D01*
X0000982509Y0000787834D01*
X0000985994Y0000787834D01*
X0000988600Y0000787577D01*
X0000988600Y0000787577D01*
G37*
G36*
X0001919724Y0000716889D02*
G01*
X0001848779Y0000716889D01*
X0001848779Y0000787834D01*
X0001919724Y0000787834D01*
X0001919724Y0000716889D01*
X0001919724Y0000716889D01*
G37*
G36*
X0000988600Y0000887577D02*
G01*
X0000991205Y0000887321D01*
X0000997892Y0000885293D01*
X0001004054Y0000881999D01*
X0001005461Y0000880844D01*
X0001009456Y0000877566D01*
X0001012734Y0000873571D01*
X0001013888Y0000872164D01*
X0001017182Y0000866002D01*
X0001019211Y0000859316D01*
X0001019896Y0000852362D01*
X0001019211Y0000845408D01*
X0001017182Y0000838721D01*
X0001013888Y0000832559D01*
X0001012734Y0000831152D01*
X0001009456Y0000827158D01*
X0001005461Y0000823879D01*
X0001004054Y0000822725D01*
X0000997892Y0000819431D01*
X0000991205Y0000817402D01*
X0000988600Y0000817146D01*
X0000985994Y0000816889D01*
X0000982509Y0000816889D01*
X0000979903Y0000817146D01*
X0000977298Y0000817402D01*
X0000970611Y0000819431D01*
X0000964449Y0000822725D01*
X0000963042Y0000823879D01*
X0000959047Y0000827158D01*
X0000955769Y0000831152D01*
X0000954615Y0000832559D01*
X0000951321Y0000838721D01*
X0000949292Y0000845408D01*
X0000948607Y0000852362D01*
X0000949292Y0000859316D01*
X0000951321Y0000866002D01*
X0000954615Y0000872164D01*
X0000955769Y0000873571D01*
X0000959047Y0000877566D01*
X0000963042Y0000880844D01*
X0000964449Y0000881999D01*
X0000970611Y0000885293D01*
X0000977298Y0000887321D01*
X0000979903Y0000887577D01*
X0000982509Y0000887834D01*
X0000985994Y0000887834D01*
X0000988600Y0000887577D01*
X0000988600Y0000887577D01*
G37*
G36*
X0001888600Y0000887577D02*
G01*
X0001891205Y0000887321D01*
X0001897892Y0000885293D01*
X0001904054Y0000881999D01*
X0001905461Y0000880844D01*
X0001909456Y0000877566D01*
X0001912734Y0000873571D01*
X0001913888Y0000872164D01*
X0001917182Y0000866002D01*
X0001919211Y0000859316D01*
X0001919895Y0000852362D01*
X0001919211Y0000845408D01*
X0001917182Y0000838721D01*
X0001913888Y0000832559D01*
X0001912734Y0000831152D01*
X0001909456Y0000827158D01*
X0001905461Y0000823879D01*
X0001904054Y0000822725D01*
X0001897892Y0000819431D01*
X0001891205Y0000817402D01*
X0001888600Y0000817146D01*
X0001885994Y0000816889D01*
X0001882509Y0000816889D01*
X0001879903Y0000817146D01*
X0001877298Y0000817402D01*
X0001870611Y0000819431D01*
X0001864449Y0000822725D01*
X0001863042Y0000823879D01*
X0001859047Y0000827158D01*
X0001855769Y0000831152D01*
X0001854615Y0000832559D01*
X0001851321Y0000838721D01*
X0001849292Y0000845408D01*
X0001848607Y0000852362D01*
X0001849292Y0000859316D01*
X0001851321Y0000866002D01*
X0001854615Y0000872164D01*
X0001855769Y0000873571D01*
X0001859047Y0000877566D01*
X0001863042Y0000880844D01*
X0001864449Y0000881999D01*
X0001870611Y0000885293D01*
X0001877298Y0000887321D01*
X0001879903Y0000887577D01*
X0001882509Y0000887834D01*
X0001885994Y0000887834D01*
X0001888600Y0000887577D01*
X0001888600Y0000887577D01*
G37*
G36*
X0000988600Y0000987578D02*
G01*
X0000991205Y0000987321D01*
X0000997892Y0000985293D01*
X0001004054Y0000981999D01*
X0001005461Y0000980844D01*
X0001009456Y0000977566D01*
X0001012734Y0000973571D01*
X0001013888Y0000972165D01*
X0001017182Y0000966002D01*
X0001019211Y0000959315D01*
X0001019896Y0000952362D01*
X0001019211Y0000945408D01*
X0001017182Y0000938721D01*
X0001013888Y0000932559D01*
X0001012734Y0000931152D01*
X0001009456Y0000927157D01*
X0001005461Y0000923880D01*
X0001004054Y0000922725D01*
X0000997892Y0000919431D01*
X0000991205Y0000917403D01*
X0000988600Y0000917146D01*
X0000985994Y0000916889D01*
X0000982509Y0000916889D01*
X0000979903Y0000917146D01*
X0000977298Y0000917403D01*
X0000970611Y0000919431D01*
X0000964449Y0000922725D01*
X0000963042Y0000923880D01*
X0000959047Y0000927157D01*
X0000955769Y0000931152D01*
X0000954615Y0000932559D01*
X0000951321Y0000938721D01*
X0000949292Y0000945408D01*
X0000948607Y0000952362D01*
X0000949292Y0000959315D01*
X0000951321Y0000966002D01*
X0000954615Y0000972165D01*
X0000955769Y0000973571D01*
X0000959047Y0000977566D01*
X0000963042Y0000980844D01*
X0000964449Y0000981999D01*
X0000970611Y0000985293D01*
X0000977298Y0000987321D01*
X0000979903Y0000987578D01*
X0000982509Y0000987834D01*
X0000985994Y0000987834D01*
X0000988600Y0000987578D01*
X0000988600Y0000987578D01*
G37*
G36*
X0001888600Y0000987578D02*
G01*
X0001891205Y0000987321D01*
X0001897892Y0000985293D01*
X0001904054Y0000981999D01*
X0001905461Y0000980844D01*
X0001909456Y0000977566D01*
X0001912734Y0000973571D01*
X0001913888Y0000972165D01*
X0001917182Y0000966002D01*
X0001919211Y0000959315D01*
X0001919895Y0000952362D01*
X0001919211Y0000945408D01*
X0001917182Y0000938721D01*
X0001913888Y0000932559D01*
X0001912734Y0000931152D01*
X0001909456Y0000927157D01*
X0001905461Y0000923880D01*
X0001904054Y0000922725D01*
X0001897892Y0000919431D01*
X0001891205Y0000917403D01*
X0001888600Y0000917146D01*
X0001885994Y0000916889D01*
X0001882509Y0000916889D01*
X0001879903Y0000917146D01*
X0001877298Y0000917403D01*
X0001870611Y0000919431D01*
X0001864449Y0000922725D01*
X0001863042Y0000923880D01*
X0001859047Y0000927157D01*
X0001855769Y0000931152D01*
X0001854615Y0000932559D01*
X0001851321Y0000938721D01*
X0001849292Y0000945408D01*
X0001848607Y0000952362D01*
X0001849292Y0000959315D01*
X0001851321Y0000966002D01*
X0001854615Y0000972165D01*
X0001855769Y0000973571D01*
X0001859047Y0000977566D01*
X0001863042Y0000980844D01*
X0001864449Y0000981999D01*
X0001870611Y0000985293D01*
X0001877298Y0000987321D01*
X0001879903Y0000987578D01*
X0001882509Y0000987834D01*
X0001885994Y0000987834D01*
X0001888600Y0000987578D01*
X0001888600Y0000987578D01*
G37*
G36*
X0000988600Y0001087578D02*
G01*
X0000991205Y0001087321D01*
X0000997892Y0001085293D01*
X0001004054Y0001081999D01*
X0001005461Y0001080844D01*
X0001009456Y0001077566D01*
X0001012734Y0001073571D01*
X0001013888Y0001072165D01*
X0001017182Y0001066002D01*
X0001019211Y0001059315D01*
X0001019896Y0001052362D01*
X0001019211Y0001045408D01*
X0001017182Y0001038721D01*
X0001013888Y0001032559D01*
X0001012734Y0001031152D01*
X0001009456Y0001027157D01*
X0001005461Y0001023880D01*
X0001004054Y0001022725D01*
X0000997892Y0001019431D01*
X0000991205Y0001017403D01*
X0000988600Y0001017146D01*
X0000985994Y0001016889D01*
X0000982509Y0001016889D01*
X0000979903Y0001017146D01*
X0000977298Y0001017403D01*
X0000970611Y0001019431D01*
X0000964449Y0001022725D01*
X0000963042Y0001023880D01*
X0000959047Y0001027157D01*
X0000955769Y0001031152D01*
X0000954615Y0001032559D01*
X0000951321Y0001038721D01*
X0000949292Y0001045408D01*
X0000948607Y0001052362D01*
X0000949292Y0001059315D01*
X0000951321Y0001066002D01*
X0000954615Y0001072165D01*
X0000955769Y0001073571D01*
X0000959047Y0001077566D01*
X0000963042Y0001080844D01*
X0000964449Y0001081999D01*
X0000970611Y0001085293D01*
X0000977298Y0001087321D01*
X0000979903Y0001087578D01*
X0000982509Y0001087834D01*
X0000985994Y0001087834D01*
X0000988600Y0001087578D01*
X0000988600Y0001087578D01*
G37*
G36*
X0001888600Y0001087578D02*
G01*
X0001891205Y0001087321D01*
X0001897892Y0001085293D01*
X0001904054Y0001081999D01*
X0001905461Y0001080844D01*
X0001909456Y0001077566D01*
X0001912734Y0001073571D01*
X0001913888Y0001072165D01*
X0001917182Y0001066002D01*
X0001919211Y0001059315D01*
X0001919895Y0001052362D01*
X0001919211Y0001045408D01*
X0001917182Y0001038721D01*
X0001913888Y0001032559D01*
X0001912734Y0001031152D01*
X0001909456Y0001027157D01*
X0001905461Y0001023880D01*
X0001904054Y0001022725D01*
X0001897892Y0001019431D01*
X0001891205Y0001017403D01*
X0001888600Y0001017146D01*
X0001885994Y0001016889D01*
X0001882509Y0001016889D01*
X0001879903Y0001017146D01*
X0001877298Y0001017403D01*
X0001870611Y0001019431D01*
X0001864449Y0001022725D01*
X0001863042Y0001023880D01*
X0001859047Y0001027157D01*
X0001855769Y0001031152D01*
X0001854615Y0001032559D01*
X0001851321Y0001038721D01*
X0001849292Y0001045408D01*
X0001848607Y0001052362D01*
X0001849292Y0001059315D01*
X0001851321Y0001066002D01*
X0001854615Y0001072165D01*
X0001855769Y0001073571D01*
X0001859047Y0001077566D01*
X0001863042Y0001080844D01*
X0001864449Y0001081999D01*
X0001870611Y0001085293D01*
X0001877298Y0001087321D01*
X0001879903Y0001087578D01*
X0001882509Y0001087834D01*
X0001885994Y0001087834D01*
X0001888600Y0001087578D01*
X0001888600Y0001087578D01*
G37*
G36*
X0000988600Y0001187577D02*
G01*
X0000991205Y0001187321D01*
X0000997892Y0001185293D01*
X0001004054Y0001181999D01*
X0001005461Y0001180844D01*
X0001009456Y0001177566D01*
X0001012734Y0001173572D01*
X0001013888Y0001172165D01*
X0001017182Y0001166002D01*
X0001019211Y0001159316D01*
X0001019896Y0001152362D01*
X0001019211Y0001145408D01*
X0001017182Y0001138721D01*
X0001013888Y0001132559D01*
X0001012734Y0001131152D01*
X0001009456Y0001127157D01*
X0001005461Y0001123880D01*
X0001004054Y0001122725D01*
X0000997892Y0001119431D01*
X0000991205Y0001117402D01*
X0000988600Y0001117146D01*
X0000985994Y0001116889D01*
X0000982509Y0001116889D01*
X0000979903Y0001117146D01*
X0000977298Y0001117402D01*
X0000970611Y0001119431D01*
X0000964449Y0001122725D01*
X0000963042Y0001123880D01*
X0000959047Y0001127157D01*
X0000955769Y0001131152D01*
X0000954615Y0001132559D01*
X0000951321Y0001138721D01*
X0000949292Y0001145408D01*
X0000948607Y0001152362D01*
X0000949292Y0001159316D01*
X0000951321Y0001166002D01*
X0000954615Y0001172165D01*
X0000955769Y0001173572D01*
X0000959047Y0001177566D01*
X0000963042Y0001180844D01*
X0000964449Y0001181999D01*
X0000970611Y0001185293D01*
X0000977298Y0001187321D01*
X0000979903Y0001187577D01*
X0000982509Y0001187834D01*
X0000985994Y0001187834D01*
X0000988600Y0001187577D01*
X0000988600Y0001187577D01*
G37*
G36*
X0001888600Y0001187577D02*
G01*
X0001891205Y0001187321D01*
X0001897892Y0001185293D01*
X0001904054Y0001181999D01*
X0001905461Y0001180844D01*
X0001909456Y0001177566D01*
X0001912734Y0001173572D01*
X0001913888Y0001172165D01*
X0001917182Y0001166002D01*
X0001919211Y0001159316D01*
X0001919895Y0001152362D01*
X0001919211Y0001145408D01*
X0001917182Y0001138721D01*
X0001913888Y0001132559D01*
X0001912734Y0001131152D01*
X0001909456Y0001127157D01*
X0001905461Y0001123880D01*
X0001904054Y0001122725D01*
X0001897892Y0001119431D01*
X0001891205Y0001117402D01*
X0001888600Y0001117146D01*
X0001885994Y0001116889D01*
X0001882509Y0001116889D01*
X0001879903Y0001117146D01*
X0001877298Y0001117402D01*
X0001870611Y0001119431D01*
X0001864449Y0001122725D01*
X0001863042Y0001123880D01*
X0001859047Y0001127157D01*
X0001855769Y0001131152D01*
X0001854615Y0001132559D01*
X0001851321Y0001138721D01*
X0001849292Y0001145408D01*
X0001848607Y0001152362D01*
X0001849292Y0001159316D01*
X0001851321Y0001166002D01*
X0001854615Y0001172165D01*
X0001855769Y0001173572D01*
X0001859047Y0001177566D01*
X0001863042Y0001180844D01*
X0001864449Y0001181999D01*
X0001870611Y0001185293D01*
X0001877298Y0001187321D01*
X0001879903Y0001187577D01*
X0001882509Y0001187834D01*
X0001885994Y0001187834D01*
X0001888600Y0001187577D01*
X0001888600Y0001187577D01*
G37*
G36*
X0001888600Y0001287577D02*
G01*
X0001891205Y0001287321D01*
X0001897892Y0001285293D01*
X0001904054Y0001281999D01*
X0001905461Y0001280844D01*
X0001909456Y0001277566D01*
X0001912734Y0001273572D01*
X0001913888Y0001272164D01*
X0001917182Y0001266002D01*
X0001919211Y0001259316D01*
X0001919895Y0001252362D01*
X0001919211Y0001245408D01*
X0001917182Y0001238721D01*
X0001913888Y0001232559D01*
X0001912734Y0001231152D01*
X0001909456Y0001227158D01*
X0001905461Y0001223879D01*
X0001904054Y0001222725D01*
X0001897892Y0001219431D01*
X0001891205Y0001217403D01*
X0001888600Y0001217146D01*
X0001885994Y0001216889D01*
X0001882509Y0001216889D01*
X0001879903Y0001217146D01*
X0001877298Y0001217403D01*
X0001870611Y0001219431D01*
X0001864449Y0001222725D01*
X0001863042Y0001223879D01*
X0001859047Y0001227158D01*
X0001855769Y0001231152D01*
X0001854615Y0001232559D01*
X0001851321Y0001238721D01*
X0001849292Y0001245408D01*
X0001848607Y0001252362D01*
X0001849292Y0001259316D01*
X0001851321Y0001266002D01*
X0001854615Y0001272164D01*
X0001855769Y0001273572D01*
X0001859047Y0001277566D01*
X0001863042Y0001280844D01*
X0001864449Y0001281999D01*
X0001870611Y0001285293D01*
X0001877298Y0001287321D01*
X0001879903Y0001287577D01*
X0001882509Y0001287834D01*
X0001885994Y0001287834D01*
X0001888600Y0001287577D01*
X0001888600Y0001287577D01*
G37*
G36*
X0000988600Y0001287577D02*
G01*
X0000991205Y0001287321D01*
X0000997892Y0001285293D01*
X0001004054Y0001281999D01*
X0001005461Y0001280844D01*
X0001009456Y0001277566D01*
X0001012734Y0001273572D01*
X0001013888Y0001272164D01*
X0001017182Y0001266002D01*
X0001019211Y0001259316D01*
X0001019896Y0001252362D01*
X0001019211Y0001245408D01*
X0001017182Y0001238721D01*
X0001013888Y0001232559D01*
X0001012734Y0001231152D01*
X0001009456Y0001227158D01*
X0001005461Y0001223879D01*
X0001004054Y0001222725D01*
X0000997892Y0001219431D01*
X0000991205Y0001217403D01*
X0000988600Y0001217146D01*
X0000985994Y0001216889D01*
X0000982509Y0001216889D01*
X0000979903Y0001217146D01*
X0000977298Y0001217403D01*
X0000970611Y0001219431D01*
X0000964449Y0001222725D01*
X0000963042Y0001223879D01*
X0000959047Y0001227158D01*
X0000955769Y0001231152D01*
X0000954615Y0001232559D01*
X0000951321Y0001238721D01*
X0000949292Y0001245408D01*
X0000948607Y0001252362D01*
X0000949292Y0001259316D01*
X0000951321Y0001266002D01*
X0000954615Y0001272164D01*
X0000955769Y0001273572D01*
X0000959047Y0001277566D01*
X0000963042Y0001280844D01*
X0000964449Y0001281999D01*
X0000970611Y0001285293D01*
X0000977298Y0001287321D01*
X0000979903Y0001287577D01*
X0000982509Y0001287834D01*
X0000985994Y0001287834D01*
X0000988600Y0001287577D01*
X0000988600Y0001287577D01*
G37*
G36*
X0001019724Y0001316889D02*
G01*
X0000948779Y0001316889D01*
X0000948779Y0001387834D01*
X0001019724Y0001387834D01*
X0001019724Y0001316889D01*
X0001019724Y0001316889D01*
G37*
G36*
X0000988600Y0001487577D02*
G01*
X0000991205Y0001487321D01*
X0000997892Y0001485293D01*
X0001004054Y0001481999D01*
X0001005461Y0001480844D01*
X0001009456Y0001477566D01*
X0001012734Y0001473572D01*
X0001013888Y0001472164D01*
X0001017182Y0001466002D01*
X0001019211Y0001459316D01*
X0001019896Y0001452362D01*
X0001019211Y0001445408D01*
X0001017182Y0001438721D01*
X0001013888Y0001432559D01*
X0001012734Y0001431152D01*
X0001009456Y0001427158D01*
X0001005461Y0001423879D01*
X0001004054Y0001422725D01*
X0000997892Y0001419431D01*
X0000991205Y0001417403D01*
X0000988600Y0001417146D01*
X0000985994Y0001416889D01*
X0000982509Y0001416889D01*
X0000979903Y0001417146D01*
X0000977298Y0001417403D01*
X0000970611Y0001419431D01*
X0000964449Y0001422725D01*
X0000963042Y0001423879D01*
X0000959047Y0001427158D01*
X0000955769Y0001431152D01*
X0000954615Y0001432559D01*
X0000951321Y0001438721D01*
X0000949292Y0001445408D01*
X0000948607Y0001452362D01*
X0000949292Y0001459316D01*
X0000951321Y0001466002D01*
X0000954615Y0001472164D01*
X0000955769Y0001473572D01*
X0000959047Y0001477566D01*
X0000963042Y0001480844D01*
X0000964449Y0001481999D01*
X0000970611Y0001485293D01*
X0000977298Y0001487321D01*
X0000979903Y0001487577D01*
X0000982509Y0001487834D01*
X0000985994Y0001487834D01*
X0000988600Y0001487577D01*
X0000988600Y0001487577D01*
G37*
G04 next file*
G04 #@! TF.GenerationSoftware,KiCad,Pcbnew,(5.1.4)-1*
G04 #@! TF.CreationDate,2020-10-29T21:44:13+08:00*
G04 #@! TF.ProjectId,custom_microcontroller,63757374-6f6d-45f6-9d69-63726f636f6e,rev?*
G04 #@! TF.SameCoordinates,Original*
G04 #@! TF.FileFunction,Soldermask,Bot*
G04 #@! TF.FilePolarity,Negative*
G04 Gerber Fmt 4.6, Leading zero omitted, Abs format (unit mm)*
G04 Created by KiCad (PCBNEW (5.1.4)-1) date 2020-10-29 21:44:13*
G04 APERTURE LIST*
G04 APERTURE END LIST*
D21*
G36*
X0001443600Y0002141081D02*
G01*
X0001446205Y0002140825D01*
X0001452892Y0002138796D01*
X0001459054Y0002135503D01*
X0001460461Y0002134348D01*
X0001464456Y0002131070D01*
X0001467734Y0002127075D01*
X0001468888Y0002125668D01*
X0001472182Y0002119506D01*
X0001474211Y0002112819D01*
X0001474895Y0002105866D01*
X0001474211Y0002098912D01*
X0001472182Y0002092225D01*
X0001468888Y0002086063D01*
X0001467734Y0002084656D01*
X0001464456Y0002080661D01*
X0001460461Y0002077383D01*
X0001459054Y0002076229D01*
X0001452892Y0002072935D01*
X0001446205Y0002070906D01*
X0001443600Y0002070650D01*
X0001440994Y0002070393D01*
X0001437509Y0002070393D01*
X0001434903Y0002070650D01*
X0001432298Y0002070906D01*
X0001425611Y0002072935D01*
X0001419449Y0002076229D01*
X0001418042Y0002077383D01*
X0001414047Y0002080661D01*
X0001410769Y0002084656D01*
X0001409615Y0002086063D01*
X0001406321Y0002092225D01*
X0001404292Y0002098912D01*
X0001403607Y0002105866D01*
X0001404292Y0002112819D01*
X0001406321Y0002119506D01*
X0001409615Y0002125668D01*
X0001410769Y0002127075D01*
X0001414047Y0002131070D01*
X0001418042Y0002134348D01*
X0001419449Y0002135503D01*
X0001425611Y0002138796D01*
X0001432298Y0002140825D01*
X0001434903Y0002141081D01*
X0001437509Y0002141338D01*
X0001440994Y0002141338D01*
X0001443600Y0002141081D01*
X0001443600Y0002141081D01*
G37*
G36*
X0001343600Y0002141081D02*
G01*
X0001346205Y0002140825D01*
X0001352892Y0002138796D01*
X0001359054Y0002135503D01*
X0001360461Y0002134348D01*
X0001364456Y0002131070D01*
X0001367734Y0002127075D01*
X0001368888Y0002125668D01*
X0001372182Y0002119506D01*
X0001374211Y0002112819D01*
X0001374896Y0002105866D01*
X0001374211Y0002098912D01*
X0001372182Y0002092225D01*
X0001368888Y0002086063D01*
X0001367734Y0002084656D01*
X0001364456Y0002080661D01*
X0001360461Y0002077383D01*
X0001359054Y0002076229D01*
X0001352892Y0002072935D01*
X0001346205Y0002070906D01*
X0001343600Y0002070650D01*
X0001340994Y0002070393D01*
X0001337509Y0002070393D01*
X0001334903Y0002070650D01*
X0001332298Y0002070906D01*
X0001325611Y0002072935D01*
X0001319449Y0002076229D01*
X0001318042Y0002077383D01*
X0001314047Y0002080661D01*
X0001310769Y0002084656D01*
X0001309615Y0002086063D01*
X0001306321Y0002092225D01*
X0001304292Y0002098912D01*
X0001303607Y0002105866D01*
X0001304292Y0002112819D01*
X0001306321Y0002119506D01*
X0001309615Y0002125668D01*
X0001310769Y0002127075D01*
X0001314047Y0002131070D01*
X0001318042Y0002134348D01*
X0001319449Y0002135503D01*
X0001325611Y0002138796D01*
X0001332298Y0002140825D01*
X0001334903Y0002141081D01*
X0001337509Y0002141338D01*
X0001340994Y0002141338D01*
X0001343600Y0002141081D01*
X0001343600Y0002141081D01*
G37*
G36*
X0001243600Y0002141081D02*
G01*
X0001246205Y0002140825D01*
X0001252892Y0002138796D01*
X0001259054Y0002135503D01*
X0001260461Y0002134348D01*
X0001264456Y0002131070D01*
X0001267734Y0002127075D01*
X0001268888Y0002125668D01*
X0001272182Y0002119506D01*
X0001274211Y0002112819D01*
X0001274896Y0002105866D01*
X0001274211Y0002098912D01*
X0001272182Y0002092225D01*
X0001268888Y0002086063D01*
X0001267734Y0002084656D01*
X0001264456Y0002080661D01*
X0001260461Y0002077383D01*
X0001259054Y0002076229D01*
X0001252892Y0002072935D01*
X0001246205Y0002070906D01*
X0001243600Y0002070650D01*
X0001240994Y0002070393D01*
X0001237509Y0002070393D01*
X0001234903Y0002070650D01*
X0001232298Y0002070906D01*
X0001225611Y0002072935D01*
X0001219449Y0002076229D01*
X0001218042Y0002077383D01*
X0001214047Y0002080661D01*
X0001210769Y0002084656D01*
X0001209615Y0002086063D01*
X0001206321Y0002092225D01*
X0001204292Y0002098912D01*
X0001203607Y0002105866D01*
X0001204292Y0002112819D01*
X0001206321Y0002119506D01*
X0001209615Y0002125668D01*
X0001210769Y0002127075D01*
X0001214047Y0002131070D01*
X0001218042Y0002134348D01*
X0001219449Y0002135503D01*
X0001225611Y0002138796D01*
X0001232298Y0002140825D01*
X0001234903Y0002141081D01*
X0001237509Y0002141338D01*
X0001240994Y0002141338D01*
X0001243600Y0002141081D01*
X0001243600Y0002141081D01*
G37*
G36*
X0001674724Y0002070393D02*
G01*
X0001603779Y0002070393D01*
X0001603779Y0002141338D01*
X0001674724Y0002141338D01*
X0001674724Y0002070393D01*
X0001674724Y0002070393D01*
G37*
G36*
X0001543600Y0002141081D02*
G01*
X0001546205Y0002140825D01*
X0001552892Y0002138796D01*
X0001559054Y0002135503D01*
X0001560461Y0002134348D01*
X0001564456Y0002131070D01*
X0001567734Y0002127075D01*
X0001568888Y0002125668D01*
X0001572182Y0002119506D01*
X0001574211Y0002112819D01*
X0001574896Y0002105866D01*
X0001574211Y0002098912D01*
X0001572182Y0002092225D01*
X0001568888Y0002086063D01*
X0001567734Y0002084656D01*
X0001564456Y0002080661D01*
X0001560461Y0002077383D01*
X0001559054Y0002076229D01*
X0001552892Y0002072935D01*
X0001546205Y0002070906D01*
X0001543600Y0002070650D01*
X0001540994Y0002070393D01*
X0001537509Y0002070393D01*
X0001534903Y0002070650D01*
X0001532298Y0002070906D01*
X0001525611Y0002072935D01*
X0001519449Y0002076229D01*
X0001518042Y0002077383D01*
X0001514047Y0002080661D01*
X0001510769Y0002084656D01*
X0001509615Y0002086063D01*
X0001506321Y0002092225D01*
X0001504292Y0002098912D01*
X0001503607Y0002105866D01*
X0001504292Y0002112819D01*
X0001506321Y0002119506D01*
X0001509615Y0002125668D01*
X0001510769Y0002127075D01*
X0001514047Y0002131070D01*
X0001518042Y0002134348D01*
X0001519449Y0002135503D01*
X0001525611Y0002138796D01*
X0001532298Y0002140825D01*
X0001534903Y0002141081D01*
X0001537509Y0002141338D01*
X0001540994Y0002141338D01*
X0001543600Y0002141081D01*
X0001543600Y0002141081D01*
G37*
G36*
X0001888600Y0002356081D02*
G01*
X0001891205Y0002355825D01*
X0001897892Y0002353796D01*
X0001904054Y0002350503D01*
X0001905461Y0002349348D01*
X0001909456Y0002346070D01*
X0001912734Y0002342075D01*
X0001913888Y0002340668D01*
X0001917182Y0002334506D01*
X0001919211Y0002327819D01*
X0001919895Y0002320866D01*
X0001919211Y0002313912D01*
X0001917182Y0002307225D01*
X0001913888Y0002301063D01*
X0001912734Y0002299656D01*
X0001909456Y0002295661D01*
X0001905461Y0002292383D01*
X0001904054Y0002291229D01*
X0001897892Y0002287935D01*
X0001891205Y0002285906D01*
X0001888600Y0002285650D01*
X0001885994Y0002285393D01*
X0001882509Y0002285393D01*
X0001879903Y0002285650D01*
X0001877298Y0002285906D01*
X0001870611Y0002287935D01*
X0001864449Y0002291229D01*
X0001863042Y0002292383D01*
X0001859047Y0002295661D01*
X0001855769Y0002299656D01*
X0001854615Y0002301063D01*
X0001851321Y0002307225D01*
X0001849292Y0002313912D01*
X0001848607Y0002320866D01*
X0001849292Y0002327819D01*
X0001851321Y0002334506D01*
X0001854615Y0002340668D01*
X0001855769Y0002342075D01*
X0001859047Y0002346070D01*
X0001863042Y0002349348D01*
X0001864449Y0002350503D01*
X0001870611Y0002353796D01*
X0001877298Y0002355825D01*
X0001879903Y0002356081D01*
X0001882509Y0002356338D01*
X0001885994Y0002356338D01*
X0001888600Y0002356081D01*
X0001888600Y0002356081D01*
G37*
G36*
X0000988600Y0002356081D02*
G01*
X0000991205Y0002355825D01*
X0000997892Y0002353796D01*
X0001004054Y0002350503D01*
X0001005461Y0002349348D01*
X0001009456Y0002346070D01*
X0001012734Y0002342075D01*
X0001013888Y0002340668D01*
X0001017182Y0002334506D01*
X0001019211Y0002327819D01*
X0001019896Y0002320866D01*
X0001019211Y0002313912D01*
X0001017182Y0002307225D01*
X0001013888Y0002301063D01*
X0001012734Y0002299656D01*
X0001009456Y0002295661D01*
X0001005461Y0002292383D01*
X0001004054Y0002291229D01*
X0000997892Y0002287935D01*
X0000991205Y0002285906D01*
X0000988600Y0002285650D01*
X0000985994Y0002285393D01*
X0000982509Y0002285393D01*
X0000979903Y0002285650D01*
X0000977298Y0002285906D01*
X0000970611Y0002287935D01*
X0000964449Y0002291229D01*
X0000963042Y0002292383D01*
X0000959047Y0002295661D01*
X0000955769Y0002299656D01*
X0000954615Y0002301063D01*
X0000951321Y0002307225D01*
X0000949292Y0002313912D01*
X0000948607Y0002320866D01*
X0000949292Y0002327819D01*
X0000951321Y0002334506D01*
X0000954615Y0002340668D01*
X0000955769Y0002342075D01*
X0000959047Y0002346070D01*
X0000963042Y0002349348D01*
X0000964449Y0002350503D01*
X0000970611Y0002353796D01*
X0000977298Y0002355825D01*
X0000979903Y0002356081D01*
X0000982509Y0002356338D01*
X0000985994Y0002356338D01*
X0000988600Y0002356081D01*
X0000988600Y0002356081D01*
G37*
G36*
X0001019724Y0002385393D02*
G01*
X0000948779Y0002385393D01*
X0000948779Y0002456338D01*
X0001019724Y0002456338D01*
X0001019724Y0002385393D01*
X0001019724Y0002385393D01*
G37*
G36*
X0001919724Y0002385393D02*
G01*
X0001848779Y0002385393D01*
X0001848779Y0002456338D01*
X0001919724Y0002456338D01*
X0001919724Y0002385393D01*
X0001919724Y0002385393D01*
G37*
G36*
X0001019724Y0002485393D02*
G01*
X0000948779Y0002485393D01*
X0000948779Y0002556338D01*
X0001019724Y0002556338D01*
X0001019724Y0002485393D01*
X0001019724Y0002485393D01*
G37*
G36*
X0001888600Y0002556081D02*
G01*
X0001891205Y0002555825D01*
X0001897892Y0002553796D01*
X0001904054Y0002550503D01*
X0001905461Y0002549348D01*
X0001909456Y0002546070D01*
X0001912734Y0002542075D01*
X0001913888Y0002540668D01*
X0001917182Y0002534506D01*
X0001919211Y0002527819D01*
X0001919895Y0002520866D01*
X0001919211Y0002513912D01*
X0001917182Y0002507225D01*
X0001913888Y0002501063D01*
X0001912734Y0002499656D01*
X0001909456Y0002495661D01*
X0001905461Y0002492383D01*
X0001904054Y0002491229D01*
X0001897892Y0002487935D01*
X0001891205Y0002485906D01*
X0001888600Y0002485650D01*
X0001885994Y0002485393D01*
X0001882509Y0002485393D01*
X0001879903Y0002485650D01*
X0001877298Y0002485906D01*
X0001870611Y0002487935D01*
X0001864449Y0002491229D01*
X0001863042Y0002492383D01*
X0001859047Y0002495661D01*
X0001855769Y0002499656D01*
X0001854615Y0002501063D01*
X0001851321Y0002507225D01*
X0001849292Y0002513912D01*
X0001848607Y0002520866D01*
X0001849292Y0002527819D01*
X0001851321Y0002534506D01*
X0001854615Y0002540668D01*
X0001855769Y0002542075D01*
X0001859047Y0002546070D01*
X0001863042Y0002549348D01*
X0001864449Y0002550503D01*
X0001870611Y0002553796D01*
X0001877298Y0002555825D01*
X0001879903Y0002556081D01*
X0001882509Y0002556338D01*
X0001885994Y0002556338D01*
X0001888600Y0002556081D01*
X0001888600Y0002556081D01*
G37*
G36*
X0000988600Y0002656081D02*
G01*
X0000991205Y0002655825D01*
X0000997892Y0002653796D01*
X0001004054Y0002650503D01*
X0001005461Y0002649348D01*
X0001009456Y0002646070D01*
X0001012734Y0002642075D01*
X0001013888Y0002640668D01*
X0001017182Y0002634506D01*
X0001019211Y0002627819D01*
X0001019896Y0002620866D01*
X0001019211Y0002613912D01*
X0001017182Y0002607225D01*
X0001013888Y0002601063D01*
X0001012734Y0002599656D01*
X0001009456Y0002595661D01*
X0001005461Y0002592383D01*
X0001004054Y0002591229D01*
X0000997892Y0002587935D01*
X0000991205Y0002585906D01*
X0000988600Y0002585650D01*
X0000985994Y0002585393D01*
X0000982509Y0002585393D01*
X0000979903Y0002585650D01*
X0000977298Y0002585906D01*
X0000970611Y0002587935D01*
X0000964449Y0002591229D01*
X0000963042Y0002592383D01*
X0000959047Y0002595661D01*
X0000955769Y0002599656D01*
X0000954615Y0002601063D01*
X0000951321Y0002607225D01*
X0000949292Y0002613912D01*
X0000948607Y0002620866D01*
X0000949292Y0002627819D01*
X0000951321Y0002634506D01*
X0000954615Y0002640668D01*
X0000955769Y0002642075D01*
X0000959047Y0002646070D01*
X0000963042Y0002649348D01*
X0000964449Y0002650503D01*
X0000970611Y0002653796D01*
X0000977298Y0002655825D01*
X0000979903Y0002656081D01*
X0000982509Y0002656338D01*
X0000985994Y0002656338D01*
X0000988600Y0002656081D01*
X0000988600Y0002656081D01*
G37*
G36*
X0001919724Y0002585393D02*
G01*
X0001848779Y0002585393D01*
X0001848779Y0002656338D01*
X0001919724Y0002656338D01*
X0001919724Y0002585393D01*
X0001919724Y0002585393D01*
G37*
G36*
X0000988600Y0002756081D02*
G01*
X0000991205Y0002755825D01*
X0000997892Y0002753796D01*
X0001004054Y0002750503D01*
X0001005461Y0002749348D01*
X0001009456Y0002746070D01*
X0001012734Y0002742075D01*
X0001013888Y0002740668D01*
X0001017182Y0002734506D01*
X0001019211Y0002727819D01*
X0001019896Y0002720866D01*
X0001019211Y0002713912D01*
X0001017182Y0002707225D01*
X0001013888Y0002701063D01*
X0001012734Y0002699656D01*
X0001009456Y0002695661D01*
X0001005461Y0002692383D01*
X0001004054Y0002691229D01*
X0000997892Y0002687935D01*
X0000991205Y0002685906D01*
X0000988600Y0002685650D01*
X0000985994Y0002685393D01*
X0000982509Y0002685393D01*
X0000979903Y0002685650D01*
X0000977298Y0002685906D01*
X0000970611Y0002687935D01*
X0000964449Y0002691229D01*
X0000963042Y0002692383D01*
X0000959047Y0002695661D01*
X0000955769Y0002699656D01*
X0000954615Y0002701063D01*
X0000951321Y0002707225D01*
X0000949292Y0002713912D01*
X0000948607Y0002720866D01*
X0000949292Y0002727819D01*
X0000951321Y0002734506D01*
X0000954615Y0002740668D01*
X0000955769Y0002742075D01*
X0000959047Y0002746070D01*
X0000963042Y0002749348D01*
X0000964449Y0002750503D01*
X0000970611Y0002753796D01*
X0000977298Y0002755825D01*
X0000979903Y0002756081D01*
X0000982509Y0002756338D01*
X0000985994Y0002756338D01*
X0000988600Y0002756081D01*
X0000988600Y0002756081D01*
G37*
G36*
X0001919724Y0002685393D02*
G01*
X0001848779Y0002685393D01*
X0001848779Y0002756338D01*
X0001919724Y0002756338D01*
X0001919724Y0002685393D01*
X0001919724Y0002685393D01*
G37*
G36*
X0000988600Y0002856081D02*
G01*
X0000991205Y0002855825D01*
X0000997892Y0002853796D01*
X0001004054Y0002850503D01*
X0001005461Y0002849348D01*
X0001009456Y0002846070D01*
X0001012734Y0002842075D01*
X0001013888Y0002840668D01*
X0001017182Y0002834506D01*
X0001019211Y0002827819D01*
X0001019896Y0002820866D01*
X0001019211Y0002813912D01*
X0001017182Y0002807225D01*
X0001013888Y0002801063D01*
X0001012734Y0002799656D01*
X0001009456Y0002795661D01*
X0001005461Y0002792383D01*
X0001004054Y0002791229D01*
X0000997892Y0002787935D01*
X0000991205Y0002785906D01*
X0000988600Y0002785650D01*
X0000985994Y0002785393D01*
X0000982509Y0002785393D01*
X0000979903Y0002785650D01*
X0000977298Y0002785906D01*
X0000970611Y0002787935D01*
X0000964449Y0002791229D01*
X0000963042Y0002792383D01*
X0000959047Y0002795661D01*
X0000955769Y0002799656D01*
X0000954615Y0002801063D01*
X0000951321Y0002807225D01*
X0000949292Y0002813912D01*
X0000948607Y0002820866D01*
X0000949292Y0002827819D01*
X0000951321Y0002834506D01*
X0000954615Y0002840668D01*
X0000955769Y0002842075D01*
X0000959047Y0002846070D01*
X0000963042Y0002849348D01*
X0000964449Y0002850503D01*
X0000970611Y0002853796D01*
X0000977298Y0002855825D01*
X0000979903Y0002856081D01*
X0000982509Y0002856338D01*
X0000985994Y0002856338D01*
X0000988600Y0002856081D01*
X0000988600Y0002856081D01*
G37*
G36*
X0001888600Y0002856081D02*
G01*
X0001891205Y0002855825D01*
X0001897892Y0002853796D01*
X0001904054Y0002850503D01*
X0001905461Y0002849348D01*
X0001909456Y0002846070D01*
X0001912734Y0002842075D01*
X0001913888Y0002840668D01*
X0001917182Y0002834506D01*
X0001919211Y0002827819D01*
X0001919895Y0002820866D01*
X0001919211Y0002813912D01*
X0001917182Y0002807225D01*
X0001913888Y0002801063D01*
X0001912734Y0002799656D01*
X0001909456Y0002795661D01*
X0001905461Y0002792383D01*
X0001904054Y0002791229D01*
X0001897892Y0002787935D01*
X0001891205Y0002785906D01*
X0001888600Y0002785650D01*
X0001885994Y0002785393D01*
X0001882509Y0002785393D01*
X0001879903Y0002785650D01*
X0001877298Y0002785906D01*
X0001870611Y0002787935D01*
X0001864449Y0002791229D01*
X0001863042Y0002792383D01*
X0001859047Y0002795661D01*
X0001855769Y0002799656D01*
X0001854615Y0002801063D01*
X0001851321Y0002807225D01*
X0001849292Y0002813912D01*
X0001848607Y0002820866D01*
X0001849292Y0002827819D01*
X0001851321Y0002834506D01*
X0001854615Y0002840668D01*
X0001855769Y0002842075D01*
X0001859047Y0002846070D01*
X0001863042Y0002849348D01*
X0001864449Y0002850503D01*
X0001870611Y0002853796D01*
X0001877298Y0002855825D01*
X0001879903Y0002856081D01*
X0001882509Y0002856338D01*
X0001885994Y0002856338D01*
X0001888600Y0002856081D01*
X0001888600Y0002856081D01*
G37*
G36*
X0000988600Y0002956081D02*
G01*
X0000991205Y0002955825D01*
X0000997892Y0002953796D01*
X0001004054Y0002950503D01*
X0001005461Y0002949348D01*
X0001009456Y0002946070D01*
X0001012734Y0002942075D01*
X0001013888Y0002940668D01*
X0001017182Y0002934506D01*
X0001019211Y0002927819D01*
X0001019896Y0002920866D01*
X0001019211Y0002913912D01*
X0001017182Y0002907225D01*
X0001013888Y0002901063D01*
X0001012734Y0002899656D01*
X0001009456Y0002895661D01*
X0001005461Y0002892383D01*
X0001004054Y0002891229D01*
X0000997892Y0002887935D01*
X0000991205Y0002885906D01*
X0000988600Y0002885650D01*
X0000985994Y0002885393D01*
X0000982509Y0002885393D01*
X0000979903Y0002885650D01*
X0000977298Y0002885906D01*
X0000970611Y0002887935D01*
X0000964449Y0002891229D01*
X0000963042Y0002892383D01*
X0000959047Y0002895661D01*
X0000955769Y0002899656D01*
X0000954615Y0002901063D01*
X0000951321Y0002907225D01*
X0000949292Y0002913912D01*
X0000948607Y0002920866D01*
X0000949292Y0002927819D01*
X0000951321Y0002934506D01*
X0000954615Y0002940668D01*
X0000955769Y0002942075D01*
X0000959047Y0002946070D01*
X0000963042Y0002949348D01*
X0000964449Y0002950503D01*
X0000970611Y0002953796D01*
X0000977298Y0002955825D01*
X0000979903Y0002956081D01*
X0000982509Y0002956338D01*
X0000985994Y0002956338D01*
X0000988600Y0002956081D01*
X0000988600Y0002956081D01*
G37*
G36*
X0001888600Y0002956081D02*
G01*
X0001891205Y0002955825D01*
X0001897892Y0002953796D01*
X0001904054Y0002950503D01*
X0001905461Y0002949348D01*
X0001909456Y0002946070D01*
X0001912734Y0002942075D01*
X0001913888Y0002940668D01*
X0001917182Y0002934506D01*
X0001919211Y0002927819D01*
X0001919895Y0002920866D01*
X0001919211Y0002913912D01*
X0001917182Y0002907225D01*
X0001913888Y0002901063D01*
X0001912734Y0002899656D01*
X0001909456Y0002895661D01*
X0001905461Y0002892383D01*
X0001904054Y0002891229D01*
X0001897892Y0002887935D01*
X0001891205Y0002885906D01*
X0001888600Y0002885650D01*
X0001885994Y0002885393D01*
X0001882509Y0002885393D01*
X0001879903Y0002885650D01*
X0001877298Y0002885906D01*
X0001870611Y0002887935D01*
X0001864449Y0002891229D01*
X0001863042Y0002892383D01*
X0001859047Y0002895661D01*
X0001855769Y0002899656D01*
X0001854615Y0002901063D01*
X0001851321Y0002907225D01*
X0001849292Y0002913912D01*
X0001848607Y0002920866D01*
X0001849292Y0002927819D01*
X0001851321Y0002934506D01*
X0001854615Y0002940668D01*
X0001855769Y0002942075D01*
X0001859047Y0002946070D01*
X0001863042Y0002949348D01*
X0001864449Y0002950503D01*
X0001870611Y0002953796D01*
X0001877298Y0002955825D01*
X0001879903Y0002956081D01*
X0001882509Y0002956338D01*
X0001885994Y0002956338D01*
X0001888600Y0002956081D01*
X0001888600Y0002956081D01*
G37*
G36*
X0000988600Y0003056081D02*
G01*
X0000991205Y0003055825D01*
X0000997892Y0003053796D01*
X0001004054Y0003050503D01*
X0001005461Y0003049348D01*
X0001009456Y0003046070D01*
X0001012734Y0003042075D01*
X0001013888Y0003040668D01*
X0001017182Y0003034506D01*
X0001019211Y0003027819D01*
X0001019896Y0003020866D01*
X0001019211Y0003013912D01*
X0001017182Y0003007225D01*
X0001013888Y0003001063D01*
X0001012734Y0002999656D01*
X0001009456Y0002995661D01*
X0001005461Y0002992383D01*
X0001004054Y0002991229D01*
X0000997892Y0002987935D01*
X0000991205Y0002985906D01*
X0000988600Y0002985650D01*
X0000985994Y0002985393D01*
X0000982509Y0002985393D01*
X0000979903Y0002985650D01*
X0000977298Y0002985906D01*
X0000970611Y0002987935D01*
X0000964449Y0002991229D01*
X0000963042Y0002992383D01*
X0000959047Y0002995661D01*
X0000955769Y0002999656D01*
X0000954615Y0003001063D01*
X0000951321Y0003007225D01*
X0000949292Y0003013912D01*
X0000948607Y0003020866D01*
X0000949292Y0003027819D01*
X0000951321Y0003034506D01*
X0000954615Y0003040668D01*
X0000955769Y0003042075D01*
X0000959047Y0003046070D01*
X0000963042Y0003049348D01*
X0000964449Y0003050503D01*
X0000970611Y0003053796D01*
X0000977298Y0003055825D01*
X0000979903Y0003056081D01*
X0000982509Y0003056338D01*
X0000985994Y0003056338D01*
X0000988600Y0003056081D01*
X0000988600Y0003056081D01*
G37*
G36*
X0001888600Y0003056081D02*
G01*
X0001891205Y0003055825D01*
X0001897892Y0003053796D01*
X0001904054Y0003050503D01*
X0001905461Y0003049348D01*
X0001909456Y0003046070D01*
X0001912734Y0003042075D01*
X0001913888Y0003040668D01*
X0001917182Y0003034506D01*
X0001919211Y0003027819D01*
X0001919895Y0003020866D01*
X0001919211Y0003013912D01*
X0001917182Y0003007225D01*
X0001913888Y0003001063D01*
X0001912734Y0002999656D01*
X0001909456Y0002995661D01*
X0001905461Y0002992383D01*
X0001904054Y0002991229D01*
X0001897892Y0002987935D01*
X0001891205Y0002985906D01*
X0001888600Y0002985650D01*
X0001885994Y0002985393D01*
X0001882509Y0002985393D01*
X0001879903Y0002985650D01*
X0001877298Y0002985906D01*
X0001870611Y0002987935D01*
X0001864449Y0002991229D01*
X0001863042Y0002992383D01*
X0001859047Y0002995661D01*
X0001855769Y0002999656D01*
X0001854615Y0003001063D01*
X0001851321Y0003007225D01*
X0001849292Y0003013912D01*
X0001848607Y0003020866D01*
X0001849292Y0003027819D01*
X0001851321Y0003034506D01*
X0001854615Y0003040668D01*
X0001855769Y0003042075D01*
X0001859047Y0003046070D01*
X0001863042Y0003049348D01*
X0001864449Y0003050503D01*
X0001870611Y0003053796D01*
X0001877298Y0003055825D01*
X0001879903Y0003056081D01*
X0001882509Y0003056338D01*
X0001885994Y0003056338D01*
X0001888600Y0003056081D01*
X0001888600Y0003056081D01*
G37*
G36*
X0000988600Y0003156081D02*
G01*
X0000991205Y0003155825D01*
X0000997892Y0003153796D01*
X0001004054Y0003150503D01*
X0001005461Y0003149348D01*
X0001009456Y0003146070D01*
X0001012734Y0003142075D01*
X0001013888Y0003140668D01*
X0001017182Y0003134506D01*
X0001019211Y0003127819D01*
X0001019896Y0003120866D01*
X0001019211Y0003113912D01*
X0001017182Y0003107225D01*
X0001013888Y0003101063D01*
X0001012734Y0003099656D01*
X0001009456Y0003095661D01*
X0001005461Y0003092383D01*
X0001004054Y0003091229D01*
X0000997892Y0003087935D01*
X0000991205Y0003085906D01*
X0000988600Y0003085650D01*
X0000985994Y0003085393D01*
X0000982509Y0003085393D01*
X0000979903Y0003085650D01*
X0000977298Y0003085906D01*
X0000970611Y0003087935D01*
X0000964449Y0003091229D01*
X0000963042Y0003092383D01*
X0000959047Y0003095661D01*
X0000955769Y0003099656D01*
X0000954615Y0003101063D01*
X0000951321Y0003107225D01*
X0000949292Y0003113912D01*
X0000948607Y0003120866D01*
X0000949292Y0003127819D01*
X0000951321Y0003134506D01*
X0000954615Y0003140668D01*
X0000955769Y0003142075D01*
X0000959047Y0003146070D01*
X0000963042Y0003149348D01*
X0000964449Y0003150503D01*
X0000970611Y0003153796D01*
X0000977298Y0003155825D01*
X0000979903Y0003156081D01*
X0000982509Y0003156338D01*
X0000985994Y0003156338D01*
X0000988600Y0003156081D01*
X0000988600Y0003156081D01*
G37*
G36*
X0001888600Y0003156081D02*
G01*
X0001891205Y0003155825D01*
X0001897892Y0003153796D01*
X0001904054Y0003150503D01*
X0001905461Y0003149348D01*
X0001909456Y0003146070D01*
X0001912734Y0003142075D01*
X0001913888Y0003140668D01*
X0001917182Y0003134506D01*
X0001919211Y0003127819D01*
X0001919895Y0003120866D01*
X0001919211Y0003113912D01*
X0001917182Y0003107225D01*
X0001913888Y0003101063D01*
X0001912734Y0003099656D01*
X0001909456Y0003095661D01*
X0001905461Y0003092383D01*
X0001904054Y0003091229D01*
X0001897892Y0003087935D01*
X0001891205Y0003085906D01*
X0001888600Y0003085650D01*
X0001885994Y0003085393D01*
X0001882509Y0003085393D01*
X0001879903Y0003085650D01*
X0001877298Y0003085906D01*
X0001870611Y0003087935D01*
X0001864449Y0003091229D01*
X0001863042Y0003092383D01*
X0001859047Y0003095661D01*
X0001855769Y0003099656D01*
X0001854615Y0003101063D01*
X0001851321Y0003107225D01*
X0001849292Y0003113912D01*
X0001848607Y0003120866D01*
X0001849292Y0003127819D01*
X0001851321Y0003134506D01*
X0001854615Y0003140668D01*
X0001855769Y0003142075D01*
X0001859047Y0003146070D01*
X0001863042Y0003149348D01*
X0001864449Y0003150503D01*
X0001870611Y0003153796D01*
X0001877298Y0003155825D01*
X0001879903Y0003156081D01*
X0001882509Y0003156338D01*
X0001885994Y0003156338D01*
X0001888600Y0003156081D01*
X0001888600Y0003156081D01*
G37*
G36*
X0001888600Y0003256081D02*
G01*
X0001891205Y0003255825D01*
X0001897892Y0003253796D01*
X0001904054Y0003250503D01*
X0001905461Y0003249348D01*
X0001909456Y0003246070D01*
X0001912734Y0003242075D01*
X0001913888Y0003240668D01*
X0001917182Y0003234506D01*
X0001919211Y0003227819D01*
X0001919895Y0003220866D01*
X0001919211Y0003213912D01*
X0001917182Y0003207225D01*
X0001913888Y0003201063D01*
X0001912734Y0003199656D01*
X0001909456Y0003195661D01*
X0001905461Y0003192383D01*
X0001904054Y0003191229D01*
X0001897892Y0003187935D01*
X0001891205Y0003185906D01*
X0001888600Y0003185650D01*
X0001885994Y0003185393D01*
X0001882509Y0003185393D01*
X0001879903Y0003185650D01*
X0001877298Y0003185906D01*
X0001870611Y0003187935D01*
X0001864449Y0003191229D01*
X0001863042Y0003192383D01*
X0001859047Y0003195661D01*
X0001855769Y0003199656D01*
X0001854615Y0003201063D01*
X0001851321Y0003207225D01*
X0001849292Y0003213912D01*
X0001848607Y0003220866D01*
X0001849292Y0003227819D01*
X0001851321Y0003234506D01*
X0001854615Y0003240668D01*
X0001855769Y0003242075D01*
X0001859047Y0003246070D01*
X0001863042Y0003249348D01*
X0001864449Y0003250503D01*
X0001870611Y0003253796D01*
X0001877298Y0003255825D01*
X0001879903Y0003256081D01*
X0001882509Y0003256338D01*
X0001885994Y0003256338D01*
X0001888600Y0003256081D01*
X0001888600Y0003256081D01*
G37*
G36*
X0000988600Y0003256081D02*
G01*
X0000991205Y0003255825D01*
X0000997892Y0003253796D01*
X0001004054Y0003250503D01*
X0001005461Y0003249348D01*
X0001009456Y0003246070D01*
X0001012734Y0003242075D01*
X0001013888Y0003240668D01*
X0001017182Y0003234506D01*
X0001019211Y0003227819D01*
X0001019896Y0003220866D01*
X0001019211Y0003213912D01*
X0001017182Y0003207225D01*
X0001013888Y0003201063D01*
X0001012734Y0003199656D01*
X0001009456Y0003195661D01*
X0001005461Y0003192383D01*
X0001004054Y0003191229D01*
X0000997892Y0003187935D01*
X0000991205Y0003185906D01*
X0000988600Y0003185650D01*
X0000985994Y0003185393D01*
X0000982509Y0003185393D01*
X0000979903Y0003185650D01*
X0000977298Y0003185906D01*
X0000970611Y0003187935D01*
X0000964449Y0003191229D01*
X0000963042Y0003192383D01*
X0000959047Y0003195661D01*
X0000955769Y0003199656D01*
X0000954615Y0003201063D01*
X0000951321Y0003207225D01*
X0000949292Y0003213912D01*
X0000948607Y0003220866D01*
X0000949292Y0003227819D01*
X0000951321Y0003234506D01*
X0000954615Y0003240668D01*
X0000955769Y0003242075D01*
X0000959047Y0003246070D01*
X0000963042Y0003249348D01*
X0000964449Y0003250503D01*
X0000970611Y0003253796D01*
X0000977298Y0003255825D01*
X0000979903Y0003256081D01*
X0000982509Y0003256338D01*
X0000985994Y0003256338D01*
X0000988600Y0003256081D01*
X0000988600Y0003256081D01*
G37*
G36*
X0001019724Y0003285393D02*
G01*
X0000948779Y0003285393D01*
X0000948779Y0003356338D01*
X0001019724Y0003356338D01*
X0001019724Y0003285393D01*
X0001019724Y0003285393D01*
G37*
G36*
X0000988600Y0003456081D02*
G01*
X0000991205Y0003455825D01*
X0000997892Y0003453796D01*
X0001004054Y0003450503D01*
X0001005461Y0003449348D01*
X0001009456Y0003446070D01*
X0001012734Y0003442075D01*
X0001013888Y0003440668D01*
X0001017182Y0003434506D01*
X0001019211Y0003427819D01*
X0001019896Y0003420866D01*
X0001019211Y0003413912D01*
X0001017182Y0003407225D01*
X0001013888Y0003401063D01*
X0001012734Y0003399656D01*
X0001009456Y0003395661D01*
X0001005461Y0003392383D01*
X0001004054Y0003391229D01*
X0000997892Y0003387935D01*
X0000991205Y0003385906D01*
X0000988600Y0003385650D01*
X0000985994Y0003385393D01*
X0000982509Y0003385393D01*
X0000979903Y0003385650D01*
X0000977298Y0003385906D01*
X0000970611Y0003387935D01*
X0000964449Y0003391229D01*
X0000963042Y0003392383D01*
X0000959047Y0003395661D01*
X0000955769Y0003399656D01*
X0000954615Y0003401063D01*
X0000951321Y0003407225D01*
X0000949292Y0003413912D01*
X0000948607Y0003420866D01*
X0000949292Y0003427819D01*
X0000951321Y0003434506D01*
X0000954615Y0003440668D01*
X0000955769Y0003442075D01*
X0000959047Y0003446070D01*
X0000963042Y0003449348D01*
X0000964449Y0003450503D01*
X0000970611Y0003453796D01*
X0000977298Y0003455825D01*
X0000979903Y0003456081D01*
X0000982509Y0003456338D01*
X0000985994Y0003456338D01*
X0000988600Y0003456081D01*
X0000988600Y0003456081D01*
G37*
G04 next file*
G04 #@! TF.GenerationSoftware,KiCad,Pcbnew,(5.1.4)-1*
G04 #@! TF.CreationDate,2020-10-29T21:44:13+08:00*
G04 #@! TF.ProjectId,custom_microcontroller,63757374-6f6d-45f6-9d69-63726f636f6e,rev?*
G04 #@! TF.SameCoordinates,Original*
G04 #@! TF.FileFunction,Soldermask,Bot*
G04 #@! TF.FilePolarity,Negative*
G04 Gerber Fmt 4.6, Leading zero omitted, Abs format (unit mm)*
G04 Created by KiCad (PCBNEW (5.1.4)-1) date 2020-10-29 21:44:13*
G04 APERTURE LIST*
G04 APERTURE END LIST*
D22*
G36*
X0002664072Y0000172577D02*
G01*
X0002666678Y0000172321D01*
X0002673364Y0000170293D01*
X0002679527Y0000166999D01*
X0002680934Y0000165844D01*
X0002684928Y0000162566D01*
X0002688206Y0000158571D01*
X0002689361Y0000157165D01*
X0002692655Y0000151002D01*
X0002694683Y0000144316D01*
X0002695368Y0000137362D01*
X0002694683Y0000130408D01*
X0002692655Y0000123721D01*
X0002689361Y0000117559D01*
X0002688206Y0000116152D01*
X0002684928Y0000112158D01*
X0002680934Y0000108880D01*
X0002679527Y0000107725D01*
X0002673364Y0000104431D01*
X0002666678Y0000102402D01*
X0002664072Y0000102146D01*
X0002661466Y0000101889D01*
X0002657981Y0000101889D01*
X0002655376Y0000102146D01*
X0002652770Y0000102402D01*
X0002646084Y0000104431D01*
X0002639921Y0000107725D01*
X0002638514Y0000108880D01*
X0002634520Y0000112158D01*
X0002631242Y0000116152D01*
X0002630087Y0000117559D01*
X0002626793Y0000123721D01*
X0002624765Y0000130408D01*
X0002624080Y0000137362D01*
X0002624765Y0000144316D01*
X0002626793Y0000151002D01*
X0002630087Y0000157165D01*
X0002631242Y0000158571D01*
X0002634520Y0000162566D01*
X0002638514Y0000165844D01*
X0002639921Y0000166999D01*
X0002646084Y0000170293D01*
X0002652770Y0000172321D01*
X0002655376Y0000172577D01*
X0002657981Y0000172834D01*
X0002661466Y0000172834D01*
X0002664072Y0000172577D01*
X0002664072Y0000172577D01*
G37*
G36*
X0002564072Y0000172577D02*
G01*
X0002566678Y0000172321D01*
X0002573364Y0000170293D01*
X0002579527Y0000166999D01*
X0002580934Y0000165844D01*
X0002584928Y0000162566D01*
X0002588206Y0000158571D01*
X0002589361Y0000157165D01*
X0002592655Y0000151002D01*
X0002594683Y0000144316D01*
X0002595368Y0000137362D01*
X0002594683Y0000130408D01*
X0002592655Y0000123721D01*
X0002589361Y0000117559D01*
X0002588206Y0000116152D01*
X0002584928Y0000112158D01*
X0002580934Y0000108880D01*
X0002579527Y0000107725D01*
X0002573364Y0000104431D01*
X0002566678Y0000102402D01*
X0002564072Y0000102146D01*
X0002561466Y0000101889D01*
X0002557981Y0000101889D01*
X0002555376Y0000102146D01*
X0002552770Y0000102402D01*
X0002546084Y0000104431D01*
X0002539921Y0000107725D01*
X0002538514Y0000108880D01*
X0002534520Y0000112158D01*
X0002531242Y0000116152D01*
X0002530087Y0000117559D01*
X0002526793Y0000123721D01*
X0002524765Y0000130408D01*
X0002524080Y0000137362D01*
X0002524765Y0000144316D01*
X0002526793Y0000151002D01*
X0002530087Y0000157165D01*
X0002531242Y0000158571D01*
X0002534520Y0000162566D01*
X0002538514Y0000165844D01*
X0002539921Y0000166999D01*
X0002546084Y0000170293D01*
X0002552770Y0000172321D01*
X0002555376Y0000172577D01*
X0002557981Y0000172834D01*
X0002561466Y0000172834D01*
X0002564072Y0000172577D01*
X0002564072Y0000172577D01*
G37*
G36*
X0002464072Y0000172577D02*
G01*
X0002466678Y0000172321D01*
X0002473364Y0000170293D01*
X0002479527Y0000166999D01*
X0002480934Y0000165844D01*
X0002484928Y0000162566D01*
X0002488206Y0000158571D01*
X0002489361Y0000157165D01*
X0002492655Y0000151002D01*
X0002494683Y0000144316D01*
X0002495368Y0000137362D01*
X0002494683Y0000130408D01*
X0002492655Y0000123721D01*
X0002489361Y0000117559D01*
X0002488206Y0000116152D01*
X0002484928Y0000112158D01*
X0002480934Y0000108880D01*
X0002479527Y0000107725D01*
X0002473364Y0000104431D01*
X0002466678Y0000102402D01*
X0002464072Y0000102146D01*
X0002461466Y0000101889D01*
X0002457981Y0000101889D01*
X0002455376Y0000102146D01*
X0002452770Y0000102402D01*
X0002446084Y0000104431D01*
X0002439921Y0000107725D01*
X0002438514Y0000108880D01*
X0002434520Y0000112158D01*
X0002431242Y0000116152D01*
X0002430087Y0000117559D01*
X0002426793Y0000123721D01*
X0002424765Y0000130408D01*
X0002424080Y0000137362D01*
X0002424765Y0000144316D01*
X0002426793Y0000151002D01*
X0002430087Y0000157165D01*
X0002431242Y0000158571D01*
X0002434520Y0000162566D01*
X0002438514Y0000165844D01*
X0002439921Y0000166999D01*
X0002446084Y0000170293D01*
X0002452770Y0000172321D01*
X0002455376Y0000172577D01*
X0002457981Y0000172834D01*
X0002461466Y0000172834D01*
X0002464072Y0000172577D01*
X0002464072Y0000172577D01*
G37*
G36*
X0002895196Y0000101889D02*
G01*
X0002824251Y0000101889D01*
X0002824251Y0000172834D01*
X0002895196Y0000172834D01*
X0002895196Y0000101889D01*
X0002895196Y0000101889D01*
G37*
G36*
X0002764072Y0000172577D02*
G01*
X0002766678Y0000172321D01*
X0002773364Y0000170293D01*
X0002779527Y0000166999D01*
X0002780934Y0000165844D01*
X0002784928Y0000162566D01*
X0002788206Y0000158571D01*
X0002789361Y0000157165D01*
X0002792655Y0000151002D01*
X0002794683Y0000144316D01*
X0002795368Y0000137362D01*
X0002794683Y0000130408D01*
X0002792655Y0000123721D01*
X0002789361Y0000117559D01*
X0002788206Y0000116152D01*
X0002784928Y0000112158D01*
X0002780934Y0000108880D01*
X0002779527Y0000107725D01*
X0002773364Y0000104431D01*
X0002766678Y0000102402D01*
X0002764072Y0000102146D01*
X0002761466Y0000101889D01*
X0002757981Y0000101889D01*
X0002755376Y0000102146D01*
X0002752770Y0000102402D01*
X0002746083Y0000104431D01*
X0002739921Y0000107725D01*
X0002738514Y0000108880D01*
X0002734520Y0000112158D01*
X0002731242Y0000116152D01*
X0002730087Y0000117559D01*
X0002726793Y0000123721D01*
X0002724765Y0000130408D01*
X0002724080Y0000137362D01*
X0002724765Y0000144316D01*
X0002726793Y0000151002D01*
X0002730087Y0000157165D01*
X0002731242Y0000158571D01*
X0002734520Y0000162566D01*
X0002738514Y0000165844D01*
X0002739921Y0000166999D01*
X0002746083Y0000170293D01*
X0002752770Y0000172321D01*
X0002755376Y0000172577D01*
X0002757981Y0000172834D01*
X0002761466Y0000172834D01*
X0002764072Y0000172577D01*
X0002764072Y0000172577D01*
G37*
G36*
X0003109072Y0000387577D02*
G01*
X0003111678Y0000387321D01*
X0003118364Y0000385292D01*
X0003124527Y0000381999D01*
X0003125934Y0000380844D01*
X0003129928Y0000377566D01*
X0003133206Y0000373572D01*
X0003134361Y0000372164D01*
X0003137655Y0000366002D01*
X0003139683Y0000359316D01*
X0003140368Y0000352362D01*
X0003139683Y0000345408D01*
X0003137655Y0000338721D01*
X0003134361Y0000332559D01*
X0003133206Y0000331152D01*
X0003129928Y0000327157D01*
X0003125934Y0000323879D01*
X0003124527Y0000322725D01*
X0003118364Y0000319431D01*
X0003111678Y0000317403D01*
X0003109072Y0000317146D01*
X0003106466Y0000316889D01*
X0003102981Y0000316889D01*
X0003100376Y0000317146D01*
X0003097770Y0000317403D01*
X0003091084Y0000319431D01*
X0003084921Y0000322725D01*
X0003083514Y0000323879D01*
X0003079520Y0000327157D01*
X0003076242Y0000331152D01*
X0003075087Y0000332559D01*
X0003071793Y0000338721D01*
X0003069765Y0000345408D01*
X0003069080Y0000352362D01*
X0003069765Y0000359316D01*
X0003071793Y0000366002D01*
X0003075087Y0000372164D01*
X0003076242Y0000373572D01*
X0003079520Y0000377566D01*
X0003083514Y0000380844D01*
X0003084921Y0000381999D01*
X0003091084Y0000385292D01*
X0003097770Y0000387321D01*
X0003100376Y0000387577D01*
X0003102981Y0000387834D01*
X0003106466Y0000387834D01*
X0003109072Y0000387577D01*
X0003109072Y0000387577D01*
G37*
G36*
X0002209072Y0000387577D02*
G01*
X0002211678Y0000387321D01*
X0002218364Y0000385292D01*
X0002224527Y0000381999D01*
X0002225934Y0000380844D01*
X0002229928Y0000377566D01*
X0002233206Y0000373572D01*
X0002234361Y0000372164D01*
X0002237655Y0000366002D01*
X0002239683Y0000359316D01*
X0002240368Y0000352362D01*
X0002239683Y0000345408D01*
X0002237655Y0000338721D01*
X0002234361Y0000332559D01*
X0002233206Y0000331152D01*
X0002229928Y0000327157D01*
X0002225934Y0000323879D01*
X0002224527Y0000322725D01*
X0002218364Y0000319431D01*
X0002211678Y0000317403D01*
X0002209072Y0000317146D01*
X0002206466Y0000316889D01*
X0002202981Y0000316889D01*
X0002200376Y0000317146D01*
X0002197770Y0000317403D01*
X0002191083Y0000319431D01*
X0002184921Y0000322725D01*
X0002183514Y0000323879D01*
X0002179520Y0000327157D01*
X0002176242Y0000331152D01*
X0002175087Y0000332559D01*
X0002171793Y0000338721D01*
X0002169765Y0000345408D01*
X0002169080Y0000352362D01*
X0002169765Y0000359316D01*
X0002171793Y0000366002D01*
X0002175087Y0000372164D01*
X0002176242Y0000373572D01*
X0002179520Y0000377566D01*
X0002183514Y0000380844D01*
X0002184921Y0000381999D01*
X0002191083Y0000385292D01*
X0002197770Y0000387321D01*
X0002200376Y0000387577D01*
X0002202981Y0000387834D01*
X0002206466Y0000387834D01*
X0002209072Y0000387577D01*
X0002209072Y0000387577D01*
G37*
G36*
X0002240196Y0000416889D02*
G01*
X0002169251Y0000416889D01*
X0002169251Y0000487834D01*
X0002240196Y0000487834D01*
X0002240196Y0000416889D01*
X0002240196Y0000416889D01*
G37*
G36*
X0003140196Y0000416889D02*
G01*
X0003069251Y0000416889D01*
X0003069251Y0000487834D01*
X0003140196Y0000487834D01*
X0003140196Y0000416889D01*
X0003140196Y0000416889D01*
G37*
G36*
X0002240196Y0000516889D02*
G01*
X0002169251Y0000516889D01*
X0002169251Y0000587834D01*
X0002240196Y0000587834D01*
X0002240196Y0000516889D01*
X0002240196Y0000516889D01*
G37*
G36*
X0003109072Y0000587577D02*
G01*
X0003111678Y0000587321D01*
X0003118364Y0000585293D01*
X0003124527Y0000581999D01*
X0003125934Y0000580844D01*
X0003129928Y0000577566D01*
X0003133206Y0000573571D01*
X0003134361Y0000572165D01*
X0003137655Y0000566002D01*
X0003139683Y0000559315D01*
X0003140368Y0000552362D01*
X0003139683Y0000545408D01*
X0003137655Y0000538721D01*
X0003134361Y0000532559D01*
X0003133206Y0000531152D01*
X0003129928Y0000527158D01*
X0003125934Y0000523880D01*
X0003124527Y0000522725D01*
X0003118364Y0000519431D01*
X0003111678Y0000517402D01*
X0003109072Y0000517146D01*
X0003106466Y0000516889D01*
X0003102981Y0000516889D01*
X0003100376Y0000517146D01*
X0003097770Y0000517402D01*
X0003091084Y0000519431D01*
X0003084921Y0000522725D01*
X0003083514Y0000523880D01*
X0003079520Y0000527158D01*
X0003076242Y0000531152D01*
X0003075087Y0000532559D01*
X0003071793Y0000538721D01*
X0003069765Y0000545408D01*
X0003069080Y0000552362D01*
X0003069765Y0000559315D01*
X0003071793Y0000566002D01*
X0003075087Y0000572165D01*
X0003076242Y0000573571D01*
X0003079520Y0000577566D01*
X0003083514Y0000580844D01*
X0003084921Y0000581999D01*
X0003091084Y0000585293D01*
X0003097770Y0000587321D01*
X0003100376Y0000587577D01*
X0003102981Y0000587834D01*
X0003106466Y0000587834D01*
X0003109072Y0000587577D01*
X0003109072Y0000587577D01*
G37*
G36*
X0002209072Y0000687577D02*
G01*
X0002211678Y0000687321D01*
X0002218364Y0000685292D01*
X0002224527Y0000681999D01*
X0002225934Y0000680844D01*
X0002229928Y0000677566D01*
X0002233206Y0000673572D01*
X0002234361Y0000672165D01*
X0002237655Y0000666002D01*
X0002239683Y0000659315D01*
X0002240368Y0000652362D01*
X0002239683Y0000645408D01*
X0002237655Y0000638721D01*
X0002234361Y0000632559D01*
X0002233206Y0000631152D01*
X0002229928Y0000627157D01*
X0002225934Y0000623880D01*
X0002224527Y0000622725D01*
X0002218364Y0000619431D01*
X0002211678Y0000617403D01*
X0002209072Y0000617146D01*
X0002206466Y0000616889D01*
X0002202981Y0000616889D01*
X0002200376Y0000617146D01*
X0002197770Y0000617403D01*
X0002191083Y0000619431D01*
X0002184921Y0000622725D01*
X0002183514Y0000623880D01*
X0002179520Y0000627157D01*
X0002176242Y0000631152D01*
X0002175087Y0000632559D01*
X0002171793Y0000638721D01*
X0002169765Y0000645408D01*
X0002169080Y0000652362D01*
X0002169765Y0000659315D01*
X0002171793Y0000666002D01*
X0002175087Y0000672165D01*
X0002176242Y0000673572D01*
X0002179520Y0000677566D01*
X0002183514Y0000680844D01*
X0002184921Y0000681999D01*
X0002191083Y0000685292D01*
X0002197770Y0000687321D01*
X0002200376Y0000687577D01*
X0002202981Y0000687834D01*
X0002206466Y0000687834D01*
X0002209072Y0000687577D01*
X0002209072Y0000687577D01*
G37*
G36*
X0003140196Y0000616889D02*
G01*
X0003069251Y0000616889D01*
X0003069251Y0000687834D01*
X0003140196Y0000687834D01*
X0003140196Y0000616889D01*
X0003140196Y0000616889D01*
G37*
G36*
X0002209072Y0000787577D02*
G01*
X0002211678Y0000787321D01*
X0002218364Y0000785292D01*
X0002224527Y0000781999D01*
X0002225934Y0000780844D01*
X0002229928Y0000777566D01*
X0002233206Y0000773572D01*
X0002234361Y0000772164D01*
X0002237655Y0000766002D01*
X0002239683Y0000759316D01*
X0002240368Y0000752362D01*
X0002239683Y0000745408D01*
X0002237655Y0000738721D01*
X0002234361Y0000732559D01*
X0002233206Y0000731152D01*
X0002229928Y0000727158D01*
X0002225934Y0000723879D01*
X0002224527Y0000722725D01*
X0002218364Y0000719431D01*
X0002211678Y0000717403D01*
X0002209072Y0000717146D01*
X0002206466Y0000716889D01*
X0002202981Y0000716889D01*
X0002200376Y0000717146D01*
X0002197770Y0000717403D01*
X0002191083Y0000719431D01*
X0002184921Y0000722725D01*
X0002183514Y0000723879D01*
X0002179520Y0000727158D01*
X0002176242Y0000731152D01*
X0002175087Y0000732559D01*
X0002171793Y0000738721D01*
X0002169765Y0000745408D01*
X0002169080Y0000752362D01*
X0002169765Y0000759316D01*
X0002171793Y0000766002D01*
X0002175087Y0000772164D01*
X0002176242Y0000773572D01*
X0002179520Y0000777566D01*
X0002183514Y0000780844D01*
X0002184921Y0000781999D01*
X0002191083Y0000785292D01*
X0002197770Y0000787321D01*
X0002200376Y0000787577D01*
X0002202981Y0000787834D01*
X0002206466Y0000787834D01*
X0002209072Y0000787577D01*
X0002209072Y0000787577D01*
G37*
G36*
X0003140196Y0000716889D02*
G01*
X0003069251Y0000716889D01*
X0003069251Y0000787834D01*
X0003140196Y0000787834D01*
X0003140196Y0000716889D01*
X0003140196Y0000716889D01*
G37*
G36*
X0002209072Y0000887577D02*
G01*
X0002211678Y0000887321D01*
X0002218364Y0000885293D01*
X0002224527Y0000881999D01*
X0002225934Y0000880844D01*
X0002229928Y0000877566D01*
X0002233206Y0000873571D01*
X0002234361Y0000872164D01*
X0002237655Y0000866002D01*
X0002239683Y0000859316D01*
X0002240368Y0000852362D01*
X0002239683Y0000845408D01*
X0002237655Y0000838721D01*
X0002234361Y0000832559D01*
X0002233206Y0000831152D01*
X0002229928Y0000827158D01*
X0002225934Y0000823879D01*
X0002224527Y0000822725D01*
X0002218364Y0000819431D01*
X0002211678Y0000817402D01*
X0002209072Y0000817146D01*
X0002206466Y0000816889D01*
X0002202981Y0000816889D01*
X0002200376Y0000817146D01*
X0002197770Y0000817402D01*
X0002191083Y0000819431D01*
X0002184921Y0000822725D01*
X0002183514Y0000823879D01*
X0002179520Y0000827158D01*
X0002176242Y0000831152D01*
X0002175087Y0000832559D01*
X0002171793Y0000838721D01*
X0002169765Y0000845408D01*
X0002169080Y0000852362D01*
X0002169765Y0000859316D01*
X0002171793Y0000866002D01*
X0002175087Y0000872164D01*
X0002176242Y0000873571D01*
X0002179520Y0000877566D01*
X0002183514Y0000880844D01*
X0002184921Y0000881999D01*
X0002191083Y0000885293D01*
X0002197770Y0000887321D01*
X0002200376Y0000887577D01*
X0002202981Y0000887834D01*
X0002206466Y0000887834D01*
X0002209072Y0000887577D01*
X0002209072Y0000887577D01*
G37*
G36*
X0003109072Y0000887577D02*
G01*
X0003111678Y0000887321D01*
X0003118364Y0000885293D01*
X0003124527Y0000881999D01*
X0003125934Y0000880844D01*
X0003129928Y0000877566D01*
X0003133206Y0000873571D01*
X0003134361Y0000872164D01*
X0003137655Y0000866002D01*
X0003139683Y0000859316D01*
X0003140368Y0000852362D01*
X0003139683Y0000845408D01*
X0003137655Y0000838721D01*
X0003134361Y0000832559D01*
X0003133206Y0000831152D01*
X0003129928Y0000827158D01*
X0003125934Y0000823879D01*
X0003124527Y0000822725D01*
X0003118364Y0000819431D01*
X0003111678Y0000817402D01*
X0003109072Y0000817146D01*
X0003106466Y0000816889D01*
X0003102981Y0000816889D01*
X0003100376Y0000817146D01*
X0003097770Y0000817402D01*
X0003091084Y0000819431D01*
X0003084921Y0000822725D01*
X0003083514Y0000823879D01*
X0003079520Y0000827158D01*
X0003076242Y0000831152D01*
X0003075087Y0000832559D01*
X0003071793Y0000838721D01*
X0003069765Y0000845408D01*
X0003069080Y0000852362D01*
X0003069765Y0000859316D01*
X0003071793Y0000866002D01*
X0003075087Y0000872164D01*
X0003076242Y0000873571D01*
X0003079520Y0000877566D01*
X0003083514Y0000880844D01*
X0003084921Y0000881999D01*
X0003091084Y0000885293D01*
X0003097770Y0000887321D01*
X0003100376Y0000887577D01*
X0003102981Y0000887834D01*
X0003106466Y0000887834D01*
X0003109072Y0000887577D01*
X0003109072Y0000887577D01*
G37*
G36*
X0002209072Y0000987578D02*
G01*
X0002211678Y0000987321D01*
X0002218364Y0000985293D01*
X0002224527Y0000981999D01*
X0002225934Y0000980844D01*
X0002229928Y0000977566D01*
X0002233206Y0000973571D01*
X0002234361Y0000972165D01*
X0002237655Y0000966002D01*
X0002239683Y0000959315D01*
X0002240368Y0000952362D01*
X0002239683Y0000945408D01*
X0002237655Y0000938721D01*
X0002234361Y0000932559D01*
X0002233206Y0000931152D01*
X0002229928Y0000927157D01*
X0002225934Y0000923880D01*
X0002224527Y0000922725D01*
X0002218364Y0000919431D01*
X0002211678Y0000917403D01*
X0002209072Y0000917146D01*
X0002206466Y0000916889D01*
X0002202981Y0000916889D01*
X0002200376Y0000917146D01*
X0002197770Y0000917403D01*
X0002191083Y0000919431D01*
X0002184921Y0000922725D01*
X0002183514Y0000923880D01*
X0002179520Y0000927157D01*
X0002176242Y0000931152D01*
X0002175087Y0000932559D01*
X0002171793Y0000938721D01*
X0002169765Y0000945408D01*
X0002169080Y0000952362D01*
X0002169765Y0000959315D01*
X0002171793Y0000966002D01*
X0002175087Y0000972165D01*
X0002176242Y0000973571D01*
X0002179520Y0000977566D01*
X0002183514Y0000980844D01*
X0002184921Y0000981999D01*
X0002191083Y0000985293D01*
X0002197770Y0000987321D01*
X0002200376Y0000987578D01*
X0002202981Y0000987834D01*
X0002206466Y0000987834D01*
X0002209072Y0000987578D01*
X0002209072Y0000987578D01*
G37*
G36*
X0003109072Y0000987578D02*
G01*
X0003111678Y0000987321D01*
X0003118364Y0000985293D01*
X0003124527Y0000981999D01*
X0003125934Y0000980844D01*
X0003129928Y0000977566D01*
X0003133206Y0000973571D01*
X0003134361Y0000972165D01*
X0003137655Y0000966002D01*
X0003139683Y0000959315D01*
X0003140368Y0000952362D01*
X0003139683Y0000945408D01*
X0003137655Y0000938721D01*
X0003134361Y0000932559D01*
X0003133206Y0000931152D01*
X0003129928Y0000927157D01*
X0003125934Y0000923880D01*
X0003124527Y0000922725D01*
X0003118364Y0000919431D01*
X0003111678Y0000917403D01*
X0003109072Y0000917146D01*
X0003106466Y0000916889D01*
X0003102981Y0000916889D01*
X0003100376Y0000917146D01*
X0003097770Y0000917403D01*
X0003091084Y0000919431D01*
X0003084921Y0000922725D01*
X0003083514Y0000923880D01*
X0003079520Y0000927157D01*
X0003076242Y0000931152D01*
X0003075087Y0000932559D01*
X0003071793Y0000938721D01*
X0003069765Y0000945408D01*
X0003069080Y0000952362D01*
X0003069765Y0000959315D01*
X0003071793Y0000966002D01*
X0003075087Y0000972165D01*
X0003076242Y0000973571D01*
X0003079520Y0000977566D01*
X0003083514Y0000980844D01*
X0003084921Y0000981999D01*
X0003091084Y0000985293D01*
X0003097770Y0000987321D01*
X0003100376Y0000987578D01*
X0003102981Y0000987834D01*
X0003106466Y0000987834D01*
X0003109072Y0000987578D01*
X0003109072Y0000987578D01*
G37*
G36*
X0002209072Y0001087578D02*
G01*
X0002211678Y0001087321D01*
X0002218364Y0001085293D01*
X0002224527Y0001081999D01*
X0002225934Y0001080844D01*
X0002229928Y0001077566D01*
X0002233206Y0001073571D01*
X0002234361Y0001072165D01*
X0002237655Y0001066002D01*
X0002239683Y0001059315D01*
X0002240368Y0001052362D01*
X0002239683Y0001045408D01*
X0002237655Y0001038721D01*
X0002234361Y0001032559D01*
X0002233206Y0001031152D01*
X0002229928Y0001027157D01*
X0002225934Y0001023880D01*
X0002224527Y0001022725D01*
X0002218364Y0001019431D01*
X0002211678Y0001017403D01*
X0002209072Y0001017146D01*
X0002206466Y0001016889D01*
X0002202981Y0001016889D01*
X0002200376Y0001017146D01*
X0002197770Y0001017403D01*
X0002191083Y0001019431D01*
X0002184921Y0001022725D01*
X0002183514Y0001023880D01*
X0002179520Y0001027157D01*
X0002176242Y0001031152D01*
X0002175087Y0001032559D01*
X0002171793Y0001038721D01*
X0002169765Y0001045408D01*
X0002169080Y0001052362D01*
X0002169765Y0001059315D01*
X0002171793Y0001066002D01*
X0002175087Y0001072165D01*
X0002176242Y0001073571D01*
X0002179520Y0001077566D01*
X0002183514Y0001080844D01*
X0002184921Y0001081999D01*
X0002191083Y0001085293D01*
X0002197770Y0001087321D01*
X0002200376Y0001087578D01*
X0002202981Y0001087834D01*
X0002206466Y0001087834D01*
X0002209072Y0001087578D01*
X0002209072Y0001087578D01*
G37*
G36*
X0003109072Y0001087578D02*
G01*
X0003111678Y0001087321D01*
X0003118364Y0001085293D01*
X0003124527Y0001081999D01*
X0003125934Y0001080844D01*
X0003129928Y0001077566D01*
X0003133206Y0001073571D01*
X0003134361Y0001072165D01*
X0003137655Y0001066002D01*
X0003139683Y0001059315D01*
X0003140368Y0001052362D01*
X0003139683Y0001045408D01*
X0003137655Y0001038721D01*
X0003134361Y0001032559D01*
X0003133206Y0001031152D01*
X0003129928Y0001027157D01*
X0003125934Y0001023880D01*
X0003124527Y0001022725D01*
X0003118364Y0001019431D01*
X0003111678Y0001017403D01*
X0003109072Y0001017146D01*
X0003106466Y0001016889D01*
X0003102981Y0001016889D01*
X0003100376Y0001017146D01*
X0003097770Y0001017403D01*
X0003091084Y0001019431D01*
X0003084921Y0001022725D01*
X0003083514Y0001023880D01*
X0003079520Y0001027157D01*
X0003076242Y0001031152D01*
X0003075087Y0001032559D01*
X0003071793Y0001038721D01*
X0003069765Y0001045408D01*
X0003069080Y0001052362D01*
X0003069765Y0001059315D01*
X0003071793Y0001066002D01*
X0003075087Y0001072165D01*
X0003076242Y0001073571D01*
X0003079520Y0001077566D01*
X0003083514Y0001080844D01*
X0003084921Y0001081999D01*
X0003091084Y0001085293D01*
X0003097770Y0001087321D01*
X0003100376Y0001087578D01*
X0003102981Y0001087834D01*
X0003106466Y0001087834D01*
X0003109072Y0001087578D01*
X0003109072Y0001087578D01*
G37*
G36*
X0002209072Y0001187577D02*
G01*
X0002211678Y0001187321D01*
X0002218364Y0001185293D01*
X0002224527Y0001181999D01*
X0002225934Y0001180844D01*
X0002229928Y0001177566D01*
X0002233206Y0001173572D01*
X0002234361Y0001172165D01*
X0002237655Y0001166002D01*
X0002239683Y0001159316D01*
X0002240368Y0001152362D01*
X0002239683Y0001145408D01*
X0002237655Y0001138721D01*
X0002234361Y0001132559D01*
X0002233206Y0001131152D01*
X0002229928Y0001127157D01*
X0002225934Y0001123880D01*
X0002224527Y0001122725D01*
X0002218364Y0001119431D01*
X0002211678Y0001117402D01*
X0002209072Y0001117146D01*
X0002206466Y0001116889D01*
X0002202981Y0001116889D01*
X0002200376Y0001117146D01*
X0002197770Y0001117402D01*
X0002191083Y0001119431D01*
X0002184921Y0001122725D01*
X0002183514Y0001123880D01*
X0002179520Y0001127157D01*
X0002176242Y0001131152D01*
X0002175087Y0001132559D01*
X0002171793Y0001138721D01*
X0002169765Y0001145408D01*
X0002169080Y0001152362D01*
X0002169765Y0001159316D01*
X0002171793Y0001166002D01*
X0002175087Y0001172165D01*
X0002176242Y0001173572D01*
X0002179520Y0001177566D01*
X0002183514Y0001180844D01*
X0002184921Y0001181999D01*
X0002191083Y0001185293D01*
X0002197770Y0001187321D01*
X0002200376Y0001187577D01*
X0002202981Y0001187834D01*
X0002206466Y0001187834D01*
X0002209072Y0001187577D01*
X0002209072Y0001187577D01*
G37*
G36*
X0003109072Y0001187577D02*
G01*
X0003111678Y0001187321D01*
X0003118364Y0001185293D01*
X0003124527Y0001181999D01*
X0003125934Y0001180844D01*
X0003129928Y0001177566D01*
X0003133206Y0001173572D01*
X0003134361Y0001172165D01*
X0003137655Y0001166002D01*
X0003139683Y0001159316D01*
X0003140368Y0001152362D01*
X0003139683Y0001145408D01*
X0003137655Y0001138721D01*
X0003134361Y0001132559D01*
X0003133206Y0001131152D01*
X0003129928Y0001127157D01*
X0003125934Y0001123880D01*
X0003124527Y0001122725D01*
X0003118364Y0001119431D01*
X0003111678Y0001117402D01*
X0003109072Y0001117146D01*
X0003106466Y0001116889D01*
X0003102981Y0001116889D01*
X0003100376Y0001117146D01*
X0003097770Y0001117402D01*
X0003091084Y0001119431D01*
X0003084921Y0001122725D01*
X0003083514Y0001123880D01*
X0003079520Y0001127157D01*
X0003076242Y0001131152D01*
X0003075087Y0001132559D01*
X0003071793Y0001138721D01*
X0003069765Y0001145408D01*
X0003069080Y0001152362D01*
X0003069765Y0001159316D01*
X0003071793Y0001166002D01*
X0003075087Y0001172165D01*
X0003076242Y0001173572D01*
X0003079520Y0001177566D01*
X0003083514Y0001180844D01*
X0003084921Y0001181999D01*
X0003091084Y0001185293D01*
X0003097770Y0001187321D01*
X0003100376Y0001187577D01*
X0003102981Y0001187834D01*
X0003106466Y0001187834D01*
X0003109072Y0001187577D01*
X0003109072Y0001187577D01*
G37*
G36*
X0003109072Y0001287577D02*
G01*
X0003111678Y0001287321D01*
X0003118364Y0001285293D01*
X0003124527Y0001281999D01*
X0003125934Y0001280844D01*
X0003129928Y0001277566D01*
X0003133206Y0001273572D01*
X0003134361Y0001272164D01*
X0003137655Y0001266002D01*
X0003139683Y0001259316D01*
X0003140368Y0001252362D01*
X0003139683Y0001245408D01*
X0003137655Y0001238721D01*
X0003134361Y0001232559D01*
X0003133206Y0001231152D01*
X0003129928Y0001227158D01*
X0003125934Y0001223879D01*
X0003124527Y0001222725D01*
X0003118364Y0001219431D01*
X0003111678Y0001217403D01*
X0003109072Y0001217146D01*
X0003106466Y0001216889D01*
X0003102981Y0001216889D01*
X0003100376Y0001217146D01*
X0003097770Y0001217403D01*
X0003091084Y0001219431D01*
X0003084921Y0001222725D01*
X0003083514Y0001223879D01*
X0003079520Y0001227158D01*
X0003076242Y0001231152D01*
X0003075087Y0001232559D01*
X0003071793Y0001238721D01*
X0003069765Y0001245408D01*
X0003069080Y0001252362D01*
X0003069765Y0001259316D01*
X0003071793Y0001266002D01*
X0003075087Y0001272164D01*
X0003076242Y0001273572D01*
X0003079520Y0001277566D01*
X0003083514Y0001280844D01*
X0003084921Y0001281999D01*
X0003091084Y0001285293D01*
X0003097770Y0001287321D01*
X0003100376Y0001287577D01*
X0003102981Y0001287834D01*
X0003106466Y0001287834D01*
X0003109072Y0001287577D01*
X0003109072Y0001287577D01*
G37*
G36*
X0002209072Y0001287577D02*
G01*
X0002211678Y0001287321D01*
X0002218364Y0001285293D01*
X0002224527Y0001281999D01*
X0002225934Y0001280844D01*
X0002229928Y0001277566D01*
X0002233206Y0001273572D01*
X0002234361Y0001272164D01*
X0002237655Y0001266002D01*
X0002239683Y0001259316D01*
X0002240368Y0001252362D01*
X0002239683Y0001245408D01*
X0002237655Y0001238721D01*
X0002234361Y0001232559D01*
X0002233206Y0001231152D01*
X0002229928Y0001227158D01*
X0002225934Y0001223879D01*
X0002224527Y0001222725D01*
X0002218364Y0001219431D01*
X0002211678Y0001217403D01*
X0002209072Y0001217146D01*
X0002206466Y0001216889D01*
X0002202981Y0001216889D01*
X0002200376Y0001217146D01*
X0002197770Y0001217403D01*
X0002191083Y0001219431D01*
X0002184921Y0001222725D01*
X0002183514Y0001223879D01*
X0002179520Y0001227158D01*
X0002176242Y0001231152D01*
X0002175087Y0001232559D01*
X0002171793Y0001238721D01*
X0002169765Y0001245408D01*
X0002169080Y0001252362D01*
X0002169765Y0001259316D01*
X0002171793Y0001266002D01*
X0002175087Y0001272164D01*
X0002176242Y0001273572D01*
X0002179520Y0001277566D01*
X0002183514Y0001280844D01*
X0002184921Y0001281999D01*
X0002191083Y0001285293D01*
X0002197770Y0001287321D01*
X0002200376Y0001287577D01*
X0002202981Y0001287834D01*
X0002206466Y0001287834D01*
X0002209072Y0001287577D01*
X0002209072Y0001287577D01*
G37*
G36*
X0002240196Y0001316889D02*
G01*
X0002169251Y0001316889D01*
X0002169251Y0001387834D01*
X0002240196Y0001387834D01*
X0002240196Y0001316889D01*
X0002240196Y0001316889D01*
G37*
G36*
X0002209072Y0001487577D02*
G01*
X0002211678Y0001487321D01*
X0002218364Y0001485293D01*
X0002224527Y0001481999D01*
X0002225934Y0001480844D01*
X0002229928Y0001477566D01*
X0002233206Y0001473572D01*
X0002234361Y0001472164D01*
X0002237655Y0001466002D01*
X0002239683Y0001459316D01*
X0002240368Y0001452362D01*
X0002239683Y0001445408D01*
X0002237655Y0001438721D01*
X0002234361Y0001432559D01*
X0002233206Y0001431152D01*
X0002229928Y0001427158D01*
X0002225934Y0001423879D01*
X0002224527Y0001422725D01*
X0002218364Y0001419431D01*
X0002211678Y0001417403D01*
X0002209072Y0001417146D01*
X0002206466Y0001416889D01*
X0002202981Y0001416889D01*
X0002200376Y0001417146D01*
X0002197770Y0001417403D01*
X0002191083Y0001419431D01*
X0002184921Y0001422725D01*
X0002183514Y0001423879D01*
X0002179520Y0001427158D01*
X0002176242Y0001431152D01*
X0002175087Y0001432559D01*
X0002171793Y0001438721D01*
X0002169765Y0001445408D01*
X0002169080Y0001452362D01*
X0002169765Y0001459316D01*
X0002171793Y0001466002D01*
X0002175087Y0001472164D01*
X0002176242Y0001473572D01*
X0002179520Y0001477566D01*
X0002183514Y0001480844D01*
X0002184921Y0001481999D01*
X0002191083Y0001485293D01*
X0002197770Y0001487321D01*
X0002200376Y0001487577D01*
X0002202981Y0001487834D01*
X0002206466Y0001487834D01*
X0002209072Y0001487577D01*
X0002209072Y0001487577D01*
G37*
G04 next file*
G04 #@! TF.GenerationSoftware,KiCad,Pcbnew,(5.1.4)-1*
G04 #@! TF.CreationDate,2020-10-29T21:44:13+08:00*
G04 #@! TF.ProjectId,custom_microcontroller,63757374-6f6d-45f6-9d69-63726f636f6e,rev?*
G04 #@! TF.SameCoordinates,Original*
G04 #@! TF.FileFunction,Soldermask,Bot*
G04 #@! TF.FilePolarity,Negative*
G04 Gerber Fmt 4.6, Leading zero omitted, Abs format (unit mm)*
G04 Created by KiCad (PCBNEW (5.1.4)-1) date 2020-10-29 21:44:13*
G04 APERTURE LIST*
G04 APERTURE END LIST*
D23*
G36*
X0002664072Y0002141081D02*
G01*
X0002666678Y0002140825D01*
X0002673364Y0002138796D01*
X0002679527Y0002135503D01*
X0002680934Y0002134348D01*
X0002684928Y0002131070D01*
X0002688206Y0002127075D01*
X0002689361Y0002125668D01*
X0002692655Y0002119506D01*
X0002694683Y0002112819D01*
X0002695368Y0002105866D01*
X0002694683Y0002098912D01*
X0002692655Y0002092225D01*
X0002689361Y0002086063D01*
X0002688206Y0002084656D01*
X0002684928Y0002080661D01*
X0002680934Y0002077383D01*
X0002679527Y0002076229D01*
X0002673364Y0002072935D01*
X0002666678Y0002070906D01*
X0002664072Y0002070650D01*
X0002661466Y0002070393D01*
X0002657981Y0002070393D01*
X0002655376Y0002070650D01*
X0002652770Y0002070906D01*
X0002646084Y0002072935D01*
X0002639921Y0002076229D01*
X0002638514Y0002077383D01*
X0002634520Y0002080661D01*
X0002631242Y0002084656D01*
X0002630087Y0002086063D01*
X0002626793Y0002092225D01*
X0002624765Y0002098912D01*
X0002624080Y0002105866D01*
X0002624765Y0002112819D01*
X0002626793Y0002119506D01*
X0002630087Y0002125668D01*
X0002631242Y0002127075D01*
X0002634520Y0002131070D01*
X0002638514Y0002134348D01*
X0002639921Y0002135503D01*
X0002646084Y0002138796D01*
X0002652770Y0002140825D01*
X0002655376Y0002141081D01*
X0002657981Y0002141338D01*
X0002661466Y0002141338D01*
X0002664072Y0002141081D01*
X0002664072Y0002141081D01*
G37*
G36*
X0002564072Y0002141081D02*
G01*
X0002566678Y0002140825D01*
X0002573364Y0002138796D01*
X0002579527Y0002135503D01*
X0002580934Y0002134348D01*
X0002584928Y0002131070D01*
X0002588206Y0002127075D01*
X0002589361Y0002125668D01*
X0002592655Y0002119506D01*
X0002594683Y0002112819D01*
X0002595368Y0002105866D01*
X0002594683Y0002098912D01*
X0002592655Y0002092225D01*
X0002589361Y0002086063D01*
X0002588206Y0002084656D01*
X0002584928Y0002080661D01*
X0002580934Y0002077383D01*
X0002579527Y0002076229D01*
X0002573364Y0002072935D01*
X0002566678Y0002070906D01*
X0002564072Y0002070650D01*
X0002561466Y0002070393D01*
X0002557981Y0002070393D01*
X0002555376Y0002070650D01*
X0002552770Y0002070906D01*
X0002546084Y0002072935D01*
X0002539921Y0002076229D01*
X0002538514Y0002077383D01*
X0002534520Y0002080661D01*
X0002531242Y0002084656D01*
X0002530087Y0002086063D01*
X0002526793Y0002092225D01*
X0002524765Y0002098912D01*
X0002524080Y0002105866D01*
X0002524765Y0002112819D01*
X0002526793Y0002119506D01*
X0002530087Y0002125668D01*
X0002531242Y0002127075D01*
X0002534520Y0002131070D01*
X0002538514Y0002134348D01*
X0002539921Y0002135503D01*
X0002546084Y0002138796D01*
X0002552770Y0002140825D01*
X0002555376Y0002141081D01*
X0002557981Y0002141338D01*
X0002561466Y0002141338D01*
X0002564072Y0002141081D01*
X0002564072Y0002141081D01*
G37*
G36*
X0002464072Y0002141081D02*
G01*
X0002466678Y0002140825D01*
X0002473364Y0002138796D01*
X0002479527Y0002135503D01*
X0002480934Y0002134348D01*
X0002484928Y0002131070D01*
X0002488206Y0002127075D01*
X0002489361Y0002125668D01*
X0002492655Y0002119506D01*
X0002494683Y0002112819D01*
X0002495368Y0002105866D01*
X0002494683Y0002098912D01*
X0002492655Y0002092225D01*
X0002489361Y0002086063D01*
X0002488206Y0002084656D01*
X0002484928Y0002080661D01*
X0002480934Y0002077383D01*
X0002479527Y0002076229D01*
X0002473364Y0002072935D01*
X0002466678Y0002070906D01*
X0002464072Y0002070650D01*
X0002461466Y0002070393D01*
X0002457981Y0002070393D01*
X0002455376Y0002070650D01*
X0002452770Y0002070906D01*
X0002446084Y0002072935D01*
X0002439921Y0002076229D01*
X0002438514Y0002077383D01*
X0002434520Y0002080661D01*
X0002431242Y0002084656D01*
X0002430087Y0002086063D01*
X0002426793Y0002092225D01*
X0002424765Y0002098912D01*
X0002424080Y0002105866D01*
X0002424765Y0002112819D01*
X0002426793Y0002119506D01*
X0002430087Y0002125668D01*
X0002431242Y0002127075D01*
X0002434520Y0002131070D01*
X0002438514Y0002134348D01*
X0002439921Y0002135503D01*
X0002446084Y0002138796D01*
X0002452770Y0002140825D01*
X0002455376Y0002141081D01*
X0002457981Y0002141338D01*
X0002461466Y0002141338D01*
X0002464072Y0002141081D01*
X0002464072Y0002141081D01*
G37*
G36*
X0002895196Y0002070393D02*
G01*
X0002824251Y0002070393D01*
X0002824251Y0002141338D01*
X0002895196Y0002141338D01*
X0002895196Y0002070393D01*
X0002895196Y0002070393D01*
G37*
G36*
X0002764072Y0002141081D02*
G01*
X0002766678Y0002140825D01*
X0002773364Y0002138796D01*
X0002779527Y0002135503D01*
X0002780934Y0002134348D01*
X0002784928Y0002131070D01*
X0002788206Y0002127075D01*
X0002789361Y0002125668D01*
X0002792655Y0002119506D01*
X0002794683Y0002112819D01*
X0002795368Y0002105866D01*
X0002794683Y0002098912D01*
X0002792655Y0002092225D01*
X0002789361Y0002086063D01*
X0002788206Y0002084656D01*
X0002784928Y0002080661D01*
X0002780934Y0002077383D01*
X0002779527Y0002076229D01*
X0002773364Y0002072935D01*
X0002766678Y0002070906D01*
X0002764072Y0002070650D01*
X0002761466Y0002070393D01*
X0002757981Y0002070393D01*
X0002755376Y0002070650D01*
X0002752770Y0002070906D01*
X0002746083Y0002072935D01*
X0002739921Y0002076229D01*
X0002738514Y0002077383D01*
X0002734520Y0002080661D01*
X0002731242Y0002084656D01*
X0002730087Y0002086063D01*
X0002726793Y0002092225D01*
X0002724765Y0002098912D01*
X0002724080Y0002105866D01*
X0002724765Y0002112819D01*
X0002726793Y0002119506D01*
X0002730087Y0002125668D01*
X0002731242Y0002127075D01*
X0002734520Y0002131070D01*
X0002738514Y0002134348D01*
X0002739921Y0002135503D01*
X0002746083Y0002138796D01*
X0002752770Y0002140825D01*
X0002755376Y0002141081D01*
X0002757981Y0002141338D01*
X0002761466Y0002141338D01*
X0002764072Y0002141081D01*
X0002764072Y0002141081D01*
G37*
G36*
X0003109072Y0002356081D02*
G01*
X0003111678Y0002355825D01*
X0003118364Y0002353796D01*
X0003124527Y0002350503D01*
X0003125934Y0002349348D01*
X0003129928Y0002346070D01*
X0003133206Y0002342075D01*
X0003134361Y0002340668D01*
X0003137655Y0002334506D01*
X0003139683Y0002327819D01*
X0003140368Y0002320866D01*
X0003139683Y0002313912D01*
X0003137655Y0002307225D01*
X0003134361Y0002301063D01*
X0003133206Y0002299656D01*
X0003129928Y0002295661D01*
X0003125934Y0002292383D01*
X0003124527Y0002291229D01*
X0003118364Y0002287935D01*
X0003111678Y0002285906D01*
X0003109072Y0002285650D01*
X0003106466Y0002285393D01*
X0003102981Y0002285393D01*
X0003100376Y0002285650D01*
X0003097770Y0002285906D01*
X0003091084Y0002287935D01*
X0003084921Y0002291229D01*
X0003083514Y0002292383D01*
X0003079520Y0002295661D01*
X0003076242Y0002299656D01*
X0003075087Y0002301063D01*
X0003071793Y0002307225D01*
X0003069765Y0002313912D01*
X0003069080Y0002320866D01*
X0003069765Y0002327819D01*
X0003071793Y0002334506D01*
X0003075087Y0002340668D01*
X0003076242Y0002342075D01*
X0003079520Y0002346070D01*
X0003083514Y0002349348D01*
X0003084921Y0002350503D01*
X0003091084Y0002353796D01*
X0003097770Y0002355825D01*
X0003100376Y0002356081D01*
X0003102981Y0002356338D01*
X0003106466Y0002356338D01*
X0003109072Y0002356081D01*
X0003109072Y0002356081D01*
G37*
G36*
X0002209072Y0002356081D02*
G01*
X0002211678Y0002355825D01*
X0002218364Y0002353796D01*
X0002224527Y0002350503D01*
X0002225934Y0002349348D01*
X0002229928Y0002346070D01*
X0002233206Y0002342075D01*
X0002234361Y0002340668D01*
X0002237655Y0002334506D01*
X0002239683Y0002327819D01*
X0002240368Y0002320866D01*
X0002239683Y0002313912D01*
X0002237655Y0002307225D01*
X0002234361Y0002301063D01*
X0002233206Y0002299656D01*
X0002229928Y0002295661D01*
X0002225934Y0002292383D01*
X0002224527Y0002291229D01*
X0002218364Y0002287935D01*
X0002211678Y0002285906D01*
X0002209072Y0002285650D01*
X0002206466Y0002285393D01*
X0002202981Y0002285393D01*
X0002200376Y0002285650D01*
X0002197770Y0002285906D01*
X0002191083Y0002287935D01*
X0002184921Y0002291229D01*
X0002183514Y0002292383D01*
X0002179520Y0002295661D01*
X0002176242Y0002299656D01*
X0002175087Y0002301063D01*
X0002171793Y0002307225D01*
X0002169765Y0002313912D01*
X0002169080Y0002320866D01*
X0002169765Y0002327819D01*
X0002171793Y0002334506D01*
X0002175087Y0002340668D01*
X0002176242Y0002342075D01*
X0002179520Y0002346070D01*
X0002183514Y0002349348D01*
X0002184921Y0002350503D01*
X0002191083Y0002353796D01*
X0002197770Y0002355825D01*
X0002200376Y0002356081D01*
X0002202981Y0002356338D01*
X0002206466Y0002356338D01*
X0002209072Y0002356081D01*
X0002209072Y0002356081D01*
G37*
G36*
X0002240196Y0002385393D02*
G01*
X0002169251Y0002385393D01*
X0002169251Y0002456338D01*
X0002240196Y0002456338D01*
X0002240196Y0002385393D01*
X0002240196Y0002385393D01*
G37*
G36*
X0003140196Y0002385393D02*
G01*
X0003069251Y0002385393D01*
X0003069251Y0002456338D01*
X0003140196Y0002456338D01*
X0003140196Y0002385393D01*
X0003140196Y0002385393D01*
G37*
G36*
X0002240196Y0002485393D02*
G01*
X0002169251Y0002485393D01*
X0002169251Y0002556338D01*
X0002240196Y0002556338D01*
X0002240196Y0002485393D01*
X0002240196Y0002485393D01*
G37*
G36*
X0003109072Y0002556081D02*
G01*
X0003111678Y0002555825D01*
X0003118364Y0002553796D01*
X0003124527Y0002550503D01*
X0003125934Y0002549348D01*
X0003129928Y0002546070D01*
X0003133206Y0002542075D01*
X0003134361Y0002540668D01*
X0003137655Y0002534506D01*
X0003139683Y0002527819D01*
X0003140368Y0002520866D01*
X0003139683Y0002513912D01*
X0003137655Y0002507225D01*
X0003134361Y0002501063D01*
X0003133206Y0002499656D01*
X0003129928Y0002495661D01*
X0003125934Y0002492383D01*
X0003124527Y0002491229D01*
X0003118364Y0002487935D01*
X0003111678Y0002485906D01*
X0003109072Y0002485650D01*
X0003106466Y0002485393D01*
X0003102981Y0002485393D01*
X0003100376Y0002485650D01*
X0003097770Y0002485906D01*
X0003091084Y0002487935D01*
X0003084921Y0002491229D01*
X0003083514Y0002492383D01*
X0003079520Y0002495661D01*
X0003076242Y0002499656D01*
X0003075087Y0002501063D01*
X0003071793Y0002507225D01*
X0003069765Y0002513912D01*
X0003069080Y0002520866D01*
X0003069765Y0002527819D01*
X0003071793Y0002534506D01*
X0003075087Y0002540668D01*
X0003076242Y0002542075D01*
X0003079520Y0002546070D01*
X0003083514Y0002549348D01*
X0003084921Y0002550503D01*
X0003091084Y0002553796D01*
X0003097770Y0002555825D01*
X0003100376Y0002556081D01*
X0003102981Y0002556338D01*
X0003106466Y0002556338D01*
X0003109072Y0002556081D01*
X0003109072Y0002556081D01*
G37*
G36*
X0002209072Y0002656081D02*
G01*
X0002211678Y0002655825D01*
X0002218364Y0002653796D01*
X0002224527Y0002650503D01*
X0002225934Y0002649348D01*
X0002229928Y0002646070D01*
X0002233206Y0002642075D01*
X0002234361Y0002640668D01*
X0002237655Y0002634506D01*
X0002239683Y0002627819D01*
X0002240368Y0002620866D01*
X0002239683Y0002613912D01*
X0002237655Y0002607225D01*
X0002234361Y0002601063D01*
X0002233206Y0002599656D01*
X0002229928Y0002595661D01*
X0002225934Y0002592383D01*
X0002224527Y0002591229D01*
X0002218364Y0002587935D01*
X0002211678Y0002585906D01*
X0002209072Y0002585650D01*
X0002206466Y0002585393D01*
X0002202981Y0002585393D01*
X0002200376Y0002585650D01*
X0002197770Y0002585906D01*
X0002191083Y0002587935D01*
X0002184921Y0002591229D01*
X0002183514Y0002592383D01*
X0002179520Y0002595661D01*
X0002176242Y0002599656D01*
X0002175087Y0002601063D01*
X0002171793Y0002607225D01*
X0002169765Y0002613912D01*
X0002169080Y0002620866D01*
X0002169765Y0002627819D01*
X0002171793Y0002634506D01*
X0002175087Y0002640668D01*
X0002176242Y0002642075D01*
X0002179520Y0002646070D01*
X0002183514Y0002649348D01*
X0002184921Y0002650503D01*
X0002191083Y0002653796D01*
X0002197770Y0002655825D01*
X0002200376Y0002656081D01*
X0002202981Y0002656338D01*
X0002206466Y0002656338D01*
X0002209072Y0002656081D01*
X0002209072Y0002656081D01*
G37*
G36*
X0003140196Y0002585393D02*
G01*
X0003069251Y0002585393D01*
X0003069251Y0002656338D01*
X0003140196Y0002656338D01*
X0003140196Y0002585393D01*
X0003140196Y0002585393D01*
G37*
G36*
X0002209072Y0002756081D02*
G01*
X0002211678Y0002755825D01*
X0002218364Y0002753796D01*
X0002224527Y0002750503D01*
X0002225934Y0002749348D01*
X0002229928Y0002746070D01*
X0002233206Y0002742075D01*
X0002234361Y0002740668D01*
X0002237655Y0002734506D01*
X0002239683Y0002727819D01*
X0002240368Y0002720866D01*
X0002239683Y0002713912D01*
X0002237655Y0002707225D01*
X0002234361Y0002701063D01*
X0002233206Y0002699656D01*
X0002229928Y0002695661D01*
X0002225934Y0002692383D01*
X0002224527Y0002691229D01*
X0002218364Y0002687935D01*
X0002211678Y0002685906D01*
X0002209072Y0002685650D01*
X0002206466Y0002685393D01*
X0002202981Y0002685393D01*
X0002200376Y0002685650D01*
X0002197770Y0002685906D01*
X0002191083Y0002687935D01*
X0002184921Y0002691229D01*
X0002183514Y0002692383D01*
X0002179520Y0002695661D01*
X0002176242Y0002699656D01*
X0002175087Y0002701063D01*
X0002171793Y0002707225D01*
X0002169765Y0002713912D01*
X0002169080Y0002720866D01*
X0002169765Y0002727819D01*
X0002171793Y0002734506D01*
X0002175087Y0002740668D01*
X0002176242Y0002742075D01*
X0002179520Y0002746070D01*
X0002183514Y0002749348D01*
X0002184921Y0002750503D01*
X0002191083Y0002753796D01*
X0002197770Y0002755825D01*
X0002200376Y0002756081D01*
X0002202981Y0002756338D01*
X0002206466Y0002756338D01*
X0002209072Y0002756081D01*
X0002209072Y0002756081D01*
G37*
G36*
X0003140196Y0002685393D02*
G01*
X0003069251Y0002685393D01*
X0003069251Y0002756338D01*
X0003140196Y0002756338D01*
X0003140196Y0002685393D01*
X0003140196Y0002685393D01*
G37*
G36*
X0002209072Y0002856081D02*
G01*
X0002211678Y0002855825D01*
X0002218364Y0002853796D01*
X0002224527Y0002850503D01*
X0002225934Y0002849348D01*
X0002229928Y0002846070D01*
X0002233206Y0002842075D01*
X0002234361Y0002840668D01*
X0002237655Y0002834506D01*
X0002239683Y0002827819D01*
X0002240368Y0002820866D01*
X0002239683Y0002813912D01*
X0002237655Y0002807225D01*
X0002234361Y0002801063D01*
X0002233206Y0002799656D01*
X0002229928Y0002795661D01*
X0002225934Y0002792383D01*
X0002224527Y0002791229D01*
X0002218364Y0002787935D01*
X0002211678Y0002785906D01*
X0002209072Y0002785650D01*
X0002206466Y0002785393D01*
X0002202981Y0002785393D01*
X0002200376Y0002785650D01*
X0002197770Y0002785906D01*
X0002191083Y0002787935D01*
X0002184921Y0002791229D01*
X0002183514Y0002792383D01*
X0002179520Y0002795661D01*
X0002176242Y0002799656D01*
X0002175087Y0002801063D01*
X0002171793Y0002807225D01*
X0002169765Y0002813912D01*
X0002169080Y0002820866D01*
X0002169765Y0002827819D01*
X0002171793Y0002834506D01*
X0002175087Y0002840668D01*
X0002176242Y0002842075D01*
X0002179520Y0002846070D01*
X0002183514Y0002849348D01*
X0002184921Y0002850503D01*
X0002191083Y0002853796D01*
X0002197770Y0002855825D01*
X0002200376Y0002856081D01*
X0002202981Y0002856338D01*
X0002206466Y0002856338D01*
X0002209072Y0002856081D01*
X0002209072Y0002856081D01*
G37*
G36*
X0003109072Y0002856081D02*
G01*
X0003111678Y0002855825D01*
X0003118364Y0002853796D01*
X0003124527Y0002850503D01*
X0003125934Y0002849348D01*
X0003129928Y0002846070D01*
X0003133206Y0002842075D01*
X0003134361Y0002840668D01*
X0003137655Y0002834506D01*
X0003139683Y0002827819D01*
X0003140368Y0002820866D01*
X0003139683Y0002813912D01*
X0003137655Y0002807225D01*
X0003134361Y0002801063D01*
X0003133206Y0002799656D01*
X0003129928Y0002795661D01*
X0003125934Y0002792383D01*
X0003124527Y0002791229D01*
X0003118364Y0002787935D01*
X0003111678Y0002785906D01*
X0003109072Y0002785650D01*
X0003106466Y0002785393D01*
X0003102981Y0002785393D01*
X0003100376Y0002785650D01*
X0003097770Y0002785906D01*
X0003091084Y0002787935D01*
X0003084921Y0002791229D01*
X0003083514Y0002792383D01*
X0003079520Y0002795661D01*
X0003076242Y0002799656D01*
X0003075087Y0002801063D01*
X0003071793Y0002807225D01*
X0003069765Y0002813912D01*
X0003069080Y0002820866D01*
X0003069765Y0002827819D01*
X0003071793Y0002834506D01*
X0003075087Y0002840668D01*
X0003076242Y0002842075D01*
X0003079520Y0002846070D01*
X0003083514Y0002849348D01*
X0003084921Y0002850503D01*
X0003091084Y0002853796D01*
X0003097770Y0002855825D01*
X0003100376Y0002856081D01*
X0003102981Y0002856338D01*
X0003106466Y0002856338D01*
X0003109072Y0002856081D01*
X0003109072Y0002856081D01*
G37*
G36*
X0002209072Y0002956081D02*
G01*
X0002211678Y0002955825D01*
X0002218364Y0002953796D01*
X0002224527Y0002950503D01*
X0002225934Y0002949348D01*
X0002229928Y0002946070D01*
X0002233206Y0002942075D01*
X0002234361Y0002940668D01*
X0002237655Y0002934506D01*
X0002239683Y0002927819D01*
X0002240368Y0002920866D01*
X0002239683Y0002913912D01*
X0002237655Y0002907225D01*
X0002234361Y0002901063D01*
X0002233206Y0002899656D01*
X0002229928Y0002895661D01*
X0002225934Y0002892383D01*
X0002224527Y0002891229D01*
X0002218364Y0002887935D01*
X0002211678Y0002885906D01*
X0002209072Y0002885650D01*
X0002206466Y0002885393D01*
X0002202981Y0002885393D01*
X0002200376Y0002885650D01*
X0002197770Y0002885906D01*
X0002191083Y0002887935D01*
X0002184921Y0002891229D01*
X0002183514Y0002892383D01*
X0002179520Y0002895661D01*
X0002176242Y0002899656D01*
X0002175087Y0002901063D01*
X0002171793Y0002907225D01*
X0002169765Y0002913912D01*
X0002169080Y0002920866D01*
X0002169765Y0002927819D01*
X0002171793Y0002934506D01*
X0002175087Y0002940668D01*
X0002176242Y0002942075D01*
X0002179520Y0002946070D01*
X0002183514Y0002949348D01*
X0002184921Y0002950503D01*
X0002191083Y0002953796D01*
X0002197770Y0002955825D01*
X0002200376Y0002956081D01*
X0002202981Y0002956338D01*
X0002206466Y0002956338D01*
X0002209072Y0002956081D01*
X0002209072Y0002956081D01*
G37*
G36*
X0003109072Y0002956081D02*
G01*
X0003111678Y0002955825D01*
X0003118364Y0002953796D01*
X0003124527Y0002950503D01*
X0003125934Y0002949348D01*
X0003129928Y0002946070D01*
X0003133206Y0002942075D01*
X0003134361Y0002940668D01*
X0003137655Y0002934506D01*
X0003139683Y0002927819D01*
X0003140368Y0002920866D01*
X0003139683Y0002913912D01*
X0003137655Y0002907225D01*
X0003134361Y0002901063D01*
X0003133206Y0002899656D01*
X0003129928Y0002895661D01*
X0003125934Y0002892383D01*
X0003124527Y0002891229D01*
X0003118364Y0002887935D01*
X0003111678Y0002885906D01*
X0003109072Y0002885650D01*
X0003106466Y0002885393D01*
X0003102981Y0002885393D01*
X0003100376Y0002885650D01*
X0003097770Y0002885906D01*
X0003091084Y0002887935D01*
X0003084921Y0002891229D01*
X0003083514Y0002892383D01*
X0003079520Y0002895661D01*
X0003076242Y0002899656D01*
X0003075087Y0002901063D01*
X0003071793Y0002907225D01*
X0003069765Y0002913912D01*
X0003069080Y0002920866D01*
X0003069765Y0002927819D01*
X0003071793Y0002934506D01*
X0003075087Y0002940668D01*
X0003076242Y0002942075D01*
X0003079520Y0002946070D01*
X0003083514Y0002949348D01*
X0003084921Y0002950503D01*
X0003091084Y0002953796D01*
X0003097770Y0002955825D01*
X0003100376Y0002956081D01*
X0003102981Y0002956338D01*
X0003106466Y0002956338D01*
X0003109072Y0002956081D01*
X0003109072Y0002956081D01*
G37*
G36*
X0002209072Y0003056081D02*
G01*
X0002211678Y0003055825D01*
X0002218364Y0003053796D01*
X0002224527Y0003050503D01*
X0002225934Y0003049348D01*
X0002229928Y0003046070D01*
X0002233206Y0003042075D01*
X0002234361Y0003040668D01*
X0002237655Y0003034506D01*
X0002239683Y0003027819D01*
X0002240368Y0003020866D01*
X0002239683Y0003013912D01*
X0002237655Y0003007225D01*
X0002234361Y0003001063D01*
X0002233206Y0002999656D01*
X0002229928Y0002995661D01*
X0002225934Y0002992383D01*
X0002224527Y0002991229D01*
X0002218364Y0002987935D01*
X0002211678Y0002985906D01*
X0002209072Y0002985650D01*
X0002206466Y0002985393D01*
X0002202981Y0002985393D01*
X0002200376Y0002985650D01*
X0002197770Y0002985906D01*
X0002191083Y0002987935D01*
X0002184921Y0002991229D01*
X0002183514Y0002992383D01*
X0002179520Y0002995661D01*
X0002176242Y0002999656D01*
X0002175087Y0003001063D01*
X0002171793Y0003007225D01*
X0002169765Y0003013912D01*
X0002169080Y0003020866D01*
X0002169765Y0003027819D01*
X0002171793Y0003034506D01*
X0002175087Y0003040668D01*
X0002176242Y0003042075D01*
X0002179520Y0003046070D01*
X0002183514Y0003049348D01*
X0002184921Y0003050503D01*
X0002191083Y0003053796D01*
X0002197770Y0003055825D01*
X0002200376Y0003056081D01*
X0002202981Y0003056338D01*
X0002206466Y0003056338D01*
X0002209072Y0003056081D01*
X0002209072Y0003056081D01*
G37*
G36*
X0003109072Y0003056081D02*
G01*
X0003111678Y0003055825D01*
X0003118364Y0003053796D01*
X0003124527Y0003050503D01*
X0003125934Y0003049348D01*
X0003129928Y0003046070D01*
X0003133206Y0003042075D01*
X0003134361Y0003040668D01*
X0003137655Y0003034506D01*
X0003139683Y0003027819D01*
X0003140368Y0003020866D01*
X0003139683Y0003013912D01*
X0003137655Y0003007225D01*
X0003134361Y0003001063D01*
X0003133206Y0002999656D01*
X0003129928Y0002995661D01*
X0003125934Y0002992383D01*
X0003124527Y0002991229D01*
X0003118364Y0002987935D01*
X0003111678Y0002985906D01*
X0003109072Y0002985650D01*
X0003106466Y0002985393D01*
X0003102981Y0002985393D01*
X0003100376Y0002985650D01*
X0003097770Y0002985906D01*
X0003091084Y0002987935D01*
X0003084921Y0002991229D01*
X0003083514Y0002992383D01*
X0003079520Y0002995661D01*
X0003076242Y0002999656D01*
X0003075087Y0003001063D01*
X0003071793Y0003007225D01*
X0003069765Y0003013912D01*
X0003069080Y0003020866D01*
X0003069765Y0003027819D01*
X0003071793Y0003034506D01*
X0003075087Y0003040668D01*
X0003076242Y0003042075D01*
X0003079520Y0003046070D01*
X0003083514Y0003049348D01*
X0003084921Y0003050503D01*
X0003091084Y0003053796D01*
X0003097770Y0003055825D01*
X0003100376Y0003056081D01*
X0003102981Y0003056338D01*
X0003106466Y0003056338D01*
X0003109072Y0003056081D01*
X0003109072Y0003056081D01*
G37*
G36*
X0002209072Y0003156081D02*
G01*
X0002211678Y0003155825D01*
X0002218364Y0003153796D01*
X0002224527Y0003150503D01*
X0002225934Y0003149348D01*
X0002229928Y0003146070D01*
X0002233206Y0003142075D01*
X0002234361Y0003140668D01*
X0002237655Y0003134506D01*
X0002239683Y0003127819D01*
X0002240368Y0003120866D01*
X0002239683Y0003113912D01*
X0002237655Y0003107225D01*
X0002234361Y0003101063D01*
X0002233206Y0003099656D01*
X0002229928Y0003095661D01*
X0002225934Y0003092383D01*
X0002224527Y0003091229D01*
X0002218364Y0003087935D01*
X0002211678Y0003085906D01*
X0002209072Y0003085650D01*
X0002206466Y0003085393D01*
X0002202981Y0003085393D01*
X0002200376Y0003085650D01*
X0002197770Y0003085906D01*
X0002191083Y0003087935D01*
X0002184921Y0003091229D01*
X0002183514Y0003092383D01*
X0002179520Y0003095661D01*
X0002176242Y0003099656D01*
X0002175087Y0003101063D01*
X0002171793Y0003107225D01*
X0002169765Y0003113912D01*
X0002169080Y0003120866D01*
X0002169765Y0003127819D01*
X0002171793Y0003134506D01*
X0002175087Y0003140668D01*
X0002176242Y0003142075D01*
X0002179520Y0003146070D01*
X0002183514Y0003149348D01*
X0002184921Y0003150503D01*
X0002191083Y0003153796D01*
X0002197770Y0003155825D01*
X0002200376Y0003156081D01*
X0002202981Y0003156338D01*
X0002206466Y0003156338D01*
X0002209072Y0003156081D01*
X0002209072Y0003156081D01*
G37*
G36*
X0003109072Y0003156081D02*
G01*
X0003111678Y0003155825D01*
X0003118364Y0003153796D01*
X0003124527Y0003150503D01*
X0003125934Y0003149348D01*
X0003129928Y0003146070D01*
X0003133206Y0003142075D01*
X0003134361Y0003140668D01*
X0003137655Y0003134506D01*
X0003139683Y0003127819D01*
X0003140368Y0003120866D01*
X0003139683Y0003113912D01*
X0003137655Y0003107225D01*
X0003134361Y0003101063D01*
X0003133206Y0003099656D01*
X0003129928Y0003095661D01*
X0003125934Y0003092383D01*
X0003124527Y0003091229D01*
X0003118364Y0003087935D01*
X0003111678Y0003085906D01*
X0003109072Y0003085650D01*
X0003106466Y0003085393D01*
X0003102981Y0003085393D01*
X0003100376Y0003085650D01*
X0003097770Y0003085906D01*
X0003091084Y0003087935D01*
X0003084921Y0003091229D01*
X0003083514Y0003092383D01*
X0003079520Y0003095661D01*
X0003076242Y0003099656D01*
X0003075087Y0003101063D01*
X0003071793Y0003107225D01*
X0003069765Y0003113912D01*
X0003069080Y0003120866D01*
X0003069765Y0003127819D01*
X0003071793Y0003134506D01*
X0003075087Y0003140668D01*
X0003076242Y0003142075D01*
X0003079520Y0003146070D01*
X0003083514Y0003149348D01*
X0003084921Y0003150503D01*
X0003091084Y0003153796D01*
X0003097770Y0003155825D01*
X0003100376Y0003156081D01*
X0003102981Y0003156338D01*
X0003106466Y0003156338D01*
X0003109072Y0003156081D01*
X0003109072Y0003156081D01*
G37*
G36*
X0003109072Y0003256081D02*
G01*
X0003111678Y0003255825D01*
X0003118364Y0003253796D01*
X0003124527Y0003250503D01*
X0003125934Y0003249348D01*
X0003129928Y0003246070D01*
X0003133206Y0003242075D01*
X0003134361Y0003240668D01*
X0003137655Y0003234506D01*
X0003139683Y0003227819D01*
X0003140368Y0003220866D01*
X0003139683Y0003213912D01*
X0003137655Y0003207225D01*
X0003134361Y0003201063D01*
X0003133206Y0003199656D01*
X0003129928Y0003195661D01*
X0003125934Y0003192383D01*
X0003124527Y0003191229D01*
X0003118364Y0003187935D01*
X0003111678Y0003185906D01*
X0003109072Y0003185650D01*
X0003106466Y0003185393D01*
X0003102981Y0003185393D01*
X0003100376Y0003185650D01*
X0003097770Y0003185906D01*
X0003091084Y0003187935D01*
X0003084921Y0003191229D01*
X0003083514Y0003192383D01*
X0003079520Y0003195661D01*
X0003076242Y0003199656D01*
X0003075087Y0003201063D01*
X0003071793Y0003207225D01*
X0003069765Y0003213912D01*
X0003069080Y0003220866D01*
X0003069765Y0003227819D01*
X0003071793Y0003234506D01*
X0003075087Y0003240668D01*
X0003076242Y0003242075D01*
X0003079520Y0003246070D01*
X0003083514Y0003249348D01*
X0003084921Y0003250503D01*
X0003091084Y0003253796D01*
X0003097770Y0003255825D01*
X0003100376Y0003256081D01*
X0003102981Y0003256338D01*
X0003106466Y0003256338D01*
X0003109072Y0003256081D01*
X0003109072Y0003256081D01*
G37*
G36*
X0002209072Y0003256081D02*
G01*
X0002211678Y0003255825D01*
X0002218364Y0003253796D01*
X0002224527Y0003250503D01*
X0002225934Y0003249348D01*
X0002229928Y0003246070D01*
X0002233206Y0003242075D01*
X0002234361Y0003240668D01*
X0002237655Y0003234506D01*
X0002239683Y0003227819D01*
X0002240368Y0003220866D01*
X0002239683Y0003213912D01*
X0002237655Y0003207225D01*
X0002234361Y0003201063D01*
X0002233206Y0003199656D01*
X0002229928Y0003195661D01*
X0002225934Y0003192383D01*
X0002224527Y0003191229D01*
X0002218364Y0003187935D01*
X0002211678Y0003185906D01*
X0002209072Y0003185650D01*
X0002206466Y0003185393D01*
X0002202981Y0003185393D01*
X0002200376Y0003185650D01*
X0002197770Y0003185906D01*
X0002191083Y0003187935D01*
X0002184921Y0003191229D01*
X0002183514Y0003192383D01*
X0002179520Y0003195661D01*
X0002176242Y0003199656D01*
X0002175087Y0003201063D01*
X0002171793Y0003207225D01*
X0002169765Y0003213912D01*
X0002169080Y0003220866D01*
X0002169765Y0003227819D01*
X0002171793Y0003234506D01*
X0002175087Y0003240668D01*
X0002176242Y0003242075D01*
X0002179520Y0003246070D01*
X0002183514Y0003249348D01*
X0002184921Y0003250503D01*
X0002191083Y0003253796D01*
X0002197770Y0003255825D01*
X0002200376Y0003256081D01*
X0002202981Y0003256338D01*
X0002206466Y0003256338D01*
X0002209072Y0003256081D01*
X0002209072Y0003256081D01*
G37*
G36*
X0002240196Y0003285393D02*
G01*
X0002169251Y0003285393D01*
X0002169251Y0003356338D01*
X0002240196Y0003356338D01*
X0002240196Y0003285393D01*
X0002240196Y0003285393D01*
G37*
G36*
X0002209072Y0003456081D02*
G01*
X0002211678Y0003455825D01*
X0002218364Y0003453796D01*
X0002224527Y0003450503D01*
X0002225934Y0003449348D01*
X0002229928Y0003446070D01*
X0002233206Y0003442075D01*
X0002234361Y0003440668D01*
X0002237655Y0003434506D01*
X0002239683Y0003427819D01*
X0002240368Y0003420866D01*
X0002239683Y0003413912D01*
X0002237655Y0003407225D01*
X0002234361Y0003401063D01*
X0002233206Y0003399656D01*
X0002229928Y0003395661D01*
X0002225934Y0003392383D01*
X0002224527Y0003391229D01*
X0002218364Y0003387935D01*
X0002211678Y0003385906D01*
X0002209072Y0003385650D01*
X0002206466Y0003385393D01*
X0002202981Y0003385393D01*
X0002200376Y0003385650D01*
X0002197770Y0003385906D01*
X0002191083Y0003387935D01*
X0002184921Y0003391229D01*
X0002183514Y0003392383D01*
X0002179520Y0003395661D01*
X0002176242Y0003399656D01*
X0002175087Y0003401063D01*
X0002171793Y0003407225D01*
X0002169765Y0003413912D01*
X0002169080Y0003420866D01*
X0002169765Y0003427819D01*
X0002171793Y0003434506D01*
X0002175087Y0003440668D01*
X0002176242Y0003442075D01*
X0002179520Y0003446070D01*
X0002183514Y0003449348D01*
X0002184921Y0003450503D01*
X0002191083Y0003453796D01*
X0002197770Y0003455825D01*
X0002200376Y0003456081D01*
X0002202981Y0003456338D01*
X0002206466Y0003456338D01*
X0002209072Y0003456081D01*
X0002209072Y0003456081D01*
G37*
M02*