%
M48
METRIC,000.000
T01C0.50
%
T01
X022209Y078724
X022209Y077724
X022209Y076724
X022209Y075724
X022209Y074724
X022209Y073724
X019709Y073553
X019709Y074553
X019709Y075553
X019709Y076553
X019709Y077553
X019709Y078553
X038653Y048569
X037653Y048569
X036653Y048569
X035653Y048569
X034653Y048569
X033653Y048569
X034092Y050318
X035092Y050318
X036092Y050318
X037092Y050318
X038092Y050318
X070653Y048569
X069653Y048569
X068653Y048569
X067653Y048569
X066653Y048569
X065653Y048569
X066092Y050318
X067092Y050318
X068092Y050318
X069092Y050318
X070092Y050318
X050649Y023277
X050649Y024277
X050649Y025277
X050649Y026277
X050649Y027277
X053209Y027724
X053209Y026724
X053209Y025724
X053209Y024724
X053209Y023724
X053209Y022724
X050649Y074277
X050649Y075277
X050649Y076277
X050649Y077277
X050649Y078277
X053209Y078724
X053209Y077724
X053209Y076724
X053209Y075724
X053209Y074724
X053209Y073724
X022209Y026724
X022209Y025724
X022209Y024724
X022209Y023724
X022209Y022724
X022209Y021724
X019709Y021803
X019709Y022803
X019709Y023803
X019709Y024803
X019709Y025803
X081649Y023277
X081649Y024277
X081649Y025277
X081649Y026277
X081649Y027277
X084149Y027278
X084149Y026278
X084149Y025278
X084149Y024278
X084149Y023278
X084149Y022278
X081649Y074277
X081649Y075277
X081649Y076277
X081649Y077277
X081649Y078277
X084149Y078028
X084149Y077028
X084149Y076028
X084149Y075028
X084149Y074028
M30