%MOIN*%
%OFA0B0*%
%FSLAX36Y36*%
%IPPOS*%
%LPD*%
%ADD10C,0*%
D10*
X003204724Y001702362D02*
X003204724Y001702362D01*
X003204329Y001714920D01*
X003203147Y001727429D01*
X003201181Y001739838D01*
X003198441Y001752100D01*
X003194935Y001764165D01*
X003190679Y001775987D01*
X003185689Y001787518D01*
X003179985Y001798712D01*
X003173589Y001809528D01*
X003166527Y001819919D01*
X003158827Y001829847D01*
X003150518Y001839271D01*
X003141633Y001848156D01*
X003132208Y001856465D01*
X003122281Y001864165D01*
X003111890Y001871227D01*
X003101074Y001877623D01*
X003089880Y001883328D01*
X003078348Y001888317D01*
X003066527Y001892573D01*
X003054462Y001896079D01*
X003042200Y001898819D01*
X003029791Y001900785D01*
X003017282Y001901967D01*
X003004724Y001902362D01*
X002792201Y001902362D01*
X002791025Y001902379D01*
X002789849Y001902432D01*
X002788676Y001902520D01*
X002787506Y001902643D01*
X002786340Y001902800D01*
X002785179Y001902993D01*
X002784025Y001903220D01*
X002782878Y001903482D01*
X002781739Y001903777D01*
X002780610Y001904107D01*
X002779491Y001904470D01*
X002778383Y001904866D01*
X002777287Y001905296D01*
X002776205Y001905758D01*
X002775138Y001906252D01*
X002774085Y001906777D01*
X002773049Y001907334D01*
X002772029Y001907922D01*
X002771028Y001908540D01*
X002770046Y001909187D01*
X002755703Y001918951D01*
X002751754Y001922025D01*
X002748226Y001925574D01*
X002745177Y001929542D01*
X002742656Y001933865D01*
X002740704Y001938473D01*
X002739352Y001943291D01*
X002738623Y001948242D01*
X002738527Y001953246D01*
X002739067Y001958221D01*
X002740233Y001963087D01*
X002742007Y001967766D01*
X002744361Y001972183D01*
X002747256Y001976265D01*
X002750645Y001979947D01*
X002754474Y001983169D01*
X002758680Y001985879D01*
X002763197Y001988034D01*
X002767950Y001989599D01*
X002772864Y001990548D01*
X002777858Y001990866D01*
X003004724Y001990866D01*
X003004724Y001990865D01*
X003017282Y001991261D01*
X003029791Y001992443D01*
X003042200Y001994409D01*
X003054462Y001997149D01*
X003066527Y002000654D01*
X003078348Y002004911D01*
X003089880Y002009900D01*
X003101074Y002015604D01*
X003111890Y002022001D01*
X003122281Y002029062D01*
X003132208Y002036763D01*
X003141633Y002045072D01*
X003150518Y002053957D01*
X003158827Y002063381D01*
X003166527Y002073309D01*
X003173589Y002083700D01*
X003179985Y002094515D01*
X003185689Y002105710D01*
X003190679Y002117241D01*
X003194935Y002129063D01*
X003198441Y002141128D01*
X003201181Y002153389D01*
X003203147Y002165799D01*
X003204329Y002178308D01*
X003204724Y002190865D01*
X003204724Y002892216D01*
X003204863Y002895530D01*
X003205282Y002898822D01*
X003205976Y002902066D01*
X003206941Y002905240D01*
X003208169Y002908322D01*
X003209653Y002911290D01*
X003211381Y002914122D01*
X003213341Y002916798D01*
X003215520Y002919300D01*
X003217902Y002921609D01*
X003220470Y002923710D01*
X003223205Y002925587D01*
X003226089Y002927228D01*
X003229101Y002928619D01*
X003232219Y002929752D01*
X003235422Y002930619D01*
X003238686Y002931212D01*
X003241989Y002931529D01*
X003245306Y002931567D01*
X003248615Y002931325D01*
X003287984Y002926774D01*
X003290816Y002926342D01*
X003293610Y002925705D01*
X003296349Y002924866D01*
X003299020Y002923830D01*
X003301609Y002922603D01*
X003304102Y002921191D01*
X003306485Y002919602D01*
X003308747Y002917843D01*
X003310875Y002915924D01*
X003312857Y002913856D01*
X003314684Y002911649D01*
X003316345Y002909315D01*
X003317833Y002906867D01*
X003319138Y002904316D01*
X003320255Y002901678D01*
X003321176Y002898965D01*
X003321898Y002896193D01*
X003322417Y002893375D01*
X003322729Y002890527D01*
X003322833Y002887664D01*
X003322833Y002189320D01*
X003322824Y002188702D01*
X003322283Y002171502D01*
X003322206Y002170270D01*
X003320442Y002151613D01*
X003320286Y002150374D01*
X003317353Y002131857D01*
X003317121Y002130642D01*
X003313033Y002112351D01*
X003312722Y002111140D01*
X003307491Y002093138D01*
X003307110Y002091965D01*
X003300757Y002074320D01*
X003300303Y002073173D01*
X003292857Y002055965D01*
X003292329Y002054842D01*
X003283817Y002038137D01*
X003283224Y002037057D01*
X003273674Y002020909D01*
X003273015Y002019871D01*
X003262469Y002004355D01*
X003261753Y002003369D01*
X003250253Y001988542D01*
X003249472Y001987598D01*
X003237043Y001973500D01*
X003236337Y001972726D01*
X003235606Y001971877D01*
X003234900Y001971009D01*
X003234218Y001970120D01*
X003233562Y001969212D01*
X003232934Y001968287D01*
X003232330Y001967343D01*
X003231754Y001966382D01*
X003231205Y001965406D01*
X003230685Y001964415D01*
X003230193Y001963408D01*
X003229729Y001962389D01*
X003229295Y001961357D01*
X003228891Y001960312D01*
X003228517Y001959257D01*
X003228172Y001958191D01*
X003227858Y001957116D01*
X003227574Y001956033D01*
X003227322Y001954941D01*
X003227100Y001953844D01*
X003226910Y001952740D01*
X003226752Y001951632D01*
X003226625Y001950519D01*
X003226530Y001949403D01*
X003226467Y001948285D01*
X003226435Y001947165D01*
X003226435Y001946045D01*
X003226467Y001944926D01*
X003226531Y001943808D01*
X003226626Y001942692D01*
X003226754Y001941579D01*
X003226913Y001940471D01*
X003227103Y001939367D01*
X003227326Y001938270D01*
X003227578Y001937178D01*
X003227862Y001936096D01*
X003228176Y001935020D01*
X003228522Y001933955D01*
X003228897Y001932900D01*
X003229301Y001931855D01*
X003229736Y001930824D01*
X003230200Y001929804D01*
X003230692Y001928799D01*
X003231213Y001927807D01*
X003231762Y001926831D01*
X003232338Y001925870D01*
X003232942Y001924927D01*
X003233572Y001924002D01*
X003234228Y001923094D01*
X003234910Y001922205D01*
X003235616Y001921337D01*
X003236348Y001920488D01*
X003237044Y001919725D01*
X003249465Y001905636D01*
X003250260Y001904676D01*
X003261746Y001889868D01*
X003262474Y001888864D01*
X003273009Y001873364D01*
X003273680Y001872308D01*
X003283220Y001856176D01*
X003283820Y001855083D01*
X003292330Y001838385D01*
X003292857Y001837264D01*
X003300304Y001820053D01*
X003300758Y001818905D01*
X003307110Y001801262D01*
X003307489Y001800096D01*
X003312723Y001782083D01*
X003313033Y001780876D01*
X003317121Y001762585D01*
X003317353Y001761370D01*
X003320286Y001742853D01*
X003320442Y001741614D01*
X003322206Y001722957D01*
X003322283Y001721725D01*
X003322824Y001704524D01*
X003322833Y001703906D01*
X003322833Y001088713D01*
X003322729Y001085850D01*
X003322417Y001083002D01*
X003321898Y001080184D01*
X003321176Y001077412D01*
X003320255Y001074699D01*
X003319138Y001072060D01*
X003317833Y001069510D01*
X003316345Y001067062D01*
X003314684Y001064728D01*
X003312857Y001062521D01*
X003310875Y001060453D01*
X003308747Y001058534D01*
X003306485Y001056775D01*
X003304102Y001055186D01*
X003301609Y001053774D01*
X003299020Y001052547D01*
X003296349Y001051511D01*
X003293610Y001050672D01*
X003290816Y001050035D01*
X003287984Y001049603D01*
X003248615Y001045052D01*
X003245306Y001044810D01*
X003241989Y001044848D01*
X003238686Y001045164D01*
X003235422Y001045758D01*
X003232219Y001046625D01*
X003229101Y001047758D01*
X003226089Y001049149D01*
X003223205Y001050789D01*
X003220470Y001052667D01*
X003217902Y001054768D01*
X003215520Y001057077D01*
X003213341Y001059579D01*
X003211381Y001062255D01*
X003209653Y001065087D01*
X003208169Y001068055D01*
X003206941Y001071137D01*
X003205976Y001074311D01*
X003205282Y001077555D01*
X003204863Y001080847D01*
X003204724Y001084161D01*
X003204724Y001702362D01*
X001084251Y001902362D02*
X001084251Y001902362D01*
X001071693Y001901967D01*
X001059185Y001900785D01*
X001046775Y001898819D01*
X001034514Y001896079D01*
X001022448Y001892573D01*
X001010626Y001888317D01*
X000999095Y001883328D01*
X000987901Y001877623D01*
X000977086Y001871227D01*
X000966694Y001864165D01*
X000956766Y001856465D01*
X000947342Y001848156D01*
X000938457Y001839271D01*
X000930149Y001829847D01*
X000922448Y001819919D01*
X000915386Y001809528D01*
X000908990Y001798712D01*
X000903286Y001787518D01*
X000898296Y001775987D01*
X000894040Y001764165D01*
X000890535Y001752100D01*
X000887794Y001739838D01*
X000885828Y001727429D01*
X000884646Y001714920D01*
X000884251Y001702362D01*
X000884251Y001048061D01*
X000884137Y001045063D01*
X000883795Y001042082D01*
X000883226Y001039136D01*
X000882435Y001036241D01*
X000881426Y001033416D01*
X000880205Y001030675D01*
X000878778Y001028035D01*
X000877154Y001025512D01*
X000875343Y001023120D01*
X000873355Y001020872D01*
X000871202Y001018783D01*
X000868896Y001016863D01*
X000866450Y001015125D01*
X000863879Y001013578D01*
X000861198Y001012231D01*
X000858422Y001011093D01*
X000855567Y001010169D01*
X000852650Y001009465D01*
X000849688Y001008986D01*
X000846699Y001008733D01*
X000807328Y001006914D01*
X000804146Y001006895D01*
X000800972Y001007134D01*
X000797829Y001007628D01*
X000794736Y001008375D01*
X000791713Y001009369D01*
X000788780Y001010604D01*
X000785956Y001012071D01*
X000783261Y001013762D01*
X000780710Y001015665D01*
X000778322Y001017768D01*
X000776111Y001020057D01*
X000774092Y001022516D01*
X000772279Y001025131D01*
X000770682Y001027884D01*
X000769314Y001030757D01*
X000768181Y001033731D01*
X000767293Y001036786D01*
X000766654Y001039904D01*
X000766269Y001043062D01*
X000766140Y001046242D01*
X000766140Y001703905D01*
X000766150Y001704524D01*
X000766691Y001721728D01*
X000766768Y001722952D01*
X000768533Y001741621D01*
X000768689Y001742858D01*
X000771622Y001761369D01*
X000771854Y001762586D01*
X000775942Y001780878D01*
X000776251Y001782082D01*
X000781482Y001800086D01*
X000781865Y001801264D01*
X000788214Y001818902D01*
X000788667Y001820046D01*
X000796120Y001837270D01*
X000796645Y001838385D01*
X000805156Y001855086D01*
X000805755Y001856175D01*
X000815296Y001872311D01*
X000815960Y001873357D01*
X000826502Y001888868D01*
X000827228Y001889868D01*
X000838718Y001904679D01*
X000839508Y001905634D01*
X000851933Y001919728D01*
X000852637Y001920500D01*
X000853368Y001921347D01*
X000854073Y001922217D01*
X000854755Y001923105D01*
X000855411Y001924013D01*
X000856040Y001924939D01*
X000856644Y001925882D01*
X000857219Y001926842D01*
X000857768Y001927818D01*
X000858289Y001928810D01*
X000858780Y001929816D01*
X000859244Y001930835D01*
X000859678Y001931867D01*
X000860082Y001932911D01*
X000860457Y001933966D01*
X000860801Y001935031D01*
X000861116Y001936107D01*
X000861400Y001937190D01*
X000861651Y001938281D01*
X000861873Y001939378D01*
X000862063Y001940481D01*
X000862222Y001941590D01*
X000862349Y001942702D01*
X000862445Y001943818D01*
X000862508Y001944935D01*
X000862540Y001946055D01*
X000862540Y001947174D01*
X000862508Y001948294D01*
X000862444Y001949412D01*
X000862349Y001950528D01*
X000862222Y001951640D01*
X000862063Y001952748D01*
X000861873Y001953851D01*
X000861651Y001954949D01*
X000861398Y001956040D01*
X000861115Y001957123D01*
X000860801Y001958198D01*
X000860456Y001959263D01*
X000860082Y001960318D01*
X000859677Y001961362D01*
X000859242Y001962394D01*
X000858779Y001963413D01*
X000858287Y001964420D01*
X000857767Y001965411D01*
X000857218Y001966387D01*
X000856642Y001967347D01*
X000856039Y001968290D01*
X000855409Y001969216D01*
X000854753Y001970124D01*
X000854072Y001971012D01*
X000853366Y001971881D01*
X000852635Y001972729D01*
X000851935Y001973497D01*
X000839511Y001987589D01*
X000838714Y001988553D01*
X000827229Y002003359D01*
X000826502Y002004360D01*
X000815959Y002019870D01*
X000815296Y002020915D01*
X000805753Y002037054D01*
X000805159Y002038135D01*
X000796643Y002054846D01*
X000796120Y002055958D01*
X000788672Y002073169D01*
X000788213Y002074329D01*
X000781864Y002091965D01*
X000781482Y002093141D01*
X000776250Y002111148D01*
X000775944Y002112342D01*
X000771854Y002130642D01*
X000771621Y002131862D01*
X000768689Y002150369D01*
X000768533Y002151607D01*
X000766768Y002170274D01*
X000766691Y002171498D01*
X000766150Y002188703D01*
X000766140Y002189322D01*
X000766140Y002890765D01*
X000766269Y002893945D01*
X000766654Y002897103D01*
X000767293Y002900221D01*
X000768181Y002903276D01*
X000769314Y002906250D01*
X000770682Y002909123D01*
X000772279Y002911876D01*
X000774092Y002914490D01*
X000776111Y002916950D01*
X000778322Y002919239D01*
X000780710Y002921342D01*
X000783261Y002923245D01*
X000785956Y002924936D01*
X000788780Y002926403D01*
X000791713Y002927638D01*
X000794736Y002928632D01*
X000797829Y002929378D01*
X000800972Y002929873D01*
X000804146Y002930111D01*
X000807328Y002930093D01*
X000846699Y002928274D01*
X000849688Y002928021D01*
X000852650Y002927542D01*
X000855567Y002926838D01*
X000858422Y002925914D01*
X000861198Y002924776D01*
X000863879Y002923429D01*
X000866450Y002921882D01*
X000868896Y002920144D01*
X000871202Y002918224D01*
X000873355Y002916135D01*
X000875343Y002913887D01*
X000877154Y002911495D01*
X000878778Y002908971D01*
X000880205Y002906332D01*
X000881426Y002903591D01*
X000882435Y002900766D01*
X000883226Y002897871D01*
X000883795Y002894925D01*
X000884137Y002891944D01*
X000884251Y002888946D01*
X000884251Y002190865D01*
X000884646Y002178308D01*
X000885828Y002165799D01*
X000887794Y002153389D01*
X000890535Y002141128D01*
X000894040Y002129063D01*
X000898296Y002117241D01*
X000903286Y002105710D01*
X000908990Y002094515D01*
X000915386Y002083700D01*
X000922448Y002073309D01*
X000930149Y002063381D01*
X000938457Y002053957D01*
X000947342Y002045072D01*
X000956766Y002036763D01*
X000966694Y002029062D01*
X000977086Y002022001D01*
X000987901Y002015604D01*
X000999095Y002009900D01*
X001010626Y002004911D01*
X001022448Y002000654D01*
X001034514Y001997149D01*
X001046775Y001994409D01*
X001059185Y001992443D01*
X001071693Y001991261D01*
X001084251Y001990866D01*
X001316629Y001990866D01*
X001321623Y001990548D01*
X001326537Y001989599D01*
X001331290Y001988034D01*
X001335807Y001985879D01*
X001340013Y001983169D01*
X001343842Y001979947D01*
X001347232Y001976265D01*
X001350126Y001972183D01*
X001352480Y001967766D01*
X001354254Y001963087D01*
X001355421Y001958221D01*
X001355960Y001953246D01*
X001355865Y001948242D01*
X001355135Y001943291D01*
X001353783Y001938473D01*
X001351831Y001933865D01*
X001349310Y001929542D01*
X001346261Y001925574D01*
X001342734Y001922025D01*
X001338784Y001918951D01*
X001324441Y001909187D01*
X001323459Y001908540D01*
X001322458Y001907922D01*
X001321439Y001907334D01*
X001320402Y001906777D01*
X001319350Y001906252D01*
X001318282Y001905758D01*
X001317200Y001905296D01*
X001316104Y001904866D01*
X001314997Y001904470D01*
X001313878Y001904107D01*
X001312748Y001903777D01*
X001311609Y001903482D01*
X001310462Y001903220D01*
X001309308Y001902993D01*
X001308147Y001902800D01*
X001306981Y001902643D01*
X001305811Y001902520D01*
X001304638Y001902432D01*
X001303463Y001902379D01*
X001302286Y001902362D01*
X001084251Y001902362D01*
X001984251Y001702362D02*
X001984251Y001702362D01*
X001983857Y001714920D01*
X001982674Y001727429D01*
X001980709Y001739838D01*
X001977968Y001752100D01*
X001974463Y001764165D01*
X001970207Y001775987D01*
X001965217Y001787518D01*
X001959513Y001798712D01*
X001953117Y001809528D01*
X001946054Y001819919D01*
X001938354Y001829847D01*
X001930045Y001839271D01*
X001921160Y001848156D01*
X001911736Y001856465D01*
X001901808Y001864165D01*
X001891417Y001871227D01*
X001880602Y001877623D01*
X001869407Y001883328D01*
X001857876Y001888317D01*
X001846055Y001892573D01*
X001833989Y001896079D01*
X001821728Y001898819D01*
X001809318Y001900785D01*
X001796810Y001901967D01*
X001784252Y001902362D01*
X001532358Y001902362D01*
X001531182Y001902379D01*
X001530007Y001902432D01*
X001528833Y001902520D01*
X001527663Y001902643D01*
X001526497Y001902800D01*
X001525337Y001902993D01*
X001524182Y001903220D01*
X001523035Y001903482D01*
X001521897Y001903777D01*
X001520767Y001904107D01*
X001519648Y001904470D01*
X001518540Y001904866D01*
X001517445Y001905296D01*
X001516363Y001905758D01*
X001515295Y001906252D01*
X001514243Y001906777D01*
X001513206Y001907334D01*
X001512187Y001907922D01*
X001511186Y001908540D01*
X001510203Y001909187D01*
X001495860Y001918951D01*
X001491911Y001922025D01*
X001488383Y001925574D01*
X001485335Y001929542D01*
X001482814Y001933865D01*
X001480862Y001938473D01*
X001479510Y001943291D01*
X001478780Y001948242D01*
X001478684Y001953246D01*
X001479224Y001958221D01*
X001480390Y001963087D01*
X001482165Y001967766D01*
X001484518Y001972183D01*
X001487413Y001976265D01*
X001490802Y001979947D01*
X001494631Y001983169D01*
X001498838Y001985879D01*
X001503354Y001988034D01*
X001508108Y001989599D01*
X001513021Y001990548D01*
X001518015Y001990866D01*
X001784252Y001990866D01*
X001784252Y001990865D01*
X001796810Y001991261D01*
X001809318Y001992443D01*
X001821728Y001994409D01*
X001833989Y001997149D01*
X001846055Y002000654D01*
X001857876Y002004911D01*
X001869407Y002009900D01*
X001880602Y002015604D01*
X001891417Y002022001D01*
X001901808Y002029062D01*
X001911736Y002036763D01*
X001921160Y002045072D01*
X001930045Y002053957D01*
X001938354Y002063381D01*
X001946054Y002073309D01*
X001953117Y002083700D01*
X001959513Y002094515D01*
X001965217Y002105710D01*
X001970207Y002117241D01*
X001974463Y002129063D01*
X001977968Y002141128D01*
X001980709Y002153389D01*
X001982674Y002165799D01*
X001983857Y002178308D01*
X001984251Y002190865D01*
X001984251Y002892216D01*
X001984385Y002895458D01*
X001984785Y002898678D01*
X001985449Y002901855D01*
X001986373Y002904966D01*
X001987550Y002907990D01*
X001988971Y002910907D01*
X001990628Y002913697D01*
X001992509Y002916341D01*
X001994602Y002918822D01*
X001996892Y002921121D01*
X001999363Y002923224D01*
X002001999Y002925117D01*
X002004782Y002926786D01*
X002007693Y002928220D01*
X002010713Y002929409D01*
X002013820Y002930346D01*
X002016993Y002931024D01*
X002020212Y002931438D01*
X002023454Y002931585D01*
X002026697Y002931465D01*
X002068429Y002928196D01*
X002071347Y002927857D01*
X002074232Y002927302D01*
X002077067Y002926533D01*
X002079837Y002925555D01*
X002082526Y002924373D01*
X002085120Y002922994D01*
X002087603Y002921426D01*
X002089963Y002919677D01*
X002092186Y002917756D01*
X002094259Y002915675D01*
X002096172Y002913446D01*
X002097913Y002911080D01*
X002099473Y002908590D01*
X002100842Y002905992D01*
X002102015Y002903298D01*
X002102983Y002900525D01*
X002103741Y002897687D01*
X002104286Y002894800D01*
X002104614Y002891881D01*
X002104724Y002888946D01*
X002104724Y002190865D01*
X002105118Y002178308D01*
X002106301Y002165799D01*
X002108266Y002153389D01*
X002111007Y002141128D01*
X002114513Y002129063D01*
X002118768Y002117241D01*
X002123758Y002105710D01*
X002129463Y002094515D01*
X002135858Y002083700D01*
X002142920Y002073309D01*
X002150621Y002063381D01*
X002158930Y002053957D01*
X002167814Y002045072D01*
X002177239Y002036763D01*
X002187167Y002029062D01*
X002197558Y002022001D01*
X002208373Y002015604D01*
X002219568Y002009900D01*
X002231099Y002004911D01*
X002242920Y002000654D01*
X002254986Y001997149D01*
X002267248Y001994409D01*
X002279657Y001992443D01*
X002292166Y001991261D01*
X002304724Y001990866D01*
X002576472Y001990866D01*
X002581466Y001990548D01*
X002586379Y001989599D01*
X002591133Y001988034D01*
X002595649Y001985879D01*
X002599856Y001983169D01*
X002603685Y001979947D01*
X002607074Y001976265D01*
X002609969Y001972183D01*
X002612322Y001967766D01*
X002614097Y001963087D01*
X002615263Y001958221D01*
X002615803Y001953246D01*
X002615707Y001948242D01*
X002614977Y001943291D01*
X002613626Y001938473D01*
X002611674Y001933865D01*
X002609153Y001929542D01*
X002606104Y001925574D01*
X002602576Y001922025D01*
X002598627Y001918951D01*
X002584284Y001909187D01*
X002583302Y001908540D01*
X002582300Y001907922D01*
X002581281Y001907334D01*
X002580245Y001906777D01*
X002579192Y001906252D01*
X002578124Y001905758D01*
X002577042Y001905296D01*
X002575947Y001904866D01*
X002574839Y001904470D01*
X002573720Y001904107D01*
X002572591Y001903777D01*
X002571452Y001903482D01*
X002570305Y001903220D01*
X002569150Y001902993D01*
X002567990Y001902800D01*
X002566824Y001902643D01*
X002565654Y001902520D01*
X002564480Y001902432D01*
X002563305Y001902379D01*
X002562129Y001902362D01*
X002304724Y001902362D01*
X002292166Y001901967D01*
X002279657Y001900785D01*
X002267248Y001898819D01*
X002254986Y001896079D01*
X002242920Y001892573D01*
X002231099Y001888317D01*
X002219568Y001883328D01*
X002208373Y001877623D01*
X002197558Y001871227D01*
X002187167Y001864165D01*
X002177239Y001856465D01*
X002167814Y001848156D01*
X002158930Y001839271D01*
X002150621Y001829847D01*
X002142920Y001819919D01*
X002135858Y001809528D01*
X002129463Y001798712D01*
X002123758Y001787518D01*
X002118768Y001775987D01*
X002114513Y001764165D01*
X002111007Y001752100D01*
X002108266Y001739838D01*
X002106301Y001727429D01*
X002105118Y001714920D01*
X002104724Y001702362D01*
X002104724Y001087431D01*
X002104614Y001084496D01*
X002104286Y001081577D01*
X002103741Y001078690D01*
X002102983Y001075852D01*
X002102015Y001073079D01*
X002100842Y001070385D01*
X002099473Y001067787D01*
X002097913Y001065297D01*
X002096172Y001062931D01*
X002094259Y001060702D01*
X002092186Y001058621D01*
X002089963Y001056700D01*
X002087603Y001054951D01*
X002085120Y001053382D01*
X002082526Y001052003D01*
X002079837Y001050822D01*
X002077067Y001049844D01*
X002074232Y001049075D01*
X002071347Y001048520D01*
X002068429Y001048181D01*
X002026697Y001044912D01*
X002023454Y001044792D01*
X002020212Y001044939D01*
X002016993Y001045353D01*
X002013820Y001046031D01*
X002010713Y001046968D01*
X002007693Y001048157D01*
X002004782Y001049591D01*
X002001999Y001051260D01*
X001999363Y001053153D01*
X001996892Y001055256D01*
X001994602Y001057555D01*
X001992509Y001060036D01*
X001990628Y001062680D01*
X001988971Y001065470D01*
X001987550Y001068387D01*
X001986373Y001071411D01*
X001985449Y001074522D01*
X001984785Y001077699D01*
X001984385Y001080919D01*
X001984251Y001084161D01*
X001984251Y001702362D01*
X001784252Y000022361D02*
X001784252Y000022361D01*
X001796810Y000022757D01*
X001809318Y000023939D01*
X001821728Y000025905D01*
X001833989Y000028645D01*
X001846055Y000032150D01*
X001857876Y000036407D01*
X001869407Y000041396D01*
X001880602Y000047100D01*
X001891417Y000053497D01*
X001901808Y000060558D01*
X001911736Y000068259D01*
X001921160Y000076568D01*
X001930045Y000085453D01*
X001938354Y000094877D01*
X001946054Y000104805D01*
X001953117Y000115196D01*
X001959513Y000126011D01*
X001965217Y000137206D01*
X001970207Y000148737D01*
X001974463Y000160559D01*
X001977968Y000172624D01*
X001980709Y000184886D01*
X001982674Y000197295D01*
X001983857Y000209804D01*
X001984251Y000222362D01*
X001984251Y000884342D01*
X001984385Y000887584D01*
X001984785Y000890804D01*
X001985449Y000893981D01*
X001986373Y000897092D01*
X001987550Y000900116D01*
X001988971Y000903033D01*
X001990628Y000905823D01*
X001992509Y000908467D01*
X001994602Y000910948D01*
X001996892Y000913247D01*
X001999363Y000915350D01*
X002001999Y000917243D01*
X002004782Y000918912D01*
X002007693Y000920346D01*
X002010713Y000921535D01*
X002013820Y000922472D01*
X002016993Y000923150D01*
X002020212Y000923564D01*
X002023454Y000923711D01*
X002026697Y000923591D01*
X002068429Y000920322D01*
X002071347Y000919983D01*
X002074232Y000919428D01*
X002077067Y000918659D01*
X002079837Y000917681D01*
X002082526Y000916499D01*
X002085120Y000915120D01*
X002087603Y000913552D01*
X002089963Y000911803D01*
X002092186Y000909882D01*
X002094259Y000907801D01*
X002096172Y000905572D01*
X002097913Y000903206D01*
X002099473Y000900716D01*
X002100842Y000898118D01*
X002102015Y000895424D01*
X002102983Y000892651D01*
X002103741Y000889813D01*
X002104286Y000886926D01*
X002104614Y000884007D01*
X002104724Y000881072D01*
X002104724Y000222362D01*
X002105118Y000209804D01*
X002106301Y000197295D01*
X002108266Y000184886D01*
X002111007Y000172624D01*
X002114513Y000160559D01*
X002118768Y000148737D01*
X002123758Y000137206D01*
X002129463Y000126011D01*
X002135858Y000115196D01*
X002142920Y000104805D01*
X002150621Y000094877D01*
X002158930Y000085453D01*
X002167814Y000076568D01*
X002177239Y000068259D01*
X002187167Y000060558D01*
X002197558Y000053497D01*
X002208373Y000047100D01*
X002219568Y000041396D01*
X002231099Y000036407D01*
X002242920Y000032150D01*
X002254986Y000028645D01*
X002267248Y000025905D01*
X002279657Y000023939D01*
X002292166Y000022757D01*
X002304724Y000022362D01*
X003004724Y000022362D01*
X003004724Y000022361D01*
X003017282Y000022757D01*
X003029791Y000023939D01*
X003042200Y000025905D01*
X003054462Y000028645D01*
X003066527Y000032150D01*
X003078348Y000036407D01*
X003089880Y000041396D01*
X003101074Y000047100D01*
X003111890Y000053497D01*
X003122281Y000060558D01*
X003132208Y000068259D01*
X003141633Y000076568D01*
X003150518Y000085453D01*
X003158827Y000094877D01*
X003166527Y000104805D01*
X003173589Y000115196D01*
X003179985Y000126011D01*
X003185689Y000137206D01*
X003190679Y000148737D01*
X003194935Y000160559D01*
X003198441Y000172624D01*
X003201181Y000184886D01*
X003203147Y000197295D01*
X003204329Y000209804D01*
X003204724Y000222362D01*
X003204724Y000884342D01*
X003204863Y000887656D01*
X003205282Y000890948D01*
X003205976Y000894192D01*
X003206941Y000897366D01*
X003208169Y000900448D01*
X003209653Y000903415D01*
X003211381Y000906248D01*
X003213341Y000908924D01*
X003215520Y000911426D01*
X003217902Y000913735D01*
X003220470Y000915836D01*
X003223205Y000917713D01*
X003226089Y000919354D01*
X003229101Y000920745D01*
X003232219Y000921878D01*
X003235422Y000922745D01*
X003238686Y000923338D01*
X003241989Y000923655D01*
X003245306Y000923693D01*
X003248615Y000923451D01*
X003287984Y000918900D01*
X003290816Y000918468D01*
X003293610Y000917831D01*
X003296349Y000916992D01*
X003299020Y000915956D01*
X003301609Y000914729D01*
X003304102Y000913317D01*
X003306485Y000911728D01*
X003308747Y000909969D01*
X003310875Y000908050D01*
X003312857Y000905982D01*
X003314684Y000903775D01*
X003316345Y000901441D01*
X003317833Y000898993D01*
X003319138Y000896442D01*
X003320255Y000893804D01*
X003321176Y000891091D01*
X003321898Y000888319D01*
X003322417Y000885501D01*
X003322729Y000882653D01*
X003322833Y000879790D01*
X003322833Y000220815D01*
X003322824Y000220199D01*
X003322283Y000202998D01*
X003322206Y000201766D01*
X003320442Y000183109D01*
X003320286Y000181870D01*
X003317353Y000163353D01*
X003317121Y000162138D01*
X003313033Y000143846D01*
X003312722Y000142636D01*
X003307491Y000124634D01*
X003307110Y000123461D01*
X003300757Y000105816D01*
X003300303Y000104670D01*
X003292857Y000087461D01*
X003292329Y000086339D01*
X003283817Y000069633D01*
X003283221Y000068548D01*
X003277817Y000059410D01*
X003277261Y000058438D01*
X003276732Y000057451D01*
X003276232Y000056450D01*
X003275761Y000055434D01*
X003275318Y000054405D01*
X003274905Y000053364D01*
X003274522Y000052312D01*
X003274169Y000051249D01*
X003273846Y000050177D01*
X003273555Y000049096D01*
X003273293Y000048007D01*
X003273063Y000046911D01*
X003272864Y000045809D01*
X003272697Y000044701D01*
X003272561Y000043590D01*
X003272457Y000042475D01*
X003272385Y000041358D01*
X003272343Y000040238D01*
X003272335Y000039118D01*
X003272358Y000038000D01*
X003272413Y000036881D01*
X003272499Y000035764D01*
X003272618Y000034651D01*
X003272768Y000033541D01*
X003272949Y000032436D01*
X003273163Y000031337D01*
X003273406Y000030244D01*
X003273681Y000029158D01*
X003273987Y000028081D01*
X003274324Y000027013D01*
X003274690Y000025955D01*
X003275087Y000024907D01*
X003275512Y000023872D01*
X003275968Y000022849D01*
X003276452Y000021839D01*
X003276965Y000020844D01*
X003277506Y000019863D01*
X003278074Y000018899D01*
X003278670Y000017951D01*
X003279293Y000017019D01*
X003279942Y000016107D01*
X003280616Y000015213D01*
X003281315Y000014338D01*
X003282040Y000013484D01*
X003282788Y000012651D01*
X003283559Y000011840D01*
X003284354Y000011050D01*
X003285171Y000010284D01*
X003286009Y000009541D01*
X003286867Y000008822D01*
X003287746Y000008128D01*
X003288644Y000007460D01*
X003289561Y000006817D01*
X003290496Y000006200D01*
X003291448Y000005610D01*
X003292416Y000005048D01*
X003293399Y000004513D01*
X003294399Y000004007D01*
X003295411Y000003529D01*
X003296437Y000003080D01*
X003297475Y000002660D01*
X003298526Y000002270D01*
X003299585Y000001911D01*
X003300656Y000001581D01*
X003301735Y000001283D01*
X003302822Y000001014D01*
X003303917Y000000777D01*
X003305017Y000000572D01*
X003306124Y000000397D01*
X003307234Y000000254D01*
X003308348Y000000143D01*
X003309466Y000000063D01*
X003310584Y000000015D01*
X003311704Y000000000D01*
X003897637Y000000000D01*
X003898761Y000000016D01*
X003899885Y000000063D01*
X003901006Y000000144D01*
X003902125Y000000256D01*
X003903240Y000000400D01*
X003904350Y000000576D01*
X003905456Y000000784D01*
X003906555Y000001022D01*
X003907646Y000001293D01*
X003908729Y000001594D01*
X003909803Y000001926D01*
X003910868Y000002289D01*
X003911921Y000002682D01*
X003912962Y000003105D01*
X003913992Y000003557D01*
X003915008Y000004039D01*
X003916010Y000004550D01*
X003916996Y000005088D01*
X003917968Y000005655D01*
X003918922Y000006249D01*
X003919859Y000006870D01*
X003920779Y000007518D01*
X003921678Y000008192D01*
X003922559Y000008891D01*
X003923419Y000009615D01*
X003924258Y000010364D01*
X003925075Y000011136D01*
X003925871Y000011931D01*
X003926643Y000012749D01*
X003927391Y000013588D01*
X003928115Y000014448D01*
X003928814Y000015328D01*
X003929489Y000016228D01*
X003930136Y000017147D01*
X003930757Y000018085D01*
X003931352Y000019038D01*
X003931919Y000020010D01*
X003932457Y000020997D01*
X003932968Y000021999D01*
X003933449Y000023014D01*
X003933902Y000024044D01*
X003934325Y000025085D01*
X003934718Y000026139D01*
X003935080Y000027203D01*
X003935412Y000028278D01*
X003935714Y000029361D01*
X003935984Y000030452D01*
X003936223Y000031551D01*
X003936431Y000032656D01*
X003936607Y000033766D01*
X003936750Y000034881D01*
X003936863Y000036000D01*
X003936943Y000037122D01*
X003936991Y000038245D01*
X003937007Y000039370D01*
X003937007Y003897637D01*
X003936991Y003898761D01*
X003936943Y003899885D01*
X003936863Y003901006D01*
X003936750Y003902125D01*
X003936607Y003903240D01*
X003936431Y003904350D01*
X003936223Y003905456D01*
X003935984Y003906555D01*
X003935714Y003907646D01*
X003935412Y003908729D01*
X003935080Y003909803D01*
X003934718Y003910868D01*
X003934325Y003911921D01*
X003933902Y003912962D01*
X003933449Y003913992D01*
X003932968Y003915008D01*
X003932457Y003916010D01*
X003931919Y003916996D01*
X003931352Y003917968D01*
X003930757Y003918922D01*
X003930136Y003919859D01*
X003929489Y003920779D01*
X003928814Y003921678D01*
X003928115Y003922559D01*
X003927391Y003923419D01*
X003926643Y003924258D01*
X003925871Y003925075D01*
X003925075Y003925871D01*
X003924258Y003926643D01*
X003923419Y003927391D01*
X003922559Y003928115D01*
X003921678Y003928814D01*
X003920779Y003929489D01*
X003919859Y003930136D01*
X003918922Y003930757D01*
X003917968Y003931352D01*
X003916996Y003931919D01*
X003916010Y003932457D01*
X003915008Y003932968D01*
X003913992Y003933449D01*
X003912962Y003933902D01*
X003911921Y003934325D01*
X003910868Y003934718D01*
X003909803Y003935080D01*
X003908729Y003935412D01*
X003907646Y003935714D01*
X003906555Y003935984D01*
X003905456Y003936223D01*
X003904350Y003936431D01*
X003903240Y003936607D01*
X003902125Y003936750D01*
X003901006Y003936863D01*
X003899885Y003936943D01*
X003898761Y003936991D01*
X003897637Y003937007D01*
X003281114Y003937007D01*
X003279989Y003936991D01*
X003278864Y003936942D01*
X003277741Y003936863D01*
X003276621Y003936750D01*
X003275505Y003936605D01*
X003274392Y003936429D01*
X003273286Y003936221D01*
X003272186Y003935982D01*
X003271094Y003935710D01*
X003270009Y003935408D01*
X003268933Y003935075D01*
X003267868Y003934712D01*
X003266813Y003934318D01*
X003265770Y003933894D01*
X003264740Y003933440D01*
X003263723Y003932958D01*
X003262720Y003932446D01*
X003261733Y003931906D01*
X003260761Y003931337D01*
X003259805Y003930742D01*
X003258868Y003930119D01*
X003257948Y003929470D01*
X003257047Y003928794D01*
X003256166Y003928094D01*
X003255305Y003927368D01*
X003254466Y003926617D01*
X003253648Y003925844D01*
X003252853Y003925047D01*
X003252081Y003924228D01*
X003251333Y003923387D01*
X003250608Y003922525D01*
X003249909Y003921643D01*
X003249236Y003920741D01*
X003248588Y003919820D01*
X003247967Y003918880D01*
X003247373Y003917924D01*
X003246807Y003916951D01*
X003246269Y003915962D01*
X003245759Y003914958D01*
X003245279Y003913940D01*
X003244827Y003912909D01*
X003244405Y003911865D01*
X003244013Y003910809D01*
X003243652Y003909744D01*
X003243321Y003908667D01*
X003243021Y003907582D01*
X003242752Y003906489D01*
X003242515Y003905388D01*
X003242309Y003904281D01*
X003242135Y003903169D01*
X003241992Y003902053D01*
X003241882Y003900933D01*
X003241804Y003899809D01*
X003241758Y003898685D01*
X003241744Y003897559D01*
X003241763Y003896433D01*
X003241813Y003895308D01*
X003241896Y003894186D01*
X003242010Y003893066D01*
X003242157Y003891949D01*
X003242336Y003890838D01*
X003242546Y003889732D01*
X003242788Y003888632D01*
X003243061Y003887540D01*
X003243365Y003886457D01*
X003243700Y003885382D01*
X003244066Y003884316D01*
X003244462Y003883263D01*
X003244888Y003882221D01*
X003245343Y003881192D01*
X003245829Y003880176D01*
X003246342Y003879174D01*
X003246884Y003878187D01*
X003247454Y003877216D01*
X003248052Y003876262D01*
X003248677Y003875326D01*
X003249328Y003874407D01*
X003250005Y003873508D01*
X003261746Y003858371D01*
X003262474Y003857369D01*
X003273009Y003841869D01*
X003273680Y003840812D01*
X003283220Y003824680D01*
X003283820Y003823587D01*
X003292330Y003806888D01*
X003292857Y003805768D01*
X003300304Y003788556D01*
X003300758Y003787408D01*
X003307110Y003769766D01*
X003307489Y003768600D01*
X003312723Y003750586D01*
X003313033Y003749380D01*
X003317121Y003731089D01*
X003317353Y003729874D01*
X003320286Y003711358D01*
X003320442Y003710118D01*
X003322206Y003691460D01*
X003322283Y003690229D01*
X003322824Y003673027D01*
X003322833Y003672411D01*
X003322833Y003096587D01*
X003322729Y003093724D01*
X003322417Y003090876D01*
X003321898Y003088058D01*
X003321176Y003085286D01*
X003320255Y003082573D01*
X003319138Y003079934D01*
X003317833Y003077384D01*
X003316345Y003074936D01*
X003314684Y003072602D01*
X003312857Y003070395D01*
X003310875Y003068327D01*
X003308747Y003066408D01*
X003306485Y003064649D01*
X003304102Y003063060D01*
X003301609Y003061648D01*
X003299020Y003060421D01*
X003296349Y003059385D01*
X003293610Y003058546D01*
X003290816Y003057909D01*
X003287984Y003057477D01*
X003248615Y003052926D01*
X003245306Y003052684D01*
X003241989Y003052722D01*
X003238686Y003053038D01*
X003235422Y003053632D01*
X003232219Y003054499D01*
X003229101Y003055632D01*
X003226089Y003057023D01*
X003223205Y003058664D01*
X003220470Y003060541D01*
X003217902Y003062642D01*
X003215520Y003064951D01*
X003213341Y003067453D01*
X003211381Y003070129D01*
X003209653Y003072961D01*
X003208169Y003075929D01*
X003206941Y003079011D01*
X003205976Y003082185D01*
X003205282Y003085429D01*
X003204863Y003088721D01*
X003204724Y003092035D01*
X003204724Y003670866D01*
X003204329Y003683424D01*
X003203147Y003695933D01*
X003201181Y003708342D01*
X003198441Y003720604D01*
X003194935Y003732669D01*
X003190679Y003744491D01*
X003185689Y003756022D01*
X003179985Y003767216D01*
X003173589Y003778032D01*
X003166527Y003788423D01*
X003158827Y003798351D01*
X003150518Y003807775D01*
X003141633Y003816660D01*
X003132208Y003824969D01*
X003122281Y003832669D01*
X003111890Y003839731D01*
X003101074Y003846127D01*
X003089880Y003851831D01*
X003078348Y003856821D01*
X003066527Y003861077D01*
X003054462Y003864582D01*
X003042200Y003867323D01*
X003029791Y003869289D01*
X003017282Y003870471D01*
X003004724Y003870866D01*
X002304724Y003870866D01*
X002292166Y003870471D01*
X002279657Y003869289D01*
X002267248Y003867323D01*
X002254986Y003864582D01*
X002242920Y003861077D01*
X002231099Y003856821D01*
X002219568Y003851831D01*
X002208373Y003846127D01*
X002197558Y003839731D01*
X002187167Y003832669D01*
X002177239Y003824969D01*
X002167814Y003816660D01*
X002158930Y003807775D01*
X002150621Y003798351D01*
X002142920Y003788423D01*
X002135858Y003778032D01*
X002129463Y003767216D01*
X002123758Y003756022D01*
X002118768Y003744491D01*
X002114513Y003732669D01*
X002111007Y003720604D01*
X002108266Y003708342D01*
X002106301Y003695933D01*
X002105118Y003683424D01*
X002104724Y003670866D01*
X002104724Y003095305D01*
X002104614Y003092370D01*
X002104286Y003089451D01*
X002103741Y003086564D01*
X002102983Y003083726D01*
X002102015Y003080953D01*
X002100842Y003078259D01*
X002099473Y003075661D01*
X002097913Y003073171D01*
X002096172Y003070805D01*
X002094259Y003068576D01*
X002092186Y003066495D01*
X002089963Y003064574D01*
X002087603Y003062825D01*
X002085120Y003061256D01*
X002082526Y003059878D01*
X002079837Y003058696D01*
X002077067Y003057718D01*
X002074232Y003056949D01*
X002071347Y003056394D01*
X002068429Y003056055D01*
X002026697Y003052786D01*
X002023454Y003052666D01*
X002020212Y003052813D01*
X002016993Y003053227D01*
X002013820Y003053905D01*
X002010713Y003054842D01*
X002007693Y003056031D01*
X002004782Y003057465D01*
X002001999Y003059134D01*
X001999363Y003061027D01*
X001996892Y003063130D01*
X001994602Y003065429D01*
X001992509Y003067910D01*
X001990628Y003070554D01*
X001988971Y003073344D01*
X001987550Y003076261D01*
X001986373Y003079285D01*
X001985449Y003082396D01*
X001984785Y003085573D01*
X001984385Y003088793D01*
X001984251Y003092035D01*
X001984251Y003670866D01*
X001983857Y003683424D01*
X001982674Y003695933D01*
X001980709Y003708342D01*
X001977968Y003720604D01*
X001974463Y003732669D01*
X001970207Y003744491D01*
X001965217Y003756022D01*
X001959513Y003767216D01*
X001953117Y003778032D01*
X001946054Y003788423D01*
X001938354Y003798351D01*
X001930045Y003807775D01*
X001921160Y003816660D01*
X001911736Y003824969D01*
X001901808Y003832669D01*
X001891417Y003839731D01*
X001880602Y003846127D01*
X001869407Y003851831D01*
X001857876Y003856821D01*
X001846055Y003861077D01*
X001833989Y003864582D01*
X001821728Y003867323D01*
X001809318Y003869289D01*
X001796810Y003870471D01*
X001784252Y003870866D01*
X001084251Y003870866D01*
X001071693Y003870471D01*
X001059185Y003869289D01*
X001046775Y003867323D01*
X001034514Y003864582D01*
X001022448Y003861077D01*
X001010626Y003856821D01*
X000999095Y003851831D01*
X000987901Y003846127D01*
X000977086Y003839731D01*
X000966694Y003832669D01*
X000956766Y003824969D01*
X000947342Y003816660D01*
X000938457Y003807775D01*
X000930149Y003798351D01*
X000922448Y003788423D01*
X000915386Y003778032D01*
X000908990Y003767216D01*
X000903286Y003756022D01*
X000898296Y003744491D01*
X000894040Y003732669D01*
X000890535Y003720604D01*
X000887794Y003708342D01*
X000885828Y003695933D01*
X000884646Y003683424D01*
X000884251Y003670866D01*
X000884251Y003095305D01*
X000884137Y003092307D01*
X000883795Y003089326D01*
X000883226Y003086380D01*
X000882435Y003083485D01*
X000881426Y003080660D01*
X000880205Y003077919D01*
X000878778Y003075280D01*
X000877154Y003072756D01*
X000875343Y003070364D01*
X000873355Y003068116D01*
X000871202Y003066027D01*
X000868896Y003064107D01*
X000866450Y003062369D01*
X000863879Y003060822D01*
X000861198Y003059475D01*
X000858422Y003058337D01*
X000855567Y003057413D01*
X000852650Y003056709D01*
X000849688Y003056230D01*
X000846699Y003055977D01*
X000807328Y003054158D01*
X000804146Y003054140D01*
X000800972Y003054378D01*
X000797829Y003054873D01*
X000794736Y003055619D01*
X000791713Y003056613D01*
X000788780Y003057848D01*
X000785956Y003059315D01*
X000783261Y003061006D01*
X000780710Y003062909D01*
X000778322Y003065012D01*
X000776111Y003067301D01*
X000774092Y003069761D01*
X000772279Y003072375D01*
X000770682Y003075128D01*
X000769314Y003078001D01*
X000768181Y003080975D01*
X000767293Y003084030D01*
X000766654Y003087148D01*
X000766269Y003090306D01*
X000766140Y003093486D01*
X000766140Y003672409D01*
X000766150Y003673027D01*
X000766691Y003690232D01*
X000766768Y003691456D01*
X000768533Y003710125D01*
X000768689Y003711363D01*
X000771622Y003729873D01*
X000771854Y003731090D01*
X000775942Y003749382D01*
X000776251Y003750586D01*
X000781482Y003768590D01*
X000781865Y003769768D01*
X000788214Y003787405D01*
X000788667Y003788551D01*
X000796120Y003805774D01*
X000796645Y003806888D01*
X000805156Y003823590D01*
X000805755Y003824680D01*
X000815296Y003840815D01*
X000815960Y003841861D01*
X000826502Y003857372D01*
X000827223Y003858363D01*
X000838969Y003873506D01*
X000839646Y003874405D01*
X000840298Y003875324D01*
X000840922Y003876261D01*
X000841520Y003877215D01*
X000842090Y003878185D01*
X000842632Y003879172D01*
X000843146Y003880174D01*
X000843631Y003881190D01*
X000844086Y003882220D01*
X000844512Y003883261D01*
X000844908Y003884315D01*
X000845274Y003885380D01*
X000845610Y003886455D01*
X000845914Y003887539D01*
X000846187Y003888631D01*
X000846429Y003889731D01*
X000846639Y003890837D01*
X000846818Y003891948D01*
X000846964Y003893064D01*
X000847079Y003894185D01*
X000847162Y003895307D01*
X000847213Y003896432D01*
X000847231Y003897557D01*
X000847217Y003898683D01*
X000847171Y003899808D01*
X000847093Y003900931D01*
X000846983Y003902052D01*
X000846840Y003903168D01*
X000846666Y003904280D01*
X000846461Y003905388D01*
X000846223Y003906488D01*
X000845955Y003907581D01*
X000845654Y003908667D01*
X000845323Y003909743D01*
X000844963Y003910809D01*
X000844570Y003911864D01*
X000844148Y003912908D01*
X000843697Y003913939D01*
X000843216Y003914958D01*
X000842707Y003915961D01*
X000842168Y003916950D01*
X000841602Y003917923D01*
X000841008Y003918879D01*
X000840387Y003919818D01*
X000839740Y003920739D01*
X000839066Y003921642D01*
X000838367Y003922524D01*
X000837643Y003923386D01*
X000836894Y003924228D01*
X000836122Y003925046D01*
X000835327Y003925843D01*
X000834509Y003926617D01*
X000833670Y003927367D01*
X000832809Y003928093D01*
X000831929Y003928794D01*
X000831027Y003929470D01*
X000830108Y003930119D01*
X000829170Y003930742D01*
X000828215Y003931337D01*
X000827243Y003931906D01*
X000826255Y003932446D01*
X000825252Y003932958D01*
X000824236Y003933440D01*
X000823205Y003933894D01*
X000822162Y003934318D01*
X000821107Y003934712D01*
X000820042Y003935075D01*
X000818966Y003935408D01*
X000817882Y003935710D01*
X000816789Y003935982D01*
X000815689Y003936221D01*
X000814583Y003936429D01*
X000813471Y003936605D01*
X000812354Y003936750D01*
X000811234Y003936863D01*
X000810111Y003936942D01*
X000808986Y003936991D01*
X000807861Y003937007D01*
X000039370Y003937007D01*
X000038245Y003936991D01*
X000037122Y003936943D01*
X000036000Y003936863D01*
X000034881Y003936750D01*
X000033766Y003936607D01*
X000032656Y003936431D01*
X000031551Y003936223D01*
X000030452Y003935984D01*
X000029361Y003935714D01*
X000028278Y003935412D01*
X000027203Y003935080D01*
X000026139Y003934718D01*
X000025085Y003934325D01*
X000024044Y003933902D01*
X000023014Y003933449D01*
X000021999Y003932968D01*
X000020997Y003932457D01*
X000020010Y003931919D01*
X000019038Y003931352D01*
X000018085Y003930757D01*
X000017147Y003930136D01*
X000016228Y003929489D01*
X000015328Y003928814D01*
X000014448Y003928115D01*
X000013588Y003927391D01*
X000012749Y003926643D01*
X000011931Y003925871D01*
X000011136Y003925075D01*
X000010364Y003924258D01*
X000009615Y003923419D01*
X000008891Y003922559D01*
X000008192Y003921678D01*
X000007518Y003920779D01*
X000006870Y003919859D01*
X000006249Y003918922D01*
X000005655Y003917968D01*
X000005088Y003916996D01*
X000004550Y003916010D01*
X000004039Y003915008D01*
X000003557Y003913992D01*
X000003105Y003912962D01*
X000002682Y003911921D01*
X000002289Y003910868D01*
X000001926Y003909803D01*
X000001594Y003908729D01*
X000001293Y003907646D01*
X000001022Y003906555D01*
X000000784Y003905456D01*
X000000576Y003904350D01*
X000000400Y003903240D01*
X000000256Y003902125D01*
X000000144Y003901006D01*
X000000063Y003899885D01*
X000000016Y003898761D01*
X000000000Y003897637D01*
X000000000Y000039370D01*
X000000016Y000038245D01*
X000000063Y000037122D01*
X000000144Y000036000D01*
X000000256Y000034881D01*
X000000400Y000033766D01*
X000000576Y000032656D01*
X000000784Y000031551D01*
X000001022Y000030452D01*
X000001293Y000029361D01*
X000001594Y000028278D01*
X000001926Y000027203D01*
X000002289Y000026139D01*
X000002682Y000025085D01*
X000003105Y000024044D01*
X000003557Y000023014D01*
X000004039Y000021999D01*
X000004550Y000020997D01*
X000005088Y000020010D01*
X000005655Y000019038D01*
X000006249Y000018085D01*
X000006870Y000017147D01*
X000007518Y000016228D01*
X000008192Y000015328D01*
X000008891Y000014448D01*
X000009615Y000013588D01*
X000010364Y000012749D01*
X000011136Y000011931D01*
X000011931Y000011136D01*
X000012749Y000010364D01*
X000013588Y000009615D01*
X000014448Y000008891D01*
X000015328Y000008192D01*
X000016228Y000007518D01*
X000017147Y000006870D01*
X000018085Y000006249D01*
X000019038Y000005655D01*
X000020010Y000005088D01*
X000020997Y000004550D01*
X000021999Y000004039D01*
X000023014Y000003557D01*
X000024044Y000003105D01*
X000025085Y000002682D01*
X000026139Y000002289D01*
X000027203Y000001926D01*
X000028278Y000001594D01*
X000029361Y000001293D01*
X000030452Y000001022D01*
X000031551Y000000784D01*
X000032656Y000000576D01*
X000033766Y000000400D01*
X000034881Y000000256D01*
X000036000Y000000144D01*
X000037122Y000000063D01*
X000038245Y000000016D01*
X000039370Y000000000D01*
X000777270Y000000000D01*
X000778390Y000000015D01*
X000779509Y000000063D01*
X000780626Y000000143D01*
X000781740Y000000254D01*
X000782851Y000000397D01*
X000783957Y000000572D01*
X000785057Y000000777D01*
X000786152Y000001014D01*
X000787239Y000001283D01*
X000788318Y000001581D01*
X000789388Y000001911D01*
X000790449Y000002270D01*
X000791499Y000002660D01*
X000792537Y000003079D01*
X000793563Y000003528D01*
X000794575Y000004006D01*
X000795574Y000004513D01*
X000796558Y000005048D01*
X000797527Y000005610D01*
X000798479Y000006200D01*
X000799413Y000006816D01*
X000800330Y000007459D01*
X000801228Y000008128D01*
X000802107Y000008822D01*
X000802966Y000009540D01*
X000803803Y000010284D01*
X000804620Y000011050D01*
X000805415Y000011839D01*
X000806186Y000012650D01*
X000806934Y000013484D01*
X000807658Y000014338D01*
X000808358Y000015212D01*
X000809033Y000016106D01*
X000809681Y000017019D01*
X000810303Y000017950D01*
X000810900Y000018898D01*
X000811468Y000019862D01*
X000812009Y000020843D01*
X000812522Y000021838D01*
X000813006Y000022848D01*
X000813462Y000023871D01*
X000813888Y000024907D01*
X000814285Y000025954D01*
X000814651Y000027012D01*
X000814987Y000028080D01*
X000815293Y000029157D01*
X000815568Y000030243D01*
X000815812Y000031335D01*
X000816025Y000032435D01*
X000816207Y000033540D01*
X000816357Y000034650D01*
X000816475Y000035763D01*
X000816562Y000036879D01*
X000816617Y000037998D01*
X000816640Y000039118D01*
X000816631Y000040237D01*
X000816591Y000041356D01*
X000816518Y000042474D01*
X000816414Y000043588D01*
X000816278Y000044700D01*
X000816111Y000045807D01*
X000815912Y000046909D01*
X000815682Y000048005D01*
X000815421Y000049094D01*
X000815129Y000050175D01*
X000814806Y000051247D01*
X000814453Y000052310D01*
X000814070Y000053362D01*
X000813657Y000054403D01*
X000813215Y000055432D01*
X000812743Y000056448D01*
X000812244Y000057449D01*
X000811715Y000058437D01*
X000811159Y000059409D01*
X000805755Y000068547D01*
X000805159Y000069631D01*
X000796643Y000086343D01*
X000796120Y000087454D01*
X000788672Y000104665D01*
X000788213Y000105825D01*
X000781864Y000123461D01*
X000781482Y000124637D01*
X000776250Y000142644D01*
X000775944Y000143838D01*
X000771854Y000162138D01*
X000771621Y000163359D01*
X000768689Y000181864D01*
X000768533Y000183102D01*
X000766768Y000201770D01*
X000766691Y000202994D01*
X000766150Y000220199D01*
X000766140Y000220818D01*
X000766140Y000843521D01*
X000766269Y000846700D01*
X000766654Y000849859D01*
X000767293Y000852977D01*
X000768181Y000856032D01*
X000769314Y000859006D01*
X000770682Y000861879D01*
X000772279Y000864632D01*
X000774092Y000867246D01*
X000776111Y000869706D01*
X000778322Y000871995D01*
X000780710Y000874098D01*
X000783261Y000876001D01*
X000785956Y000877692D01*
X000788780Y000879159D01*
X000791713Y000880394D01*
X000794736Y000881388D01*
X000797829Y000882134D01*
X000800972Y000882629D01*
X000804146Y000882867D01*
X000807328Y000882849D01*
X000846699Y000881030D01*
X000849688Y000880777D01*
X000852650Y000880298D01*
X000855567Y000879594D01*
X000858422Y000878670D01*
X000861198Y000877531D01*
X000863879Y000876185D01*
X000866450Y000874638D01*
X000868896Y000872900D01*
X000871202Y000870980D01*
X000873355Y000868890D01*
X000875343Y000866643D01*
X000877154Y000864251D01*
X000878778Y000861727D01*
X000880205Y000859088D01*
X000881426Y000856347D01*
X000882435Y000853521D01*
X000883226Y000850627D01*
X000883795Y000847681D01*
X000884137Y000844700D01*
X000884251Y000841702D01*
X000884251Y000222362D01*
X000884646Y000209804D01*
X000885828Y000197295D01*
X000887794Y000184886D01*
X000890535Y000172624D01*
X000894040Y000160559D01*
X000898296Y000148737D01*
X000903286Y000137206D01*
X000908990Y000126011D01*
X000915386Y000115196D01*
X000922448Y000104805D01*
X000930149Y000094877D01*
X000938457Y000085453D01*
X000947342Y000076568D01*
X000956766Y000068259D01*
X000966694Y000060558D01*
X000977086Y000053497D01*
X000987901Y000047100D01*
X000999095Y000041396D01*
X001010626Y000036407D01*
X001022448Y000032150D01*
X001034514Y000028645D01*
X001046775Y000025905D01*
X001059185Y000023939D01*
X001071693Y000022757D01*
X001084251Y000022362D01*
X001784252Y000022362D01*
X001784252Y000022361D01*
M02*