G04 #@! TF.GenerationSoftware,KiCad,Pcbnew,(5.1.4)-1*
G04 #@! TF.CreationDate,2020-10-29T21:44:13+08:00*
G04 #@! TF.ProjectId,custom_microcontroller,63757374-6f6d-45f6-9d69-63726f636f6e,rev?*
G04 #@! TF.SameCoordinates,Original*
G04 #@! TF.FileFunction,Copper,L2,Bot*
G04 #@! TF.FilePolarity,Positive*
%FSLAX46Y46*%
G04 Gerber Fmt 4.6, Leading zero omitted, Abs format (unit mm)*
G04 Created by KiCad (PCBNEW (5.1.4)-1) date 2020-10-29 21:44:13*
%MOMM*%
%LPD*%
G04 APERTURE LIST*
%ADD10O,1.700000X1.700000*%
%ADD11R,1.700000X1.700000*%
%ADD12C,0.800000*%
%ADD13C,0.254000*%
%ADD14C,0.203200*%
G04 APERTURE END LIST*
D10*
X149860000Y-146050000D03*
D11*
X149860000Y-143510000D03*
D10*
X133477000Y-151511000D03*
X136017000Y-151511000D03*
X138557000Y-151511000D03*
X141097000Y-151511000D03*
D11*
X143637000Y-151511000D03*
D10*
X127000000Y-118110000D03*
D11*
X127000000Y-120650000D03*
D10*
X149860000Y-140970000D03*
D11*
X149860000Y-138430000D03*
D10*
X149860000Y-123190000D03*
X149860000Y-125730000D03*
X149860000Y-128270000D03*
X149860000Y-130810000D03*
X149860000Y-133350000D03*
D11*
X149860000Y-135890000D03*
D10*
X127000000Y-146050000D03*
D11*
X127000000Y-143510000D03*
D10*
X127000000Y-123190000D03*
X127000000Y-125730000D03*
X127000000Y-128270000D03*
X127000000Y-130810000D03*
X127000000Y-133350000D03*
X127000000Y-135890000D03*
X127000000Y-138430000D03*
D11*
X127000000Y-140970000D03*
D12*
X140905000Y-143764000D03*
X140905000Y-147574000D03*
X143510000Y-114427000D03*
X146113500Y-117048500D03*
X134940289Y-136324670D03*
X134940289Y-138356670D03*
X134966600Y-141274800D03*
X136594977Y-133467922D03*
X135160941Y-125570636D03*
X135168671Y-127591194D03*
X143598806Y-130693540D03*
X143598806Y-132725540D03*
X143598806Y-134757540D03*
X143355794Y-137943905D03*
X137003200Y-118299200D03*
X139903200Y-120599200D03*
X136130000Y-115545000D03*
X133477000Y-114467500D03*
X135955000Y-145034000D03*
X134620000Y-118346000D03*
X142240000Y-120405000D03*
X141548806Y-130693540D03*
X136863200Y-129074800D03*
X136652000Y-132080000D03*
X141548806Y-134757540D03*
X141548806Y-132725540D03*
X140462000Y-141986000D03*
X138176000Y-133350000D03*
D13*
X141548806Y-130693540D02*
X141548806Y-132725540D01*
X138481940Y-130693540D02*
X136863200Y-129074800D01*
X141548806Y-130693540D02*
X138481940Y-130693540D01*
D14*
X136906000Y-131826000D02*
X136652000Y-132080000D01*
X141548806Y-132725540D02*
X140649266Y-131826000D01*
X140649266Y-131826000D02*
X136906000Y-131826000D01*
X141548806Y-132725540D02*
X141548806Y-134757540D01*
X140462000Y-141986000D02*
X138684000Y-141986000D01*
X138684000Y-141986000D02*
X137414000Y-140716000D01*
D13*
X137414000Y-134112000D02*
X138176000Y-133350000D01*
X137414000Y-140716000D02*
X137414000Y-134112000D01*
G36*
X148102249Y-107412437D02*
G01*
X148859774Y-107619672D01*
X149568625Y-107957777D01*
X150206404Y-108416067D01*
X150752946Y-108980055D01*
X151190977Y-109631913D01*
X151506651Y-110351038D01*
X151691206Y-111119768D01*
X151740000Y-111784207D01*
X151740001Y-149322597D01*
X151667563Y-150134249D01*
X151460328Y-150891774D01*
X151122221Y-151600627D01*
X150663928Y-152238410D01*
X150099945Y-152784946D01*
X149448085Y-153222978D01*
X148728963Y-153538651D01*
X147960232Y-153723206D01*
X147295792Y-153772000D01*
X129569392Y-153772000D01*
X128757751Y-153699563D01*
X128000226Y-153492328D01*
X127291373Y-153154221D01*
X126653590Y-152695928D01*
X126107054Y-152131945D01*
X125689797Y-151511000D01*
X131984815Y-151511000D01*
X132013487Y-151802111D01*
X132098401Y-152082034D01*
X132236294Y-152340014D01*
X132421866Y-152566134D01*
X132647986Y-152751706D01*
X132905966Y-152889599D01*
X133185889Y-152974513D01*
X133404050Y-152996000D01*
X133549950Y-152996000D01*
X133768111Y-152974513D01*
X134048034Y-152889599D01*
X134306014Y-152751706D01*
X134532134Y-152566134D01*
X134717706Y-152340014D01*
X134747000Y-152285209D01*
X134776294Y-152340014D01*
X134961866Y-152566134D01*
X135187986Y-152751706D01*
X135445966Y-152889599D01*
X135725889Y-152974513D01*
X135944050Y-152996000D01*
X136089950Y-152996000D01*
X136308111Y-152974513D01*
X136588034Y-152889599D01*
X136846014Y-152751706D01*
X137072134Y-152566134D01*
X137257706Y-152340014D01*
X137287000Y-152285209D01*
X137316294Y-152340014D01*
X137501866Y-152566134D01*
X137727986Y-152751706D01*
X137985966Y-152889599D01*
X138265889Y-152974513D01*
X138484050Y-152996000D01*
X138629950Y-152996000D01*
X138848111Y-152974513D01*
X139128034Y-152889599D01*
X139386014Y-152751706D01*
X139612134Y-152566134D01*
X139797706Y-152340014D01*
X139827000Y-152285209D01*
X139856294Y-152340014D01*
X140041866Y-152566134D01*
X140267986Y-152751706D01*
X140525966Y-152889599D01*
X140805889Y-152974513D01*
X141024050Y-152996000D01*
X141169950Y-152996000D01*
X141388111Y-152974513D01*
X141668034Y-152889599D01*
X141926014Y-152751706D01*
X142152134Y-152566134D01*
X142176607Y-152536313D01*
X142197498Y-152605180D01*
X142256463Y-152715494D01*
X142335815Y-152812185D01*
X142432506Y-152891537D01*
X142542820Y-152950502D01*
X142662518Y-152986812D01*
X142787000Y-152999072D01*
X143351250Y-152996000D01*
X143510000Y-152837250D01*
X143510000Y-151638000D01*
X143764000Y-151638000D01*
X143764000Y-152837250D01*
X143922750Y-152996000D01*
X144487000Y-152999072D01*
X144611482Y-152986812D01*
X144731180Y-152950502D01*
X144841494Y-152891537D01*
X144938185Y-152812185D01*
X145017537Y-152715494D01*
X145076502Y-152605180D01*
X145112812Y-152485482D01*
X145125072Y-152361000D01*
X145122000Y-151796750D01*
X144963250Y-151638000D01*
X143764000Y-151638000D01*
X143510000Y-151638000D01*
X143490000Y-151638000D01*
X143490000Y-151384000D01*
X143510000Y-151384000D01*
X143510000Y-150184750D01*
X143764000Y-150184750D01*
X143764000Y-151384000D01*
X144963250Y-151384000D01*
X145122000Y-151225250D01*
X145125072Y-150661000D01*
X145112812Y-150536518D01*
X145076502Y-150416820D01*
X145017537Y-150306506D01*
X144938185Y-150209815D01*
X144841494Y-150130463D01*
X144731180Y-150071498D01*
X144611482Y-150035188D01*
X144487000Y-150022928D01*
X143922750Y-150026000D01*
X143764000Y-150184750D01*
X143510000Y-150184750D01*
X143351250Y-150026000D01*
X142787000Y-150022928D01*
X142662518Y-150035188D01*
X142542820Y-150071498D01*
X142432506Y-150130463D01*
X142335815Y-150209815D01*
X142256463Y-150306506D01*
X142197498Y-150416820D01*
X142176607Y-150485687D01*
X142152134Y-150455866D01*
X141926014Y-150270294D01*
X141668034Y-150132401D01*
X141388111Y-150047487D01*
X141169950Y-150026000D01*
X141024050Y-150026000D01*
X140805889Y-150047487D01*
X140525966Y-150132401D01*
X140267986Y-150270294D01*
X140041866Y-150455866D01*
X139856294Y-150681986D01*
X139827000Y-150736791D01*
X139797706Y-150681986D01*
X139612134Y-150455866D01*
X139386014Y-150270294D01*
X139128034Y-150132401D01*
X138848111Y-150047487D01*
X138629950Y-150026000D01*
X138484050Y-150026000D01*
X138265889Y-150047487D01*
X137985966Y-150132401D01*
X137727986Y-150270294D01*
X137501866Y-150455866D01*
X137316294Y-150681986D01*
X137287000Y-150736791D01*
X137257706Y-150681986D01*
X137072134Y-150455866D01*
X136846014Y-150270294D01*
X136588034Y-150132401D01*
X136308111Y-150047487D01*
X136089950Y-150026000D01*
X135944050Y-150026000D01*
X135725889Y-150047487D01*
X135445966Y-150132401D01*
X135187986Y-150270294D01*
X134961866Y-150455866D01*
X134776294Y-150681986D01*
X134747000Y-150736791D01*
X134717706Y-150681986D01*
X134532134Y-150455866D01*
X134306014Y-150270294D01*
X134048034Y-150132401D01*
X133768111Y-150047487D01*
X133549950Y-150026000D01*
X133404050Y-150026000D01*
X133185889Y-150047487D01*
X132905966Y-150132401D01*
X132647986Y-150270294D01*
X132421866Y-150455866D01*
X132236294Y-150681986D01*
X132098401Y-150939966D01*
X132013487Y-151219889D01*
X131984815Y-151511000D01*
X125689797Y-151511000D01*
X125669022Y-151480085D01*
X125353349Y-150760963D01*
X125168794Y-149992232D01*
X125120000Y-149327792D01*
X125120000Y-123190000D01*
X125507815Y-123190000D01*
X125536487Y-123481111D01*
X125621401Y-123761034D01*
X125759294Y-124019014D01*
X125944866Y-124245134D01*
X126170986Y-124430706D01*
X126225791Y-124460000D01*
X126170986Y-124489294D01*
X125944866Y-124674866D01*
X125759294Y-124900986D01*
X125621401Y-125158966D01*
X125536487Y-125438889D01*
X125507815Y-125730000D01*
X125536487Y-126021111D01*
X125621401Y-126301034D01*
X125759294Y-126559014D01*
X125944866Y-126785134D01*
X126170986Y-126970706D01*
X126225791Y-127000000D01*
X126170986Y-127029294D01*
X125944866Y-127214866D01*
X125759294Y-127440986D01*
X125621401Y-127698966D01*
X125536487Y-127978889D01*
X125507815Y-128270000D01*
X125536487Y-128561111D01*
X125621401Y-128841034D01*
X125759294Y-129099014D01*
X125944866Y-129325134D01*
X126170986Y-129510706D01*
X126225791Y-129540000D01*
X126170986Y-129569294D01*
X125944866Y-129754866D01*
X125759294Y-129980986D01*
X125621401Y-130238966D01*
X125536487Y-130518889D01*
X125507815Y-130810000D01*
X125536487Y-131101111D01*
X125621401Y-131381034D01*
X125759294Y-131639014D01*
X125944866Y-131865134D01*
X126170986Y-132050706D01*
X126225791Y-132080000D01*
X126170986Y-132109294D01*
X125944866Y-132294866D01*
X125759294Y-132520986D01*
X125621401Y-132778966D01*
X125536487Y-133058889D01*
X125507815Y-133350000D01*
X125536487Y-133641111D01*
X125621401Y-133921034D01*
X125759294Y-134179014D01*
X125944866Y-134405134D01*
X126170986Y-134590706D01*
X126225791Y-134620000D01*
X126170986Y-134649294D01*
X125944866Y-134834866D01*
X125759294Y-135060986D01*
X125621401Y-135318966D01*
X125536487Y-135598889D01*
X125507815Y-135890000D01*
X125536487Y-136181111D01*
X125621401Y-136461034D01*
X125759294Y-136719014D01*
X125944866Y-136945134D01*
X126170986Y-137130706D01*
X126225791Y-137160000D01*
X126170986Y-137189294D01*
X125944866Y-137374866D01*
X125759294Y-137600986D01*
X125621401Y-137858966D01*
X125536487Y-138138889D01*
X125507815Y-138430000D01*
X125536487Y-138721111D01*
X125621401Y-139001034D01*
X125759294Y-139259014D01*
X125944866Y-139485134D01*
X125974687Y-139509607D01*
X125905820Y-139530498D01*
X125795506Y-139589463D01*
X125698815Y-139668815D01*
X125619463Y-139765506D01*
X125560498Y-139875820D01*
X125524188Y-139995518D01*
X125511928Y-140120000D01*
X125511928Y-141820000D01*
X125524188Y-141944482D01*
X125560498Y-142064180D01*
X125619463Y-142174494D01*
X125673222Y-142240000D01*
X125619463Y-142305506D01*
X125560498Y-142415820D01*
X125524188Y-142535518D01*
X125511928Y-142660000D01*
X125511928Y-144360000D01*
X125524188Y-144484482D01*
X125560498Y-144604180D01*
X125619463Y-144714494D01*
X125698815Y-144811185D01*
X125795506Y-144890537D01*
X125905820Y-144949502D01*
X125974687Y-144970393D01*
X125944866Y-144994866D01*
X125759294Y-145220986D01*
X125621401Y-145478966D01*
X125536487Y-145758889D01*
X125507815Y-146050000D01*
X125536487Y-146341111D01*
X125621401Y-146621034D01*
X125759294Y-146879014D01*
X125944866Y-147105134D01*
X126170986Y-147290706D01*
X126428966Y-147428599D01*
X126708889Y-147513513D01*
X126927050Y-147535000D01*
X127072950Y-147535000D01*
X127291111Y-147513513D01*
X127571034Y-147428599D01*
X127829014Y-147290706D01*
X128055134Y-147105134D01*
X128240706Y-146879014D01*
X128378599Y-146621034D01*
X128463513Y-146341111D01*
X128492185Y-146050000D01*
X128463513Y-145758889D01*
X128378599Y-145478966D01*
X128240706Y-145220986D01*
X128055134Y-144994866D01*
X128025313Y-144970393D01*
X128094180Y-144949502D01*
X128204494Y-144890537D01*
X128301185Y-144811185D01*
X128380537Y-144714494D01*
X128439502Y-144604180D01*
X128475812Y-144484482D01*
X128488072Y-144360000D01*
X128488072Y-142660000D01*
X128475812Y-142535518D01*
X128439502Y-142415820D01*
X128380537Y-142305506D01*
X128326778Y-142240000D01*
X128380537Y-142174494D01*
X128439502Y-142064180D01*
X128475812Y-141944482D01*
X128488072Y-141820000D01*
X128488072Y-140120000D01*
X128475812Y-139995518D01*
X128439502Y-139875820D01*
X128380537Y-139765506D01*
X128301185Y-139668815D01*
X128204494Y-139589463D01*
X128094180Y-139530498D01*
X128025313Y-139509607D01*
X128055134Y-139485134D01*
X128240706Y-139259014D01*
X128378599Y-139001034D01*
X128463513Y-138721111D01*
X128492185Y-138430000D01*
X128463513Y-138138889D01*
X128378599Y-137858966D01*
X128240706Y-137600986D01*
X128055134Y-137374866D01*
X127829014Y-137189294D01*
X127774209Y-137160000D01*
X127829014Y-137130706D01*
X128055134Y-136945134D01*
X128240706Y-136719014D01*
X128378599Y-136461034D01*
X128463513Y-136181111D01*
X128492185Y-135890000D01*
X128463513Y-135598889D01*
X128378599Y-135318966D01*
X128240706Y-135060986D01*
X128055134Y-134834866D01*
X127829014Y-134649294D01*
X127774209Y-134620000D01*
X127829014Y-134590706D01*
X128055134Y-134405134D01*
X128240706Y-134179014D01*
X128378599Y-133921034D01*
X128463513Y-133641111D01*
X128492185Y-133350000D01*
X128463513Y-133058889D01*
X128378599Y-132778966D01*
X128240706Y-132520986D01*
X128055134Y-132294866D01*
X127829014Y-132109294D01*
X127774209Y-132080000D01*
X127829014Y-132050706D01*
X127917532Y-131978061D01*
X135617000Y-131978061D01*
X135617000Y-132181939D01*
X135656774Y-132381898D01*
X135734795Y-132570256D01*
X135848063Y-132739774D01*
X135992226Y-132883937D01*
X136161744Y-132997205D01*
X136350102Y-133075226D01*
X136550061Y-133115000D01*
X136753939Y-133115000D01*
X136953898Y-133075226D01*
X137142256Y-132997205D01*
X137224665Y-132942141D01*
X137180774Y-133048102D01*
X137141000Y-133248061D01*
X137141000Y-133307370D01*
X136901649Y-133546721D01*
X136872579Y-133570578D01*
X136848722Y-133599648D01*
X136848721Y-133599649D01*
X136777355Y-133686608D01*
X136706599Y-133818985D01*
X136663027Y-133962622D01*
X136648314Y-134112000D01*
X136652001Y-134149433D01*
X136652000Y-140753425D01*
X136663026Y-140865377D01*
X136706598Y-141009014D01*
X136777355Y-141141391D01*
X136872578Y-141257422D01*
X136988608Y-141352645D01*
X137032278Y-141375987D01*
X138137559Y-142481269D01*
X138160625Y-142509375D01*
X138272787Y-142601424D01*
X138400751Y-142669822D01*
X138539601Y-142711942D01*
X138647814Y-142722600D01*
X138647823Y-142722600D01*
X138683999Y-142726163D01*
X138720175Y-142722600D01*
X139734889Y-142722600D01*
X139802226Y-142789937D01*
X139971744Y-142903205D01*
X140160102Y-142981226D01*
X140360061Y-143021000D01*
X140563939Y-143021000D01*
X140763898Y-142981226D01*
X140952256Y-142903205D01*
X141121774Y-142789937D01*
X141265937Y-142645774D01*
X141379205Y-142476256D01*
X141457226Y-142287898D01*
X141497000Y-142087939D01*
X141497000Y-141884061D01*
X141457226Y-141684102D01*
X141379205Y-141495744D01*
X141265937Y-141326226D01*
X141121774Y-141182063D01*
X140952256Y-141068795D01*
X140763898Y-140990774D01*
X140659460Y-140970000D01*
X148367815Y-140970000D01*
X148396487Y-141261111D01*
X148481401Y-141541034D01*
X148619294Y-141799014D01*
X148804866Y-142025134D01*
X148834687Y-142049607D01*
X148765820Y-142070498D01*
X148655506Y-142129463D01*
X148558815Y-142208815D01*
X148479463Y-142305506D01*
X148420498Y-142415820D01*
X148384188Y-142535518D01*
X148371928Y-142660000D01*
X148371928Y-144360000D01*
X148384188Y-144484482D01*
X148420498Y-144604180D01*
X148479463Y-144714494D01*
X148558815Y-144811185D01*
X148655506Y-144890537D01*
X148765820Y-144949502D01*
X148834687Y-144970393D01*
X148804866Y-144994866D01*
X148619294Y-145220986D01*
X148481401Y-145478966D01*
X148396487Y-145758889D01*
X148367815Y-146050000D01*
X148396487Y-146341111D01*
X148481401Y-146621034D01*
X148619294Y-146879014D01*
X148804866Y-147105134D01*
X149030986Y-147290706D01*
X149288966Y-147428599D01*
X149568889Y-147513513D01*
X149787050Y-147535000D01*
X149932950Y-147535000D01*
X150151111Y-147513513D01*
X150431034Y-147428599D01*
X150689014Y-147290706D01*
X150915134Y-147105134D01*
X151100706Y-146879014D01*
X151238599Y-146621034D01*
X151323513Y-146341111D01*
X151352185Y-146050000D01*
X151323513Y-145758889D01*
X151238599Y-145478966D01*
X151100706Y-145220986D01*
X150915134Y-144994866D01*
X150885313Y-144970393D01*
X150954180Y-144949502D01*
X151064494Y-144890537D01*
X151161185Y-144811185D01*
X151240537Y-144714494D01*
X151299502Y-144604180D01*
X151335812Y-144484482D01*
X151348072Y-144360000D01*
X151348072Y-142660000D01*
X151335812Y-142535518D01*
X151299502Y-142415820D01*
X151240537Y-142305506D01*
X151161185Y-142208815D01*
X151064494Y-142129463D01*
X150954180Y-142070498D01*
X150885313Y-142049607D01*
X150915134Y-142025134D01*
X151100706Y-141799014D01*
X151238599Y-141541034D01*
X151323513Y-141261111D01*
X151352185Y-140970000D01*
X151323513Y-140678889D01*
X151238599Y-140398966D01*
X151100706Y-140140986D01*
X150915134Y-139914866D01*
X150885313Y-139890393D01*
X150954180Y-139869502D01*
X151064494Y-139810537D01*
X151161185Y-139731185D01*
X151240537Y-139634494D01*
X151299502Y-139524180D01*
X151335812Y-139404482D01*
X151348072Y-139280000D01*
X151345000Y-138715750D01*
X151186250Y-138557000D01*
X149987000Y-138557000D01*
X149987000Y-138577000D01*
X149733000Y-138577000D01*
X149733000Y-138557000D01*
X148533750Y-138557000D01*
X148375000Y-138715750D01*
X148371928Y-139280000D01*
X148384188Y-139404482D01*
X148420498Y-139524180D01*
X148479463Y-139634494D01*
X148558815Y-139731185D01*
X148655506Y-139810537D01*
X148765820Y-139869502D01*
X148834687Y-139890393D01*
X148804866Y-139914866D01*
X148619294Y-140140986D01*
X148481401Y-140398966D01*
X148396487Y-140678889D01*
X148367815Y-140970000D01*
X140659460Y-140970000D01*
X140563939Y-140951000D01*
X140360061Y-140951000D01*
X140160102Y-140990774D01*
X139971744Y-141068795D01*
X139802226Y-141182063D01*
X139734889Y-141249400D01*
X138989110Y-141249400D01*
X138176000Y-140436291D01*
X138176000Y-134427630D01*
X138218630Y-134385000D01*
X138277939Y-134385000D01*
X138477898Y-134345226D01*
X138666256Y-134267205D01*
X138835774Y-134153937D01*
X138979937Y-134009774D01*
X139093205Y-133840256D01*
X139171226Y-133651898D01*
X139211000Y-133451939D01*
X139211000Y-133248061D01*
X139171226Y-133048102D01*
X139093205Y-132859744D01*
X138979937Y-132690226D01*
X138852311Y-132562600D01*
X140344157Y-132562600D01*
X140513806Y-132732249D01*
X140513806Y-132827479D01*
X140553580Y-133027438D01*
X140631601Y-133215796D01*
X140744869Y-133385314D01*
X140812206Y-133452651D01*
X140812207Y-134030428D01*
X140744869Y-134097766D01*
X140631601Y-134267284D01*
X140553580Y-134455642D01*
X140513806Y-134655601D01*
X140513806Y-134859479D01*
X140553580Y-135059438D01*
X140631601Y-135247796D01*
X140744869Y-135417314D01*
X140889032Y-135561477D01*
X141058550Y-135674745D01*
X141246908Y-135752766D01*
X141446867Y-135792540D01*
X141650745Y-135792540D01*
X141850704Y-135752766D01*
X142039062Y-135674745D01*
X142208580Y-135561477D01*
X142352743Y-135417314D01*
X142466011Y-135247796D01*
X142544032Y-135059438D01*
X142583806Y-134859479D01*
X142583806Y-134655601D01*
X142544032Y-134455642D01*
X142466011Y-134267284D01*
X142352743Y-134097766D01*
X142285406Y-134030429D01*
X142285406Y-133452651D01*
X142352743Y-133385314D01*
X142466011Y-133215796D01*
X142544032Y-133027438D01*
X142583806Y-132827479D01*
X142583806Y-132623601D01*
X142544032Y-132423642D01*
X142466011Y-132235284D01*
X142352743Y-132065766D01*
X142310806Y-132023829D01*
X142310806Y-131395251D01*
X142352743Y-131353314D01*
X142466011Y-131183796D01*
X142544032Y-130995438D01*
X142583806Y-130795479D01*
X142583806Y-130591601D01*
X142544032Y-130391642D01*
X142466011Y-130203284D01*
X142352743Y-130033766D01*
X142208580Y-129889603D01*
X142039062Y-129776335D01*
X141850704Y-129698314D01*
X141650745Y-129658540D01*
X141446867Y-129658540D01*
X141246908Y-129698314D01*
X141058550Y-129776335D01*
X140889032Y-129889603D01*
X140847095Y-129931540D01*
X138797571Y-129931540D01*
X137898200Y-129032170D01*
X137898200Y-128972861D01*
X137858426Y-128772902D01*
X137780405Y-128584544D01*
X137667137Y-128415026D01*
X137522974Y-128270863D01*
X137353456Y-128157595D01*
X137165098Y-128079574D01*
X136965139Y-128039800D01*
X136761261Y-128039800D01*
X136561302Y-128079574D01*
X136372944Y-128157595D01*
X136203426Y-128270863D01*
X136059263Y-128415026D01*
X135945995Y-128584544D01*
X135867974Y-128772902D01*
X135828200Y-128972861D01*
X135828200Y-129176739D01*
X135867974Y-129376698D01*
X135945995Y-129565056D01*
X136059263Y-129734574D01*
X136203426Y-129878737D01*
X136372944Y-129992005D01*
X136561302Y-130070026D01*
X136761261Y-130109800D01*
X136820570Y-130109800D01*
X137800169Y-131089400D01*
X136965066Y-131089400D01*
X136953898Y-131084774D01*
X136753939Y-131045000D01*
X136550061Y-131045000D01*
X136350102Y-131084774D01*
X136161744Y-131162795D01*
X135992226Y-131276063D01*
X135848063Y-131420226D01*
X135734795Y-131589744D01*
X135656774Y-131778102D01*
X135617000Y-131978061D01*
X127917532Y-131978061D01*
X128055134Y-131865134D01*
X128240706Y-131639014D01*
X128378599Y-131381034D01*
X128463513Y-131101111D01*
X128492185Y-130810000D01*
X128463513Y-130518889D01*
X128378599Y-130238966D01*
X128240706Y-129980986D01*
X128055134Y-129754866D01*
X127829014Y-129569294D01*
X127774209Y-129540000D01*
X127829014Y-129510706D01*
X128055134Y-129325134D01*
X128240706Y-129099014D01*
X128378599Y-128841034D01*
X128463513Y-128561111D01*
X128492185Y-128270000D01*
X128463513Y-127978889D01*
X128378599Y-127698966D01*
X128240706Y-127440986D01*
X128055134Y-127214866D01*
X127829014Y-127029294D01*
X127774209Y-127000000D01*
X127829014Y-126970706D01*
X128055134Y-126785134D01*
X128240706Y-126559014D01*
X128378599Y-126301034D01*
X128463513Y-126021111D01*
X128492185Y-125730000D01*
X128463513Y-125438889D01*
X128378599Y-125158966D01*
X128240706Y-124900986D01*
X128055134Y-124674866D01*
X127829014Y-124489294D01*
X127774209Y-124460000D01*
X127829014Y-124430706D01*
X128055134Y-124245134D01*
X128240706Y-124019014D01*
X128378599Y-123761034D01*
X128463513Y-123481111D01*
X128492185Y-123190000D01*
X148367815Y-123190000D01*
X148396487Y-123481111D01*
X148481401Y-123761034D01*
X148619294Y-124019014D01*
X148804866Y-124245134D01*
X149030986Y-124430706D01*
X149085791Y-124460000D01*
X149030986Y-124489294D01*
X148804866Y-124674866D01*
X148619294Y-124900986D01*
X148481401Y-125158966D01*
X148396487Y-125438889D01*
X148367815Y-125730000D01*
X148396487Y-126021111D01*
X148481401Y-126301034D01*
X148619294Y-126559014D01*
X148804866Y-126785134D01*
X149030986Y-126970706D01*
X149085791Y-127000000D01*
X149030986Y-127029294D01*
X148804866Y-127214866D01*
X148619294Y-127440986D01*
X148481401Y-127698966D01*
X148396487Y-127978889D01*
X148367815Y-128270000D01*
X148396487Y-128561111D01*
X148481401Y-128841034D01*
X148619294Y-129099014D01*
X148804866Y-129325134D01*
X149030986Y-129510706D01*
X149085791Y-129540000D01*
X149030986Y-129569294D01*
X148804866Y-129754866D01*
X148619294Y-129980986D01*
X148481401Y-130238966D01*
X148396487Y-130518889D01*
X148367815Y-130810000D01*
X148396487Y-131101111D01*
X148481401Y-131381034D01*
X148619294Y-131639014D01*
X148804866Y-131865134D01*
X149030986Y-132050706D01*
X149085791Y-132080000D01*
X149030986Y-132109294D01*
X148804866Y-132294866D01*
X148619294Y-132520986D01*
X148481401Y-132778966D01*
X148396487Y-133058889D01*
X148367815Y-133350000D01*
X148396487Y-133641111D01*
X148481401Y-133921034D01*
X148619294Y-134179014D01*
X148804866Y-134405134D01*
X148834687Y-134429607D01*
X148765820Y-134450498D01*
X148655506Y-134509463D01*
X148558815Y-134588815D01*
X148479463Y-134685506D01*
X148420498Y-134795820D01*
X148384188Y-134915518D01*
X148371928Y-135040000D01*
X148371928Y-136740000D01*
X148384188Y-136864482D01*
X148420498Y-136984180D01*
X148479463Y-137094494D01*
X148533222Y-137160000D01*
X148479463Y-137225506D01*
X148420498Y-137335820D01*
X148384188Y-137455518D01*
X148371928Y-137580000D01*
X148375000Y-138144250D01*
X148533750Y-138303000D01*
X149733000Y-138303000D01*
X149733000Y-138283000D01*
X149987000Y-138283000D01*
X149987000Y-138303000D01*
X151186250Y-138303000D01*
X151345000Y-138144250D01*
X151348072Y-137580000D01*
X151335812Y-137455518D01*
X151299502Y-137335820D01*
X151240537Y-137225506D01*
X151186778Y-137160000D01*
X151240537Y-137094494D01*
X151299502Y-136984180D01*
X151335812Y-136864482D01*
X151348072Y-136740000D01*
X151348072Y-135040000D01*
X151335812Y-134915518D01*
X151299502Y-134795820D01*
X151240537Y-134685506D01*
X151161185Y-134588815D01*
X151064494Y-134509463D01*
X150954180Y-134450498D01*
X150885313Y-134429607D01*
X150915134Y-134405134D01*
X151100706Y-134179014D01*
X151238599Y-133921034D01*
X151323513Y-133641111D01*
X151352185Y-133350000D01*
X151323513Y-133058889D01*
X151238599Y-132778966D01*
X151100706Y-132520986D01*
X150915134Y-132294866D01*
X150689014Y-132109294D01*
X150634209Y-132080000D01*
X150689014Y-132050706D01*
X150915134Y-131865134D01*
X151100706Y-131639014D01*
X151238599Y-131381034D01*
X151323513Y-131101111D01*
X151352185Y-130810000D01*
X151323513Y-130518889D01*
X151238599Y-130238966D01*
X151100706Y-129980986D01*
X150915134Y-129754866D01*
X150689014Y-129569294D01*
X150634209Y-129540000D01*
X150689014Y-129510706D01*
X150915134Y-129325134D01*
X151100706Y-129099014D01*
X151238599Y-128841034D01*
X151323513Y-128561111D01*
X151352185Y-128270000D01*
X151323513Y-127978889D01*
X151238599Y-127698966D01*
X151100706Y-127440986D01*
X150915134Y-127214866D01*
X150689014Y-127029294D01*
X150634209Y-127000000D01*
X150689014Y-126970706D01*
X150915134Y-126785134D01*
X151100706Y-126559014D01*
X151238599Y-126301034D01*
X151323513Y-126021111D01*
X151352185Y-125730000D01*
X151323513Y-125438889D01*
X151238599Y-125158966D01*
X151100706Y-124900986D01*
X150915134Y-124674866D01*
X150689014Y-124489294D01*
X150634209Y-124460000D01*
X150689014Y-124430706D01*
X150915134Y-124245134D01*
X151100706Y-124019014D01*
X151238599Y-123761034D01*
X151323513Y-123481111D01*
X151352185Y-123190000D01*
X151323513Y-122898889D01*
X151238599Y-122618966D01*
X151100706Y-122360986D01*
X150915134Y-122134866D01*
X150689014Y-121949294D01*
X150431034Y-121811401D01*
X150151111Y-121726487D01*
X149932950Y-121705000D01*
X149787050Y-121705000D01*
X149568889Y-121726487D01*
X149288966Y-121811401D01*
X149030986Y-121949294D01*
X148804866Y-122134866D01*
X148619294Y-122360986D01*
X148481401Y-122618966D01*
X148396487Y-122898889D01*
X148367815Y-123190000D01*
X128492185Y-123190000D01*
X128463513Y-122898889D01*
X128378599Y-122618966D01*
X128240706Y-122360986D01*
X128055134Y-122134866D01*
X128025313Y-122110393D01*
X128094180Y-122089502D01*
X128204494Y-122030537D01*
X128301185Y-121951185D01*
X128380537Y-121854494D01*
X128439502Y-121744180D01*
X128475812Y-121624482D01*
X128488072Y-121500000D01*
X128485000Y-120935750D01*
X128326250Y-120777000D01*
X127127000Y-120777000D01*
X127127000Y-120797000D01*
X126873000Y-120797000D01*
X126873000Y-120777000D01*
X125673750Y-120777000D01*
X125515000Y-120935750D01*
X125511928Y-121500000D01*
X125524188Y-121624482D01*
X125560498Y-121744180D01*
X125619463Y-121854494D01*
X125698815Y-121951185D01*
X125795506Y-122030537D01*
X125905820Y-122089502D01*
X125974687Y-122110393D01*
X125944866Y-122134866D01*
X125759294Y-122360986D01*
X125621401Y-122618966D01*
X125536487Y-122898889D01*
X125507815Y-123190000D01*
X125120000Y-123190000D01*
X125120000Y-118110000D01*
X125507815Y-118110000D01*
X125536487Y-118401111D01*
X125621401Y-118681034D01*
X125759294Y-118939014D01*
X125944866Y-119165134D01*
X125974687Y-119189607D01*
X125905820Y-119210498D01*
X125795506Y-119269463D01*
X125698815Y-119348815D01*
X125619463Y-119445506D01*
X125560498Y-119555820D01*
X125524188Y-119675518D01*
X125511928Y-119800000D01*
X125515000Y-120364250D01*
X125673750Y-120523000D01*
X126873000Y-120523000D01*
X126873000Y-120503000D01*
X127127000Y-120503000D01*
X127127000Y-120523000D01*
X128326250Y-120523000D01*
X128485000Y-120364250D01*
X128488072Y-119800000D01*
X128475812Y-119675518D01*
X128439502Y-119555820D01*
X128380537Y-119445506D01*
X128301185Y-119348815D01*
X128204494Y-119269463D01*
X128094180Y-119210498D01*
X128025313Y-119189607D01*
X128055134Y-119165134D01*
X128240706Y-118939014D01*
X128378599Y-118681034D01*
X128463513Y-118401111D01*
X128492185Y-118110000D01*
X128463513Y-117818889D01*
X128378599Y-117538966D01*
X128240706Y-117280986D01*
X128055134Y-117054866D01*
X127829014Y-116869294D01*
X127571034Y-116731401D01*
X127291111Y-116646487D01*
X127072950Y-116625000D01*
X126927050Y-116625000D01*
X126708889Y-116646487D01*
X126428966Y-116731401D01*
X126170986Y-116869294D01*
X125944866Y-117054866D01*
X125759294Y-117280986D01*
X125621401Y-117538966D01*
X125536487Y-117818889D01*
X125507815Y-118110000D01*
X125120000Y-118110000D01*
X125120000Y-111789392D01*
X125192437Y-110977751D01*
X125399672Y-110220226D01*
X125737777Y-109511375D01*
X126196067Y-108873596D01*
X126760055Y-108327054D01*
X127411913Y-107889023D01*
X128131038Y-107573349D01*
X128899768Y-107388794D01*
X129564207Y-107340000D01*
X147290608Y-107340000D01*
X148102249Y-107412437D01*
X148102249Y-107412437D01*
G37*
X148102249Y-107412437D02*
X148859774Y-107619672D01*
X149568625Y-107957777D01*
X150206404Y-108416067D01*
X150752946Y-108980055D01*
X151190977Y-109631913D01*
X151506651Y-110351038D01*
X151691206Y-111119768D01*
X151740000Y-111784207D01*
X151740001Y-149322597D01*
X151667563Y-150134249D01*
X151460328Y-150891774D01*
X151122221Y-151600627D01*
X150663928Y-152238410D01*
X150099945Y-152784946D01*
X149448085Y-153222978D01*
X148728963Y-153538651D01*
X147960232Y-153723206D01*
X147295792Y-153772000D01*
X129569392Y-153772000D01*
X128757751Y-153699563D01*
X128000226Y-153492328D01*
X127291373Y-153154221D01*
X126653590Y-152695928D01*
X126107054Y-152131945D01*
X125689797Y-151511000D01*
X131984815Y-151511000D01*
X132013487Y-151802111D01*
X132098401Y-152082034D01*
X132236294Y-152340014D01*
X132421866Y-152566134D01*
X132647986Y-152751706D01*
X132905966Y-152889599D01*
X133185889Y-152974513D01*
X133404050Y-152996000D01*
X133549950Y-152996000D01*
X133768111Y-152974513D01*
X134048034Y-152889599D01*
X134306014Y-152751706D01*
X134532134Y-152566134D01*
X134717706Y-152340014D01*
X134747000Y-152285209D01*
X134776294Y-152340014D01*
X134961866Y-152566134D01*
X135187986Y-152751706D01*
X135445966Y-152889599D01*
X135725889Y-152974513D01*
X135944050Y-152996000D01*
X136089950Y-152996000D01*
X136308111Y-152974513D01*
X136588034Y-152889599D01*
X136846014Y-152751706D01*
X137072134Y-152566134D01*
X137257706Y-152340014D01*
X137287000Y-152285209D01*
X137316294Y-152340014D01*
X137501866Y-152566134D01*
X137727986Y-152751706D01*
X137985966Y-152889599D01*
X138265889Y-152974513D01*
X138484050Y-152996000D01*
X138629950Y-152996000D01*
X138848111Y-152974513D01*
X139128034Y-152889599D01*
X139386014Y-152751706D01*
X139612134Y-152566134D01*
X139797706Y-152340014D01*
X139827000Y-152285209D01*
X139856294Y-152340014D01*
X140041866Y-152566134D01*
X140267986Y-152751706D01*
X140525966Y-152889599D01*
X140805889Y-152974513D01*
X141024050Y-152996000D01*
X141169950Y-152996000D01*
X141388111Y-152974513D01*
X141668034Y-152889599D01*
X141926014Y-152751706D01*
X142152134Y-152566134D01*
X142176607Y-152536313D01*
X142197498Y-152605180D01*
X142256463Y-152715494D01*
X142335815Y-152812185D01*
X142432506Y-152891537D01*
X142542820Y-152950502D01*
X142662518Y-152986812D01*
X142787000Y-152999072D01*
X143351250Y-152996000D01*
X143510000Y-152837250D01*
X143510000Y-151638000D01*
X143764000Y-151638000D01*
X143764000Y-152837250D01*
X143922750Y-152996000D01*
X144487000Y-152999072D01*
X144611482Y-152986812D01*
X144731180Y-152950502D01*
X144841494Y-152891537D01*
X144938185Y-152812185D01*
X145017537Y-152715494D01*
X145076502Y-152605180D01*
X145112812Y-152485482D01*
X145125072Y-152361000D01*
X145122000Y-151796750D01*
X144963250Y-151638000D01*
X143764000Y-151638000D01*
X143510000Y-151638000D01*
X143490000Y-151638000D01*
X143490000Y-151384000D01*
X143510000Y-151384000D01*
X143510000Y-150184750D01*
X143764000Y-150184750D01*
X143764000Y-151384000D01*
X144963250Y-151384000D01*
X145122000Y-151225250D01*
X145125072Y-150661000D01*
X145112812Y-150536518D01*
X145076502Y-150416820D01*
X145017537Y-150306506D01*
X144938185Y-150209815D01*
X144841494Y-150130463D01*
X144731180Y-150071498D01*
X144611482Y-150035188D01*
X144487000Y-150022928D01*
X143922750Y-150026000D01*
X143764000Y-150184750D01*
X143510000Y-150184750D01*
X143351250Y-150026000D01*
X142787000Y-150022928D01*
X142662518Y-150035188D01*
X142542820Y-150071498D01*
X142432506Y-150130463D01*
X142335815Y-150209815D01*
X142256463Y-150306506D01*
X142197498Y-150416820D01*
X142176607Y-150485687D01*
X142152134Y-150455866D01*
X141926014Y-150270294D01*
X141668034Y-150132401D01*
X141388111Y-150047487D01*
X141169950Y-150026000D01*
X141024050Y-150026000D01*
X140805889Y-150047487D01*
X140525966Y-150132401D01*
X140267986Y-150270294D01*
X140041866Y-150455866D01*
X139856294Y-150681986D01*
X139827000Y-150736791D01*
X139797706Y-150681986D01*
X139612134Y-150455866D01*
X139386014Y-150270294D01*
X139128034Y-150132401D01*
X138848111Y-150047487D01*
X138629950Y-150026000D01*
X138484050Y-150026000D01*
X138265889Y-150047487D01*
X137985966Y-150132401D01*
X137727986Y-150270294D01*
X137501866Y-150455866D01*
X137316294Y-150681986D01*
X137287000Y-150736791D01*
X137257706Y-150681986D01*
X137072134Y-150455866D01*
X136846014Y-150270294D01*
X136588034Y-150132401D01*
X136308111Y-150047487D01*
X136089950Y-150026000D01*
X135944050Y-150026000D01*
X135725889Y-150047487D01*
X135445966Y-150132401D01*
X135187986Y-150270294D01*
X134961866Y-150455866D01*
X134776294Y-150681986D01*
X134747000Y-150736791D01*
X134717706Y-150681986D01*
X134532134Y-150455866D01*
X134306014Y-150270294D01*
X134048034Y-150132401D01*
X133768111Y-150047487D01*
X133549950Y-150026000D01*
X133404050Y-150026000D01*
X133185889Y-150047487D01*
X132905966Y-150132401D01*
X132647986Y-150270294D01*
X132421866Y-150455866D01*
X132236294Y-150681986D01*
X132098401Y-150939966D01*
X132013487Y-151219889D01*
X131984815Y-151511000D01*
X125689797Y-151511000D01*
X125669022Y-151480085D01*
X125353349Y-150760963D01*
X125168794Y-149992232D01*
X125120000Y-149327792D01*
X125120000Y-123190000D01*
X125507815Y-123190000D01*
X125536487Y-123481111D01*
X125621401Y-123761034D01*
X125759294Y-124019014D01*
X125944866Y-124245134D01*
X126170986Y-124430706D01*
X126225791Y-124460000D01*
X126170986Y-124489294D01*
X125944866Y-124674866D01*
X125759294Y-124900986D01*
X125621401Y-125158966D01*
X125536487Y-125438889D01*
X125507815Y-125730000D01*
X125536487Y-126021111D01*
X125621401Y-126301034D01*
X125759294Y-126559014D01*
X125944866Y-126785134D01*
X126170986Y-126970706D01*
X126225791Y-127000000D01*
X126170986Y-127029294D01*
X125944866Y-127214866D01*
X125759294Y-127440986D01*
X125621401Y-127698966D01*
X125536487Y-127978889D01*
X125507815Y-128270000D01*
X125536487Y-128561111D01*
X125621401Y-128841034D01*
X125759294Y-129099014D01*
X125944866Y-129325134D01*
X126170986Y-129510706D01*
X126225791Y-129540000D01*
X126170986Y-129569294D01*
X125944866Y-129754866D01*
X125759294Y-129980986D01*
X125621401Y-130238966D01*
X125536487Y-130518889D01*
X125507815Y-130810000D01*
X125536487Y-131101111D01*
X125621401Y-131381034D01*
X125759294Y-131639014D01*
X125944866Y-131865134D01*
X126170986Y-132050706D01*
X126225791Y-132080000D01*
X126170986Y-132109294D01*
X125944866Y-132294866D01*
X125759294Y-132520986D01*
X125621401Y-132778966D01*
X125536487Y-133058889D01*
X125507815Y-133350000D01*
X125536487Y-133641111D01*
X125621401Y-133921034D01*
X125759294Y-134179014D01*
X125944866Y-134405134D01*
X126170986Y-134590706D01*
X126225791Y-134620000D01*
X126170986Y-134649294D01*
X125944866Y-134834866D01*
X125759294Y-135060986D01*
X125621401Y-135318966D01*
X125536487Y-135598889D01*
X125507815Y-135890000D01*
X125536487Y-136181111D01*
X125621401Y-136461034D01*
X125759294Y-136719014D01*
X125944866Y-136945134D01*
X126170986Y-137130706D01*
X126225791Y-137160000D01*
X126170986Y-137189294D01*
X125944866Y-137374866D01*
X125759294Y-137600986D01*
X125621401Y-137858966D01*
X125536487Y-138138889D01*
X125507815Y-138430000D01*
X125536487Y-138721111D01*
X125621401Y-139001034D01*
X125759294Y-139259014D01*
X125944866Y-139485134D01*
X125974687Y-139509607D01*
X125905820Y-139530498D01*
X125795506Y-139589463D01*
X125698815Y-139668815D01*
X125619463Y-139765506D01*
X125560498Y-139875820D01*
X125524188Y-139995518D01*
X125511928Y-140120000D01*
X125511928Y-141820000D01*
X125524188Y-141944482D01*
X125560498Y-142064180D01*
X125619463Y-142174494D01*
X125673222Y-142240000D01*
X125619463Y-142305506D01*
X125560498Y-142415820D01*
X125524188Y-142535518D01*
X125511928Y-142660000D01*
X125511928Y-144360000D01*
X125524188Y-144484482D01*
X125560498Y-144604180D01*
X125619463Y-144714494D01*
X125698815Y-144811185D01*
X125795506Y-144890537D01*
X125905820Y-144949502D01*
X125974687Y-144970393D01*
X125944866Y-144994866D01*
X125759294Y-145220986D01*
X125621401Y-145478966D01*
X125536487Y-145758889D01*
X125507815Y-146050000D01*
X125536487Y-146341111D01*
X125621401Y-146621034D01*
X125759294Y-146879014D01*
X125944866Y-147105134D01*
X126170986Y-147290706D01*
X126428966Y-147428599D01*
X126708889Y-147513513D01*
X126927050Y-147535000D01*
X127072950Y-147535000D01*
X127291111Y-147513513D01*
X127571034Y-147428599D01*
X127829014Y-147290706D01*
X128055134Y-147105134D01*
X128240706Y-146879014D01*
X128378599Y-146621034D01*
X128463513Y-146341111D01*
X128492185Y-146050000D01*
X128463513Y-145758889D01*
X128378599Y-145478966D01*
X128240706Y-145220986D01*
X128055134Y-144994866D01*
X128025313Y-144970393D01*
X128094180Y-144949502D01*
X128204494Y-144890537D01*
X128301185Y-144811185D01*
X128380537Y-144714494D01*
X128439502Y-144604180D01*
X128475812Y-144484482D01*
X128488072Y-144360000D01*
X128488072Y-142660000D01*
X128475812Y-142535518D01*
X128439502Y-142415820D01*
X128380537Y-142305506D01*
X128326778Y-142240000D01*
X128380537Y-142174494D01*
X128439502Y-142064180D01*
X128475812Y-141944482D01*
X128488072Y-141820000D01*
X128488072Y-140120000D01*
X128475812Y-139995518D01*
X128439502Y-139875820D01*
X128380537Y-139765506D01*
X128301185Y-139668815D01*
X128204494Y-139589463D01*
X128094180Y-139530498D01*
X128025313Y-139509607D01*
X128055134Y-139485134D01*
X128240706Y-139259014D01*
X128378599Y-139001034D01*
X128463513Y-138721111D01*
X128492185Y-138430000D01*
X128463513Y-138138889D01*
X128378599Y-137858966D01*
X128240706Y-137600986D01*
X128055134Y-137374866D01*
X127829014Y-137189294D01*
X127774209Y-137160000D01*
X127829014Y-137130706D01*
X128055134Y-136945134D01*
X128240706Y-136719014D01*
X128378599Y-136461034D01*
X128463513Y-136181111D01*
X128492185Y-135890000D01*
X128463513Y-135598889D01*
X128378599Y-135318966D01*
X128240706Y-135060986D01*
X128055134Y-134834866D01*
X127829014Y-134649294D01*
X127774209Y-134620000D01*
X127829014Y-134590706D01*
X128055134Y-134405134D01*
X128240706Y-134179014D01*
X128378599Y-133921034D01*
X128463513Y-133641111D01*
X128492185Y-133350000D01*
X128463513Y-133058889D01*
X128378599Y-132778966D01*
X128240706Y-132520986D01*
X128055134Y-132294866D01*
X127829014Y-132109294D01*
X127774209Y-132080000D01*
X127829014Y-132050706D01*
X127917532Y-131978061D01*
X135617000Y-131978061D01*
X135617000Y-132181939D01*
X135656774Y-132381898D01*
X135734795Y-132570256D01*
X135848063Y-132739774D01*
X135992226Y-132883937D01*
X136161744Y-132997205D01*
X136350102Y-133075226D01*
X136550061Y-133115000D01*
X136753939Y-133115000D01*
X136953898Y-133075226D01*
X137142256Y-132997205D01*
X137224665Y-132942141D01*
X137180774Y-133048102D01*
X137141000Y-133248061D01*
X137141000Y-133307370D01*
X136901649Y-133546721D01*
X136872579Y-133570578D01*
X136848722Y-133599648D01*
X136848721Y-133599649D01*
X136777355Y-133686608D01*
X136706599Y-133818985D01*
X136663027Y-133962622D01*
X136648314Y-134112000D01*
X136652001Y-134149433D01*
X136652000Y-140753425D01*
X136663026Y-140865377D01*
X136706598Y-141009014D01*
X136777355Y-141141391D01*
X136872578Y-141257422D01*
X136988608Y-141352645D01*
X137032278Y-141375987D01*
X138137559Y-142481269D01*
X138160625Y-142509375D01*
X138272787Y-142601424D01*
X138400751Y-142669822D01*
X138539601Y-142711942D01*
X138647814Y-142722600D01*
X138647823Y-142722600D01*
X138683999Y-142726163D01*
X138720175Y-142722600D01*
X139734889Y-142722600D01*
X139802226Y-142789937D01*
X139971744Y-142903205D01*
X140160102Y-142981226D01*
X140360061Y-143021000D01*
X140563939Y-143021000D01*
X140763898Y-142981226D01*
X140952256Y-142903205D01*
X141121774Y-142789937D01*
X141265937Y-142645774D01*
X141379205Y-142476256D01*
X141457226Y-142287898D01*
X141497000Y-142087939D01*
X141497000Y-141884061D01*
X141457226Y-141684102D01*
X141379205Y-141495744D01*
X141265937Y-141326226D01*
X141121774Y-141182063D01*
X140952256Y-141068795D01*
X140763898Y-140990774D01*
X140659460Y-140970000D01*
X148367815Y-140970000D01*
X148396487Y-141261111D01*
X148481401Y-141541034D01*
X148619294Y-141799014D01*
X148804866Y-142025134D01*
X148834687Y-142049607D01*
X148765820Y-142070498D01*
X148655506Y-142129463D01*
X148558815Y-142208815D01*
X148479463Y-142305506D01*
X148420498Y-142415820D01*
X148384188Y-142535518D01*
X148371928Y-142660000D01*
X148371928Y-144360000D01*
X148384188Y-144484482D01*
X148420498Y-144604180D01*
X148479463Y-144714494D01*
X148558815Y-144811185D01*
X148655506Y-144890537D01*
X148765820Y-144949502D01*
X148834687Y-144970393D01*
X148804866Y-144994866D01*
X148619294Y-145220986D01*
X148481401Y-145478966D01*
X148396487Y-145758889D01*
X148367815Y-146050000D01*
X148396487Y-146341111D01*
X148481401Y-146621034D01*
X148619294Y-146879014D01*
X148804866Y-147105134D01*
X149030986Y-147290706D01*
X149288966Y-147428599D01*
X149568889Y-147513513D01*
X149787050Y-147535000D01*
X149932950Y-147535000D01*
X150151111Y-147513513D01*
X150431034Y-147428599D01*
X150689014Y-147290706D01*
X150915134Y-147105134D01*
X151100706Y-146879014D01*
X151238599Y-146621034D01*
X151323513Y-146341111D01*
X151352185Y-146050000D01*
X151323513Y-145758889D01*
X151238599Y-145478966D01*
X151100706Y-145220986D01*
X150915134Y-144994866D01*
X150885313Y-144970393D01*
X150954180Y-144949502D01*
X151064494Y-144890537D01*
X151161185Y-144811185D01*
X151240537Y-144714494D01*
X151299502Y-144604180D01*
X151335812Y-144484482D01*
X151348072Y-144360000D01*
X151348072Y-142660000D01*
X151335812Y-142535518D01*
X151299502Y-142415820D01*
X151240537Y-142305506D01*
X151161185Y-142208815D01*
X151064494Y-142129463D01*
X150954180Y-142070498D01*
X150885313Y-142049607D01*
X150915134Y-142025134D01*
X151100706Y-141799014D01*
X151238599Y-141541034D01*
X151323513Y-141261111D01*
X151352185Y-140970000D01*
X151323513Y-140678889D01*
X151238599Y-140398966D01*
X151100706Y-140140986D01*
X150915134Y-139914866D01*
X150885313Y-139890393D01*
X150954180Y-139869502D01*
X151064494Y-139810537D01*
X151161185Y-139731185D01*
X151240537Y-139634494D01*
X151299502Y-139524180D01*
X151335812Y-139404482D01*
X151348072Y-139280000D01*
X151345000Y-138715750D01*
X151186250Y-138557000D01*
X149987000Y-138557000D01*
X149987000Y-138577000D01*
X149733000Y-138577000D01*
X149733000Y-138557000D01*
X148533750Y-138557000D01*
X148375000Y-138715750D01*
X148371928Y-139280000D01*
X148384188Y-139404482D01*
X148420498Y-139524180D01*
X148479463Y-139634494D01*
X148558815Y-139731185D01*
X148655506Y-139810537D01*
X148765820Y-139869502D01*
X148834687Y-139890393D01*
X148804866Y-139914866D01*
X148619294Y-140140986D01*
X148481401Y-140398966D01*
X148396487Y-140678889D01*
X148367815Y-140970000D01*
X140659460Y-140970000D01*
X140563939Y-140951000D01*
X140360061Y-140951000D01*
X140160102Y-140990774D01*
X139971744Y-141068795D01*
X139802226Y-141182063D01*
X139734889Y-141249400D01*
X138989110Y-141249400D01*
X138176000Y-140436291D01*
X138176000Y-134427630D01*
X138218630Y-134385000D01*
X138277939Y-134385000D01*
X138477898Y-134345226D01*
X138666256Y-134267205D01*
X138835774Y-134153937D01*
X138979937Y-134009774D01*
X139093205Y-133840256D01*
X139171226Y-133651898D01*
X139211000Y-133451939D01*
X139211000Y-133248061D01*
X139171226Y-133048102D01*
X139093205Y-132859744D01*
X138979937Y-132690226D01*
X138852311Y-132562600D01*
X140344157Y-132562600D01*
X140513806Y-132732249D01*
X140513806Y-132827479D01*
X140553580Y-133027438D01*
X140631601Y-133215796D01*
X140744869Y-133385314D01*
X140812206Y-133452651D01*
X140812207Y-134030428D01*
X140744869Y-134097766D01*
X140631601Y-134267284D01*
X140553580Y-134455642D01*
X140513806Y-134655601D01*
X140513806Y-134859479D01*
X140553580Y-135059438D01*
X140631601Y-135247796D01*
X140744869Y-135417314D01*
X140889032Y-135561477D01*
X141058550Y-135674745D01*
X141246908Y-135752766D01*
X141446867Y-135792540D01*
X141650745Y-135792540D01*
X141850704Y-135752766D01*
X142039062Y-135674745D01*
X142208580Y-135561477D01*
X142352743Y-135417314D01*
X142466011Y-135247796D01*
X142544032Y-135059438D01*
X142583806Y-134859479D01*
X142583806Y-134655601D01*
X142544032Y-134455642D01*
X142466011Y-134267284D01*
X142352743Y-134097766D01*
X142285406Y-134030429D01*
X142285406Y-133452651D01*
X142352743Y-133385314D01*
X142466011Y-133215796D01*
X142544032Y-133027438D01*
X142583806Y-132827479D01*
X142583806Y-132623601D01*
X142544032Y-132423642D01*
X142466011Y-132235284D01*
X142352743Y-132065766D01*
X142310806Y-132023829D01*
X142310806Y-131395251D01*
X142352743Y-131353314D01*
X142466011Y-131183796D01*
X142544032Y-130995438D01*
X142583806Y-130795479D01*
X142583806Y-130591601D01*
X142544032Y-130391642D01*
X142466011Y-130203284D01*
X142352743Y-130033766D01*
X142208580Y-129889603D01*
X142039062Y-129776335D01*
X141850704Y-129698314D01*
X141650745Y-129658540D01*
X141446867Y-129658540D01*
X141246908Y-129698314D01*
X141058550Y-129776335D01*
X140889032Y-129889603D01*
X140847095Y-129931540D01*
X138797571Y-129931540D01*
X137898200Y-129032170D01*
X137898200Y-128972861D01*
X137858426Y-128772902D01*
X137780405Y-128584544D01*
X137667137Y-128415026D01*
X137522974Y-128270863D01*
X137353456Y-128157595D01*
X137165098Y-128079574D01*
X136965139Y-128039800D01*
X136761261Y-128039800D01*
X136561302Y-128079574D01*
X136372944Y-128157595D01*
X136203426Y-128270863D01*
X136059263Y-128415026D01*
X135945995Y-128584544D01*
X135867974Y-128772902D01*
X135828200Y-128972861D01*
X135828200Y-129176739D01*
X135867974Y-129376698D01*
X135945995Y-129565056D01*
X136059263Y-129734574D01*
X136203426Y-129878737D01*
X136372944Y-129992005D01*
X136561302Y-130070026D01*
X136761261Y-130109800D01*
X136820570Y-130109800D01*
X137800169Y-131089400D01*
X136965066Y-131089400D01*
X136953898Y-131084774D01*
X136753939Y-131045000D01*
X136550061Y-131045000D01*
X136350102Y-131084774D01*
X136161744Y-131162795D01*
X135992226Y-131276063D01*
X135848063Y-131420226D01*
X135734795Y-131589744D01*
X135656774Y-131778102D01*
X135617000Y-131978061D01*
X127917532Y-131978061D01*
X128055134Y-131865134D01*
X128240706Y-131639014D01*
X128378599Y-131381034D01*
X128463513Y-131101111D01*
X128492185Y-130810000D01*
X128463513Y-130518889D01*
X128378599Y-130238966D01*
X128240706Y-129980986D01*
X128055134Y-129754866D01*
X127829014Y-129569294D01*
X127774209Y-129540000D01*
X127829014Y-129510706D01*
X128055134Y-129325134D01*
X128240706Y-129099014D01*
X128378599Y-128841034D01*
X128463513Y-128561111D01*
X128492185Y-128270000D01*
X128463513Y-127978889D01*
X128378599Y-127698966D01*
X128240706Y-127440986D01*
X128055134Y-127214866D01*
X127829014Y-127029294D01*
X127774209Y-127000000D01*
X127829014Y-126970706D01*
X128055134Y-126785134D01*
X128240706Y-126559014D01*
X128378599Y-126301034D01*
X128463513Y-126021111D01*
X128492185Y-125730000D01*
X128463513Y-125438889D01*
X128378599Y-125158966D01*
X128240706Y-124900986D01*
X128055134Y-124674866D01*
X127829014Y-124489294D01*
X127774209Y-124460000D01*
X127829014Y-124430706D01*
X128055134Y-124245134D01*
X128240706Y-124019014D01*
X128378599Y-123761034D01*
X128463513Y-123481111D01*
X128492185Y-123190000D01*
X148367815Y-123190000D01*
X148396487Y-123481111D01*
X148481401Y-123761034D01*
X148619294Y-124019014D01*
X148804866Y-124245134D01*
X149030986Y-124430706D01*
X149085791Y-124460000D01*
X149030986Y-124489294D01*
X148804866Y-124674866D01*
X148619294Y-124900986D01*
X148481401Y-125158966D01*
X148396487Y-125438889D01*
X148367815Y-125730000D01*
X148396487Y-126021111D01*
X148481401Y-126301034D01*
X148619294Y-126559014D01*
X148804866Y-126785134D01*
X149030986Y-126970706D01*
X149085791Y-127000000D01*
X149030986Y-127029294D01*
X148804866Y-127214866D01*
X148619294Y-127440986D01*
X148481401Y-127698966D01*
X148396487Y-127978889D01*
X148367815Y-128270000D01*
X148396487Y-128561111D01*
X148481401Y-128841034D01*
X148619294Y-129099014D01*
X148804866Y-129325134D01*
X149030986Y-129510706D01*
X149085791Y-129540000D01*
X149030986Y-129569294D01*
X148804866Y-129754866D01*
X148619294Y-129980986D01*
X148481401Y-130238966D01*
X148396487Y-130518889D01*
X148367815Y-130810000D01*
X148396487Y-131101111D01*
X148481401Y-131381034D01*
X148619294Y-131639014D01*
X148804866Y-131865134D01*
X149030986Y-132050706D01*
X149085791Y-132080000D01*
X149030986Y-132109294D01*
X148804866Y-132294866D01*
X148619294Y-132520986D01*
X148481401Y-132778966D01*
X148396487Y-133058889D01*
X148367815Y-133350000D01*
X148396487Y-133641111D01*
X148481401Y-133921034D01*
X148619294Y-134179014D01*
X148804866Y-134405134D01*
X148834687Y-134429607D01*
X148765820Y-134450498D01*
X148655506Y-134509463D01*
X148558815Y-134588815D01*
X148479463Y-134685506D01*
X148420498Y-134795820D01*
X148384188Y-134915518D01*
X148371928Y-135040000D01*
X148371928Y-136740000D01*
X148384188Y-136864482D01*
X148420498Y-136984180D01*
X148479463Y-137094494D01*
X148533222Y-137160000D01*
X148479463Y-137225506D01*
X148420498Y-137335820D01*
X148384188Y-137455518D01*
X148371928Y-137580000D01*
X148375000Y-138144250D01*
X148533750Y-138303000D01*
X149733000Y-138303000D01*
X149733000Y-138283000D01*
X149987000Y-138283000D01*
X149987000Y-138303000D01*
X151186250Y-138303000D01*
X151345000Y-138144250D01*
X151348072Y-137580000D01*
X151335812Y-137455518D01*
X151299502Y-137335820D01*
X151240537Y-137225506D01*
X151186778Y-137160000D01*
X151240537Y-137094494D01*
X151299502Y-136984180D01*
X151335812Y-136864482D01*
X151348072Y-136740000D01*
X151348072Y-135040000D01*
X151335812Y-134915518D01*
X151299502Y-134795820D01*
X151240537Y-134685506D01*
X151161185Y-134588815D01*
X151064494Y-134509463D01*
X150954180Y-134450498D01*
X150885313Y-134429607D01*
X150915134Y-134405134D01*
X151100706Y-134179014D01*
X151238599Y-133921034D01*
X151323513Y-133641111D01*
X151352185Y-133350000D01*
X151323513Y-133058889D01*
X151238599Y-132778966D01*
X151100706Y-132520986D01*
X150915134Y-132294866D01*
X150689014Y-132109294D01*
X150634209Y-132080000D01*
X150689014Y-132050706D01*
X150915134Y-131865134D01*
X151100706Y-131639014D01*
X151238599Y-131381034D01*
X151323513Y-131101111D01*
X151352185Y-130810000D01*
X151323513Y-130518889D01*
X151238599Y-130238966D01*
X151100706Y-129980986D01*
X150915134Y-129754866D01*
X150689014Y-129569294D01*
X150634209Y-129540000D01*
X150689014Y-129510706D01*
X150915134Y-129325134D01*
X151100706Y-129099014D01*
X151238599Y-128841034D01*
X151323513Y-128561111D01*
X151352185Y-128270000D01*
X151323513Y-127978889D01*
X151238599Y-127698966D01*
X151100706Y-127440986D01*
X150915134Y-127214866D01*
X150689014Y-127029294D01*
X150634209Y-127000000D01*
X150689014Y-126970706D01*
X150915134Y-126785134D01*
X151100706Y-126559014D01*
X151238599Y-126301034D01*
X151323513Y-126021111D01*
X151352185Y-125730000D01*
X151323513Y-125438889D01*
X151238599Y-125158966D01*
X151100706Y-124900986D01*
X150915134Y-124674866D01*
X150689014Y-124489294D01*
X150634209Y-124460000D01*
X150689014Y-124430706D01*
X150915134Y-124245134D01*
X151100706Y-124019014D01*
X151238599Y-123761034D01*
X151323513Y-123481111D01*
X151352185Y-123190000D01*
X151323513Y-122898889D01*
X151238599Y-122618966D01*
X151100706Y-122360986D01*
X150915134Y-122134866D01*
X150689014Y-121949294D01*
X150431034Y-121811401D01*
X150151111Y-121726487D01*
X149932950Y-121705000D01*
X149787050Y-121705000D01*
X149568889Y-121726487D01*
X149288966Y-121811401D01*
X149030986Y-121949294D01*
X148804866Y-122134866D01*
X148619294Y-122360986D01*
X148481401Y-122618966D01*
X148396487Y-122898889D01*
X148367815Y-123190000D01*
X128492185Y-123190000D01*
X128463513Y-122898889D01*
X128378599Y-122618966D01*
X128240706Y-122360986D01*
X128055134Y-122134866D01*
X128025313Y-122110393D01*
X128094180Y-122089502D01*
X128204494Y-122030537D01*
X128301185Y-121951185D01*
X128380537Y-121854494D01*
X128439502Y-121744180D01*
X128475812Y-121624482D01*
X128488072Y-121500000D01*
X128485000Y-120935750D01*
X128326250Y-120777000D01*
X127127000Y-120777000D01*
X127127000Y-120797000D01*
X126873000Y-120797000D01*
X126873000Y-120777000D01*
X125673750Y-120777000D01*
X125515000Y-120935750D01*
X125511928Y-121500000D01*
X125524188Y-121624482D01*
X125560498Y-121744180D01*
X125619463Y-121854494D01*
X125698815Y-121951185D01*
X125795506Y-122030537D01*
X125905820Y-122089502D01*
X125974687Y-122110393D01*
X125944866Y-122134866D01*
X125759294Y-122360986D01*
X125621401Y-122618966D01*
X125536487Y-122898889D01*
X125507815Y-123190000D01*
X125120000Y-123190000D01*
X125120000Y-118110000D01*
X125507815Y-118110000D01*
X125536487Y-118401111D01*
X125621401Y-118681034D01*
X125759294Y-118939014D01*
X125944866Y-119165134D01*
X125974687Y-119189607D01*
X125905820Y-119210498D01*
X125795506Y-119269463D01*
X125698815Y-119348815D01*
X125619463Y-119445506D01*
X125560498Y-119555820D01*
X125524188Y-119675518D01*
X125511928Y-119800000D01*
X125515000Y-120364250D01*
X125673750Y-120523000D01*
X126873000Y-120523000D01*
X126873000Y-120503000D01*
X127127000Y-120503000D01*
X127127000Y-120523000D01*
X128326250Y-120523000D01*
X128485000Y-120364250D01*
X128488072Y-119800000D01*
X128475812Y-119675518D01*
X128439502Y-119555820D01*
X128380537Y-119445506D01*
X128301185Y-119348815D01*
X128204494Y-119269463D01*
X128094180Y-119210498D01*
X128025313Y-119189607D01*
X128055134Y-119165134D01*
X128240706Y-118939014D01*
X128378599Y-118681034D01*
X128463513Y-118401111D01*
X128492185Y-118110000D01*
X128463513Y-117818889D01*
X128378599Y-117538966D01*
X128240706Y-117280986D01*
X128055134Y-117054866D01*
X127829014Y-116869294D01*
X127571034Y-116731401D01*
X127291111Y-116646487D01*
X127072950Y-116625000D01*
X126927050Y-116625000D01*
X126708889Y-116646487D01*
X126428966Y-116731401D01*
X126170986Y-116869294D01*
X125944866Y-117054866D01*
X125759294Y-117280986D01*
X125621401Y-117538966D01*
X125536487Y-117818889D01*
X125507815Y-118110000D01*
X125120000Y-118110000D01*
X125120000Y-111789392D01*
X125192437Y-110977751D01*
X125399672Y-110220226D01*
X125737777Y-109511375D01*
X126196067Y-108873596D01*
X126760055Y-108327054D01*
X127411913Y-107889023D01*
X128131038Y-107573349D01*
X128899768Y-107388794D01*
X129564207Y-107340000D01*
X147290608Y-107340000D01*
X148102249Y-107412437D01*
M02*
