M48
; DRILL file {KiCad (5.1.4)-1} date 29/10/2020 9:47:13 PM
; FORMAT={-:-/ absolute / inch / decimal}
; #@! TF.CreationDate,2020-10-29T21:47:13+08:00
; #@! TF.GenerationSoftware,Kicad,Pcbnew,(5.1.4)-1
; #@! TF.FileFunction,Plated,1,2,PTH
FMAT,2
INCH
T1C0.0157
T2C0.0394
%
G90
G05
T1
X5.255Y-4.5066
X5.3Y-4.6593
X5.3126Y-5.3671
X5.3126Y-5.4471
X5.3136Y-5.562
X5.3213Y-4.9437
X5.3216Y-5.0233
X5.3526Y-5.71
X5.3594Y-4.549
X5.3778Y-5.2546
X5.38Y-5.2
X5.3883Y-5.0817
X5.3938Y-4.6574
X5.44Y-5.25
X5.508Y-4.748
X5.53Y-5.59
X5.5474Y-5.66
X5.5474Y-5.81
X5.5728Y-5.1454
X5.5728Y-5.2254
X5.5728Y-5.3054
X5.6Y-4.7404
X5.6439Y-5.4309
X5.65Y-4.505
X5.6535Y-5.1454
X5.6535Y-5.2254
X5.6535Y-5.3054
X5.7525Y-4.6082
T2
X5.0Y-5.65
X5.0Y-5.75
X5.0Y-4.85
X5.0Y-4.95
X5.0Y-5.05
X5.0Y-5.15
X5.0Y-5.25
X5.0Y-5.35
X5.0Y-5.45
X5.0Y-5.55
X5.0Y-4.65
X5.0Y-4.75
X5.9Y-4.85
X5.9Y-4.95
X5.9Y-5.05
X5.9Y-5.15
X5.9Y-5.25
X5.9Y-5.35
X5.255Y-5.965
X5.355Y-5.965
X5.455Y-5.965
X5.555Y-5.965
X5.655Y-5.965
X5.9Y-5.65
X5.9Y-5.75
X5.9Y-5.45
X5.9Y-5.55
T0
M30
