G04 #@! TF.GenerationSoftware,KiCad,Pcbnew,(5.1.4)-1*
G04 #@! TF.CreationDate,2020-10-29T21:44:13+08:00*
G04 #@! TF.ProjectId,custom_microcontroller,63757374-6f6d-45f6-9d69-63726f636f6e,rev?*
G04 #@! TF.SameCoordinates,Original*
G04 #@! TF.FileFunction,Legend,Top*
G04 #@! TF.FilePolarity,Positive*
%FSLAX46Y46*%
G04 Gerber Fmt 4.6, Leading zero omitted, Abs format (unit mm)*
G04 Created by KiCad (PCBNEW (5.1.4)-1) date 2020-10-29 21:44:13*
%MOMM*%
%LPD*%
G04 APERTURE LIST*
%ADD10C,0.152400*%
%ADD11C,0.120000*%
%ADD12C,0.150000*%
G04 APERTURE END LIST*
D10*
X140707533Y-149592695D02*
X140470466Y-149205647D01*
X140301133Y-149592695D02*
X140301133Y-148779895D01*
X140572066Y-148779895D01*
X140639800Y-148818600D01*
X140673666Y-148857304D01*
X140707533Y-148934714D01*
X140707533Y-149050828D01*
X140673666Y-149128238D01*
X140639800Y-149166942D01*
X140572066Y-149205647D01*
X140301133Y-149205647D01*
X140978466Y-149553990D02*
X141080066Y-149592695D01*
X141249400Y-149592695D01*
X141317133Y-149553990D01*
X141351000Y-149515285D01*
X141384866Y-149437876D01*
X141384866Y-149360466D01*
X141351000Y-149283057D01*
X141317133Y-149244352D01*
X141249400Y-149205647D01*
X141113933Y-149166942D01*
X141046200Y-149128238D01*
X141012333Y-149089533D01*
X140978466Y-149012123D01*
X140978466Y-148934714D01*
X141012333Y-148857304D01*
X141046200Y-148818600D01*
X141113933Y-148779895D01*
X141283266Y-148779895D01*
X141384866Y-148818600D01*
X141588066Y-148779895D02*
X141994466Y-148779895D01*
X141791266Y-149592695D02*
X141791266Y-148779895D01*
X137837333Y-149553990D02*
X137938933Y-149592695D01*
X138108266Y-149592695D01*
X138176000Y-149553990D01*
X138209866Y-149515285D01*
X138243733Y-149437876D01*
X138243733Y-149360466D01*
X138209866Y-149283057D01*
X138176000Y-149244352D01*
X138108266Y-149205647D01*
X137972800Y-149166942D01*
X137905066Y-149128238D01*
X137871200Y-149089533D01*
X137837333Y-149012123D01*
X137837333Y-148934714D01*
X137871200Y-148857304D01*
X137905066Y-148818600D01*
X137972800Y-148779895D01*
X138142133Y-148779895D01*
X138243733Y-148818600D01*
X138954933Y-149515285D02*
X138921066Y-149553990D01*
X138819466Y-149592695D01*
X138751733Y-149592695D01*
X138650133Y-149553990D01*
X138582400Y-149476580D01*
X138548533Y-149399171D01*
X138514666Y-149244352D01*
X138514666Y-149128238D01*
X138548533Y-148973419D01*
X138582400Y-148896009D01*
X138650133Y-148818600D01*
X138751733Y-148779895D01*
X138819466Y-148779895D01*
X138921066Y-148818600D01*
X138954933Y-148857304D01*
X139598400Y-149592695D02*
X139259733Y-149592695D01*
X139259733Y-148779895D01*
X132596466Y-148779895D02*
X133036733Y-148779895D01*
X132799666Y-149089533D01*
X132901266Y-149089533D01*
X132969000Y-149128238D01*
X133002866Y-149166942D01*
X133036733Y-149244352D01*
X133036733Y-149437876D01*
X133002866Y-149515285D01*
X132969000Y-149553990D01*
X132901266Y-149592695D01*
X132698066Y-149592695D01*
X132630333Y-149553990D01*
X132596466Y-149515285D01*
X133239933Y-148779895D02*
X133477000Y-149592695D01*
X133714066Y-148779895D01*
X133883400Y-148779895D02*
X134323666Y-148779895D01*
X134086600Y-149089533D01*
X134188200Y-149089533D01*
X134255933Y-149128238D01*
X134289800Y-149166942D01*
X134323666Y-149244352D01*
X134323666Y-149437876D01*
X134289800Y-149515285D01*
X134255933Y-149553990D01*
X134188200Y-149592695D01*
X133985000Y-149592695D01*
X133917266Y-149553990D01*
X133883400Y-149515285D01*
X135271933Y-149553990D02*
X135373533Y-149592695D01*
X135542866Y-149592695D01*
X135610600Y-149553990D01*
X135644466Y-149515285D01*
X135678333Y-149437876D01*
X135678333Y-149360466D01*
X135644466Y-149283057D01*
X135610600Y-149244352D01*
X135542866Y-149205647D01*
X135407400Y-149166942D01*
X135339666Y-149128238D01*
X135305800Y-149089533D01*
X135271933Y-149012123D01*
X135271933Y-148934714D01*
X135305800Y-148857304D01*
X135339666Y-148818600D01*
X135407400Y-148779895D01*
X135576733Y-148779895D01*
X135678333Y-148818600D01*
X135983133Y-149592695D02*
X135983133Y-148779895D01*
X136457266Y-148779895D02*
X136592733Y-148779895D01*
X136660466Y-148818600D01*
X136728200Y-148896009D01*
X136762066Y-149050828D01*
X136762066Y-149321761D01*
X136728200Y-149476580D01*
X136660466Y-149553990D01*
X136592733Y-149592695D01*
X136457266Y-149592695D01*
X136389533Y-149553990D01*
X136321800Y-149476580D01*
X136287933Y-149321761D01*
X136287933Y-149050828D01*
X136321800Y-148896009D01*
X136389533Y-148818600D01*
X136457266Y-148779895D01*
D11*
X128905000Y-121920000D02*
X125730000Y-121920000D01*
X132080000Y-142240000D02*
X125730000Y-142240000D01*
D12*
X142883000Y-126857000D02*
X142835380Y-126952238D01*
X142835380Y-127095095D01*
X142883000Y-127237952D01*
X142978238Y-127333190D01*
X143073476Y-127380809D01*
X143263952Y-127428428D01*
X143406809Y-127428428D01*
X143597285Y-127380809D01*
X143692523Y-127333190D01*
X143787761Y-127237952D01*
X143835380Y-127095095D01*
X143835380Y-126999857D01*
X143787761Y-126857000D01*
X143740142Y-126809380D01*
X143406809Y-126809380D01*
X143406809Y-126999857D01*
X143835380Y-126380809D02*
X142835380Y-126380809D01*
X142835380Y-125999857D01*
X142883000Y-125904619D01*
X142930619Y-125857000D01*
X143025857Y-125809380D01*
X143168714Y-125809380D01*
X143263952Y-125857000D01*
X143311571Y-125904619D01*
X143359190Y-125999857D01*
X143359190Y-126380809D01*
X143835380Y-125380809D02*
X142835380Y-125380809D01*
X142835380Y-124714142D02*
X142835380Y-124523666D01*
X142883000Y-124428428D01*
X142978238Y-124333190D01*
X143168714Y-124285571D01*
X143502047Y-124285571D01*
X143692523Y-124333190D01*
X143787761Y-124428428D01*
X143835380Y-124523666D01*
X143835380Y-124714142D01*
X143787761Y-124809380D01*
X143692523Y-124904619D01*
X143502047Y-124952238D01*
X143168714Y-124952238D01*
X142978238Y-124904619D01*
X142883000Y-124809380D01*
X142835380Y-124714142D01*
X132850000Y-146415000D02*
X132802380Y-146510238D01*
X132802380Y-146653095D01*
X132850000Y-146795952D01*
X132945238Y-146891190D01*
X133040476Y-146938809D01*
X133230952Y-146986428D01*
X133373809Y-146986428D01*
X133564285Y-146938809D01*
X133659523Y-146891190D01*
X133754761Y-146795952D01*
X133802380Y-146653095D01*
X133802380Y-146557857D01*
X133754761Y-146415000D01*
X133707142Y-146367380D01*
X133373809Y-146367380D01*
X133373809Y-146557857D01*
X133802380Y-145938809D02*
X132802380Y-145938809D01*
X132802380Y-145557857D01*
X132850000Y-145462619D01*
X132897619Y-145415000D01*
X132992857Y-145367380D01*
X133135714Y-145367380D01*
X133230952Y-145415000D01*
X133278571Y-145462619D01*
X133326190Y-145557857D01*
X133326190Y-145938809D01*
X133802380Y-144938809D02*
X132802380Y-144938809D01*
X132802380Y-144272142D02*
X132802380Y-144081666D01*
X132850000Y-143986428D01*
X132945238Y-143891190D01*
X133135714Y-143843571D01*
X133469047Y-143843571D01*
X133659523Y-143891190D01*
X133754761Y-143986428D01*
X133802380Y-144081666D01*
X133802380Y-144272142D01*
X133754761Y-144367380D01*
X133659523Y-144462619D01*
X133469047Y-144510238D01*
X133135714Y-144510238D01*
X132945238Y-144462619D01*
X132850000Y-144367380D01*
X132802380Y-144272142D01*
D11*
X132080000Y-147320000D02*
X132080000Y-142875000D01*
X125730000Y-147320000D02*
X132080000Y-147320000D01*
X144780000Y-137160000D02*
X151130000Y-137160000D01*
X144780000Y-121920000D02*
X144780000Y-137160000D01*
X151130000Y-121920000D02*
X144780000Y-121920000D01*
D12*
X132850000Y-128682380D02*
X132802380Y-128777619D01*
X132802380Y-128920476D01*
X132850000Y-129063333D01*
X132945238Y-129158571D01*
X133040476Y-129206190D01*
X133230952Y-129253809D01*
X133373809Y-129253809D01*
X133564285Y-129206190D01*
X133659523Y-129158571D01*
X133754761Y-129063333D01*
X133802380Y-128920476D01*
X133802380Y-128825238D01*
X133754761Y-128682380D01*
X133707142Y-128634761D01*
X133373809Y-128634761D01*
X133373809Y-128825238D01*
X133802380Y-128206190D02*
X132802380Y-128206190D01*
X132802380Y-127825238D01*
X132850000Y-127730000D01*
X132897619Y-127682380D01*
X132992857Y-127634761D01*
X133135714Y-127634761D01*
X133230952Y-127682380D01*
X133278571Y-127730000D01*
X133326190Y-127825238D01*
X133326190Y-128206190D01*
X133802380Y-127206190D02*
X132802380Y-127206190D01*
X132802380Y-126539523D02*
X132802380Y-126349047D01*
X132850000Y-126253809D01*
X132945238Y-126158571D01*
X133135714Y-126110952D01*
X133469047Y-126110952D01*
X133659523Y-126158571D01*
X133754761Y-126253809D01*
X133802380Y-126349047D01*
X133802380Y-126539523D01*
X133754761Y-126634761D01*
X133659523Y-126730000D01*
X133469047Y-126777619D01*
X133135714Y-126777619D01*
X132945238Y-126730000D01*
X132850000Y-126634761D01*
X132802380Y-126539523D01*
X132754761Y-124968095D02*
X134040476Y-125825238D01*
X133516666Y-124682380D02*
X133516666Y-124206190D01*
X133802380Y-124777619D02*
X132802380Y-124444285D01*
X133802380Y-124110952D01*
X133802380Y-123777619D02*
X132802380Y-123777619D01*
X132802380Y-123539523D01*
X132850000Y-123396666D01*
X132945238Y-123301428D01*
X133040476Y-123253809D01*
X133230952Y-123206190D01*
X133373809Y-123206190D01*
X133564285Y-123253809D01*
X133659523Y-123301428D01*
X133754761Y-123396666D01*
X133802380Y-123539523D01*
X133802380Y-123777619D01*
X133707142Y-122206190D02*
X133754761Y-122253809D01*
X133802380Y-122396666D01*
X133802380Y-122491904D01*
X133754761Y-122634761D01*
X133659523Y-122730000D01*
X133564285Y-122777619D01*
X133373809Y-122825238D01*
X133230952Y-122825238D01*
X133040476Y-122777619D01*
X132945238Y-122730000D01*
X132850000Y-122634761D01*
X132802380Y-122491904D01*
X132802380Y-122396666D01*
X132850000Y-122253809D01*
X132897619Y-122206190D01*
D11*
X132080000Y-121920000D02*
X128905000Y-121920000D01*
X132080000Y-121920000D02*
X132080000Y-142240000D01*
D10*
X143095133Y-148755100D02*
X143027400Y-148716395D01*
X142925800Y-148716395D01*
X142824200Y-148755100D01*
X142756466Y-148832509D01*
X142722600Y-148909919D01*
X142688733Y-149064738D01*
X142688733Y-149180852D01*
X142722600Y-149335671D01*
X142756466Y-149413080D01*
X142824200Y-149490490D01*
X142925800Y-149529195D01*
X142993533Y-149529195D01*
X143095133Y-149490490D01*
X143129000Y-149451785D01*
X143129000Y-149180852D01*
X142993533Y-149180852D01*
X143433800Y-149529195D02*
X143433800Y-148716395D01*
X143840200Y-149529195D01*
X143840200Y-148716395D01*
X144178866Y-149529195D02*
X144178866Y-148716395D01*
X144348200Y-148716395D01*
X144449800Y-148755100D01*
X144517533Y-148832509D01*
X144551400Y-148909919D01*
X144585266Y-149064738D01*
X144585266Y-149180852D01*
X144551400Y-149335671D01*
X144517533Y-149413080D01*
X144449800Y-149490490D01*
X144348200Y-149529195D01*
X144178866Y-149529195D01*
D12*
X129413095Y-120277000D02*
X129317857Y-120229380D01*
X129175000Y-120229380D01*
X129032142Y-120277000D01*
X128936904Y-120372238D01*
X128889285Y-120467476D01*
X128841666Y-120657952D01*
X128841666Y-120800809D01*
X128889285Y-120991285D01*
X128936904Y-121086523D01*
X129032142Y-121181761D01*
X129175000Y-121229380D01*
X129270238Y-121229380D01*
X129413095Y-121181761D01*
X129460714Y-121134142D01*
X129460714Y-120800809D01*
X129270238Y-120800809D01*
X129889285Y-121229380D02*
X129889285Y-120229380D01*
X130460714Y-121229380D01*
X130460714Y-120229380D01*
X130936904Y-121229380D02*
X130936904Y-120229380D01*
X131175000Y-120229380D01*
X131317857Y-120277000D01*
X131413095Y-120372238D01*
X131460714Y-120467476D01*
X131508333Y-120657952D01*
X131508333Y-120800809D01*
X131460714Y-120991285D01*
X131413095Y-121086523D01*
X131317857Y-121181761D01*
X131175000Y-121229380D01*
X130936904Y-121229380D01*
X128968666Y-117562380D02*
X129302000Y-118562380D01*
X129635333Y-117562380D01*
X130540095Y-118467142D02*
X130492476Y-118514761D01*
X130349619Y-118562380D01*
X130254380Y-118562380D01*
X130111523Y-118514761D01*
X130016285Y-118419523D01*
X129968666Y-118324285D01*
X129921047Y-118133809D01*
X129921047Y-117990952D01*
X129968666Y-117800476D01*
X130016285Y-117705238D01*
X130111523Y-117610000D01*
X130254380Y-117562380D01*
X130349619Y-117562380D01*
X130492476Y-117610000D01*
X130540095Y-117657619D01*
X131540095Y-118467142D02*
X131492476Y-118514761D01*
X131349619Y-118562380D01*
X131254380Y-118562380D01*
X131111523Y-118514761D01*
X131016285Y-118419523D01*
X130968666Y-118324285D01*
X130921047Y-118133809D01*
X130921047Y-117990952D01*
X130968666Y-117800476D01*
X131016285Y-117705238D01*
X131111523Y-117610000D01*
X131254380Y-117562380D01*
X131349619Y-117562380D01*
X131492476Y-117610000D01*
X131540095Y-117657619D01*
X145002380Y-146407142D02*
X144954761Y-146454761D01*
X144811904Y-146502380D01*
X144716666Y-146502380D01*
X144573809Y-146454761D01*
X144478571Y-146359523D01*
X144430952Y-146264285D01*
X144383333Y-146073809D01*
X144383333Y-145930952D01*
X144430952Y-145740476D01*
X144478571Y-145645238D01*
X144573809Y-145550000D01*
X144716666Y-145502380D01*
X144811904Y-145502380D01*
X144954761Y-145550000D01*
X145002380Y-145597619D01*
X145383333Y-146216666D02*
X145859523Y-146216666D01*
X145288095Y-146502380D02*
X145621428Y-145502380D01*
X145954761Y-146502380D01*
X146288095Y-146502380D02*
X146288095Y-145502380D01*
X146859523Y-146502380D01*
X146859523Y-145502380D01*
X147811904Y-146502380D02*
X147335714Y-146502380D01*
X147335714Y-145502380D01*
X144883333Y-143867142D02*
X144835714Y-143914761D01*
X144692857Y-143962380D01*
X144597619Y-143962380D01*
X144454761Y-143914761D01*
X144359523Y-143819523D01*
X144311904Y-143724285D01*
X144264285Y-143533809D01*
X144264285Y-143390952D01*
X144311904Y-143200476D01*
X144359523Y-143105238D01*
X144454761Y-143010000D01*
X144597619Y-142962380D01*
X144692857Y-142962380D01*
X144835714Y-143010000D01*
X144883333Y-143057619D01*
X145264285Y-143676666D02*
X145740476Y-143676666D01*
X145169047Y-143962380D02*
X145502380Y-142962380D01*
X145835714Y-143962380D01*
X146169047Y-143962380D02*
X146169047Y-142962380D01*
X146740476Y-143962380D01*
X146740476Y-142962380D01*
X147216666Y-143962380D02*
X147216666Y-142962380D01*
X147216666Y-143438571D02*
X147788095Y-143438571D01*
X147788095Y-143962380D02*
X147788095Y-142962380D01*
X145446904Y-140422380D02*
X146065952Y-140422380D01*
X145732619Y-140803333D01*
X145875476Y-140803333D01*
X145970714Y-140850952D01*
X146018333Y-140898571D01*
X146065952Y-140993809D01*
X146065952Y-141231904D01*
X146018333Y-141327142D01*
X145970714Y-141374761D01*
X145875476Y-141422380D01*
X145589761Y-141422380D01*
X145494523Y-141374761D01*
X145446904Y-141327142D01*
X146351666Y-140422380D02*
X146685000Y-141422380D01*
X147018333Y-140422380D01*
X147256428Y-140422380D02*
X147875476Y-140422380D01*
X147542142Y-140803333D01*
X147685000Y-140803333D01*
X147780238Y-140850952D01*
X147827857Y-140898571D01*
X147875476Y-140993809D01*
X147875476Y-141231904D01*
X147827857Y-141327142D01*
X147780238Y-141374761D01*
X147685000Y-141422380D01*
X147399285Y-141422380D01*
X147304047Y-141374761D01*
X147256428Y-141327142D01*
X145923095Y-137930000D02*
X145827857Y-137882380D01*
X145685000Y-137882380D01*
X145542142Y-137930000D01*
X145446904Y-138025238D01*
X145399285Y-138120476D01*
X145351666Y-138310952D01*
X145351666Y-138453809D01*
X145399285Y-138644285D01*
X145446904Y-138739523D01*
X145542142Y-138834761D01*
X145685000Y-138882380D01*
X145780238Y-138882380D01*
X145923095Y-138834761D01*
X145970714Y-138787142D01*
X145970714Y-138453809D01*
X145780238Y-138453809D01*
X146399285Y-138882380D02*
X146399285Y-137882380D01*
X146970714Y-138882380D01*
X146970714Y-137882380D01*
X147446904Y-138882380D02*
X147446904Y-137882380D01*
X147685000Y-137882380D01*
X147827857Y-137930000D01*
X147923095Y-138025238D01*
X147970714Y-138120476D01*
X148018333Y-138310952D01*
X148018333Y-138453809D01*
X147970714Y-138644285D01*
X147923095Y-138739523D01*
X147827857Y-138834761D01*
X147685000Y-138882380D01*
X147446904Y-138882380D01*
X145446904Y-136342380D02*
X145446904Y-135342380D01*
X145827857Y-135342380D01*
X145923095Y-135390000D01*
X145970714Y-135437619D01*
X146018333Y-135532857D01*
X146018333Y-135675714D01*
X145970714Y-135770952D01*
X145923095Y-135818571D01*
X145827857Y-135866190D01*
X145446904Y-135866190D01*
X146780238Y-135818571D02*
X146923095Y-135866190D01*
X146970714Y-135913809D01*
X147018333Y-136009047D01*
X147018333Y-136151904D01*
X146970714Y-136247142D01*
X146923095Y-136294761D01*
X146827857Y-136342380D01*
X146446904Y-136342380D01*
X146446904Y-135342380D01*
X146780238Y-135342380D01*
X146875476Y-135390000D01*
X146923095Y-135437619D01*
X146970714Y-135532857D01*
X146970714Y-135628095D01*
X146923095Y-135723333D01*
X146875476Y-135770952D01*
X146780238Y-135818571D01*
X146446904Y-135818571D01*
X147351666Y-135342380D02*
X147970714Y-135342380D01*
X147637380Y-135723333D01*
X147780238Y-135723333D01*
X147875476Y-135770952D01*
X147923095Y-135818571D01*
X147970714Y-135913809D01*
X147970714Y-136151904D01*
X147923095Y-136247142D01*
X147875476Y-136294761D01*
X147780238Y-136342380D01*
X147494523Y-136342380D01*
X147399285Y-136294761D01*
X147351666Y-136247142D01*
X145446904Y-133802380D02*
X145446904Y-132802380D01*
X145827857Y-132802380D01*
X145923095Y-132850000D01*
X145970714Y-132897619D01*
X146018333Y-132992857D01*
X146018333Y-133135714D01*
X145970714Y-133230952D01*
X145923095Y-133278571D01*
X145827857Y-133326190D01*
X145446904Y-133326190D01*
X146780238Y-133278571D02*
X146923095Y-133326190D01*
X146970714Y-133373809D01*
X147018333Y-133469047D01*
X147018333Y-133611904D01*
X146970714Y-133707142D01*
X146923095Y-133754761D01*
X146827857Y-133802380D01*
X146446904Y-133802380D01*
X146446904Y-132802380D01*
X146780238Y-132802380D01*
X146875476Y-132850000D01*
X146923095Y-132897619D01*
X146970714Y-132992857D01*
X146970714Y-133088095D01*
X146923095Y-133183333D01*
X146875476Y-133230952D01*
X146780238Y-133278571D01*
X146446904Y-133278571D01*
X147875476Y-133135714D02*
X147875476Y-133802380D01*
X147637380Y-132754761D02*
X147399285Y-133469047D01*
X148018333Y-133469047D01*
X145446904Y-131262380D02*
X145446904Y-130262380D01*
X145827857Y-130262380D01*
X145923095Y-130310000D01*
X145970714Y-130357619D01*
X146018333Y-130452857D01*
X146018333Y-130595714D01*
X145970714Y-130690952D01*
X145923095Y-130738571D01*
X145827857Y-130786190D01*
X145446904Y-130786190D01*
X146780238Y-130738571D02*
X146923095Y-130786190D01*
X146970714Y-130833809D01*
X147018333Y-130929047D01*
X147018333Y-131071904D01*
X146970714Y-131167142D01*
X146923095Y-131214761D01*
X146827857Y-131262380D01*
X146446904Y-131262380D01*
X146446904Y-130262380D01*
X146780238Y-130262380D01*
X146875476Y-130310000D01*
X146923095Y-130357619D01*
X146970714Y-130452857D01*
X146970714Y-130548095D01*
X146923095Y-130643333D01*
X146875476Y-130690952D01*
X146780238Y-130738571D01*
X146446904Y-130738571D01*
X147923095Y-130262380D02*
X147446904Y-130262380D01*
X147399285Y-130738571D01*
X147446904Y-130690952D01*
X147542142Y-130643333D01*
X147780238Y-130643333D01*
X147875476Y-130690952D01*
X147923095Y-130738571D01*
X147970714Y-130833809D01*
X147970714Y-131071904D01*
X147923095Y-131167142D01*
X147875476Y-131214761D01*
X147780238Y-131262380D01*
X147542142Y-131262380D01*
X147446904Y-131214761D01*
X147399285Y-131167142D01*
X145446904Y-128722380D02*
X145446904Y-127722380D01*
X145827857Y-127722380D01*
X145923095Y-127770000D01*
X145970714Y-127817619D01*
X146018333Y-127912857D01*
X146018333Y-128055714D01*
X145970714Y-128150952D01*
X145923095Y-128198571D01*
X145827857Y-128246190D01*
X145446904Y-128246190D01*
X146780238Y-128198571D02*
X146923095Y-128246190D01*
X146970714Y-128293809D01*
X147018333Y-128389047D01*
X147018333Y-128531904D01*
X146970714Y-128627142D01*
X146923095Y-128674761D01*
X146827857Y-128722380D01*
X146446904Y-128722380D01*
X146446904Y-127722380D01*
X146780238Y-127722380D01*
X146875476Y-127770000D01*
X146923095Y-127817619D01*
X146970714Y-127912857D01*
X146970714Y-128008095D01*
X146923095Y-128103333D01*
X146875476Y-128150952D01*
X146780238Y-128198571D01*
X146446904Y-128198571D01*
X147875476Y-127722380D02*
X147685000Y-127722380D01*
X147589761Y-127770000D01*
X147542142Y-127817619D01*
X147446904Y-127960476D01*
X147399285Y-128150952D01*
X147399285Y-128531904D01*
X147446904Y-128627142D01*
X147494523Y-128674761D01*
X147589761Y-128722380D01*
X147780238Y-128722380D01*
X147875476Y-128674761D01*
X147923095Y-128627142D01*
X147970714Y-128531904D01*
X147970714Y-128293809D01*
X147923095Y-128198571D01*
X147875476Y-128150952D01*
X147780238Y-128103333D01*
X147589761Y-128103333D01*
X147494523Y-128150952D01*
X147446904Y-128198571D01*
X147399285Y-128293809D01*
X145446904Y-126182380D02*
X145446904Y-125182380D01*
X145827857Y-125182380D01*
X145923095Y-125230000D01*
X145970714Y-125277619D01*
X146018333Y-125372857D01*
X146018333Y-125515714D01*
X145970714Y-125610952D01*
X145923095Y-125658571D01*
X145827857Y-125706190D01*
X145446904Y-125706190D01*
X146780238Y-125658571D02*
X146923095Y-125706190D01*
X146970714Y-125753809D01*
X147018333Y-125849047D01*
X147018333Y-125991904D01*
X146970714Y-126087142D01*
X146923095Y-126134761D01*
X146827857Y-126182380D01*
X146446904Y-126182380D01*
X146446904Y-125182380D01*
X146780238Y-125182380D01*
X146875476Y-125230000D01*
X146923095Y-125277619D01*
X146970714Y-125372857D01*
X146970714Y-125468095D01*
X146923095Y-125563333D01*
X146875476Y-125610952D01*
X146780238Y-125658571D01*
X146446904Y-125658571D01*
X147351666Y-125182380D02*
X148018333Y-125182380D01*
X147589761Y-126182380D01*
X145446904Y-123642380D02*
X145446904Y-122642380D01*
X145827857Y-122642380D01*
X145923095Y-122690000D01*
X145970714Y-122737619D01*
X146018333Y-122832857D01*
X146018333Y-122975714D01*
X145970714Y-123070952D01*
X145923095Y-123118571D01*
X145827857Y-123166190D01*
X145446904Y-123166190D01*
X146780238Y-123118571D02*
X146923095Y-123166190D01*
X146970714Y-123213809D01*
X147018333Y-123309047D01*
X147018333Y-123451904D01*
X146970714Y-123547142D01*
X146923095Y-123594761D01*
X146827857Y-123642380D01*
X146446904Y-123642380D01*
X146446904Y-122642380D01*
X146780238Y-122642380D01*
X146875476Y-122690000D01*
X146923095Y-122737619D01*
X146970714Y-122832857D01*
X146970714Y-122928095D01*
X146923095Y-123023333D01*
X146875476Y-123070952D01*
X146780238Y-123118571D01*
X146446904Y-123118571D01*
X147589761Y-123070952D02*
X147494523Y-123023333D01*
X147446904Y-122975714D01*
X147399285Y-122880476D01*
X147399285Y-122832857D01*
X147446904Y-122737619D01*
X147494523Y-122690000D01*
X147589761Y-122642380D01*
X147780238Y-122642380D01*
X147875476Y-122690000D01*
X147923095Y-122737619D01*
X147970714Y-122832857D01*
X147970714Y-122880476D01*
X147923095Y-122975714D01*
X147875476Y-123023333D01*
X147780238Y-123070952D01*
X147589761Y-123070952D01*
X147494523Y-123118571D01*
X147446904Y-123166190D01*
X147399285Y-123261428D01*
X147399285Y-123451904D01*
X147446904Y-123547142D01*
X147494523Y-123594761D01*
X147589761Y-123642380D01*
X147780238Y-123642380D01*
X147875476Y-123594761D01*
X147923095Y-123547142D01*
X147970714Y-123451904D01*
X147970714Y-123261428D01*
X147923095Y-123166190D01*
X147875476Y-123118571D01*
X147780238Y-123070952D01*
X129008333Y-123642380D02*
X129008333Y-122642380D01*
X129389285Y-122642380D01*
X129484523Y-122690000D01*
X129532142Y-122737619D01*
X129579761Y-122832857D01*
X129579761Y-122975714D01*
X129532142Y-123070952D01*
X129484523Y-123118571D01*
X129389285Y-123166190D01*
X129008333Y-123166190D01*
X129960714Y-123356666D02*
X130436904Y-123356666D01*
X129865476Y-123642380D02*
X130198809Y-122642380D01*
X130532142Y-123642380D01*
X131055952Y-122642380D02*
X131151190Y-122642380D01*
X131246428Y-122690000D01*
X131294047Y-122737619D01*
X131341666Y-122832857D01*
X131389285Y-123023333D01*
X131389285Y-123261428D01*
X131341666Y-123451904D01*
X131294047Y-123547142D01*
X131246428Y-123594761D01*
X131151190Y-123642380D01*
X131055952Y-123642380D01*
X130960714Y-123594761D01*
X130913095Y-123547142D01*
X130865476Y-123451904D01*
X130817857Y-123261428D01*
X130817857Y-123023333D01*
X130865476Y-122832857D01*
X130913095Y-122737619D01*
X130960714Y-122690000D01*
X131055952Y-122642380D01*
X129008333Y-126182380D02*
X129008333Y-125182380D01*
X129389285Y-125182380D01*
X129484523Y-125230000D01*
X129532142Y-125277619D01*
X129579761Y-125372857D01*
X129579761Y-125515714D01*
X129532142Y-125610952D01*
X129484523Y-125658571D01*
X129389285Y-125706190D01*
X129008333Y-125706190D01*
X129960714Y-125896666D02*
X130436904Y-125896666D01*
X129865476Y-126182380D02*
X130198809Y-125182380D01*
X130532142Y-126182380D01*
X131389285Y-126182380D02*
X130817857Y-126182380D01*
X131103571Y-126182380D02*
X131103571Y-125182380D01*
X131008333Y-125325238D01*
X130913095Y-125420476D01*
X130817857Y-125468095D01*
X129008333Y-128722380D02*
X129008333Y-127722380D01*
X129389285Y-127722380D01*
X129484523Y-127770000D01*
X129532142Y-127817619D01*
X129579761Y-127912857D01*
X129579761Y-128055714D01*
X129532142Y-128150952D01*
X129484523Y-128198571D01*
X129389285Y-128246190D01*
X129008333Y-128246190D01*
X129960714Y-128436666D02*
X130436904Y-128436666D01*
X129865476Y-128722380D02*
X130198809Y-127722380D01*
X130532142Y-128722380D01*
X130817857Y-127817619D02*
X130865476Y-127770000D01*
X130960714Y-127722380D01*
X131198809Y-127722380D01*
X131294047Y-127770000D01*
X131341666Y-127817619D01*
X131389285Y-127912857D01*
X131389285Y-128008095D01*
X131341666Y-128150952D01*
X130770238Y-128722380D01*
X131389285Y-128722380D01*
X129008333Y-131262380D02*
X129008333Y-130262380D01*
X129389285Y-130262380D01*
X129484523Y-130310000D01*
X129532142Y-130357619D01*
X129579761Y-130452857D01*
X129579761Y-130595714D01*
X129532142Y-130690952D01*
X129484523Y-130738571D01*
X129389285Y-130786190D01*
X129008333Y-130786190D01*
X129960714Y-130976666D02*
X130436904Y-130976666D01*
X129865476Y-131262380D02*
X130198809Y-130262380D01*
X130532142Y-131262380D01*
X130770238Y-130262380D02*
X131389285Y-130262380D01*
X131055952Y-130643333D01*
X131198809Y-130643333D01*
X131294047Y-130690952D01*
X131341666Y-130738571D01*
X131389285Y-130833809D01*
X131389285Y-131071904D01*
X131341666Y-131167142D01*
X131294047Y-131214761D01*
X131198809Y-131262380D01*
X130913095Y-131262380D01*
X130817857Y-131214761D01*
X130770238Y-131167142D01*
X129008333Y-133802380D02*
X129008333Y-132802380D01*
X129389285Y-132802380D01*
X129484523Y-132850000D01*
X129532142Y-132897619D01*
X129579761Y-132992857D01*
X129579761Y-133135714D01*
X129532142Y-133230952D01*
X129484523Y-133278571D01*
X129389285Y-133326190D01*
X129008333Y-133326190D01*
X129960714Y-133516666D02*
X130436904Y-133516666D01*
X129865476Y-133802380D02*
X130198809Y-132802380D01*
X130532142Y-133802380D01*
X131294047Y-133135714D02*
X131294047Y-133802380D01*
X131055952Y-132754761D02*
X130817857Y-133469047D01*
X131436904Y-133469047D01*
X129008333Y-136342380D02*
X129008333Y-135342380D01*
X129389285Y-135342380D01*
X129484523Y-135390000D01*
X129532142Y-135437619D01*
X129579761Y-135532857D01*
X129579761Y-135675714D01*
X129532142Y-135770952D01*
X129484523Y-135818571D01*
X129389285Y-135866190D01*
X129008333Y-135866190D01*
X129960714Y-136056666D02*
X130436904Y-136056666D01*
X129865476Y-136342380D02*
X130198809Y-135342380D01*
X130532142Y-136342380D01*
X131341666Y-135342380D02*
X130865476Y-135342380D01*
X130817857Y-135818571D01*
X130865476Y-135770952D01*
X130960714Y-135723333D01*
X131198809Y-135723333D01*
X131294047Y-135770952D01*
X131341666Y-135818571D01*
X131389285Y-135913809D01*
X131389285Y-136151904D01*
X131341666Y-136247142D01*
X131294047Y-136294761D01*
X131198809Y-136342380D01*
X130960714Y-136342380D01*
X130865476Y-136294761D01*
X130817857Y-136247142D01*
X129008333Y-138882380D02*
X129008333Y-137882380D01*
X129389285Y-137882380D01*
X129484523Y-137930000D01*
X129532142Y-137977619D01*
X129579761Y-138072857D01*
X129579761Y-138215714D01*
X129532142Y-138310952D01*
X129484523Y-138358571D01*
X129389285Y-138406190D01*
X129008333Y-138406190D01*
X129960714Y-138596666D02*
X130436904Y-138596666D01*
X129865476Y-138882380D02*
X130198809Y-137882380D01*
X130532142Y-138882380D01*
X131294047Y-137882380D02*
X131103571Y-137882380D01*
X131008333Y-137930000D01*
X130960714Y-137977619D01*
X130865476Y-138120476D01*
X130817857Y-138310952D01*
X130817857Y-138691904D01*
X130865476Y-138787142D01*
X130913095Y-138834761D01*
X131008333Y-138882380D01*
X131198809Y-138882380D01*
X131294047Y-138834761D01*
X131341666Y-138787142D01*
X131389285Y-138691904D01*
X131389285Y-138453809D01*
X131341666Y-138358571D01*
X131294047Y-138310952D01*
X131198809Y-138263333D01*
X131008333Y-138263333D01*
X130913095Y-138310952D01*
X130865476Y-138358571D01*
X130817857Y-138453809D01*
X129008333Y-141422380D02*
X129008333Y-140422380D01*
X129389285Y-140422380D01*
X129484523Y-140470000D01*
X129532142Y-140517619D01*
X129579761Y-140612857D01*
X129579761Y-140755714D01*
X129532142Y-140850952D01*
X129484523Y-140898571D01*
X129389285Y-140946190D01*
X129008333Y-140946190D01*
X129960714Y-141136666D02*
X130436904Y-141136666D01*
X129865476Y-141422380D02*
X130198809Y-140422380D01*
X130532142Y-141422380D01*
X130770238Y-140422380D02*
X131436904Y-140422380D01*
X131008333Y-141422380D01*
X128936904Y-146502380D02*
X128936904Y-145502380D01*
X129317857Y-145502380D01*
X129413095Y-145550000D01*
X129460714Y-145597619D01*
X129508333Y-145692857D01*
X129508333Y-145835714D01*
X129460714Y-145930952D01*
X129413095Y-145978571D01*
X129317857Y-146026190D01*
X128936904Y-146026190D01*
X130270238Y-145978571D02*
X130413095Y-146026190D01*
X130460714Y-146073809D01*
X130508333Y-146169047D01*
X130508333Y-146311904D01*
X130460714Y-146407142D01*
X130413095Y-146454761D01*
X130317857Y-146502380D01*
X129936904Y-146502380D01*
X129936904Y-145502380D01*
X130270238Y-145502380D01*
X130365476Y-145550000D01*
X130413095Y-145597619D01*
X130460714Y-145692857D01*
X130460714Y-145788095D01*
X130413095Y-145883333D01*
X130365476Y-145930952D01*
X130270238Y-145978571D01*
X129936904Y-145978571D01*
X131460714Y-146502380D02*
X130889285Y-146502380D01*
X131175000Y-146502380D02*
X131175000Y-145502380D01*
X131079761Y-145645238D01*
X130984523Y-145740476D01*
X130889285Y-145788095D01*
X128936904Y-143962380D02*
X128936904Y-142962380D01*
X129317857Y-142962380D01*
X129413095Y-143010000D01*
X129460714Y-143057619D01*
X129508333Y-143152857D01*
X129508333Y-143295714D01*
X129460714Y-143390952D01*
X129413095Y-143438571D01*
X129317857Y-143486190D01*
X128936904Y-143486190D01*
X130270238Y-143438571D02*
X130413095Y-143486190D01*
X130460714Y-143533809D01*
X130508333Y-143629047D01*
X130508333Y-143771904D01*
X130460714Y-143867142D01*
X130413095Y-143914761D01*
X130317857Y-143962380D01*
X129936904Y-143962380D01*
X129936904Y-142962380D01*
X130270238Y-142962380D01*
X130365476Y-143010000D01*
X130413095Y-143057619D01*
X130460714Y-143152857D01*
X130460714Y-143248095D01*
X130413095Y-143343333D01*
X130365476Y-143390952D01*
X130270238Y-143438571D01*
X129936904Y-143438571D01*
X131127380Y-142962380D02*
X131222619Y-142962380D01*
X131317857Y-143010000D01*
X131365476Y-143057619D01*
X131413095Y-143152857D01*
X131460714Y-143343333D01*
X131460714Y-143581428D01*
X131413095Y-143771904D01*
X131365476Y-143867142D01*
X131317857Y-143914761D01*
X131222619Y-143962380D01*
X131127380Y-143962380D01*
X131032142Y-143914761D01*
X130984523Y-143867142D01*
X130936904Y-143771904D01*
X130889285Y-143581428D01*
X130889285Y-143343333D01*
X130936904Y-143152857D01*
X130984523Y-143057619D01*
X131032142Y-143010000D01*
X131127380Y-142962380D01*
D11*
X138430000Y-148229000D02*
X140380000Y-148229000D01*
X138430000Y-148229000D02*
X136480000Y-148229000D01*
X138430000Y-143109000D02*
X140380000Y-143109000D01*
X138430000Y-143109000D02*
X134980000Y-143109000D01*
X142312554Y-131403540D02*
X142835058Y-131403540D01*
X142312554Y-129983540D02*
X142835058Y-129983540D01*
X148530000Y-142180000D02*
X149860000Y-142180000D01*
X148530000Y-143510000D02*
X148530000Y-142180000D01*
X148530000Y-144780000D02*
X151190000Y-144780000D01*
X151190000Y-144780000D02*
X151190000Y-147380000D01*
X148530000Y-144780000D02*
X148530000Y-147380000D01*
X148530000Y-147380000D02*
X151190000Y-147380000D01*
X144967000Y-150181000D02*
X144967000Y-151511000D01*
X143637000Y-150181000D02*
X144967000Y-150181000D01*
X142367000Y-150181000D02*
X142367000Y-152841000D01*
X142367000Y-152841000D02*
X132147000Y-152841000D01*
X142367000Y-150181000D02*
X132147000Y-150181000D01*
X132147000Y-150181000D02*
X132147000Y-152841000D01*
X136252852Y-140564800D02*
X135730348Y-140564800D01*
X136252852Y-141984800D02*
X135730348Y-141984800D01*
X143915200Y-146149852D02*
X143915200Y-145627348D01*
X142495200Y-146149852D02*
X142495200Y-145627348D01*
X141153200Y-117199200D02*
X135753200Y-117199200D01*
X141153200Y-121699200D02*
X141153200Y-117199200D01*
X135020000Y-116495000D02*
X135020000Y-110485000D01*
X141840000Y-114245000D02*
X141840000Y-110485000D01*
X135020000Y-110485000D02*
X136280000Y-110485000D01*
X141840000Y-110485000D02*
X140580000Y-110485000D01*
X139473200Y-130804600D02*
X139473200Y-130579600D01*
X135253200Y-134799600D02*
X135478200Y-134799600D01*
X135253200Y-134574600D02*
X135253200Y-134799600D01*
X135253200Y-130579600D02*
X135478200Y-130579600D01*
X135253200Y-130804600D02*
X135253200Y-130579600D01*
X139473200Y-134799600D02*
X139248200Y-134799600D01*
X139473200Y-134574600D02*
X139473200Y-134799600D01*
X145394499Y-112006748D02*
X145394499Y-112529252D01*
X146814499Y-112006748D02*
X146814499Y-112529252D01*
X138733052Y-122175200D02*
X138210548Y-122175200D01*
X138733052Y-123595200D02*
X138210548Y-123595200D01*
X142645794Y-138707653D02*
X142645794Y-139230157D01*
X144065794Y-138707653D02*
X144065794Y-139230157D01*
X147073500Y-117883500D02*
X147073500Y-115023500D01*
X145153500Y-117883500D02*
X147073500Y-117883500D01*
X145153500Y-115023500D02*
X145153500Y-117883500D01*
X142093295Y-140839800D02*
X142093295Y-137979800D01*
X140173295Y-140839800D02*
X142093295Y-140839800D01*
X140173295Y-137979800D02*
X140173295Y-140839800D01*
X142312554Y-133435540D02*
X142835058Y-133435540D01*
X142312554Y-132015540D02*
X142835058Y-132015540D01*
X142312554Y-135467540D02*
X142835058Y-135467540D01*
X142312554Y-134047540D02*
X142835058Y-134047540D01*
X136454923Y-126881194D02*
X135932419Y-126881194D01*
X136454923Y-128301194D02*
X135932419Y-128301194D01*
X132542000Y-110545000D02*
X132542000Y-114630000D01*
X134412000Y-110545000D02*
X132542000Y-110545000D01*
X134412000Y-114630000D02*
X134412000Y-110545000D01*
X136447193Y-124860636D02*
X135924689Y-124860636D01*
X136447193Y-126280636D02*
X135924689Y-126280636D01*
X136226541Y-135614670D02*
X135704037Y-135614670D01*
X136226541Y-137034670D02*
X135704037Y-137034670D01*
X142575000Y-110504500D02*
X142575000Y-114589500D01*
X144445000Y-110504500D02*
X142575000Y-110504500D01*
X144445000Y-114589500D02*
X144445000Y-110504500D01*
X135330000Y-119632252D02*
X135330000Y-119109748D01*
X133910000Y-119632252D02*
X133910000Y-119109748D01*
X141530000Y-119118748D02*
X141530000Y-119641252D01*
X142950000Y-119118748D02*
X142950000Y-119641252D01*
X136226541Y-137646670D02*
X135704037Y-137646670D01*
X136226541Y-139066670D02*
X135704037Y-139066670D01*
D12*
X135288943Y-141581142D02*
X135241324Y-141628761D01*
X135098467Y-141676380D01*
X135003229Y-141676380D01*
X134860372Y-141628761D01*
X134765134Y-141533523D01*
X134717515Y-141438285D01*
X134669896Y-141247809D01*
X134669896Y-141104952D01*
X134717515Y-140914476D01*
X134765134Y-140819238D01*
X134860372Y-140724000D01*
X135003229Y-140676380D01*
X135098467Y-140676380D01*
X135241324Y-140724000D01*
X135288943Y-140771619D01*
X136241324Y-141676380D02*
X135669896Y-141676380D01*
X135955610Y-141676380D02*
X135955610Y-140676380D01*
X135860372Y-140819238D01*
X135765134Y-140914476D01*
X135669896Y-140962095D01*
X136622277Y-140771619D02*
X136669896Y-140724000D01*
X136765134Y-140676380D01*
X137003229Y-140676380D01*
X137098467Y-140724000D01*
X137146086Y-140771619D01*
X137193705Y-140866857D01*
X137193705Y-140962095D01*
X137146086Y-141104952D01*
X136574658Y-141676380D01*
X137193705Y-141676380D01*
X136649161Y-132171474D02*
X136649161Y-132980998D01*
X136696780Y-133076236D01*
X136744399Y-133123855D01*
X136839637Y-133171474D01*
X137030113Y-133171474D01*
X137125351Y-133123855D01*
X137172970Y-133076236D01*
X137220589Y-132980998D01*
X137220589Y-132171474D01*
X137649161Y-132266713D02*
X137696780Y-132219094D01*
X137792018Y-132171474D01*
X138030113Y-132171474D01*
X138125351Y-132219094D01*
X138172970Y-132266713D01*
X138220589Y-132361951D01*
X138220589Y-132457189D01*
X138172970Y-132600046D01*
X137601542Y-133171474D01*
X138220589Y-133171474D01*
M02*
