G04 #@! TF.GenerationSoftware,KiCad,Pcbnew,(5.1.4)-1*
G04 #@! TF.CreationDate,2020-10-29T21:44:13+08:00*
G04 #@! TF.ProjectId,custom_microcontroller,63757374-6f6d-45f6-9d69-63726f636f6e,rev?*
G04 #@! TF.SameCoordinates,Original*
G04 #@! TF.FileFunction,Soldermask,Top*
G04 #@! TF.FilePolarity,Negative*
%FSLAX46Y46*%
G04 Gerber Fmt 4.6, Leading zero omitted, Abs format (unit mm)*
G04 Created by KiCad (PCBNEW (5.1.4)-1) date 2020-10-29 21:44:13*
%MOMM*%
%LPD*%
G04 APERTURE LIST*
%ADD10C,0.100000*%
G04 APERTURE END LIST*
D10*
G36*
X144538000Y-152412000D02*
G01*
X142736000Y-152412000D01*
X142736000Y-150610000D01*
X144538000Y-150610000D01*
X144538000Y-152412000D01*
X144538000Y-152412000D01*
G37*
G36*
X141207442Y-150616518D02*
G01*
X141273627Y-150623037D01*
X141443466Y-150674557D01*
X141599991Y-150758222D01*
X141635729Y-150787552D01*
X141737186Y-150870814D01*
X141820448Y-150972271D01*
X141849778Y-151008009D01*
X141933443Y-151164534D01*
X141984963Y-151334373D01*
X142002359Y-151511000D01*
X141984963Y-151687627D01*
X141933443Y-151857466D01*
X141849778Y-152013991D01*
X141820448Y-152049729D01*
X141737186Y-152151186D01*
X141635729Y-152234448D01*
X141599991Y-152263778D01*
X141443466Y-152347443D01*
X141273627Y-152398963D01*
X141207442Y-152405482D01*
X141141260Y-152412000D01*
X141052740Y-152412000D01*
X140986558Y-152405482D01*
X140920373Y-152398963D01*
X140750534Y-152347443D01*
X140594009Y-152263778D01*
X140558271Y-152234448D01*
X140456814Y-152151186D01*
X140373552Y-152049729D01*
X140344222Y-152013991D01*
X140260557Y-151857466D01*
X140209037Y-151687627D01*
X140191641Y-151511000D01*
X140209037Y-151334373D01*
X140260557Y-151164534D01*
X140344222Y-151008009D01*
X140373552Y-150972271D01*
X140456814Y-150870814D01*
X140558271Y-150787552D01*
X140594009Y-150758222D01*
X140750534Y-150674557D01*
X140920373Y-150623037D01*
X140986558Y-150616518D01*
X141052740Y-150610000D01*
X141141260Y-150610000D01*
X141207442Y-150616518D01*
X141207442Y-150616518D01*
G37*
G36*
X138667442Y-150616518D02*
G01*
X138733627Y-150623037D01*
X138903466Y-150674557D01*
X139059991Y-150758222D01*
X139095729Y-150787552D01*
X139197186Y-150870814D01*
X139280448Y-150972271D01*
X139309778Y-151008009D01*
X139393443Y-151164534D01*
X139444963Y-151334373D01*
X139462359Y-151511000D01*
X139444963Y-151687627D01*
X139393443Y-151857466D01*
X139309778Y-152013991D01*
X139280448Y-152049729D01*
X139197186Y-152151186D01*
X139095729Y-152234448D01*
X139059991Y-152263778D01*
X138903466Y-152347443D01*
X138733627Y-152398963D01*
X138667442Y-152405482D01*
X138601260Y-152412000D01*
X138512740Y-152412000D01*
X138446558Y-152405482D01*
X138380373Y-152398963D01*
X138210534Y-152347443D01*
X138054009Y-152263778D01*
X138018271Y-152234448D01*
X137916814Y-152151186D01*
X137833552Y-152049729D01*
X137804222Y-152013991D01*
X137720557Y-151857466D01*
X137669037Y-151687627D01*
X137651641Y-151511000D01*
X137669037Y-151334373D01*
X137720557Y-151164534D01*
X137804222Y-151008009D01*
X137833552Y-150972271D01*
X137916814Y-150870814D01*
X138018271Y-150787552D01*
X138054009Y-150758222D01*
X138210534Y-150674557D01*
X138380373Y-150623037D01*
X138446558Y-150616518D01*
X138512740Y-150610000D01*
X138601260Y-150610000D01*
X138667442Y-150616518D01*
X138667442Y-150616518D01*
G37*
G36*
X133587442Y-150616518D02*
G01*
X133653627Y-150623037D01*
X133823466Y-150674557D01*
X133979991Y-150758222D01*
X134015729Y-150787552D01*
X134117186Y-150870814D01*
X134200448Y-150972271D01*
X134229778Y-151008009D01*
X134313443Y-151164534D01*
X134364963Y-151334373D01*
X134382359Y-151511000D01*
X134364963Y-151687627D01*
X134313443Y-151857466D01*
X134229778Y-152013991D01*
X134200448Y-152049729D01*
X134117186Y-152151186D01*
X134015729Y-152234448D01*
X133979991Y-152263778D01*
X133823466Y-152347443D01*
X133653627Y-152398963D01*
X133587442Y-152405482D01*
X133521260Y-152412000D01*
X133432740Y-152412000D01*
X133366558Y-152405482D01*
X133300373Y-152398963D01*
X133130534Y-152347443D01*
X132974009Y-152263778D01*
X132938271Y-152234448D01*
X132836814Y-152151186D01*
X132753552Y-152049729D01*
X132724222Y-152013991D01*
X132640557Y-151857466D01*
X132589037Y-151687627D01*
X132571641Y-151511000D01*
X132589037Y-151334373D01*
X132640557Y-151164534D01*
X132724222Y-151008009D01*
X132753552Y-150972271D01*
X132836814Y-150870814D01*
X132938271Y-150787552D01*
X132974009Y-150758222D01*
X133130534Y-150674557D01*
X133300373Y-150623037D01*
X133366558Y-150616518D01*
X133432740Y-150610000D01*
X133521260Y-150610000D01*
X133587442Y-150616518D01*
X133587442Y-150616518D01*
G37*
G36*
X136127442Y-150616518D02*
G01*
X136193627Y-150623037D01*
X136363466Y-150674557D01*
X136519991Y-150758222D01*
X136555729Y-150787552D01*
X136657186Y-150870814D01*
X136740448Y-150972271D01*
X136769778Y-151008009D01*
X136853443Y-151164534D01*
X136904963Y-151334373D01*
X136922359Y-151511000D01*
X136904963Y-151687627D01*
X136853443Y-151857466D01*
X136769778Y-152013991D01*
X136740448Y-152049729D01*
X136657186Y-152151186D01*
X136555729Y-152234448D01*
X136519991Y-152263778D01*
X136363466Y-152347443D01*
X136193627Y-152398963D01*
X136127442Y-152405482D01*
X136061260Y-152412000D01*
X135972740Y-152412000D01*
X135906558Y-152405482D01*
X135840373Y-152398963D01*
X135670534Y-152347443D01*
X135514009Y-152263778D01*
X135478271Y-152234448D01*
X135376814Y-152151186D01*
X135293552Y-152049729D01*
X135264222Y-152013991D01*
X135180557Y-151857466D01*
X135129037Y-151687627D01*
X135111641Y-151511000D01*
X135129037Y-151334373D01*
X135180557Y-151164534D01*
X135264222Y-151008009D01*
X135293552Y-150972271D01*
X135376814Y-150870814D01*
X135478271Y-150787552D01*
X135514009Y-150758222D01*
X135670534Y-150674557D01*
X135840373Y-150623037D01*
X135906558Y-150616518D01*
X135972740Y-150610000D01*
X136061260Y-150610000D01*
X136127442Y-150616518D01*
X136127442Y-150616518D01*
G37*
G36*
X136889928Y-147225764D02*
G01*
X136911009Y-147232160D01*
X136930445Y-147242548D01*
X136947476Y-147256524D01*
X136961452Y-147273555D01*
X136971840Y-147292991D01*
X136978236Y-147314072D01*
X136981000Y-147342140D01*
X136981000Y-147805860D01*
X136978236Y-147833928D01*
X136971840Y-147855009D01*
X136961452Y-147874445D01*
X136947476Y-147891476D01*
X136930445Y-147905452D01*
X136911009Y-147915840D01*
X136889928Y-147922236D01*
X136861860Y-147925000D01*
X135048140Y-147925000D01*
X135020072Y-147922236D01*
X134998991Y-147915840D01*
X134979555Y-147905452D01*
X134962524Y-147891476D01*
X134948548Y-147874445D01*
X134938160Y-147855009D01*
X134931764Y-147833928D01*
X134929000Y-147805860D01*
X134929000Y-147342140D01*
X134931764Y-147314072D01*
X134938160Y-147292991D01*
X134948548Y-147273555D01*
X134962524Y-147256524D01*
X134979555Y-147242548D01*
X134998991Y-147232160D01*
X135020072Y-147225764D01*
X135048140Y-147223000D01*
X136861860Y-147223000D01*
X136889928Y-147225764D01*
X136889928Y-147225764D01*
G37*
G36*
X141839928Y-147225764D02*
G01*
X141861009Y-147232160D01*
X141880445Y-147242548D01*
X141897476Y-147256524D01*
X141911452Y-147273555D01*
X141921840Y-147292991D01*
X141928236Y-147314072D01*
X141931000Y-147342140D01*
X141931000Y-147805860D01*
X141928236Y-147833928D01*
X141921840Y-147855009D01*
X141911452Y-147874445D01*
X141897476Y-147891476D01*
X141880445Y-147905452D01*
X141861009Y-147915840D01*
X141839928Y-147922236D01*
X141811860Y-147925000D01*
X139998140Y-147925000D01*
X139970072Y-147922236D01*
X139948991Y-147915840D01*
X139929555Y-147905452D01*
X139912524Y-147891476D01*
X139898548Y-147874445D01*
X139888160Y-147855009D01*
X139881764Y-147833928D01*
X139879000Y-147805860D01*
X139879000Y-147342140D01*
X139881764Y-147314072D01*
X139888160Y-147292991D01*
X139898548Y-147273555D01*
X139912524Y-147256524D01*
X139929555Y-147242548D01*
X139948991Y-147232160D01*
X139970072Y-147225764D01*
X139998140Y-147223000D01*
X141811860Y-147223000D01*
X141839928Y-147225764D01*
X141839928Y-147225764D01*
G37*
G36*
X143793874Y-146292065D02*
G01*
X143831567Y-146303499D01*
X143866303Y-146322066D01*
X143896748Y-146347052D01*
X143921734Y-146377497D01*
X143940301Y-146412233D01*
X143951735Y-146449926D01*
X143956200Y-146495261D01*
X143956200Y-147331939D01*
X143951735Y-147377274D01*
X143940301Y-147414967D01*
X143921734Y-147449703D01*
X143896748Y-147480148D01*
X143866303Y-147505134D01*
X143831567Y-147523701D01*
X143793874Y-147535135D01*
X143748539Y-147539600D01*
X142661861Y-147539600D01*
X142616526Y-147535135D01*
X142578833Y-147523701D01*
X142544097Y-147505134D01*
X142513652Y-147480148D01*
X142488666Y-147449703D01*
X142470099Y-147414967D01*
X142458665Y-147377274D01*
X142454200Y-147331939D01*
X142454200Y-146495261D01*
X142458665Y-146449926D01*
X142470099Y-146412233D01*
X142488666Y-146377497D01*
X142513652Y-146347052D01*
X142544097Y-146322066D01*
X142578833Y-146303499D01*
X142616526Y-146292065D01*
X142661861Y-146287600D01*
X143748539Y-146287600D01*
X143793874Y-146292065D01*
X143793874Y-146292065D01*
G37*
G36*
X149970443Y-145155519D02*
G01*
X150036627Y-145162037D01*
X150206466Y-145213557D01*
X150362991Y-145297222D01*
X150374909Y-145307003D01*
X150500186Y-145409814D01*
X150583448Y-145511271D01*
X150612778Y-145547009D01*
X150696443Y-145703534D01*
X150747963Y-145873373D01*
X150765359Y-146050000D01*
X150747963Y-146226627D01*
X150696443Y-146396466D01*
X150612778Y-146552991D01*
X150607212Y-146559773D01*
X150500186Y-146690186D01*
X150398729Y-146773448D01*
X150362991Y-146802778D01*
X150206466Y-146886443D01*
X150036627Y-146937963D01*
X149970442Y-146944482D01*
X149904260Y-146951000D01*
X149815740Y-146951000D01*
X149749558Y-146944482D01*
X149683373Y-146937963D01*
X149513534Y-146886443D01*
X149357009Y-146802778D01*
X149321271Y-146773448D01*
X149219814Y-146690186D01*
X149112788Y-146559773D01*
X149107222Y-146552991D01*
X149023557Y-146396466D01*
X148972037Y-146226627D01*
X148954641Y-146050000D01*
X148972037Y-145873373D01*
X149023557Y-145703534D01*
X149107222Y-145547009D01*
X149136552Y-145511271D01*
X149219814Y-145409814D01*
X149345091Y-145307003D01*
X149357009Y-145297222D01*
X149513534Y-145213557D01*
X149683373Y-145162037D01*
X149749557Y-145155519D01*
X149815740Y-145149000D01*
X149904260Y-145149000D01*
X149970443Y-145155519D01*
X149970443Y-145155519D01*
G37*
G36*
X127110443Y-145155519D02*
G01*
X127176627Y-145162037D01*
X127346466Y-145213557D01*
X127502991Y-145297222D01*
X127514909Y-145307003D01*
X127640186Y-145409814D01*
X127723448Y-145511271D01*
X127752778Y-145547009D01*
X127836443Y-145703534D01*
X127887963Y-145873373D01*
X127905359Y-146050000D01*
X127887963Y-146226627D01*
X127836443Y-146396466D01*
X127752778Y-146552991D01*
X127747212Y-146559773D01*
X127640186Y-146690186D01*
X127538729Y-146773448D01*
X127502991Y-146802778D01*
X127346466Y-146886443D01*
X127176627Y-146937963D01*
X127110442Y-146944482D01*
X127044260Y-146951000D01*
X126955740Y-146951000D01*
X126889558Y-146944482D01*
X126823373Y-146937963D01*
X126653534Y-146886443D01*
X126497009Y-146802778D01*
X126461271Y-146773448D01*
X126359814Y-146690186D01*
X126252788Y-146559773D01*
X126247222Y-146552991D01*
X126163557Y-146396466D01*
X126112037Y-146226627D01*
X126094641Y-146050000D01*
X126112037Y-145873373D01*
X126163557Y-145703534D01*
X126247222Y-145547009D01*
X126276552Y-145511271D01*
X126359814Y-145409814D01*
X126485091Y-145307003D01*
X126497009Y-145297222D01*
X126653534Y-145213557D01*
X126823373Y-145162037D01*
X126889557Y-145155519D01*
X126955740Y-145149000D01*
X127044260Y-145149000D01*
X127110443Y-145155519D01*
X127110443Y-145155519D01*
G37*
G36*
X136889928Y-145955764D02*
G01*
X136911009Y-145962160D01*
X136930445Y-145972548D01*
X136947476Y-145986524D01*
X136961452Y-146003555D01*
X136971840Y-146022991D01*
X136978236Y-146044072D01*
X136981000Y-146072140D01*
X136981000Y-146535860D01*
X136978236Y-146563928D01*
X136971840Y-146585009D01*
X136961452Y-146604445D01*
X136947476Y-146621476D01*
X136930445Y-146635452D01*
X136911009Y-146645840D01*
X136889928Y-146652236D01*
X136861860Y-146655000D01*
X135048140Y-146655000D01*
X135020072Y-146652236D01*
X134998991Y-146645840D01*
X134979555Y-146635452D01*
X134962524Y-146621476D01*
X134948548Y-146604445D01*
X134938160Y-146585009D01*
X134931764Y-146563928D01*
X134929000Y-146535860D01*
X134929000Y-146072140D01*
X134931764Y-146044072D01*
X134938160Y-146022991D01*
X134948548Y-146003555D01*
X134962524Y-145986524D01*
X134979555Y-145972548D01*
X134998991Y-145962160D01*
X135020072Y-145955764D01*
X135048140Y-145953000D01*
X136861860Y-145953000D01*
X136889928Y-145955764D01*
X136889928Y-145955764D01*
G37*
G36*
X141839928Y-145955764D02*
G01*
X141861009Y-145962160D01*
X141880445Y-145972548D01*
X141897476Y-145986524D01*
X141911452Y-146003555D01*
X141921840Y-146022991D01*
X141928236Y-146044072D01*
X141931000Y-146072140D01*
X141931000Y-146535860D01*
X141928236Y-146563928D01*
X141921840Y-146585009D01*
X141911452Y-146604445D01*
X141897476Y-146621476D01*
X141880445Y-146635452D01*
X141861009Y-146645840D01*
X141839928Y-146652236D01*
X141811860Y-146655000D01*
X139998140Y-146655000D01*
X139970072Y-146652236D01*
X139948991Y-146645840D01*
X139929555Y-146635452D01*
X139912524Y-146621476D01*
X139898548Y-146604445D01*
X139888160Y-146585009D01*
X139881764Y-146563928D01*
X139879000Y-146535860D01*
X139879000Y-146072140D01*
X139881764Y-146044072D01*
X139888160Y-146022991D01*
X139898548Y-146003555D01*
X139912524Y-145986524D01*
X139929555Y-145972548D01*
X139948991Y-145962160D01*
X139970072Y-145955764D01*
X139998140Y-145953000D01*
X141811860Y-145953000D01*
X141839928Y-145955764D01*
X141839928Y-145955764D01*
G37*
G36*
X143793874Y-144242065D02*
G01*
X143831567Y-144253499D01*
X143866303Y-144272066D01*
X143896748Y-144297052D01*
X143921734Y-144327497D01*
X143940301Y-144362233D01*
X143951735Y-144399926D01*
X143956200Y-144445261D01*
X143956200Y-145281939D01*
X143951735Y-145327274D01*
X143940301Y-145364967D01*
X143921734Y-145399703D01*
X143896748Y-145430148D01*
X143866303Y-145455134D01*
X143831567Y-145473701D01*
X143793874Y-145485135D01*
X143748539Y-145489600D01*
X142661861Y-145489600D01*
X142616526Y-145485135D01*
X142578833Y-145473701D01*
X142544097Y-145455134D01*
X142513652Y-145430148D01*
X142488666Y-145399703D01*
X142470099Y-145364967D01*
X142458665Y-145327274D01*
X142454200Y-145281939D01*
X142454200Y-144445261D01*
X142458665Y-144399926D01*
X142470099Y-144362233D01*
X142488666Y-144327497D01*
X142513652Y-144297052D01*
X142544097Y-144272066D01*
X142578833Y-144253499D01*
X142616526Y-144242065D01*
X142661861Y-144237600D01*
X143748539Y-144237600D01*
X143793874Y-144242065D01*
X143793874Y-144242065D01*
G37*
G36*
X141839928Y-144685764D02*
G01*
X141861009Y-144692160D01*
X141880445Y-144702548D01*
X141897476Y-144716524D01*
X141911452Y-144733555D01*
X141921840Y-144752991D01*
X141928236Y-144774072D01*
X141931000Y-144802140D01*
X141931000Y-145265860D01*
X141928236Y-145293928D01*
X141921840Y-145315009D01*
X141911452Y-145334445D01*
X141897476Y-145351476D01*
X141880445Y-145365452D01*
X141861009Y-145375840D01*
X141839928Y-145382236D01*
X141811860Y-145385000D01*
X139998140Y-145385000D01*
X139970072Y-145382236D01*
X139948991Y-145375840D01*
X139929555Y-145365452D01*
X139912524Y-145351476D01*
X139898548Y-145334445D01*
X139888160Y-145315009D01*
X139881764Y-145293928D01*
X139879000Y-145265860D01*
X139879000Y-144802140D01*
X139881764Y-144774072D01*
X139888160Y-144752991D01*
X139898548Y-144733555D01*
X139912524Y-144716524D01*
X139929555Y-144702548D01*
X139948991Y-144692160D01*
X139970072Y-144685764D01*
X139998140Y-144683000D01*
X141811860Y-144683000D01*
X141839928Y-144685764D01*
X141839928Y-144685764D01*
G37*
G36*
X136889928Y-144685764D02*
G01*
X136911009Y-144692160D01*
X136930445Y-144702548D01*
X136947476Y-144716524D01*
X136961452Y-144733555D01*
X136971840Y-144752991D01*
X136978236Y-144774072D01*
X136981000Y-144802140D01*
X136981000Y-145265860D01*
X136978236Y-145293928D01*
X136971840Y-145315009D01*
X136961452Y-145334445D01*
X136947476Y-145351476D01*
X136930445Y-145365452D01*
X136911009Y-145375840D01*
X136889928Y-145382236D01*
X136861860Y-145385000D01*
X135048140Y-145385000D01*
X135020072Y-145382236D01*
X134998991Y-145375840D01*
X134979555Y-145365452D01*
X134962524Y-145351476D01*
X134948548Y-145334445D01*
X134938160Y-145315009D01*
X134931764Y-145293928D01*
X134929000Y-145265860D01*
X134929000Y-144802140D01*
X134931764Y-144774072D01*
X134938160Y-144752991D01*
X134948548Y-144733555D01*
X134962524Y-144716524D01*
X134979555Y-144702548D01*
X134998991Y-144692160D01*
X135020072Y-144685764D01*
X135048140Y-144683000D01*
X136861860Y-144683000D01*
X136889928Y-144685764D01*
X136889928Y-144685764D01*
G37*
G36*
X150761000Y-144411000D02*
G01*
X148959000Y-144411000D01*
X148959000Y-142609000D01*
X150761000Y-142609000D01*
X150761000Y-144411000D01*
X150761000Y-144411000D01*
G37*
G36*
X127901000Y-144411000D02*
G01*
X126099000Y-144411000D01*
X126099000Y-142609000D01*
X127901000Y-142609000D01*
X127901000Y-144411000D01*
X127901000Y-144411000D01*
G37*
G36*
X141839928Y-143415764D02*
G01*
X141861009Y-143422160D01*
X141880445Y-143432548D01*
X141897476Y-143446524D01*
X141911452Y-143463555D01*
X141921840Y-143482991D01*
X141928236Y-143504072D01*
X141931000Y-143532140D01*
X141931000Y-143995860D01*
X141928236Y-144023928D01*
X141921840Y-144045009D01*
X141911452Y-144064445D01*
X141897476Y-144081476D01*
X141880445Y-144095452D01*
X141861009Y-144105840D01*
X141839928Y-144112236D01*
X141811860Y-144115000D01*
X139998140Y-144115000D01*
X139970072Y-144112236D01*
X139948991Y-144105840D01*
X139929555Y-144095452D01*
X139912524Y-144081476D01*
X139898548Y-144064445D01*
X139888160Y-144045009D01*
X139881764Y-144023928D01*
X139879000Y-143995860D01*
X139879000Y-143532140D01*
X139881764Y-143504072D01*
X139888160Y-143482991D01*
X139898548Y-143463555D01*
X139912524Y-143446524D01*
X139929555Y-143432548D01*
X139948991Y-143422160D01*
X139970072Y-143415764D01*
X139998140Y-143413000D01*
X141811860Y-143413000D01*
X141839928Y-143415764D01*
X141839928Y-143415764D01*
G37*
G36*
X136889928Y-143415764D02*
G01*
X136911009Y-143422160D01*
X136930445Y-143432548D01*
X136947476Y-143446524D01*
X136961452Y-143463555D01*
X136971840Y-143482991D01*
X136978236Y-143504072D01*
X136981000Y-143532140D01*
X136981000Y-143995860D01*
X136978236Y-144023928D01*
X136971840Y-144045009D01*
X136961452Y-144064445D01*
X136947476Y-144081476D01*
X136930445Y-144095452D01*
X136911009Y-144105840D01*
X136889928Y-144112236D01*
X136861860Y-144115000D01*
X135048140Y-144115000D01*
X135020072Y-144112236D01*
X134998991Y-144105840D01*
X134979555Y-144095452D01*
X134962524Y-144081476D01*
X134948548Y-144064445D01*
X134938160Y-144045009D01*
X134931764Y-144023928D01*
X134929000Y-143995860D01*
X134929000Y-143532140D01*
X134931764Y-143504072D01*
X134938160Y-143482991D01*
X134948548Y-143463555D01*
X134962524Y-143446524D01*
X134979555Y-143432548D01*
X134998991Y-143422160D01*
X135020072Y-143415764D01*
X135048140Y-143413000D01*
X136861860Y-143413000D01*
X136889928Y-143415764D01*
X136889928Y-143415764D01*
G37*
G36*
X135430274Y-140528265D02*
G01*
X135467967Y-140539699D01*
X135502703Y-140558266D01*
X135533148Y-140583252D01*
X135558134Y-140613697D01*
X135576701Y-140648433D01*
X135588135Y-140686126D01*
X135592600Y-140731461D01*
X135592600Y-141818139D01*
X135588135Y-141863474D01*
X135576701Y-141901167D01*
X135558134Y-141935903D01*
X135533148Y-141966348D01*
X135502703Y-141991334D01*
X135467967Y-142009901D01*
X135430274Y-142021335D01*
X135384939Y-142025800D01*
X134548261Y-142025800D01*
X134502926Y-142021335D01*
X134465233Y-142009901D01*
X134430497Y-141991334D01*
X134400052Y-141966348D01*
X134375066Y-141935903D01*
X134356499Y-141901167D01*
X134345065Y-141863474D01*
X134340600Y-141818139D01*
X134340600Y-140731461D01*
X134345065Y-140686126D01*
X134356499Y-140648433D01*
X134375066Y-140613697D01*
X134400052Y-140583252D01*
X134430497Y-140558266D01*
X134465233Y-140539699D01*
X134502926Y-140528265D01*
X134548261Y-140523800D01*
X135384939Y-140523800D01*
X135430274Y-140528265D01*
X135430274Y-140528265D01*
G37*
G36*
X137480274Y-140528265D02*
G01*
X137517967Y-140539699D01*
X137552703Y-140558266D01*
X137583148Y-140583252D01*
X137608134Y-140613697D01*
X137626701Y-140648433D01*
X137638135Y-140686126D01*
X137642600Y-140731461D01*
X137642600Y-141818139D01*
X137638135Y-141863474D01*
X137626701Y-141901167D01*
X137608134Y-141935903D01*
X137583148Y-141966348D01*
X137552703Y-141991334D01*
X137517967Y-142009901D01*
X137480274Y-142021335D01*
X137434939Y-142025800D01*
X136598261Y-142025800D01*
X136552926Y-142021335D01*
X136515233Y-142009901D01*
X136480497Y-141991334D01*
X136450052Y-141966348D01*
X136425066Y-141935903D01*
X136406499Y-141901167D01*
X136395065Y-141863474D01*
X136390600Y-141818139D01*
X136390600Y-140731461D01*
X136395065Y-140686126D01*
X136406499Y-140648433D01*
X136425066Y-140613697D01*
X136450052Y-140583252D01*
X136480497Y-140558266D01*
X136515233Y-140539699D01*
X136552926Y-140528265D01*
X136598261Y-140523800D01*
X137434939Y-140523800D01*
X137480274Y-140528265D01*
X137480274Y-140528265D01*
G37*
G36*
X127901000Y-141871000D02*
G01*
X126099000Y-141871000D01*
X126099000Y-140069000D01*
X127901000Y-140069000D01*
X127901000Y-141871000D01*
X127901000Y-141871000D01*
G37*
G36*
X149970443Y-140075519D02*
G01*
X150036627Y-140082037D01*
X150206466Y-140133557D01*
X150362991Y-140217222D01*
X150398729Y-140246552D01*
X150500186Y-140329814D01*
X150576775Y-140423139D01*
X150612778Y-140467009D01*
X150696443Y-140623534D01*
X150747963Y-140793373D01*
X150765359Y-140970000D01*
X150747963Y-141146627D01*
X150696443Y-141316466D01*
X150612778Y-141472991D01*
X150583448Y-141508729D01*
X150500186Y-141610186D01*
X150398729Y-141693448D01*
X150362991Y-141722778D01*
X150206466Y-141806443D01*
X150036627Y-141857963D01*
X149980672Y-141863474D01*
X149904260Y-141871000D01*
X149815740Y-141871000D01*
X149739328Y-141863474D01*
X149683373Y-141857963D01*
X149513534Y-141806443D01*
X149357009Y-141722778D01*
X149321271Y-141693448D01*
X149219814Y-141610186D01*
X149136552Y-141508729D01*
X149107222Y-141472991D01*
X149023557Y-141316466D01*
X148972037Y-141146627D01*
X148954641Y-140970000D01*
X148972037Y-140793373D01*
X149023557Y-140623534D01*
X149107222Y-140467009D01*
X149143225Y-140423139D01*
X149219814Y-140329814D01*
X149321271Y-140246552D01*
X149357009Y-140217222D01*
X149513534Y-140133557D01*
X149683373Y-140082037D01*
X149749557Y-140075519D01*
X149815740Y-140069000D01*
X149904260Y-140069000D01*
X149970443Y-140075519D01*
X149970443Y-140075519D01*
G37*
G36*
X141721969Y-139383265D02*
G01*
X141759662Y-139394699D01*
X141794398Y-139413266D01*
X141824843Y-139438252D01*
X141849829Y-139468697D01*
X141868396Y-139503433D01*
X141879830Y-139541126D01*
X141884295Y-139586461D01*
X141884295Y-140423139D01*
X141879830Y-140468474D01*
X141868396Y-140506167D01*
X141849829Y-140540903D01*
X141824843Y-140571348D01*
X141794398Y-140596334D01*
X141759662Y-140614901D01*
X141721969Y-140626335D01*
X141676634Y-140630800D01*
X140589956Y-140630800D01*
X140544621Y-140626335D01*
X140506928Y-140614901D01*
X140472192Y-140596334D01*
X140441747Y-140571348D01*
X140416761Y-140540903D01*
X140398194Y-140506167D01*
X140386760Y-140468474D01*
X140382295Y-140423139D01*
X140382295Y-139586461D01*
X140386760Y-139541126D01*
X140398194Y-139503433D01*
X140416761Y-139468697D01*
X140441747Y-139438252D01*
X140472192Y-139413266D01*
X140506928Y-139394699D01*
X140544621Y-139383265D01*
X140589956Y-139378800D01*
X141676634Y-139378800D01*
X141721969Y-139383265D01*
X141721969Y-139383265D01*
G37*
G36*
X143944468Y-139372370D02*
G01*
X143982161Y-139383804D01*
X144016897Y-139402371D01*
X144047342Y-139427357D01*
X144072328Y-139457802D01*
X144090895Y-139492538D01*
X144102329Y-139530231D01*
X144106794Y-139575566D01*
X144106794Y-140412244D01*
X144102329Y-140457579D01*
X144090895Y-140495272D01*
X144072328Y-140530008D01*
X144047342Y-140560453D01*
X144016897Y-140585439D01*
X143982161Y-140604006D01*
X143944468Y-140615440D01*
X143899133Y-140619905D01*
X142812455Y-140619905D01*
X142767120Y-140615440D01*
X142729427Y-140604006D01*
X142694691Y-140585439D01*
X142664246Y-140560453D01*
X142639260Y-140530008D01*
X142620693Y-140495272D01*
X142609259Y-140457579D01*
X142604794Y-140412244D01*
X142604794Y-139575566D01*
X142609259Y-139530231D01*
X142620693Y-139492538D01*
X142639260Y-139457802D01*
X142664246Y-139427357D01*
X142694691Y-139402371D01*
X142729427Y-139383804D01*
X142767120Y-139372370D01*
X142812455Y-139367905D01*
X143899133Y-139367905D01*
X143944468Y-139372370D01*
X143944468Y-139372370D01*
G37*
G36*
X150761000Y-139331000D02*
G01*
X148959000Y-139331000D01*
X148959000Y-137529000D01*
X150761000Y-137529000D01*
X150761000Y-139331000D01*
X150761000Y-139331000D01*
G37*
G36*
X127110443Y-137535519D02*
G01*
X127176627Y-137542037D01*
X127346466Y-137593557D01*
X127502991Y-137677222D01*
X127512941Y-137685388D01*
X127640186Y-137789814D01*
X127712428Y-137877843D01*
X127752778Y-137927009D01*
X127836443Y-138083534D01*
X127887963Y-138253373D01*
X127905359Y-138430000D01*
X127887963Y-138606627D01*
X127836443Y-138776466D01*
X127752778Y-138932991D01*
X127742640Y-138945344D01*
X127640186Y-139070186D01*
X127538729Y-139153448D01*
X127502991Y-139182778D01*
X127346466Y-139266443D01*
X127176627Y-139317963D01*
X127110443Y-139324481D01*
X127044260Y-139331000D01*
X126955740Y-139331000D01*
X126889557Y-139324481D01*
X126823373Y-139317963D01*
X126653534Y-139266443D01*
X126497009Y-139182778D01*
X126461271Y-139153448D01*
X126359814Y-139070186D01*
X126257360Y-138945344D01*
X126247222Y-138932991D01*
X126163557Y-138776466D01*
X126112037Y-138606627D01*
X126094641Y-138430000D01*
X126112037Y-138253373D01*
X126163557Y-138083534D01*
X126247222Y-137927009D01*
X126287572Y-137877843D01*
X126359814Y-137789814D01*
X126487059Y-137685388D01*
X126497009Y-137677222D01*
X126653534Y-137593557D01*
X126823373Y-137542037D01*
X126889557Y-137535519D01*
X126955740Y-137529000D01*
X127044260Y-137529000D01*
X127110443Y-137535519D01*
X127110443Y-137535519D01*
G37*
G36*
X135403963Y-137610135D02*
G01*
X135441656Y-137621569D01*
X135476392Y-137640136D01*
X135506837Y-137665122D01*
X135531823Y-137695567D01*
X135550390Y-137730303D01*
X135561824Y-137767996D01*
X135566289Y-137813331D01*
X135566289Y-138900009D01*
X135561824Y-138945344D01*
X135550390Y-138983037D01*
X135531823Y-139017773D01*
X135506837Y-139048218D01*
X135476392Y-139073204D01*
X135441656Y-139091771D01*
X135403963Y-139103205D01*
X135358628Y-139107670D01*
X134521950Y-139107670D01*
X134476615Y-139103205D01*
X134438922Y-139091771D01*
X134404186Y-139073204D01*
X134373741Y-139048218D01*
X134348755Y-139017773D01*
X134330188Y-138983037D01*
X134318754Y-138945344D01*
X134314289Y-138900009D01*
X134314289Y-137813331D01*
X134318754Y-137767996D01*
X134330188Y-137730303D01*
X134348755Y-137695567D01*
X134373741Y-137665122D01*
X134404186Y-137640136D01*
X134438922Y-137621569D01*
X134476615Y-137610135D01*
X134521950Y-137605670D01*
X135358628Y-137605670D01*
X135403963Y-137610135D01*
X135403963Y-137610135D01*
G37*
G36*
X137453963Y-137610135D02*
G01*
X137491656Y-137621569D01*
X137526392Y-137640136D01*
X137556837Y-137665122D01*
X137581823Y-137695567D01*
X137600390Y-137730303D01*
X137611824Y-137767996D01*
X137616289Y-137813331D01*
X137616289Y-138900009D01*
X137611824Y-138945344D01*
X137600390Y-138983037D01*
X137581823Y-139017773D01*
X137556837Y-139048218D01*
X137526392Y-139073204D01*
X137491656Y-139091771D01*
X137453963Y-139103205D01*
X137408628Y-139107670D01*
X136571950Y-139107670D01*
X136526615Y-139103205D01*
X136488922Y-139091771D01*
X136454186Y-139073204D01*
X136423741Y-139048218D01*
X136398755Y-139017773D01*
X136380188Y-138983037D01*
X136368754Y-138945344D01*
X136364289Y-138900009D01*
X136364289Y-137813331D01*
X136368754Y-137767996D01*
X136380188Y-137730303D01*
X136398755Y-137695567D01*
X136423741Y-137665122D01*
X136454186Y-137640136D01*
X136488922Y-137621569D01*
X136526615Y-137610135D01*
X136571950Y-137605670D01*
X137408628Y-137605670D01*
X137453963Y-137610135D01*
X137453963Y-137610135D01*
G37*
G36*
X141721969Y-137333265D02*
G01*
X141759662Y-137344699D01*
X141794398Y-137363266D01*
X141824843Y-137388252D01*
X141849829Y-137418697D01*
X141868396Y-137453433D01*
X141879830Y-137491126D01*
X141884295Y-137536461D01*
X141884295Y-138373139D01*
X141879830Y-138418474D01*
X141868396Y-138456167D01*
X141849829Y-138490903D01*
X141824843Y-138521348D01*
X141794398Y-138546334D01*
X141759662Y-138564901D01*
X141721969Y-138576335D01*
X141676634Y-138580800D01*
X140589956Y-138580800D01*
X140544621Y-138576335D01*
X140506928Y-138564901D01*
X140472192Y-138546334D01*
X140441747Y-138521348D01*
X140416761Y-138490903D01*
X140398194Y-138456167D01*
X140386760Y-138418474D01*
X140382295Y-138373139D01*
X140382295Y-137536461D01*
X140386760Y-137491126D01*
X140398194Y-137453433D01*
X140416761Y-137418697D01*
X140441747Y-137388252D01*
X140472192Y-137363266D01*
X140506928Y-137344699D01*
X140544621Y-137333265D01*
X140589956Y-137328800D01*
X141676634Y-137328800D01*
X141721969Y-137333265D01*
X141721969Y-137333265D01*
G37*
G36*
X143944468Y-137322370D02*
G01*
X143982161Y-137333804D01*
X144016897Y-137352371D01*
X144047342Y-137377357D01*
X144072328Y-137407802D01*
X144090895Y-137442538D01*
X144102329Y-137480231D01*
X144106794Y-137525566D01*
X144106794Y-138362244D01*
X144102329Y-138407579D01*
X144090895Y-138445272D01*
X144072328Y-138480008D01*
X144047342Y-138510453D01*
X144016897Y-138535439D01*
X143982161Y-138554006D01*
X143944468Y-138565440D01*
X143899133Y-138569905D01*
X142812455Y-138569905D01*
X142767120Y-138565440D01*
X142729427Y-138554006D01*
X142694691Y-138535439D01*
X142664246Y-138510453D01*
X142639260Y-138480008D01*
X142620693Y-138445272D01*
X142609259Y-138407579D01*
X142604794Y-138362244D01*
X142604794Y-137525566D01*
X142609259Y-137480231D01*
X142620693Y-137442538D01*
X142639260Y-137407802D01*
X142664246Y-137377357D01*
X142694691Y-137352371D01*
X142729427Y-137333804D01*
X142767120Y-137322370D01*
X142812455Y-137317905D01*
X143899133Y-137317905D01*
X143944468Y-137322370D01*
X143944468Y-137322370D01*
G37*
G36*
X137453963Y-135578135D02*
G01*
X137491656Y-135589569D01*
X137526392Y-135608136D01*
X137556837Y-135633122D01*
X137581823Y-135663567D01*
X137600390Y-135698303D01*
X137611824Y-135735996D01*
X137616289Y-135781331D01*
X137616289Y-136868009D01*
X137611824Y-136913344D01*
X137600390Y-136951037D01*
X137581823Y-136985773D01*
X137556837Y-137016218D01*
X137526392Y-137041204D01*
X137491656Y-137059771D01*
X137453963Y-137071205D01*
X137408628Y-137075670D01*
X136571950Y-137075670D01*
X136526615Y-137071205D01*
X136488922Y-137059771D01*
X136454186Y-137041204D01*
X136423741Y-137016218D01*
X136398755Y-136985773D01*
X136380188Y-136951037D01*
X136368754Y-136913344D01*
X136364289Y-136868009D01*
X136364289Y-135781331D01*
X136368754Y-135735996D01*
X136380188Y-135698303D01*
X136398755Y-135663567D01*
X136423741Y-135633122D01*
X136454186Y-135608136D01*
X136488922Y-135589569D01*
X136526615Y-135578135D01*
X136571950Y-135573670D01*
X137408628Y-135573670D01*
X137453963Y-135578135D01*
X137453963Y-135578135D01*
G37*
G36*
X135403963Y-135578135D02*
G01*
X135441656Y-135589569D01*
X135476392Y-135608136D01*
X135506837Y-135633122D01*
X135531823Y-135663567D01*
X135550390Y-135698303D01*
X135561824Y-135735996D01*
X135566289Y-135781331D01*
X135566289Y-136868009D01*
X135561824Y-136913344D01*
X135550390Y-136951037D01*
X135531823Y-136985773D01*
X135506837Y-137016218D01*
X135476392Y-137041204D01*
X135441656Y-137059771D01*
X135403963Y-137071205D01*
X135358628Y-137075670D01*
X134521950Y-137075670D01*
X134476615Y-137071205D01*
X134438922Y-137059771D01*
X134404186Y-137041204D01*
X134373741Y-137016218D01*
X134348755Y-136985773D01*
X134330188Y-136951037D01*
X134318754Y-136913344D01*
X134314289Y-136868009D01*
X134314289Y-135781331D01*
X134318754Y-135735996D01*
X134330188Y-135698303D01*
X134348755Y-135663567D01*
X134373741Y-135633122D01*
X134404186Y-135608136D01*
X134438922Y-135589569D01*
X134476615Y-135578135D01*
X134521950Y-135573670D01*
X135358628Y-135573670D01*
X135403963Y-135578135D01*
X135403963Y-135578135D01*
G37*
G36*
X150761000Y-136791000D02*
G01*
X148959000Y-136791000D01*
X148959000Y-134989000D01*
X150761000Y-134989000D01*
X150761000Y-136791000D01*
X150761000Y-136791000D01*
G37*
G36*
X127110442Y-134995518D02*
G01*
X127176627Y-135002037D01*
X127346466Y-135053557D01*
X127346468Y-135053558D01*
X127379468Y-135071197D01*
X127502991Y-135137222D01*
X127538729Y-135166552D01*
X127640186Y-135249814D01*
X127714628Y-135340523D01*
X127752778Y-135387009D01*
X127836443Y-135543534D01*
X127887963Y-135713373D01*
X127905359Y-135890000D01*
X127887963Y-136066627D01*
X127836443Y-136236466D01*
X127752778Y-136392991D01*
X127723448Y-136428729D01*
X127640186Y-136530186D01*
X127538729Y-136613448D01*
X127502991Y-136642778D01*
X127346466Y-136726443D01*
X127176627Y-136777963D01*
X127110442Y-136784482D01*
X127044260Y-136791000D01*
X126955740Y-136791000D01*
X126889558Y-136784482D01*
X126823373Y-136777963D01*
X126653534Y-136726443D01*
X126497009Y-136642778D01*
X126461271Y-136613448D01*
X126359814Y-136530186D01*
X126276552Y-136428729D01*
X126247222Y-136392991D01*
X126163557Y-136236466D01*
X126112037Y-136066627D01*
X126094641Y-135890000D01*
X126112037Y-135713373D01*
X126163557Y-135543534D01*
X126247222Y-135387009D01*
X126285372Y-135340523D01*
X126359814Y-135249814D01*
X126461271Y-135166552D01*
X126497009Y-135137222D01*
X126620532Y-135071197D01*
X126653532Y-135053558D01*
X126653534Y-135053557D01*
X126823373Y-135002037D01*
X126889558Y-134995518D01*
X126955740Y-134989000D01*
X127044260Y-134989000D01*
X127110442Y-134995518D01*
X127110442Y-134995518D01*
G37*
G36*
X142012480Y-134011005D02*
G01*
X142050173Y-134022439D01*
X142084909Y-134041006D01*
X142115354Y-134065992D01*
X142140340Y-134096437D01*
X142158907Y-134131173D01*
X142170341Y-134168866D01*
X142174806Y-134214201D01*
X142174806Y-135300879D01*
X142170341Y-135346214D01*
X142158907Y-135383907D01*
X142140340Y-135418643D01*
X142115354Y-135449088D01*
X142084909Y-135474074D01*
X142050173Y-135492641D01*
X142012480Y-135504075D01*
X141967145Y-135508540D01*
X141130467Y-135508540D01*
X141085132Y-135504075D01*
X141047439Y-135492641D01*
X141012703Y-135474074D01*
X140982258Y-135449088D01*
X140957272Y-135418643D01*
X140938705Y-135383907D01*
X140927271Y-135346214D01*
X140922806Y-135300879D01*
X140922806Y-134214201D01*
X140927271Y-134168866D01*
X140938705Y-134131173D01*
X140957272Y-134096437D01*
X140982258Y-134065992D01*
X141012703Y-134041006D01*
X141047439Y-134022439D01*
X141085132Y-134011005D01*
X141130467Y-134006540D01*
X141967145Y-134006540D01*
X142012480Y-134011005D01*
X142012480Y-134011005D01*
G37*
G36*
X144062480Y-134011005D02*
G01*
X144100173Y-134022439D01*
X144134909Y-134041006D01*
X144165354Y-134065992D01*
X144190340Y-134096437D01*
X144208907Y-134131173D01*
X144220341Y-134168866D01*
X144224806Y-134214201D01*
X144224806Y-135300879D01*
X144220341Y-135346214D01*
X144208907Y-135383907D01*
X144190340Y-135418643D01*
X144165354Y-135449088D01*
X144134909Y-135474074D01*
X144100173Y-135492641D01*
X144062480Y-135504075D01*
X144017145Y-135508540D01*
X143180467Y-135508540D01*
X143135132Y-135504075D01*
X143097439Y-135492641D01*
X143062703Y-135474074D01*
X143032258Y-135449088D01*
X143007272Y-135418643D01*
X142988705Y-135383907D01*
X142977271Y-135346214D01*
X142972806Y-135300879D01*
X142972806Y-134214201D01*
X142977271Y-134168866D01*
X142988705Y-134131173D01*
X143007272Y-134096437D01*
X143032258Y-134065992D01*
X143062703Y-134041006D01*
X143097439Y-134022439D01*
X143135132Y-134011005D01*
X143180467Y-134006540D01*
X144017145Y-134006540D01*
X144062480Y-134011005D01*
X144062480Y-134011005D01*
G37*
G36*
X135951080Y-130263286D02*
G01*
X135971194Y-130267286D01*
X135975285Y-130268981D01*
X135975293Y-130268983D01*
X135984581Y-130272830D01*
X135984590Y-130272835D01*
X135988680Y-130274529D01*
X136004392Y-130285027D01*
X136005516Y-130286151D01*
X136024458Y-130301696D01*
X136046069Y-130313247D01*
X136069518Y-130320360D01*
X136093904Y-130322762D01*
X136118290Y-130320360D01*
X136141739Y-130313247D01*
X136163350Y-130301696D01*
X136182292Y-130286151D01*
X136190531Y-130277060D01*
X136195097Y-130271496D01*
X136198869Y-130268400D01*
X136203171Y-130266101D01*
X136207845Y-130264683D01*
X136218841Y-130263600D01*
X136507559Y-130263600D01*
X136518555Y-130264683D01*
X136523229Y-130266101D01*
X136527530Y-130268400D01*
X136533902Y-130273629D01*
X136554276Y-130287243D01*
X136576915Y-130296620D01*
X136600949Y-130301400D01*
X136625453Y-130301400D01*
X136649486Y-130296619D01*
X136672125Y-130287242D01*
X136692498Y-130273629D01*
X136698870Y-130268400D01*
X136703171Y-130266101D01*
X136707845Y-130264683D01*
X136718841Y-130263600D01*
X137007559Y-130263600D01*
X137018555Y-130264683D01*
X137023229Y-130266101D01*
X137027530Y-130268400D01*
X137033902Y-130273629D01*
X137054276Y-130287243D01*
X137076915Y-130296620D01*
X137100949Y-130301400D01*
X137125453Y-130301400D01*
X137149486Y-130296619D01*
X137172125Y-130287242D01*
X137192498Y-130273629D01*
X137198870Y-130268400D01*
X137203171Y-130266101D01*
X137207845Y-130264683D01*
X137218841Y-130263600D01*
X137507559Y-130263600D01*
X137518555Y-130264683D01*
X137523229Y-130266101D01*
X137527530Y-130268400D01*
X137533902Y-130273629D01*
X137554276Y-130287243D01*
X137576915Y-130296620D01*
X137600949Y-130301400D01*
X137625453Y-130301400D01*
X137649486Y-130296619D01*
X137672125Y-130287242D01*
X137692498Y-130273629D01*
X137698870Y-130268400D01*
X137703171Y-130266101D01*
X137707845Y-130264683D01*
X137718841Y-130263600D01*
X138007559Y-130263600D01*
X138018555Y-130264683D01*
X138023229Y-130266101D01*
X138027530Y-130268400D01*
X138033902Y-130273629D01*
X138054276Y-130287243D01*
X138076915Y-130296620D01*
X138100949Y-130301400D01*
X138125453Y-130301400D01*
X138149486Y-130296619D01*
X138172125Y-130287242D01*
X138192498Y-130273629D01*
X138198870Y-130268400D01*
X138203171Y-130266101D01*
X138207845Y-130264683D01*
X138218841Y-130263600D01*
X138507559Y-130263600D01*
X138518555Y-130264683D01*
X138523229Y-130266101D01*
X138527531Y-130268400D01*
X138531303Y-130271496D01*
X138535869Y-130277060D01*
X138553196Y-130294387D01*
X138573570Y-130308001D01*
X138596208Y-130317379D01*
X138620242Y-130322160D01*
X138644746Y-130322160D01*
X138668779Y-130317380D01*
X138691418Y-130308003D01*
X138711793Y-130294390D01*
X138720884Y-130286151D01*
X138722008Y-130285027D01*
X138737720Y-130274529D01*
X138741810Y-130272835D01*
X138741819Y-130272830D01*
X138751107Y-130268983D01*
X138751115Y-130268981D01*
X138755206Y-130267286D01*
X138775320Y-130263286D01*
X138786261Y-130262748D01*
X138940139Y-130262748D01*
X138951080Y-130263286D01*
X138971194Y-130267286D01*
X138975285Y-130268981D01*
X138975293Y-130268983D01*
X138984581Y-130272830D01*
X138984590Y-130272835D01*
X138988680Y-130274529D01*
X139004392Y-130285027D01*
X139017773Y-130298408D01*
X139028271Y-130314120D01*
X139029965Y-130318210D01*
X139029970Y-130318219D01*
X139033817Y-130327507D01*
X139033819Y-130327515D01*
X139035514Y-130331606D01*
X139039514Y-130351720D01*
X139040052Y-130362661D01*
X139040052Y-130887749D01*
X139042454Y-130912135D01*
X139049567Y-130935584D01*
X139061118Y-130957195D01*
X139076663Y-130976137D01*
X139095605Y-130991682D01*
X139117216Y-131003233D01*
X139140665Y-131010346D01*
X139165051Y-131012748D01*
X139690139Y-131012748D01*
X139701080Y-131013286D01*
X139721194Y-131017286D01*
X139725285Y-131018981D01*
X139725293Y-131018983D01*
X139734581Y-131022830D01*
X139734590Y-131022835D01*
X139738680Y-131024529D01*
X139754392Y-131035027D01*
X139767773Y-131048408D01*
X139778271Y-131064120D01*
X139779965Y-131068210D01*
X139779970Y-131068219D01*
X139783817Y-131077507D01*
X139783819Y-131077515D01*
X139785514Y-131081606D01*
X139789514Y-131101720D01*
X139790052Y-131112661D01*
X139790052Y-131266539D01*
X139789514Y-131277480D01*
X139785514Y-131297594D01*
X139783819Y-131301685D01*
X139783817Y-131301693D01*
X139779970Y-131310981D01*
X139779965Y-131310990D01*
X139778271Y-131315080D01*
X139767773Y-131330792D01*
X139766649Y-131331916D01*
X139751104Y-131350858D01*
X139739553Y-131372469D01*
X139732440Y-131395918D01*
X139730038Y-131420304D01*
X139732440Y-131444690D01*
X139739553Y-131468139D01*
X139751104Y-131489750D01*
X139766649Y-131508692D01*
X139775740Y-131516931D01*
X139781304Y-131521497D01*
X139784400Y-131525269D01*
X139786699Y-131529571D01*
X139788117Y-131534245D01*
X139789200Y-131545241D01*
X139789200Y-131833959D01*
X139788117Y-131844955D01*
X139786699Y-131849629D01*
X139784400Y-131853930D01*
X139779171Y-131860302D01*
X139765557Y-131880676D01*
X139756180Y-131903315D01*
X139751400Y-131927349D01*
X139751400Y-131951853D01*
X139756181Y-131975886D01*
X139765558Y-131998525D01*
X139779171Y-132018898D01*
X139784400Y-132025270D01*
X139786699Y-132029571D01*
X139788117Y-132034245D01*
X139789200Y-132045241D01*
X139789200Y-132333959D01*
X139788117Y-132344955D01*
X139786699Y-132349629D01*
X139784400Y-132353930D01*
X139779171Y-132360302D01*
X139765557Y-132380676D01*
X139756180Y-132403315D01*
X139751400Y-132427349D01*
X139751400Y-132451853D01*
X139756181Y-132475886D01*
X139765558Y-132498525D01*
X139779171Y-132518898D01*
X139784400Y-132525270D01*
X139786699Y-132529571D01*
X139788117Y-132534245D01*
X139789200Y-132545241D01*
X139789200Y-132833959D01*
X139788117Y-132844955D01*
X139786699Y-132849629D01*
X139784400Y-132853930D01*
X139779171Y-132860302D01*
X139765557Y-132880676D01*
X139756180Y-132903315D01*
X139751400Y-132927349D01*
X139751400Y-132951853D01*
X139756181Y-132975886D01*
X139765558Y-132998525D01*
X139779171Y-133018898D01*
X139784400Y-133025270D01*
X139786699Y-133029571D01*
X139788117Y-133034245D01*
X139789200Y-133045241D01*
X139789200Y-133333959D01*
X139788117Y-133344955D01*
X139786699Y-133349629D01*
X139784400Y-133353930D01*
X139779171Y-133360302D01*
X139765557Y-133380676D01*
X139756180Y-133403315D01*
X139751400Y-133427349D01*
X139751400Y-133451853D01*
X139756181Y-133475886D01*
X139765558Y-133498525D01*
X139779171Y-133518898D01*
X139784400Y-133525270D01*
X139786699Y-133529571D01*
X139788117Y-133534245D01*
X139789200Y-133545241D01*
X139789200Y-133833959D01*
X139788117Y-133844955D01*
X139786699Y-133849629D01*
X139784400Y-133853931D01*
X139781304Y-133857703D01*
X139775740Y-133862269D01*
X139758413Y-133879596D01*
X139744799Y-133899970D01*
X139735421Y-133922608D01*
X139730640Y-133946642D01*
X139730640Y-133971146D01*
X139735420Y-133995179D01*
X139744797Y-134017818D01*
X139758410Y-134038193D01*
X139766649Y-134047284D01*
X139767773Y-134048408D01*
X139778271Y-134064120D01*
X139779965Y-134068210D01*
X139779970Y-134068219D01*
X139783817Y-134077507D01*
X139783819Y-134077515D01*
X139785514Y-134081606D01*
X139789514Y-134101720D01*
X139790052Y-134112661D01*
X139790052Y-134266539D01*
X139789514Y-134277480D01*
X139785514Y-134297594D01*
X139783819Y-134301685D01*
X139783817Y-134301693D01*
X139779970Y-134310981D01*
X139779965Y-134310990D01*
X139778271Y-134315080D01*
X139767773Y-134330792D01*
X139754392Y-134344173D01*
X139738680Y-134354671D01*
X139734590Y-134356365D01*
X139734581Y-134356370D01*
X139725293Y-134360217D01*
X139725285Y-134360219D01*
X139721194Y-134361914D01*
X139701080Y-134365914D01*
X139690139Y-134366452D01*
X139165051Y-134366452D01*
X139140665Y-134368854D01*
X139117216Y-134375967D01*
X139095605Y-134387518D01*
X139076663Y-134403063D01*
X139061118Y-134422005D01*
X139049567Y-134443616D01*
X139042454Y-134467065D01*
X139040052Y-134491451D01*
X139040052Y-135016539D01*
X139039514Y-135027480D01*
X139035514Y-135047594D01*
X139033819Y-135051685D01*
X139033817Y-135051693D01*
X139029970Y-135060981D01*
X139029965Y-135060990D01*
X139028271Y-135065080D01*
X139017773Y-135080792D01*
X139004392Y-135094173D01*
X138988680Y-135104671D01*
X138984590Y-135106365D01*
X138984581Y-135106370D01*
X138975293Y-135110217D01*
X138975285Y-135110219D01*
X138971194Y-135111914D01*
X138951080Y-135115914D01*
X138940139Y-135116452D01*
X138786261Y-135116452D01*
X138775320Y-135115914D01*
X138755206Y-135111914D01*
X138751115Y-135110219D01*
X138751107Y-135110217D01*
X138741819Y-135106370D01*
X138741810Y-135106365D01*
X138737720Y-135104671D01*
X138722008Y-135094173D01*
X138720884Y-135093049D01*
X138701942Y-135077504D01*
X138680331Y-135065953D01*
X138656882Y-135058840D01*
X138632496Y-135056438D01*
X138608110Y-135058840D01*
X138584661Y-135065953D01*
X138563050Y-135077504D01*
X138544108Y-135093049D01*
X138535869Y-135102140D01*
X138531303Y-135107704D01*
X138527531Y-135110800D01*
X138523229Y-135113099D01*
X138518555Y-135114517D01*
X138507559Y-135115600D01*
X138218841Y-135115600D01*
X138207845Y-135114517D01*
X138203171Y-135113099D01*
X138198870Y-135110800D01*
X138192498Y-135105571D01*
X138172124Y-135091957D01*
X138149485Y-135082580D01*
X138125451Y-135077800D01*
X138100947Y-135077800D01*
X138076914Y-135082581D01*
X138054275Y-135091958D01*
X138033902Y-135105571D01*
X138027530Y-135110800D01*
X138023229Y-135113099D01*
X138018555Y-135114517D01*
X138007559Y-135115600D01*
X137718841Y-135115600D01*
X137707845Y-135114517D01*
X137703171Y-135113099D01*
X137698870Y-135110800D01*
X137692498Y-135105571D01*
X137672124Y-135091957D01*
X137649485Y-135082580D01*
X137625451Y-135077800D01*
X137600947Y-135077800D01*
X137576914Y-135082581D01*
X137554275Y-135091958D01*
X137533902Y-135105571D01*
X137527530Y-135110800D01*
X137523229Y-135113099D01*
X137518555Y-135114517D01*
X137507559Y-135115600D01*
X137218841Y-135115600D01*
X137207845Y-135114517D01*
X137203171Y-135113099D01*
X137198870Y-135110800D01*
X137192498Y-135105571D01*
X137172124Y-135091957D01*
X137149485Y-135082580D01*
X137125451Y-135077800D01*
X137100947Y-135077800D01*
X137076914Y-135082581D01*
X137054275Y-135091958D01*
X137033902Y-135105571D01*
X137027530Y-135110800D01*
X137023229Y-135113099D01*
X137018555Y-135114517D01*
X137007559Y-135115600D01*
X136718841Y-135115600D01*
X136707845Y-135114517D01*
X136703171Y-135113099D01*
X136698870Y-135110800D01*
X136692498Y-135105571D01*
X136672124Y-135091957D01*
X136649485Y-135082580D01*
X136625451Y-135077800D01*
X136600947Y-135077800D01*
X136576914Y-135082581D01*
X136554275Y-135091958D01*
X136533902Y-135105571D01*
X136527530Y-135110800D01*
X136523229Y-135113099D01*
X136518555Y-135114517D01*
X136507559Y-135115600D01*
X136218841Y-135115600D01*
X136207845Y-135114517D01*
X136203171Y-135113099D01*
X136198869Y-135110800D01*
X136195097Y-135107704D01*
X136190531Y-135102140D01*
X136173204Y-135084813D01*
X136152830Y-135071199D01*
X136130192Y-135061821D01*
X136106158Y-135057040D01*
X136081654Y-135057040D01*
X136057621Y-135061820D01*
X136034982Y-135071197D01*
X136014607Y-135084810D01*
X136005516Y-135093049D01*
X136004392Y-135094173D01*
X135988680Y-135104671D01*
X135984590Y-135106365D01*
X135984581Y-135106370D01*
X135975293Y-135110217D01*
X135975285Y-135110219D01*
X135971194Y-135111914D01*
X135951080Y-135115914D01*
X135940139Y-135116452D01*
X135786261Y-135116452D01*
X135775320Y-135115914D01*
X135755206Y-135111914D01*
X135751115Y-135110219D01*
X135751107Y-135110217D01*
X135741819Y-135106370D01*
X135741810Y-135106365D01*
X135737720Y-135104671D01*
X135722008Y-135094173D01*
X135708627Y-135080792D01*
X135698129Y-135065080D01*
X135696435Y-135060990D01*
X135696430Y-135060981D01*
X135692583Y-135051693D01*
X135692581Y-135051685D01*
X135690886Y-135047594D01*
X135686886Y-135027480D01*
X135686348Y-135016539D01*
X135686348Y-134491451D01*
X135683946Y-134467065D01*
X135676833Y-134443616D01*
X135665282Y-134422005D01*
X135649737Y-134403063D01*
X135630795Y-134387518D01*
X135609184Y-134375967D01*
X135585735Y-134368854D01*
X135561349Y-134366452D01*
X135036261Y-134366452D01*
X135025320Y-134365914D01*
X135005206Y-134361914D01*
X135001115Y-134360219D01*
X135001107Y-134360217D01*
X134991819Y-134356370D01*
X134991810Y-134356365D01*
X134987720Y-134354671D01*
X134972008Y-134344173D01*
X134958627Y-134330792D01*
X134948129Y-134315080D01*
X134946435Y-134310990D01*
X134946430Y-134310981D01*
X134942583Y-134301693D01*
X134942581Y-134301685D01*
X134940886Y-134297594D01*
X134936886Y-134277480D01*
X134936348Y-134266539D01*
X134936348Y-134112661D01*
X134936886Y-134101720D01*
X134940886Y-134081606D01*
X134942581Y-134077515D01*
X134942583Y-134077507D01*
X134946430Y-134068219D01*
X134946435Y-134068210D01*
X134948129Y-134064120D01*
X134958627Y-134048408D01*
X134959751Y-134047284D01*
X134975296Y-134028342D01*
X134986847Y-134006731D01*
X134993960Y-133983282D01*
X134996362Y-133958896D01*
X134993960Y-133934510D01*
X134986847Y-133911061D01*
X134975296Y-133889450D01*
X134959751Y-133870508D01*
X134950660Y-133862269D01*
X134945096Y-133857703D01*
X134942000Y-133853931D01*
X134939701Y-133849629D01*
X134938283Y-133844955D01*
X134937200Y-133833959D01*
X134937200Y-133545241D01*
X134938283Y-133534245D01*
X134939701Y-133529571D01*
X134942000Y-133525270D01*
X134947229Y-133518898D01*
X134960843Y-133498524D01*
X134970220Y-133475885D01*
X134975000Y-133451851D01*
X134975000Y-133427347D01*
X134970219Y-133403314D01*
X134960842Y-133380675D01*
X134947229Y-133360302D01*
X134942000Y-133353930D01*
X134939701Y-133349629D01*
X134938283Y-133344955D01*
X134937200Y-133333959D01*
X134937200Y-133045241D01*
X134938283Y-133034245D01*
X134939701Y-133029571D01*
X134942000Y-133025270D01*
X134947229Y-133018898D01*
X134960843Y-132998524D01*
X134970220Y-132975885D01*
X134975000Y-132951851D01*
X134975000Y-132927347D01*
X134970219Y-132903314D01*
X134960842Y-132880675D01*
X134947229Y-132860302D01*
X134942000Y-132853930D01*
X134939701Y-132849629D01*
X134938283Y-132844955D01*
X134937200Y-132833959D01*
X134937200Y-132545241D01*
X134938283Y-132534245D01*
X134939701Y-132529571D01*
X134942000Y-132525270D01*
X134947229Y-132518898D01*
X134960843Y-132498524D01*
X134970220Y-132475885D01*
X134975000Y-132451851D01*
X134975000Y-132427347D01*
X134970219Y-132403314D01*
X134960842Y-132380675D01*
X134947229Y-132360302D01*
X134942000Y-132353930D01*
X134939701Y-132349629D01*
X134938283Y-132344955D01*
X134937200Y-132333959D01*
X134937200Y-132045241D01*
X134938283Y-132034245D01*
X134939701Y-132029571D01*
X134942000Y-132025270D01*
X134947229Y-132018898D01*
X134960843Y-131998524D01*
X134970220Y-131975885D01*
X134975000Y-131951851D01*
X134975000Y-131927347D01*
X134970219Y-131903314D01*
X134960842Y-131880675D01*
X134947229Y-131860302D01*
X134942000Y-131853930D01*
X134939701Y-131849629D01*
X134938283Y-131844955D01*
X134937200Y-131833959D01*
X134937200Y-131545241D01*
X134938283Y-131534245D01*
X134939701Y-131529571D01*
X134942000Y-131525269D01*
X134945096Y-131521497D01*
X134950660Y-131516931D01*
X134967987Y-131499604D01*
X134981601Y-131479230D01*
X134990979Y-131456592D01*
X134995760Y-131432558D01*
X134995760Y-131408054D01*
X134991892Y-131388604D01*
X135759482Y-131388604D01*
X135761884Y-131412990D01*
X135768998Y-131436439D01*
X135780550Y-131458049D01*
X135796096Y-131476991D01*
X135815038Y-131492536D01*
X135836649Y-131504086D01*
X135860098Y-131511199D01*
X135876465Y-131512811D01*
X135876447Y-131512998D01*
X135893555Y-131514683D01*
X135898229Y-131516101D01*
X135902531Y-131518400D01*
X135906304Y-131521496D01*
X135909400Y-131525269D01*
X135911699Y-131529571D01*
X135913117Y-131534245D01*
X135914200Y-131545241D01*
X135914200Y-131833959D01*
X135913117Y-131844955D01*
X135911699Y-131849629D01*
X135909400Y-131853930D01*
X135904171Y-131860302D01*
X135890557Y-131880676D01*
X135881180Y-131903315D01*
X135876400Y-131927349D01*
X135876400Y-131951853D01*
X135881181Y-131975886D01*
X135890558Y-131998525D01*
X135904171Y-132018898D01*
X135909400Y-132025270D01*
X135911699Y-132029571D01*
X135913117Y-132034245D01*
X135914200Y-132045241D01*
X135914200Y-132333959D01*
X135913117Y-132344955D01*
X135911699Y-132349629D01*
X135909400Y-132353930D01*
X135904171Y-132360302D01*
X135890557Y-132380676D01*
X135881180Y-132403315D01*
X135876400Y-132427349D01*
X135876400Y-132451853D01*
X135881181Y-132475886D01*
X135890558Y-132498525D01*
X135904171Y-132518898D01*
X135909400Y-132525270D01*
X135911699Y-132529571D01*
X135913117Y-132534245D01*
X135914200Y-132545241D01*
X135914200Y-132833959D01*
X135913117Y-132844955D01*
X135911699Y-132849629D01*
X135909400Y-132853930D01*
X135904171Y-132860302D01*
X135890557Y-132880676D01*
X135881180Y-132903315D01*
X135876400Y-132927349D01*
X135876400Y-132951853D01*
X135881181Y-132975886D01*
X135890558Y-132998525D01*
X135904171Y-133018898D01*
X135909400Y-133025270D01*
X135911699Y-133029571D01*
X135913117Y-133034245D01*
X135914200Y-133045241D01*
X135914200Y-133333959D01*
X135913117Y-133344955D01*
X135911699Y-133349629D01*
X135909400Y-133353930D01*
X135904171Y-133360302D01*
X135890557Y-133380676D01*
X135881180Y-133403315D01*
X135876400Y-133427349D01*
X135876400Y-133451853D01*
X135881181Y-133475886D01*
X135890558Y-133498525D01*
X135904171Y-133518898D01*
X135909400Y-133525270D01*
X135911699Y-133529571D01*
X135913117Y-133534245D01*
X135914200Y-133545241D01*
X135914200Y-133833959D01*
X135913117Y-133844955D01*
X135911699Y-133849629D01*
X135909400Y-133853931D01*
X135906304Y-133857704D01*
X135902531Y-133860800D01*
X135898229Y-133863099D01*
X135893555Y-133864517D01*
X135876447Y-133866202D01*
X135876465Y-133866390D01*
X135860095Y-133868002D01*
X135836646Y-133875115D01*
X135815035Y-133886666D01*
X135796093Y-133902211D01*
X135780548Y-133921153D01*
X135768997Y-133942764D01*
X135761884Y-133966213D01*
X135759482Y-133990599D01*
X135761884Y-134014985D01*
X135768997Y-134038434D01*
X135780546Y-134060042D01*
X135783272Y-134064122D01*
X135784966Y-134068211D01*
X135784970Y-134068219D01*
X135788817Y-134077507D01*
X135788819Y-134077515D01*
X135790514Y-134081606D01*
X135794514Y-134101720D01*
X135795052Y-134112661D01*
X135795052Y-134132749D01*
X135797454Y-134157135D01*
X135804567Y-134180584D01*
X135816118Y-134202195D01*
X135831663Y-134221137D01*
X135850605Y-134236682D01*
X135872216Y-134248233D01*
X135895665Y-134255346D01*
X135920051Y-134257748D01*
X135940139Y-134257748D01*
X135951080Y-134258286D01*
X135971194Y-134262286D01*
X135975285Y-134263981D01*
X135975293Y-134263983D01*
X135984581Y-134267830D01*
X135984589Y-134267834D01*
X135988678Y-134269528D01*
X135992758Y-134272254D01*
X136014369Y-134283804D01*
X136037818Y-134290917D01*
X136062204Y-134293318D01*
X136086590Y-134290916D01*
X136110039Y-134283802D01*
X136131649Y-134272250D01*
X136150591Y-134256704D01*
X136166136Y-134237762D01*
X136177686Y-134216151D01*
X136184799Y-134192702D01*
X136186411Y-134176335D01*
X136186598Y-134176353D01*
X136188283Y-134159245D01*
X136189701Y-134154571D01*
X136192000Y-134150269D01*
X136195096Y-134146496D01*
X136198869Y-134143400D01*
X136203171Y-134141101D01*
X136207845Y-134139683D01*
X136218841Y-134138600D01*
X136507559Y-134138600D01*
X136518555Y-134139683D01*
X136523229Y-134141101D01*
X136527530Y-134143400D01*
X136533902Y-134148629D01*
X136554276Y-134162243D01*
X136576915Y-134171620D01*
X136600949Y-134176400D01*
X136625453Y-134176400D01*
X136649486Y-134171619D01*
X136672125Y-134162242D01*
X136692498Y-134148629D01*
X136698870Y-134143400D01*
X136703171Y-134141101D01*
X136707845Y-134139683D01*
X136718841Y-134138600D01*
X137007559Y-134138600D01*
X137018555Y-134139683D01*
X137023229Y-134141101D01*
X137027530Y-134143400D01*
X137033902Y-134148629D01*
X137054276Y-134162243D01*
X137076915Y-134171620D01*
X137100949Y-134176400D01*
X137125453Y-134176400D01*
X137149486Y-134171619D01*
X137172125Y-134162242D01*
X137192498Y-134148629D01*
X137198870Y-134143400D01*
X137203171Y-134141101D01*
X137207845Y-134139683D01*
X137218841Y-134138600D01*
X137507559Y-134138600D01*
X137518555Y-134139683D01*
X137523229Y-134141101D01*
X137527530Y-134143400D01*
X137533902Y-134148629D01*
X137554276Y-134162243D01*
X137576915Y-134171620D01*
X137600949Y-134176400D01*
X137625453Y-134176400D01*
X137649486Y-134171619D01*
X137672125Y-134162242D01*
X137692498Y-134148629D01*
X137698870Y-134143400D01*
X137703171Y-134141101D01*
X137707845Y-134139683D01*
X137718841Y-134138600D01*
X138007559Y-134138600D01*
X138018555Y-134139683D01*
X138023229Y-134141101D01*
X138027530Y-134143400D01*
X138033902Y-134148629D01*
X138054276Y-134162243D01*
X138076915Y-134171620D01*
X138100949Y-134176400D01*
X138125453Y-134176400D01*
X138149486Y-134171619D01*
X138172125Y-134162242D01*
X138192498Y-134148629D01*
X138198870Y-134143400D01*
X138203171Y-134141101D01*
X138207845Y-134139683D01*
X138218841Y-134138600D01*
X138507559Y-134138600D01*
X138518555Y-134139683D01*
X138523229Y-134141101D01*
X138527531Y-134143400D01*
X138531304Y-134146496D01*
X138534400Y-134150269D01*
X138536699Y-134154571D01*
X138538117Y-134159245D01*
X138539802Y-134176353D01*
X138539990Y-134176335D01*
X138541602Y-134192705D01*
X138548715Y-134216154D01*
X138560266Y-134237765D01*
X138575811Y-134256707D01*
X138594753Y-134272252D01*
X138616364Y-134283803D01*
X138639813Y-134290916D01*
X138664199Y-134293318D01*
X138688585Y-134290916D01*
X138712034Y-134283803D01*
X138733642Y-134272254D01*
X138737722Y-134269528D01*
X138741811Y-134267834D01*
X138741819Y-134267830D01*
X138751107Y-134263983D01*
X138751115Y-134263981D01*
X138755206Y-134262286D01*
X138775320Y-134258286D01*
X138786261Y-134257748D01*
X138806349Y-134257748D01*
X138830735Y-134255346D01*
X138854184Y-134248233D01*
X138875795Y-134236682D01*
X138894737Y-134221137D01*
X138910282Y-134202195D01*
X138921833Y-134180584D01*
X138928946Y-134157135D01*
X138931348Y-134132749D01*
X138931348Y-134112661D01*
X138931886Y-134101720D01*
X138935886Y-134081606D01*
X138937581Y-134077515D01*
X138937583Y-134077507D01*
X138941430Y-134068219D01*
X138941434Y-134068211D01*
X138943128Y-134064122D01*
X138945854Y-134060042D01*
X138957404Y-134038431D01*
X138964517Y-134014982D01*
X138966918Y-133990596D01*
X138964516Y-133966210D01*
X138957402Y-133942761D01*
X138945850Y-133921151D01*
X138930304Y-133902209D01*
X138911362Y-133886664D01*
X138889751Y-133875114D01*
X138866302Y-133868001D01*
X138849935Y-133866389D01*
X138849953Y-133866202D01*
X138832845Y-133864517D01*
X138828171Y-133863099D01*
X138823869Y-133860800D01*
X138820096Y-133857704D01*
X138817000Y-133853931D01*
X138814701Y-133849629D01*
X138813283Y-133844955D01*
X138812200Y-133833959D01*
X138812200Y-133545241D01*
X138813283Y-133534245D01*
X138814701Y-133529571D01*
X138817000Y-133525270D01*
X138822229Y-133518898D01*
X138835843Y-133498524D01*
X138845220Y-133475885D01*
X138850000Y-133451851D01*
X138850000Y-133427347D01*
X138845219Y-133403314D01*
X138835842Y-133380675D01*
X138822229Y-133360302D01*
X138817000Y-133353930D01*
X138814701Y-133349629D01*
X138813283Y-133344955D01*
X138812200Y-133333959D01*
X138812200Y-133045241D01*
X138813283Y-133034245D01*
X138814701Y-133029571D01*
X138817000Y-133025270D01*
X138822229Y-133018898D01*
X138835843Y-132998524D01*
X138845220Y-132975885D01*
X138850000Y-132951851D01*
X138850000Y-132927347D01*
X138845219Y-132903314D01*
X138835842Y-132880675D01*
X138822229Y-132860302D01*
X138817000Y-132853930D01*
X138814701Y-132849629D01*
X138813283Y-132844955D01*
X138812200Y-132833959D01*
X138812200Y-132545241D01*
X138813283Y-132534245D01*
X138814701Y-132529571D01*
X138817000Y-132525270D01*
X138822229Y-132518898D01*
X138835843Y-132498524D01*
X138845220Y-132475885D01*
X138850000Y-132451851D01*
X138850000Y-132427347D01*
X138845219Y-132403314D01*
X138835842Y-132380675D01*
X138822229Y-132360302D01*
X138817000Y-132353930D01*
X138814701Y-132349629D01*
X138813283Y-132344955D01*
X138812200Y-132333959D01*
X138812200Y-132045241D01*
X138813283Y-132034245D01*
X138814701Y-132029571D01*
X138817000Y-132025270D01*
X138822229Y-132018898D01*
X138835843Y-131998524D01*
X138845220Y-131975885D01*
X138850000Y-131951851D01*
X138850000Y-131927347D01*
X138845219Y-131903314D01*
X138835842Y-131880675D01*
X138822229Y-131860302D01*
X138817000Y-131853930D01*
X138814701Y-131849629D01*
X138813283Y-131844955D01*
X138812200Y-131833959D01*
X138812200Y-131545241D01*
X138813283Y-131534245D01*
X138814701Y-131529571D01*
X138817000Y-131525269D01*
X138820096Y-131521496D01*
X138823869Y-131518400D01*
X138828171Y-131516101D01*
X138832845Y-131514683D01*
X138849953Y-131512998D01*
X138849935Y-131512810D01*
X138866305Y-131511198D01*
X138889754Y-131504085D01*
X138911365Y-131492534D01*
X138930307Y-131476989D01*
X138945852Y-131458047D01*
X138957403Y-131436436D01*
X138964516Y-131412987D01*
X138966918Y-131388601D01*
X138964516Y-131364215D01*
X138957403Y-131340766D01*
X138945854Y-131319158D01*
X138943128Y-131315078D01*
X138941434Y-131310989D01*
X138941430Y-131310981D01*
X138937583Y-131301693D01*
X138937581Y-131301685D01*
X138935886Y-131297594D01*
X138931886Y-131277480D01*
X138931348Y-131266539D01*
X138931348Y-131246451D01*
X138928946Y-131222065D01*
X138921833Y-131198616D01*
X138910282Y-131177005D01*
X138894737Y-131158063D01*
X138875795Y-131142518D01*
X138854184Y-131130967D01*
X138830735Y-131123854D01*
X138806349Y-131121452D01*
X138786261Y-131121452D01*
X138775320Y-131120914D01*
X138755206Y-131116914D01*
X138751115Y-131115219D01*
X138751107Y-131115217D01*
X138741819Y-131111370D01*
X138741811Y-131111366D01*
X138737722Y-131109672D01*
X138733642Y-131106946D01*
X138712031Y-131095396D01*
X138688582Y-131088283D01*
X138664196Y-131085882D01*
X138639810Y-131088284D01*
X138616361Y-131095398D01*
X138594751Y-131106950D01*
X138575809Y-131122496D01*
X138560264Y-131141438D01*
X138548714Y-131163049D01*
X138541601Y-131186498D01*
X138539989Y-131202865D01*
X138539802Y-131202847D01*
X138538117Y-131219955D01*
X138536699Y-131224629D01*
X138534400Y-131228931D01*
X138531304Y-131232704D01*
X138527531Y-131235800D01*
X138523229Y-131238099D01*
X138518555Y-131239517D01*
X138507559Y-131240600D01*
X138218841Y-131240600D01*
X138207845Y-131239517D01*
X138203171Y-131238099D01*
X138198870Y-131235800D01*
X138192498Y-131230571D01*
X138172124Y-131216957D01*
X138149485Y-131207580D01*
X138125451Y-131202800D01*
X138100947Y-131202800D01*
X138076914Y-131207581D01*
X138054275Y-131216958D01*
X138033902Y-131230571D01*
X138027530Y-131235800D01*
X138023229Y-131238099D01*
X138018555Y-131239517D01*
X138007559Y-131240600D01*
X137718841Y-131240600D01*
X137707845Y-131239517D01*
X137703171Y-131238099D01*
X137698870Y-131235800D01*
X137692498Y-131230571D01*
X137672124Y-131216957D01*
X137649485Y-131207580D01*
X137625451Y-131202800D01*
X137600947Y-131202800D01*
X137576914Y-131207581D01*
X137554275Y-131216958D01*
X137533902Y-131230571D01*
X137527530Y-131235800D01*
X137523229Y-131238099D01*
X137518555Y-131239517D01*
X137507559Y-131240600D01*
X137218841Y-131240600D01*
X137207845Y-131239517D01*
X137203171Y-131238099D01*
X137198870Y-131235800D01*
X137192498Y-131230571D01*
X137172124Y-131216957D01*
X137149485Y-131207580D01*
X137125451Y-131202800D01*
X137100947Y-131202800D01*
X137076914Y-131207581D01*
X137054275Y-131216958D01*
X137033902Y-131230571D01*
X137027530Y-131235800D01*
X137023229Y-131238099D01*
X137018555Y-131239517D01*
X137007559Y-131240600D01*
X136718841Y-131240600D01*
X136707845Y-131239517D01*
X136703171Y-131238099D01*
X136698870Y-131235800D01*
X136692498Y-131230571D01*
X136672124Y-131216957D01*
X136649485Y-131207580D01*
X136625451Y-131202800D01*
X136600947Y-131202800D01*
X136576914Y-131207581D01*
X136554275Y-131216958D01*
X136533902Y-131230571D01*
X136527530Y-131235800D01*
X136523229Y-131238099D01*
X136518555Y-131239517D01*
X136507559Y-131240600D01*
X136218841Y-131240600D01*
X136207845Y-131239517D01*
X136203171Y-131238099D01*
X136198869Y-131235800D01*
X136195096Y-131232704D01*
X136192000Y-131228931D01*
X136189701Y-131224629D01*
X136188283Y-131219955D01*
X136186598Y-131202847D01*
X136186410Y-131202865D01*
X136184798Y-131186495D01*
X136177685Y-131163046D01*
X136166134Y-131141435D01*
X136150589Y-131122493D01*
X136131647Y-131106948D01*
X136110036Y-131095397D01*
X136086587Y-131088284D01*
X136062201Y-131085882D01*
X136037815Y-131088284D01*
X136014366Y-131095397D01*
X135992758Y-131106946D01*
X135988678Y-131109672D01*
X135984589Y-131111366D01*
X135984581Y-131111370D01*
X135975293Y-131115217D01*
X135975285Y-131115219D01*
X135971194Y-131116914D01*
X135951080Y-131120914D01*
X135940139Y-131121452D01*
X135920051Y-131121452D01*
X135895665Y-131123854D01*
X135872216Y-131130967D01*
X135850605Y-131142518D01*
X135831663Y-131158063D01*
X135816118Y-131177005D01*
X135804567Y-131198616D01*
X135797454Y-131222065D01*
X135795052Y-131246451D01*
X135795052Y-131266539D01*
X135794514Y-131277480D01*
X135790514Y-131297594D01*
X135788819Y-131301685D01*
X135788817Y-131301693D01*
X135784970Y-131310981D01*
X135784966Y-131310989D01*
X135783272Y-131315078D01*
X135780546Y-131319158D01*
X135768996Y-131340769D01*
X135761883Y-131364218D01*
X135759482Y-131388604D01*
X134991892Y-131388604D01*
X134990980Y-131384021D01*
X134981603Y-131361382D01*
X134967990Y-131341007D01*
X134959751Y-131331916D01*
X134958627Y-131330792D01*
X134948129Y-131315080D01*
X134946435Y-131310990D01*
X134946430Y-131310981D01*
X134942583Y-131301693D01*
X134942581Y-131301685D01*
X134940886Y-131297594D01*
X134936886Y-131277480D01*
X134936348Y-131266539D01*
X134936348Y-131112661D01*
X134936886Y-131101720D01*
X134940886Y-131081606D01*
X134942581Y-131077515D01*
X134942583Y-131077507D01*
X134946430Y-131068219D01*
X134946435Y-131068210D01*
X134948129Y-131064120D01*
X134958627Y-131048408D01*
X134972008Y-131035027D01*
X134987720Y-131024529D01*
X134991810Y-131022835D01*
X134991819Y-131022830D01*
X135001107Y-131018983D01*
X135001115Y-131018981D01*
X135005206Y-131017286D01*
X135025320Y-131013286D01*
X135036261Y-131012748D01*
X135561349Y-131012748D01*
X135585735Y-131010346D01*
X135609184Y-131003233D01*
X135630795Y-130991682D01*
X135649737Y-130976137D01*
X135665282Y-130957195D01*
X135676833Y-130935584D01*
X135683946Y-130912135D01*
X135686348Y-130887749D01*
X135686348Y-130362661D01*
X135686886Y-130351720D01*
X135690886Y-130331606D01*
X135692581Y-130327515D01*
X135692583Y-130327507D01*
X135696430Y-130318219D01*
X135696435Y-130318210D01*
X135698129Y-130314120D01*
X135708627Y-130298408D01*
X135722008Y-130285027D01*
X135737720Y-130274529D01*
X135741810Y-130272835D01*
X135741819Y-130272830D01*
X135751107Y-130268983D01*
X135751115Y-130268981D01*
X135755206Y-130267286D01*
X135775320Y-130263286D01*
X135786261Y-130262748D01*
X135940139Y-130262748D01*
X135951080Y-130263286D01*
X135951080Y-130263286D01*
G37*
G36*
X149970442Y-132455518D02*
G01*
X150036627Y-132462037D01*
X150206466Y-132513557D01*
X150206468Y-132513558D01*
X150209710Y-132515291D01*
X150362991Y-132597222D01*
X150398729Y-132626552D01*
X150500186Y-132709814D01*
X150569905Y-132794768D01*
X150612778Y-132847009D01*
X150696443Y-133003534D01*
X150747963Y-133173373D01*
X150765359Y-133350000D01*
X150747963Y-133526627D01*
X150696443Y-133696466D01*
X150612778Y-133852991D01*
X150598402Y-133870508D01*
X150500186Y-133990186D01*
X150415065Y-134060042D01*
X150362991Y-134102778D01*
X150362989Y-134102779D01*
X150257350Y-134159245D01*
X150206466Y-134186443D01*
X150036627Y-134237963D01*
X149970443Y-134244481D01*
X149904260Y-134251000D01*
X149815740Y-134251000D01*
X149749557Y-134244481D01*
X149683373Y-134237963D01*
X149513534Y-134186443D01*
X149462651Y-134159245D01*
X149357011Y-134102779D01*
X149357009Y-134102778D01*
X149304935Y-134060042D01*
X149219814Y-133990186D01*
X149121598Y-133870508D01*
X149107222Y-133852991D01*
X149023557Y-133696466D01*
X148972037Y-133526627D01*
X148954641Y-133350000D01*
X148972037Y-133173373D01*
X149023557Y-133003534D01*
X149107222Y-132847009D01*
X149150095Y-132794768D01*
X149219814Y-132709814D01*
X149321271Y-132626552D01*
X149357009Y-132597222D01*
X149510290Y-132515291D01*
X149513532Y-132513558D01*
X149513534Y-132513557D01*
X149683373Y-132462037D01*
X149749558Y-132455518D01*
X149815740Y-132449000D01*
X149904260Y-132449000D01*
X149970442Y-132455518D01*
X149970442Y-132455518D01*
G37*
G36*
X127110442Y-132455518D02*
G01*
X127176627Y-132462037D01*
X127346466Y-132513557D01*
X127346468Y-132513558D01*
X127349710Y-132515291D01*
X127502991Y-132597222D01*
X127538729Y-132626552D01*
X127640186Y-132709814D01*
X127709905Y-132794768D01*
X127752778Y-132847009D01*
X127836443Y-133003534D01*
X127887963Y-133173373D01*
X127905359Y-133350000D01*
X127887963Y-133526627D01*
X127836443Y-133696466D01*
X127752778Y-133852991D01*
X127738402Y-133870508D01*
X127640186Y-133990186D01*
X127555065Y-134060042D01*
X127502991Y-134102778D01*
X127502989Y-134102779D01*
X127397350Y-134159245D01*
X127346466Y-134186443D01*
X127176627Y-134237963D01*
X127110443Y-134244481D01*
X127044260Y-134251000D01*
X126955740Y-134251000D01*
X126889557Y-134244481D01*
X126823373Y-134237963D01*
X126653534Y-134186443D01*
X126602651Y-134159245D01*
X126497011Y-134102779D01*
X126497009Y-134102778D01*
X126444935Y-134060042D01*
X126359814Y-133990186D01*
X126261598Y-133870508D01*
X126247222Y-133852991D01*
X126163557Y-133696466D01*
X126112037Y-133526627D01*
X126094641Y-133350000D01*
X126112037Y-133173373D01*
X126163557Y-133003534D01*
X126247222Y-132847009D01*
X126290095Y-132794768D01*
X126359814Y-132709814D01*
X126461271Y-132626552D01*
X126497009Y-132597222D01*
X126650290Y-132515291D01*
X126653532Y-132513558D01*
X126653534Y-132513557D01*
X126823373Y-132462037D01*
X126889558Y-132455518D01*
X126955740Y-132449000D01*
X127044260Y-132449000D01*
X127110442Y-132455518D01*
X127110442Y-132455518D01*
G37*
G36*
X142012480Y-131979005D02*
G01*
X142050173Y-131990439D01*
X142084909Y-132009006D01*
X142115354Y-132033992D01*
X142140340Y-132064437D01*
X142158907Y-132099173D01*
X142170341Y-132136866D01*
X142174806Y-132182201D01*
X142174806Y-133268879D01*
X142170341Y-133314214D01*
X142158907Y-133351907D01*
X142140340Y-133386643D01*
X142115354Y-133417088D01*
X142084909Y-133442074D01*
X142050173Y-133460641D01*
X142012480Y-133472075D01*
X141967145Y-133476540D01*
X141130467Y-133476540D01*
X141085132Y-133472075D01*
X141047439Y-133460641D01*
X141012703Y-133442074D01*
X140982258Y-133417088D01*
X140957272Y-133386643D01*
X140938705Y-133351907D01*
X140927271Y-133314214D01*
X140922806Y-133268879D01*
X140922806Y-132182201D01*
X140927271Y-132136866D01*
X140938705Y-132099173D01*
X140957272Y-132064437D01*
X140982258Y-132033992D01*
X141012703Y-132009006D01*
X141047439Y-131990439D01*
X141085132Y-131979005D01*
X141130467Y-131974540D01*
X141967145Y-131974540D01*
X142012480Y-131979005D01*
X142012480Y-131979005D01*
G37*
G36*
X144062480Y-131979005D02*
G01*
X144100173Y-131990439D01*
X144134909Y-132009006D01*
X144165354Y-132033992D01*
X144190340Y-132064437D01*
X144208907Y-132099173D01*
X144220341Y-132136866D01*
X144224806Y-132182201D01*
X144224806Y-133268879D01*
X144220341Y-133314214D01*
X144208907Y-133351907D01*
X144190340Y-133386643D01*
X144165354Y-133417088D01*
X144134909Y-133442074D01*
X144100173Y-133460641D01*
X144062480Y-133472075D01*
X144017145Y-133476540D01*
X143180467Y-133476540D01*
X143135132Y-133472075D01*
X143097439Y-133460641D01*
X143062703Y-133442074D01*
X143032258Y-133417088D01*
X143007272Y-133386643D01*
X142988705Y-133351907D01*
X142977271Y-133314214D01*
X142972806Y-133268879D01*
X142972806Y-132182201D01*
X142977271Y-132136866D01*
X142988705Y-132099173D01*
X143007272Y-132064437D01*
X143032258Y-132033992D01*
X143062703Y-132009006D01*
X143097439Y-131990439D01*
X143135132Y-131979005D01*
X143180467Y-131974540D01*
X144017145Y-131974540D01*
X144062480Y-131979005D01*
X144062480Y-131979005D01*
G37*
G36*
X149970442Y-129915518D02*
G01*
X150036627Y-129922037D01*
X150206466Y-129973557D01*
X150362991Y-130057222D01*
X150370643Y-130063502D01*
X150500186Y-130169814D01*
X150579470Y-130266423D01*
X150612778Y-130307009D01*
X150696443Y-130463534D01*
X150747963Y-130633373D01*
X150765359Y-130810000D01*
X150747963Y-130986627D01*
X150696443Y-131156466D01*
X150696442Y-131156468D01*
X150680509Y-131186276D01*
X150612778Y-131312991D01*
X150589983Y-131340766D01*
X150500186Y-131450186D01*
X150413293Y-131521496D01*
X150362991Y-131562778D01*
X150206466Y-131646443D01*
X150036627Y-131697963D01*
X149970443Y-131704481D01*
X149904260Y-131711000D01*
X149815740Y-131711000D01*
X149749557Y-131704481D01*
X149683373Y-131697963D01*
X149513534Y-131646443D01*
X149357009Y-131562778D01*
X149306707Y-131521496D01*
X149219814Y-131450186D01*
X149130017Y-131340766D01*
X149107222Y-131312991D01*
X149039491Y-131186276D01*
X149023558Y-131156468D01*
X149023557Y-131156466D01*
X148972037Y-130986627D01*
X148954641Y-130810000D01*
X148972037Y-130633373D01*
X149023557Y-130463534D01*
X149107222Y-130307009D01*
X149140530Y-130266423D01*
X149219814Y-130169814D01*
X149349357Y-130063502D01*
X149357009Y-130057222D01*
X149513534Y-129973557D01*
X149683373Y-129922037D01*
X149749558Y-129915518D01*
X149815740Y-129909000D01*
X149904260Y-129909000D01*
X149970442Y-129915518D01*
X149970442Y-129915518D01*
G37*
G36*
X127110442Y-129915518D02*
G01*
X127176627Y-129922037D01*
X127346466Y-129973557D01*
X127502991Y-130057222D01*
X127510643Y-130063502D01*
X127640186Y-130169814D01*
X127719470Y-130266423D01*
X127752778Y-130307009D01*
X127836443Y-130463534D01*
X127887963Y-130633373D01*
X127905359Y-130810000D01*
X127887963Y-130986627D01*
X127836443Y-131156466D01*
X127836442Y-131156468D01*
X127820509Y-131186276D01*
X127752778Y-131312991D01*
X127729983Y-131340766D01*
X127640186Y-131450186D01*
X127553293Y-131521496D01*
X127502991Y-131562778D01*
X127346466Y-131646443D01*
X127176627Y-131697963D01*
X127110443Y-131704481D01*
X127044260Y-131711000D01*
X126955740Y-131711000D01*
X126889557Y-131704481D01*
X126823373Y-131697963D01*
X126653534Y-131646443D01*
X126497009Y-131562778D01*
X126446707Y-131521496D01*
X126359814Y-131450186D01*
X126270017Y-131340766D01*
X126247222Y-131312991D01*
X126179491Y-131186276D01*
X126163558Y-131156468D01*
X126163557Y-131156466D01*
X126112037Y-130986627D01*
X126094641Y-130810000D01*
X126112037Y-130633373D01*
X126163557Y-130463534D01*
X126247222Y-130307009D01*
X126280530Y-130266423D01*
X126359814Y-130169814D01*
X126489357Y-130063502D01*
X126497009Y-130057222D01*
X126653534Y-129973557D01*
X126823373Y-129922037D01*
X126889558Y-129915518D01*
X126955740Y-129909000D01*
X127044260Y-129909000D01*
X127110442Y-129915518D01*
X127110442Y-129915518D01*
G37*
G36*
X144062480Y-129947005D02*
G01*
X144100173Y-129958439D01*
X144134909Y-129977006D01*
X144165354Y-130001992D01*
X144190340Y-130032437D01*
X144208907Y-130067173D01*
X144220341Y-130104866D01*
X144224806Y-130150201D01*
X144224806Y-131236879D01*
X144220341Y-131282214D01*
X144208907Y-131319907D01*
X144190340Y-131354643D01*
X144165354Y-131385088D01*
X144134909Y-131410074D01*
X144100173Y-131428641D01*
X144062480Y-131440075D01*
X144017145Y-131444540D01*
X143180467Y-131444540D01*
X143135132Y-131440075D01*
X143097439Y-131428641D01*
X143062703Y-131410074D01*
X143032258Y-131385088D01*
X143007272Y-131354643D01*
X142988705Y-131319907D01*
X142977271Y-131282214D01*
X142972806Y-131236879D01*
X142972806Y-130150201D01*
X142977271Y-130104866D01*
X142988705Y-130067173D01*
X143007272Y-130032437D01*
X143032258Y-130001992D01*
X143062703Y-129977006D01*
X143097439Y-129958439D01*
X143135132Y-129947005D01*
X143180467Y-129942540D01*
X144017145Y-129942540D01*
X144062480Y-129947005D01*
X144062480Y-129947005D01*
G37*
G36*
X142012480Y-129947005D02*
G01*
X142050173Y-129958439D01*
X142084909Y-129977006D01*
X142115354Y-130001992D01*
X142140340Y-130032437D01*
X142158907Y-130067173D01*
X142170341Y-130104866D01*
X142174806Y-130150201D01*
X142174806Y-131236879D01*
X142170341Y-131282214D01*
X142158907Y-131319907D01*
X142140340Y-131354643D01*
X142115354Y-131385088D01*
X142084909Y-131410074D01*
X142050173Y-131428641D01*
X142012480Y-131440075D01*
X141967145Y-131444540D01*
X141130467Y-131444540D01*
X141085132Y-131440075D01*
X141047439Y-131428641D01*
X141012703Y-131410074D01*
X140982258Y-131385088D01*
X140957272Y-131354643D01*
X140938705Y-131319907D01*
X140927271Y-131282214D01*
X140922806Y-131236879D01*
X140922806Y-130150201D01*
X140927271Y-130104866D01*
X140938705Y-130067173D01*
X140957272Y-130032437D01*
X140982258Y-130001992D01*
X141012703Y-129977006D01*
X141047439Y-129958439D01*
X141085132Y-129947005D01*
X141130467Y-129942540D01*
X141967145Y-129942540D01*
X142012480Y-129947005D01*
X142012480Y-129947005D01*
G37*
G36*
X127110442Y-127375518D02*
G01*
X127176627Y-127382037D01*
X127346466Y-127433557D01*
X127502991Y-127517222D01*
X127538729Y-127546552D01*
X127640186Y-127629814D01*
X127723448Y-127731271D01*
X127752778Y-127767009D01*
X127836443Y-127923534D01*
X127887963Y-128093373D01*
X127905359Y-128270000D01*
X127887963Y-128446627D01*
X127836443Y-128616466D01*
X127752778Y-128772991D01*
X127723448Y-128808729D01*
X127640186Y-128910186D01*
X127538729Y-128993448D01*
X127502991Y-129022778D01*
X127346466Y-129106443D01*
X127176627Y-129157963D01*
X127110442Y-129164482D01*
X127044260Y-129171000D01*
X126955740Y-129171000D01*
X126889558Y-129164482D01*
X126823373Y-129157963D01*
X126653534Y-129106443D01*
X126497009Y-129022778D01*
X126461271Y-128993448D01*
X126359814Y-128910186D01*
X126276552Y-128808729D01*
X126247222Y-128772991D01*
X126163557Y-128616466D01*
X126112037Y-128446627D01*
X126094641Y-128270000D01*
X126112037Y-128093373D01*
X126163557Y-127923534D01*
X126247222Y-127767009D01*
X126276552Y-127731271D01*
X126359814Y-127629814D01*
X126461271Y-127546552D01*
X126497009Y-127517222D01*
X126653534Y-127433557D01*
X126823373Y-127382037D01*
X126889558Y-127375518D01*
X126955740Y-127369000D01*
X127044260Y-127369000D01*
X127110442Y-127375518D01*
X127110442Y-127375518D01*
G37*
G36*
X149970442Y-127375518D02*
G01*
X150036627Y-127382037D01*
X150206466Y-127433557D01*
X150362991Y-127517222D01*
X150398729Y-127546552D01*
X150500186Y-127629814D01*
X150583448Y-127731271D01*
X150612778Y-127767009D01*
X150696443Y-127923534D01*
X150747963Y-128093373D01*
X150765359Y-128270000D01*
X150747963Y-128446627D01*
X150696443Y-128616466D01*
X150612778Y-128772991D01*
X150583448Y-128808729D01*
X150500186Y-128910186D01*
X150398729Y-128993448D01*
X150362991Y-129022778D01*
X150206466Y-129106443D01*
X150036627Y-129157963D01*
X149970442Y-129164482D01*
X149904260Y-129171000D01*
X149815740Y-129171000D01*
X149749558Y-129164482D01*
X149683373Y-129157963D01*
X149513534Y-129106443D01*
X149357009Y-129022778D01*
X149321271Y-128993448D01*
X149219814Y-128910186D01*
X149136552Y-128808729D01*
X149107222Y-128772991D01*
X149023557Y-128616466D01*
X148972037Y-128446627D01*
X148954641Y-128270000D01*
X148972037Y-128093373D01*
X149023557Y-127923534D01*
X149107222Y-127767009D01*
X149136552Y-127731271D01*
X149219814Y-127629814D01*
X149321271Y-127546552D01*
X149357009Y-127517222D01*
X149513534Y-127433557D01*
X149683373Y-127382037D01*
X149749558Y-127375518D01*
X149815740Y-127369000D01*
X149904260Y-127369000D01*
X149970442Y-127375518D01*
X149970442Y-127375518D01*
G37*
G36*
X137682345Y-126844659D02*
G01*
X137720038Y-126856093D01*
X137754774Y-126874660D01*
X137785219Y-126899646D01*
X137810205Y-126930091D01*
X137828772Y-126964827D01*
X137840206Y-127002520D01*
X137844671Y-127047855D01*
X137844671Y-128134533D01*
X137840206Y-128179868D01*
X137828772Y-128217561D01*
X137810205Y-128252297D01*
X137785219Y-128282742D01*
X137754774Y-128307728D01*
X137720038Y-128326295D01*
X137682345Y-128337729D01*
X137637010Y-128342194D01*
X136800332Y-128342194D01*
X136754997Y-128337729D01*
X136717304Y-128326295D01*
X136682568Y-128307728D01*
X136652123Y-128282742D01*
X136627137Y-128252297D01*
X136608570Y-128217561D01*
X136597136Y-128179868D01*
X136592671Y-128134533D01*
X136592671Y-127047855D01*
X136597136Y-127002520D01*
X136608570Y-126964827D01*
X136627137Y-126930091D01*
X136652123Y-126899646D01*
X136682568Y-126874660D01*
X136717304Y-126856093D01*
X136754997Y-126844659D01*
X136800332Y-126840194D01*
X137637010Y-126840194D01*
X137682345Y-126844659D01*
X137682345Y-126844659D01*
G37*
G36*
X135632345Y-126844659D02*
G01*
X135670038Y-126856093D01*
X135704774Y-126874660D01*
X135735219Y-126899646D01*
X135760205Y-126930091D01*
X135778772Y-126964827D01*
X135790206Y-127002520D01*
X135794671Y-127047855D01*
X135794671Y-128134533D01*
X135790206Y-128179868D01*
X135778772Y-128217561D01*
X135760205Y-128252297D01*
X135735219Y-128282742D01*
X135704774Y-128307728D01*
X135670038Y-128326295D01*
X135632345Y-128337729D01*
X135587010Y-128342194D01*
X134750332Y-128342194D01*
X134704997Y-128337729D01*
X134667304Y-128326295D01*
X134632568Y-128307728D01*
X134602123Y-128282742D01*
X134577137Y-128252297D01*
X134558570Y-128217561D01*
X134547136Y-128179868D01*
X134542671Y-128134533D01*
X134542671Y-127047855D01*
X134547136Y-127002520D01*
X134558570Y-126964827D01*
X134577137Y-126930091D01*
X134602123Y-126899646D01*
X134632568Y-126874660D01*
X134667304Y-126856093D01*
X134704997Y-126844659D01*
X134750332Y-126840194D01*
X135587010Y-126840194D01*
X135632345Y-126844659D01*
X135632345Y-126844659D01*
G37*
G36*
X127110443Y-124835519D02*
G01*
X127176627Y-124842037D01*
X127346466Y-124893557D01*
X127502991Y-124977222D01*
X127515701Y-124987653D01*
X127640186Y-125089814D01*
X127723448Y-125191271D01*
X127752778Y-125227009D01*
X127836443Y-125383534D01*
X127887963Y-125553373D01*
X127905359Y-125730000D01*
X127887963Y-125906627D01*
X127836443Y-126076466D01*
X127752778Y-126232991D01*
X127728820Y-126262184D01*
X127640186Y-126370186D01*
X127538729Y-126453448D01*
X127502991Y-126482778D01*
X127346466Y-126566443D01*
X127176627Y-126617963D01*
X127110442Y-126624482D01*
X127044260Y-126631000D01*
X126955740Y-126631000D01*
X126889558Y-126624482D01*
X126823373Y-126617963D01*
X126653534Y-126566443D01*
X126497009Y-126482778D01*
X126461271Y-126453448D01*
X126359814Y-126370186D01*
X126271180Y-126262184D01*
X126247222Y-126232991D01*
X126163557Y-126076466D01*
X126112037Y-125906627D01*
X126094641Y-125730000D01*
X126112037Y-125553373D01*
X126163557Y-125383534D01*
X126247222Y-125227009D01*
X126276552Y-125191271D01*
X126359814Y-125089814D01*
X126484299Y-124987653D01*
X126497009Y-124977222D01*
X126653534Y-124893557D01*
X126823373Y-124842037D01*
X126889557Y-124835519D01*
X126955740Y-124829000D01*
X127044260Y-124829000D01*
X127110443Y-124835519D01*
X127110443Y-124835519D01*
G37*
G36*
X149970443Y-124835519D02*
G01*
X150036627Y-124842037D01*
X150206466Y-124893557D01*
X150362991Y-124977222D01*
X150375701Y-124987653D01*
X150500186Y-125089814D01*
X150583448Y-125191271D01*
X150612778Y-125227009D01*
X150696443Y-125383534D01*
X150747963Y-125553373D01*
X150765359Y-125730000D01*
X150747963Y-125906627D01*
X150696443Y-126076466D01*
X150612778Y-126232991D01*
X150588820Y-126262184D01*
X150500186Y-126370186D01*
X150398729Y-126453448D01*
X150362991Y-126482778D01*
X150206466Y-126566443D01*
X150036627Y-126617963D01*
X149970442Y-126624482D01*
X149904260Y-126631000D01*
X149815740Y-126631000D01*
X149749558Y-126624482D01*
X149683373Y-126617963D01*
X149513534Y-126566443D01*
X149357009Y-126482778D01*
X149321271Y-126453448D01*
X149219814Y-126370186D01*
X149131180Y-126262184D01*
X149107222Y-126232991D01*
X149023557Y-126076466D01*
X148972037Y-125906627D01*
X148954641Y-125730000D01*
X148972037Y-125553373D01*
X149023557Y-125383534D01*
X149107222Y-125227009D01*
X149136552Y-125191271D01*
X149219814Y-125089814D01*
X149344299Y-124987653D01*
X149357009Y-124977222D01*
X149513534Y-124893557D01*
X149683373Y-124842037D01*
X149749557Y-124835519D01*
X149815740Y-124829000D01*
X149904260Y-124829000D01*
X149970443Y-124835519D01*
X149970443Y-124835519D01*
G37*
G36*
X137674615Y-124824101D02*
G01*
X137712308Y-124835535D01*
X137747044Y-124854102D01*
X137777489Y-124879088D01*
X137802475Y-124909533D01*
X137821042Y-124944269D01*
X137832476Y-124981962D01*
X137836941Y-125027297D01*
X137836941Y-126113975D01*
X137832476Y-126159310D01*
X137821042Y-126197003D01*
X137802475Y-126231739D01*
X137777489Y-126262184D01*
X137747044Y-126287170D01*
X137712308Y-126305737D01*
X137674615Y-126317171D01*
X137629280Y-126321636D01*
X136792602Y-126321636D01*
X136747267Y-126317171D01*
X136709574Y-126305737D01*
X136674838Y-126287170D01*
X136644393Y-126262184D01*
X136619407Y-126231739D01*
X136600840Y-126197003D01*
X136589406Y-126159310D01*
X136584941Y-126113975D01*
X136584941Y-125027297D01*
X136589406Y-124981962D01*
X136600840Y-124944269D01*
X136619407Y-124909533D01*
X136644393Y-124879088D01*
X136674838Y-124854102D01*
X136709574Y-124835535D01*
X136747267Y-124824101D01*
X136792602Y-124819636D01*
X137629280Y-124819636D01*
X137674615Y-124824101D01*
X137674615Y-124824101D01*
G37*
G36*
X135624615Y-124824101D02*
G01*
X135662308Y-124835535D01*
X135697044Y-124854102D01*
X135727489Y-124879088D01*
X135752475Y-124909533D01*
X135771042Y-124944269D01*
X135782476Y-124981962D01*
X135786941Y-125027297D01*
X135786941Y-126113975D01*
X135782476Y-126159310D01*
X135771042Y-126197003D01*
X135752475Y-126231739D01*
X135727489Y-126262184D01*
X135697044Y-126287170D01*
X135662308Y-126305737D01*
X135624615Y-126317171D01*
X135579280Y-126321636D01*
X134742602Y-126321636D01*
X134697267Y-126317171D01*
X134659574Y-126305737D01*
X134624838Y-126287170D01*
X134594393Y-126262184D01*
X134569407Y-126231739D01*
X134550840Y-126197003D01*
X134539406Y-126159310D01*
X134534941Y-126113975D01*
X134534941Y-125027297D01*
X134539406Y-124981962D01*
X134550840Y-124944269D01*
X134569407Y-124909533D01*
X134594393Y-124879088D01*
X134624838Y-124854102D01*
X134659574Y-124835535D01*
X134697267Y-124824101D01*
X134742602Y-124819636D01*
X135579280Y-124819636D01*
X135624615Y-124824101D01*
X135624615Y-124824101D01*
G37*
G36*
X127110443Y-122295519D02*
G01*
X127176627Y-122302037D01*
X127346466Y-122353557D01*
X127502991Y-122437222D01*
X127538729Y-122466552D01*
X127640186Y-122549814D01*
X127723448Y-122651271D01*
X127752778Y-122687009D01*
X127836443Y-122843534D01*
X127887963Y-123013373D01*
X127905359Y-123190000D01*
X127887963Y-123366627D01*
X127836443Y-123536466D01*
X127752778Y-123692991D01*
X127723448Y-123728729D01*
X127640186Y-123830186D01*
X127538729Y-123913448D01*
X127502991Y-123942778D01*
X127346466Y-124026443D01*
X127176627Y-124077963D01*
X127110442Y-124084482D01*
X127044260Y-124091000D01*
X126955740Y-124091000D01*
X126889558Y-124084482D01*
X126823373Y-124077963D01*
X126653534Y-124026443D01*
X126497009Y-123942778D01*
X126461271Y-123913448D01*
X126359814Y-123830186D01*
X126276552Y-123728729D01*
X126247222Y-123692991D01*
X126163557Y-123536466D01*
X126112037Y-123366627D01*
X126094641Y-123190000D01*
X126112037Y-123013373D01*
X126163557Y-122843534D01*
X126247222Y-122687009D01*
X126276552Y-122651271D01*
X126359814Y-122549814D01*
X126461271Y-122466552D01*
X126497009Y-122437222D01*
X126653534Y-122353557D01*
X126823373Y-122302037D01*
X126889557Y-122295519D01*
X126955740Y-122289000D01*
X127044260Y-122289000D01*
X127110443Y-122295519D01*
X127110443Y-122295519D01*
G37*
G36*
X149970443Y-122295519D02*
G01*
X150036627Y-122302037D01*
X150206466Y-122353557D01*
X150362991Y-122437222D01*
X150398729Y-122466552D01*
X150500186Y-122549814D01*
X150583448Y-122651271D01*
X150612778Y-122687009D01*
X150696443Y-122843534D01*
X150747963Y-123013373D01*
X150765359Y-123190000D01*
X150747963Y-123366627D01*
X150696443Y-123536466D01*
X150612778Y-123692991D01*
X150583448Y-123728729D01*
X150500186Y-123830186D01*
X150398729Y-123913448D01*
X150362991Y-123942778D01*
X150206466Y-124026443D01*
X150036627Y-124077963D01*
X149970442Y-124084482D01*
X149904260Y-124091000D01*
X149815740Y-124091000D01*
X149749558Y-124084482D01*
X149683373Y-124077963D01*
X149513534Y-124026443D01*
X149357009Y-123942778D01*
X149321271Y-123913448D01*
X149219814Y-123830186D01*
X149136552Y-123728729D01*
X149107222Y-123692991D01*
X149023557Y-123536466D01*
X148972037Y-123366627D01*
X148954641Y-123190000D01*
X148972037Y-123013373D01*
X149023557Y-122843534D01*
X149107222Y-122687009D01*
X149136552Y-122651271D01*
X149219814Y-122549814D01*
X149321271Y-122466552D01*
X149357009Y-122437222D01*
X149513534Y-122353557D01*
X149683373Y-122302037D01*
X149749557Y-122295519D01*
X149815740Y-122289000D01*
X149904260Y-122289000D01*
X149970443Y-122295519D01*
X149970443Y-122295519D01*
G37*
G36*
X139960474Y-122138665D02*
G01*
X139998167Y-122150099D01*
X140032903Y-122168666D01*
X140063348Y-122193652D01*
X140088334Y-122224097D01*
X140106901Y-122258833D01*
X140118335Y-122296526D01*
X140122800Y-122341861D01*
X140122800Y-123428539D01*
X140118335Y-123473874D01*
X140106901Y-123511567D01*
X140088334Y-123546303D01*
X140063348Y-123576748D01*
X140032903Y-123601734D01*
X139998167Y-123620301D01*
X139960474Y-123631735D01*
X139915139Y-123636200D01*
X139078461Y-123636200D01*
X139033126Y-123631735D01*
X138995433Y-123620301D01*
X138960697Y-123601734D01*
X138930252Y-123576748D01*
X138905266Y-123546303D01*
X138886699Y-123511567D01*
X138875265Y-123473874D01*
X138870800Y-123428539D01*
X138870800Y-122341861D01*
X138875265Y-122296526D01*
X138886699Y-122258833D01*
X138905266Y-122224097D01*
X138930252Y-122193652D01*
X138960697Y-122168666D01*
X138995433Y-122150099D01*
X139033126Y-122138665D01*
X139078461Y-122134200D01*
X139915139Y-122134200D01*
X139960474Y-122138665D01*
X139960474Y-122138665D01*
G37*
G36*
X137910474Y-122138665D02*
G01*
X137948167Y-122150099D01*
X137982903Y-122168666D01*
X138013348Y-122193652D01*
X138038334Y-122224097D01*
X138056901Y-122258833D01*
X138068335Y-122296526D01*
X138072800Y-122341861D01*
X138072800Y-123428539D01*
X138068335Y-123473874D01*
X138056901Y-123511567D01*
X138038334Y-123546303D01*
X138013348Y-123576748D01*
X137982903Y-123601734D01*
X137948167Y-123620301D01*
X137910474Y-123631735D01*
X137865139Y-123636200D01*
X137028461Y-123636200D01*
X136983126Y-123631735D01*
X136945433Y-123620301D01*
X136910697Y-123601734D01*
X136880252Y-123576748D01*
X136855266Y-123546303D01*
X136836699Y-123511567D01*
X136825265Y-123473874D01*
X136820800Y-123428539D01*
X136820800Y-122341861D01*
X136825265Y-122296526D01*
X136836699Y-122258833D01*
X136855266Y-122224097D01*
X136880252Y-122193652D01*
X136910697Y-122168666D01*
X136945433Y-122150099D01*
X136983126Y-122138665D01*
X137028461Y-122134200D01*
X137865139Y-122134200D01*
X137910474Y-122138665D01*
X137910474Y-122138665D01*
G37*
G36*
X127901000Y-121551000D02*
G01*
X126099000Y-121551000D01*
X126099000Y-119749000D01*
X127901000Y-119749000D01*
X127901000Y-121551000D01*
X127901000Y-121551000D01*
G37*
G36*
X138104200Y-121550200D02*
G01*
X135902200Y-121550200D01*
X135902200Y-119648200D01*
X138104200Y-119648200D01*
X138104200Y-121550200D01*
X138104200Y-121550200D01*
G37*
G36*
X141004200Y-121550200D02*
G01*
X138802200Y-121550200D01*
X138802200Y-119648200D01*
X141004200Y-119648200D01*
X141004200Y-121550200D01*
X141004200Y-121550200D01*
G37*
G36*
X142828674Y-119783465D02*
G01*
X142866367Y-119794899D01*
X142901103Y-119813466D01*
X142931548Y-119838452D01*
X142956534Y-119868897D01*
X142975101Y-119903633D01*
X142986535Y-119941326D01*
X142991000Y-119986661D01*
X142991000Y-120823339D01*
X142986535Y-120868674D01*
X142975101Y-120906367D01*
X142956534Y-120941103D01*
X142931548Y-120971548D01*
X142901103Y-120996534D01*
X142866367Y-121015101D01*
X142828674Y-121026535D01*
X142783339Y-121031000D01*
X141696661Y-121031000D01*
X141651326Y-121026535D01*
X141613633Y-121015101D01*
X141578897Y-120996534D01*
X141548452Y-120971548D01*
X141523466Y-120941103D01*
X141504899Y-120906367D01*
X141493465Y-120868674D01*
X141489000Y-120823339D01*
X141489000Y-119986661D01*
X141493465Y-119941326D01*
X141504899Y-119903633D01*
X141523466Y-119868897D01*
X141548452Y-119838452D01*
X141578897Y-119813466D01*
X141613633Y-119794899D01*
X141651326Y-119783465D01*
X141696661Y-119779000D01*
X142783339Y-119779000D01*
X142828674Y-119783465D01*
X142828674Y-119783465D01*
G37*
G36*
X135208674Y-119774465D02*
G01*
X135246367Y-119785899D01*
X135281103Y-119804466D01*
X135311548Y-119829452D01*
X135336534Y-119859897D01*
X135355101Y-119894633D01*
X135366535Y-119932326D01*
X135371000Y-119977661D01*
X135371000Y-120814339D01*
X135366535Y-120859674D01*
X135355101Y-120897367D01*
X135336534Y-120932103D01*
X135311548Y-120962548D01*
X135281103Y-120987534D01*
X135246367Y-121006101D01*
X135208674Y-121017535D01*
X135163339Y-121022000D01*
X134076661Y-121022000D01*
X134031326Y-121017535D01*
X133993633Y-121006101D01*
X133958897Y-120987534D01*
X133928452Y-120962548D01*
X133903466Y-120932103D01*
X133884899Y-120897367D01*
X133873465Y-120859674D01*
X133869000Y-120814339D01*
X133869000Y-119977661D01*
X133873465Y-119932326D01*
X133884899Y-119894633D01*
X133903466Y-119859897D01*
X133928452Y-119829452D01*
X133958897Y-119804466D01*
X133993633Y-119785899D01*
X134031326Y-119774465D01*
X134076661Y-119770000D01*
X135163339Y-119770000D01*
X135208674Y-119774465D01*
X135208674Y-119774465D01*
G37*
G36*
X138104200Y-119250200D02*
G01*
X135902200Y-119250200D01*
X135902200Y-117348200D01*
X138104200Y-117348200D01*
X138104200Y-119250200D01*
X138104200Y-119250200D01*
G37*
G36*
X141004200Y-119250200D02*
G01*
X138802200Y-119250200D01*
X138802200Y-117348200D01*
X141004200Y-117348200D01*
X141004200Y-119250200D01*
X141004200Y-119250200D01*
G37*
G36*
X127110443Y-117215519D02*
G01*
X127176627Y-117222037D01*
X127346466Y-117273557D01*
X127502991Y-117357222D01*
X127538729Y-117386552D01*
X127640186Y-117469814D01*
X127708895Y-117553538D01*
X127752778Y-117607009D01*
X127752779Y-117607011D01*
X127824248Y-117740718D01*
X127836443Y-117763534D01*
X127887963Y-117933373D01*
X127905359Y-118110000D01*
X127887963Y-118286627D01*
X127836443Y-118456466D01*
X127752778Y-118612991D01*
X127723448Y-118648729D01*
X127640186Y-118750186D01*
X127556732Y-118818674D01*
X127502991Y-118862778D01*
X127502989Y-118862779D01*
X127363134Y-118937534D01*
X127346466Y-118946443D01*
X127176627Y-118997963D01*
X127110443Y-119004481D01*
X127044260Y-119011000D01*
X126955740Y-119011000D01*
X126889557Y-119004481D01*
X126823373Y-118997963D01*
X126653534Y-118946443D01*
X126636867Y-118937534D01*
X126497011Y-118862779D01*
X126497009Y-118862778D01*
X126443268Y-118818674D01*
X126359814Y-118750186D01*
X126276552Y-118648729D01*
X126247222Y-118612991D01*
X126163557Y-118456466D01*
X126112037Y-118286627D01*
X126094641Y-118110000D01*
X126112037Y-117933373D01*
X126163557Y-117763534D01*
X126175753Y-117740718D01*
X126247221Y-117607011D01*
X126247222Y-117607009D01*
X126291105Y-117553538D01*
X126359814Y-117469814D01*
X126461271Y-117386552D01*
X126497009Y-117357222D01*
X126653534Y-117273557D01*
X126823373Y-117222037D01*
X126889557Y-117215519D01*
X126955740Y-117209000D01*
X127044260Y-117209000D01*
X127110443Y-117215519D01*
X127110443Y-117215519D01*
G37*
G36*
X142828674Y-117733465D02*
G01*
X142866367Y-117744899D01*
X142901103Y-117763466D01*
X142931548Y-117788452D01*
X142956534Y-117818897D01*
X142975101Y-117853633D01*
X142986535Y-117891326D01*
X142991000Y-117936661D01*
X142991000Y-118773339D01*
X142986535Y-118818674D01*
X142975101Y-118856367D01*
X142956534Y-118891103D01*
X142931548Y-118921548D01*
X142901103Y-118946534D01*
X142866367Y-118965101D01*
X142828674Y-118976535D01*
X142783339Y-118981000D01*
X141696661Y-118981000D01*
X141651326Y-118976535D01*
X141613633Y-118965101D01*
X141578897Y-118946534D01*
X141548452Y-118921548D01*
X141523466Y-118891103D01*
X141504899Y-118856367D01*
X141493465Y-118818674D01*
X141489000Y-118773339D01*
X141489000Y-117936661D01*
X141493465Y-117891326D01*
X141504899Y-117853633D01*
X141523466Y-117818897D01*
X141548452Y-117788452D01*
X141578897Y-117763466D01*
X141613633Y-117744899D01*
X141651326Y-117733465D01*
X141696661Y-117729000D01*
X142783339Y-117729000D01*
X142828674Y-117733465D01*
X142828674Y-117733465D01*
G37*
G36*
X135208674Y-117724465D02*
G01*
X135246367Y-117735899D01*
X135281103Y-117754466D01*
X135311548Y-117779452D01*
X135336534Y-117809897D01*
X135355101Y-117844633D01*
X135366535Y-117882326D01*
X135371000Y-117927661D01*
X135371000Y-118764339D01*
X135366535Y-118809674D01*
X135355101Y-118847367D01*
X135336534Y-118882103D01*
X135311548Y-118912548D01*
X135281103Y-118937534D01*
X135246367Y-118956101D01*
X135208674Y-118967535D01*
X135163339Y-118972000D01*
X134076661Y-118972000D01*
X134031326Y-118967535D01*
X133993633Y-118956101D01*
X133958897Y-118937534D01*
X133928452Y-118912548D01*
X133903466Y-118882103D01*
X133884899Y-118847367D01*
X133873465Y-118809674D01*
X133869000Y-118764339D01*
X133869000Y-117927661D01*
X133873465Y-117882326D01*
X133884899Y-117844633D01*
X133903466Y-117809897D01*
X133928452Y-117779452D01*
X133958897Y-117754466D01*
X133993633Y-117735899D01*
X134031326Y-117724465D01*
X134076661Y-117720000D01*
X135163339Y-117720000D01*
X135208674Y-117724465D01*
X135208674Y-117724465D01*
G37*
G36*
X146702174Y-116426965D02*
G01*
X146739867Y-116438399D01*
X146774603Y-116456966D01*
X146805048Y-116481952D01*
X146830034Y-116512397D01*
X146848601Y-116547133D01*
X146860035Y-116584826D01*
X146864500Y-116630161D01*
X146864500Y-117466839D01*
X146860035Y-117512174D01*
X146848601Y-117549867D01*
X146830034Y-117584603D01*
X146805048Y-117615048D01*
X146774603Y-117640034D01*
X146739867Y-117658601D01*
X146702174Y-117670035D01*
X146656839Y-117674500D01*
X145570161Y-117674500D01*
X145524826Y-117670035D01*
X145487133Y-117658601D01*
X145452397Y-117640034D01*
X145421952Y-117615048D01*
X145396966Y-117584603D01*
X145378399Y-117549867D01*
X145366965Y-117512174D01*
X145362500Y-117466839D01*
X145362500Y-116630161D01*
X145366965Y-116584826D01*
X145378399Y-116547133D01*
X145396966Y-116512397D01*
X145421952Y-116481952D01*
X145452397Y-116456966D01*
X145487133Y-116438399D01*
X145524826Y-116426965D01*
X145570161Y-116422500D01*
X146656839Y-116422500D01*
X146702174Y-116426965D01*
X146702174Y-116426965D01*
G37*
G36*
X136931000Y-116596000D02*
G01*
X135329000Y-116596000D01*
X135329000Y-114494000D01*
X136931000Y-114494000D01*
X136931000Y-116596000D01*
X136931000Y-116596000D01*
G37*
G36*
X141531000Y-116596000D02*
G01*
X139929000Y-116596000D01*
X139929000Y-114494000D01*
X141531000Y-114494000D01*
X141531000Y-116596000D01*
X141531000Y-116596000D01*
G37*
G36*
X139231000Y-116596000D02*
G01*
X137629000Y-116596000D01*
X137629000Y-114494000D01*
X139231000Y-114494000D01*
X139231000Y-116596000D01*
X139231000Y-116596000D01*
G37*
G36*
X146702174Y-114376965D02*
G01*
X146739867Y-114388399D01*
X146774603Y-114406966D01*
X146805048Y-114431952D01*
X146830034Y-114462397D01*
X146848601Y-114497133D01*
X146860035Y-114534826D01*
X146864500Y-114580161D01*
X146864500Y-115416839D01*
X146860035Y-115462174D01*
X146848601Y-115499867D01*
X146830034Y-115534603D01*
X146805048Y-115565048D01*
X146774603Y-115590034D01*
X146739867Y-115608601D01*
X146702174Y-115620035D01*
X146656839Y-115624500D01*
X145570161Y-115624500D01*
X145524826Y-115620035D01*
X145487133Y-115608601D01*
X145452397Y-115590034D01*
X145421952Y-115565048D01*
X145396966Y-115534603D01*
X145378399Y-115499867D01*
X145366965Y-115462174D01*
X145362500Y-115416839D01*
X145362500Y-114580161D01*
X145366965Y-114534826D01*
X145378399Y-114497133D01*
X145396966Y-114462397D01*
X145421952Y-114431952D01*
X145452397Y-114406966D01*
X145487133Y-114388399D01*
X145524826Y-114376965D01*
X145570161Y-114372500D01*
X146656839Y-114372500D01*
X146702174Y-114376965D01*
X146702174Y-114376965D01*
G37*
G36*
X134049798Y-113633247D02*
G01*
X134085367Y-113644037D01*
X134118139Y-113661554D01*
X134146869Y-113685131D01*
X134170446Y-113713861D01*
X134187963Y-113746633D01*
X134198753Y-113782202D01*
X134203000Y-113825325D01*
X134203000Y-115109675D01*
X134198753Y-115152798D01*
X134187963Y-115188367D01*
X134170446Y-115221139D01*
X134146869Y-115249869D01*
X134118139Y-115273446D01*
X134085367Y-115290963D01*
X134049798Y-115301753D01*
X134006675Y-115306000D01*
X132947325Y-115306000D01*
X132904202Y-115301753D01*
X132868633Y-115290963D01*
X132835861Y-115273446D01*
X132807131Y-115249869D01*
X132783554Y-115221139D01*
X132766037Y-115188367D01*
X132755247Y-115152798D01*
X132751000Y-115109675D01*
X132751000Y-113825325D01*
X132755247Y-113782202D01*
X132766037Y-113746633D01*
X132783554Y-113713861D01*
X132807131Y-113685131D01*
X132835861Y-113661554D01*
X132868633Y-113644037D01*
X132904202Y-113633247D01*
X132947325Y-113629000D01*
X134006675Y-113629000D01*
X134049798Y-113633247D01*
X134049798Y-113633247D01*
G37*
G36*
X144082798Y-113592747D02*
G01*
X144118367Y-113603537D01*
X144151139Y-113621054D01*
X144179869Y-113644631D01*
X144203446Y-113673361D01*
X144220963Y-113706133D01*
X144231753Y-113741702D01*
X144236000Y-113784825D01*
X144236000Y-115069175D01*
X144231753Y-115112298D01*
X144220963Y-115147867D01*
X144203446Y-115180639D01*
X144179869Y-115209369D01*
X144151139Y-115232946D01*
X144118367Y-115250463D01*
X144082798Y-115261253D01*
X144039675Y-115265500D01*
X142980325Y-115265500D01*
X142937202Y-115261253D01*
X142901633Y-115250463D01*
X142868861Y-115232946D01*
X142840131Y-115209369D01*
X142816554Y-115180639D01*
X142799037Y-115147867D01*
X142788247Y-115112298D01*
X142784000Y-115069175D01*
X142784000Y-113784825D01*
X142788247Y-113741702D01*
X142799037Y-113706133D01*
X142816554Y-113673361D01*
X142840131Y-113644631D01*
X142868861Y-113621054D01*
X142901633Y-113603537D01*
X142937202Y-113592747D01*
X142980325Y-113588500D01*
X144039675Y-113588500D01*
X144082798Y-113592747D01*
X144082798Y-113592747D01*
G37*
G36*
X146693173Y-112671465D02*
G01*
X146730866Y-112682899D01*
X146765602Y-112701466D01*
X146796047Y-112726452D01*
X146821033Y-112756897D01*
X146839600Y-112791633D01*
X146851034Y-112829326D01*
X146855499Y-112874661D01*
X146855499Y-113711339D01*
X146851034Y-113756674D01*
X146839600Y-113794367D01*
X146821033Y-113829103D01*
X146796047Y-113859548D01*
X146765602Y-113884534D01*
X146730866Y-113903101D01*
X146693173Y-113914535D01*
X146647838Y-113919000D01*
X145561160Y-113919000D01*
X145515825Y-113914535D01*
X145478132Y-113903101D01*
X145443396Y-113884534D01*
X145412951Y-113859548D01*
X145387965Y-113829103D01*
X145369398Y-113794367D01*
X145357964Y-113756674D01*
X145353499Y-113711339D01*
X145353499Y-112874661D01*
X145357964Y-112829326D01*
X145369398Y-112791633D01*
X145387965Y-112756897D01*
X145412951Y-112726452D01*
X145443396Y-112701466D01*
X145478132Y-112682899D01*
X145515825Y-112671465D01*
X145561160Y-112667000D01*
X146647838Y-112667000D01*
X146693173Y-112671465D01*
X146693173Y-112671465D01*
G37*
G36*
X134049798Y-110758247D02*
G01*
X134085367Y-110769037D01*
X134118139Y-110786554D01*
X134146869Y-110810131D01*
X134170446Y-110838861D01*
X134187963Y-110871633D01*
X134198753Y-110907202D01*
X134203000Y-110950325D01*
X134203000Y-112234675D01*
X134198753Y-112277798D01*
X134187963Y-112313367D01*
X134170446Y-112346139D01*
X134146869Y-112374869D01*
X134118139Y-112398446D01*
X134085367Y-112415963D01*
X134049798Y-112426753D01*
X134006675Y-112431000D01*
X132947325Y-112431000D01*
X132904202Y-112426753D01*
X132868633Y-112415963D01*
X132835861Y-112398446D01*
X132807131Y-112374869D01*
X132783554Y-112346139D01*
X132766037Y-112313367D01*
X132755247Y-112277798D01*
X132751000Y-112234675D01*
X132751000Y-110950325D01*
X132755247Y-110907202D01*
X132766037Y-110871633D01*
X132783554Y-110838861D01*
X132807131Y-110810131D01*
X132835861Y-110786554D01*
X132868633Y-110769037D01*
X132904202Y-110758247D01*
X132947325Y-110754000D01*
X134006675Y-110754000D01*
X134049798Y-110758247D01*
X134049798Y-110758247D01*
G37*
G36*
X144082798Y-110717747D02*
G01*
X144118367Y-110728537D01*
X144151139Y-110746054D01*
X144179869Y-110769631D01*
X144203446Y-110798361D01*
X144220963Y-110831133D01*
X144231753Y-110866702D01*
X144236000Y-110909825D01*
X144236000Y-112194175D01*
X144231753Y-112237298D01*
X144220963Y-112272867D01*
X144203446Y-112305639D01*
X144179869Y-112334369D01*
X144151139Y-112357946D01*
X144118367Y-112375463D01*
X144082798Y-112386253D01*
X144039675Y-112390500D01*
X142980325Y-112390500D01*
X142937202Y-112386253D01*
X142901633Y-112375463D01*
X142868861Y-112357946D01*
X142840131Y-112334369D01*
X142816554Y-112305639D01*
X142799037Y-112272867D01*
X142788247Y-112237298D01*
X142784000Y-112194175D01*
X142784000Y-110909825D01*
X142788247Y-110866702D01*
X142799037Y-110831133D01*
X142816554Y-110798361D01*
X142840131Y-110769631D01*
X142868861Y-110746054D01*
X142901633Y-110728537D01*
X142937202Y-110717747D01*
X142980325Y-110713500D01*
X144039675Y-110713500D01*
X144082798Y-110717747D01*
X144082798Y-110717747D01*
G37*
G36*
X146693173Y-110621465D02*
G01*
X146730866Y-110632899D01*
X146765602Y-110651466D01*
X146796047Y-110676452D01*
X146821033Y-110706897D01*
X146839600Y-110741633D01*
X146851034Y-110779326D01*
X146855499Y-110824661D01*
X146855499Y-111661339D01*
X146851034Y-111706674D01*
X146839600Y-111744367D01*
X146821033Y-111779103D01*
X146796047Y-111809548D01*
X146765602Y-111834534D01*
X146730866Y-111853101D01*
X146693173Y-111864535D01*
X146647838Y-111869000D01*
X145561160Y-111869000D01*
X145515825Y-111864535D01*
X145478132Y-111853101D01*
X145443396Y-111834534D01*
X145412951Y-111809548D01*
X145387965Y-111779103D01*
X145369398Y-111744367D01*
X145357964Y-111706674D01*
X145353499Y-111661339D01*
X145353499Y-110824661D01*
X145357964Y-110779326D01*
X145369398Y-110741633D01*
X145387965Y-110706897D01*
X145412951Y-110676452D01*
X145443396Y-110651466D01*
X145478132Y-110632899D01*
X145515825Y-110621465D01*
X145561160Y-110617000D01*
X146647838Y-110617000D01*
X146693173Y-110621465D01*
X146693173Y-110621465D01*
G37*
G36*
X140381000Y-110296000D02*
G01*
X136479000Y-110296000D01*
X136479000Y-108194000D01*
X140381000Y-108194000D01*
X140381000Y-110296000D01*
X140381000Y-110296000D01*
G37*
M02*
