%MOIN*%
%OFA0B0*%
%FSLAX36Y36*%
%IPPOS*%
%LPD*%
%ADD10C,0*%
D10*
X002278739Y001679999D02*
X002278739Y001679999D01*
X002278345Y001692558D01*
X002277162Y001705066D01*
X002275197Y001717476D01*
X002272456Y001729738D01*
X002268951Y001741803D01*
X002264695Y001753625D01*
X002259705Y001765155D01*
X002254001Y001776350D01*
X002247605Y001787165D01*
X002240543Y001797557D01*
X002232842Y001807484D01*
X002224533Y001816909D01*
X002215649Y001825794D01*
X002206224Y001834102D01*
X002196296Y001841803D01*
X002185905Y001848865D01*
X002175090Y001855261D01*
X002163895Y001860965D01*
X002152364Y001865955D01*
X002140543Y001870211D01*
X002128478Y001873716D01*
X002116216Y001876457D01*
X002103806Y001878423D01*
X002091298Y001879605D01*
X002078740Y001879999D01*
X001848414Y001879999D01*
X001845325Y001880121D01*
X001842255Y001880484D01*
X001839224Y001881087D01*
X001836248Y001881926D01*
X001833348Y001882996D01*
X001830541Y001884291D01*
X001827843Y001885801D01*
X001825273Y001887519D01*
X001822845Y001889432D01*
X001820575Y001891531D01*
X001818477Y001893801D01*
X001816563Y001896228D01*
X001814846Y001898799D01*
X001813335Y001901496D01*
X001812041Y001904303D01*
X001810971Y001907204D01*
X001810132Y001910179D01*
X001809529Y001913211D01*
X001809166Y001916281D01*
X001809044Y001919370D01*
X001809044Y001919370D01*
X001809166Y001922459D01*
X001809529Y001925529D01*
X001810132Y001928561D01*
X001810971Y001931536D01*
X001812041Y001934436D01*
X001813335Y001937244D01*
X001814846Y001939941D01*
X001816563Y001942511D01*
X001818477Y001944939D01*
X001820575Y001947209D01*
X001822845Y001949307D01*
X001825273Y001951221D01*
X001827843Y001952938D01*
X001830541Y001954449D01*
X001833348Y001955743D01*
X001836248Y001956813D01*
X001839224Y001957652D01*
X001842255Y001958255D01*
X001845325Y001958619D01*
X001848414Y001958740D01*
X002078740Y001958740D01*
X002078740Y001958739D01*
X002091298Y001959135D01*
X002103806Y001960317D01*
X002116216Y001962283D01*
X002128478Y001965023D01*
X002140543Y001968528D01*
X002152364Y001972785D01*
X002163895Y001977774D01*
X002175090Y001983478D01*
X002185905Y001989875D01*
X002196296Y001996936D01*
X002206224Y002004637D01*
X002215649Y002012946D01*
X002224533Y002021831D01*
X002232842Y002031255D01*
X002240543Y002041183D01*
X002247605Y002051574D01*
X002254001Y002062389D01*
X002259705Y002073584D01*
X002264695Y002085115D01*
X002268951Y002096937D01*
X002272456Y002109002D01*
X002275197Y002121264D01*
X002277162Y002133673D01*
X002278345Y002146182D01*
X002278739Y002158739D01*
X002278739Y002779065D01*
X002278861Y002782154D01*
X002279224Y002785224D01*
X002279827Y002788256D01*
X002280666Y002791231D01*
X002281736Y002794131D01*
X002283030Y002796939D01*
X002284541Y002799636D01*
X002286258Y002802206D01*
X002288172Y002804634D01*
X002290271Y002806904D01*
X002292541Y002809002D01*
X002294968Y002810916D01*
X002297539Y002812634D01*
X002300236Y002814144D01*
X002303043Y002815438D01*
X002305943Y002816508D01*
X002308919Y002817347D01*
X002311951Y002817950D01*
X002315021Y002818314D01*
X002318109Y002818435D01*
X002318110Y002818435D01*
X002321199Y002818314D01*
X002324269Y002817950D01*
X002327300Y002817347D01*
X002330276Y002816508D01*
X002333176Y002815438D01*
X002335983Y002814144D01*
X002338681Y002812634D01*
X002341251Y002810916D01*
X002343679Y002809002D01*
X002345949Y002806904D01*
X002348047Y002804634D01*
X002349961Y002802206D01*
X002351678Y002799636D01*
X002353189Y002796939D01*
X002354483Y002794131D01*
X002355553Y002791231D01*
X002356392Y002788256D01*
X002356995Y002785224D01*
X002357358Y002782154D01*
X002357480Y002779065D01*
X002357480Y002158739D01*
X002357874Y002146182D01*
X002359057Y002133673D01*
X002361022Y002121264D01*
X002363763Y002109002D01*
X002367269Y002096937D01*
X002371524Y002085115D01*
X002376514Y002073584D01*
X002382219Y002062389D01*
X002388614Y002051574D01*
X002395676Y002041183D01*
X002403377Y002031255D01*
X002411686Y002021831D01*
X002420570Y002012946D01*
X002429995Y002004637D01*
X002439923Y001996936D01*
X002450314Y001989875D01*
X002461129Y001983478D01*
X002472324Y001977774D01*
X002483855Y001972785D01*
X002495676Y001968528D01*
X002507742Y001965023D01*
X002520004Y001962283D01*
X002532413Y001960317D01*
X002544922Y001959135D01*
X002557480Y001958740D01*
X002787805Y001958740D01*
X002790894Y001958619D01*
X002793964Y001958255D01*
X002796996Y001957652D01*
X002799971Y001956813D01*
X002802871Y001955743D01*
X002805679Y001954449D01*
X002808376Y001952938D01*
X002810946Y001951221D01*
X002813374Y001949307D01*
X002815644Y001947209D01*
X002817742Y001944939D01*
X002819656Y001942511D01*
X002821374Y001939941D01*
X002822884Y001937244D01*
X002824178Y001934436D01*
X002825248Y001931536D01*
X002826087Y001928561D01*
X002826691Y001925529D01*
X002827054Y001922459D01*
X002827175Y001919370D01*
X002827175Y001919370D01*
X002827054Y001916281D01*
X002826691Y001913211D01*
X002826087Y001910179D01*
X002825248Y001907204D01*
X002824178Y001904303D01*
X002822884Y001901496D01*
X002821374Y001898799D01*
X002819656Y001896228D01*
X002817742Y001893801D01*
X002815644Y001891531D01*
X002813374Y001889432D01*
X002810946Y001887519D01*
X002808376Y001885801D01*
X002805679Y001884291D01*
X002802871Y001882996D01*
X002799971Y001881926D01*
X002796996Y001881087D01*
X002793964Y001880484D01*
X002790894Y001880121D01*
X002787805Y001879999D01*
X002557480Y001879999D01*
X002544922Y001879605D01*
X002532413Y001878423D01*
X002520004Y001876457D01*
X002507742Y001873716D01*
X002495676Y001870211D01*
X002483855Y001865955D01*
X002472324Y001860965D01*
X002461129Y001855261D01*
X002450314Y001848865D01*
X002439923Y001841803D01*
X002429995Y001834102D01*
X002420570Y001825794D01*
X002411686Y001816909D01*
X002403377Y001807484D01*
X002395676Y001797557D01*
X002388614Y001787165D01*
X002382219Y001776350D01*
X002376514Y001765155D01*
X002371524Y001753625D01*
X002367269Y001741803D01*
X002363763Y001729738D01*
X002361022Y001717476D01*
X002359057Y001705066D01*
X002357874Y001692558D01*
X002357480Y001679999D01*
X002357480Y001059674D01*
X002357358Y001056585D01*
X002356995Y001053515D01*
X002356392Y001050483D01*
X002355553Y001047508D01*
X002354483Y001044608D01*
X002353189Y001041801D01*
X002351678Y001039103D01*
X002349961Y001036533D01*
X002348047Y001034105D01*
X002345949Y001031835D01*
X002343679Y001029737D01*
X002341251Y001027823D01*
X002338681Y001026106D01*
X002335983Y001024595D01*
X002333176Y001023301D01*
X002330276Y001022231D01*
X002327300Y001021392D01*
X002324269Y001020789D01*
X002321199Y001020425D01*
X002318110Y001020304D01*
X002318109Y001020304D01*
X002315021Y001020425D01*
X002311951Y001020789D01*
X002308919Y001021392D01*
X002305943Y001022231D01*
X002303043Y001023301D01*
X002300236Y001024595D01*
X002297539Y001026106D01*
X002294968Y001027823D01*
X002292541Y001029737D01*
X002290271Y001031835D01*
X002288172Y001034105D01*
X002286258Y001036533D01*
X002284541Y001039103D01*
X002283030Y001041801D01*
X002281736Y001044608D01*
X002280666Y001047508D01*
X002279827Y001050483D01*
X002279224Y001053515D01*
X002278861Y001056585D01*
X002278739Y001059674D01*
X002278739Y001679999D01*
X001099999Y001679999D02*
X001099999Y001679999D01*
X001099605Y001692558D01*
X001098422Y001705066D01*
X001096457Y001717476D01*
X001093716Y001729738D01*
X001090211Y001741803D01*
X001085955Y001753625D01*
X001080965Y001765155D01*
X001075261Y001776350D01*
X001068865Y001787165D01*
X001061802Y001797557D01*
X001054102Y001807484D01*
X001045793Y001816909D01*
X001036908Y001825794D01*
X001027484Y001834102D01*
X001017556Y001841803D01*
X001007165Y001848865D01*
X000996350Y001855261D01*
X000985155Y001860965D01*
X000973624Y001865955D01*
X000961803Y001870211D01*
X000949737Y001873716D01*
X000937476Y001876457D01*
X000925066Y001878423D01*
X000912558Y001879605D01*
X000900000Y001879999D01*
X000669674Y001879999D01*
X000666585Y001880121D01*
X000663515Y001880484D01*
X000660483Y001881087D01*
X000657508Y001881926D01*
X000654608Y001882996D01*
X000651800Y001884291D01*
X000649103Y001885801D01*
X000646533Y001887519D01*
X000644105Y001889432D01*
X000641835Y001891531D01*
X000639737Y001893801D01*
X000637823Y001896228D01*
X000636106Y001898799D01*
X000634595Y001901496D01*
X000633301Y001904303D01*
X000632231Y001907204D01*
X000631392Y001910179D01*
X000630789Y001913211D01*
X000630425Y001916281D01*
X000630304Y001919370D01*
X000630304Y001919370D01*
X000630425Y001922459D01*
X000630789Y001925529D01*
X000631392Y001928561D01*
X000632231Y001931536D01*
X000633301Y001934436D01*
X000634595Y001937244D01*
X000636106Y001939941D01*
X000637823Y001942511D01*
X000639737Y001944939D01*
X000641835Y001947209D01*
X000644105Y001949307D01*
X000646533Y001951221D01*
X000649103Y001952938D01*
X000651800Y001954449D01*
X000654608Y001955743D01*
X000657508Y001956813D01*
X000660483Y001957652D01*
X000663515Y001958255D01*
X000666585Y001958619D01*
X000669674Y001958740D01*
X000900000Y001958740D01*
X000900000Y001958739D01*
X000912558Y001959135D01*
X000925066Y001960317D01*
X000937476Y001962283D01*
X000949737Y001965023D01*
X000961803Y001968528D01*
X000973624Y001972785D01*
X000985155Y001977774D01*
X000996350Y001983478D01*
X001007165Y001989875D01*
X001017556Y001996936D01*
X001027484Y002004637D01*
X001036908Y002012946D01*
X001045793Y002021831D01*
X001054102Y002031255D01*
X001061802Y002041183D01*
X001068865Y002051574D01*
X001075261Y002062389D01*
X001080965Y002073584D01*
X001085955Y002085115D01*
X001090211Y002096937D01*
X001093716Y002109002D01*
X001096457Y002121264D01*
X001098422Y002133673D01*
X001099605Y002146182D01*
X001099999Y002158739D01*
X001099999Y002779065D01*
X001100121Y002782154D01*
X001100484Y002785224D01*
X001101087Y002788256D01*
X001101926Y002791231D01*
X001102996Y002794131D01*
X001104290Y002796939D01*
X001105801Y002799636D01*
X001107518Y002802206D01*
X001109432Y002804634D01*
X001111530Y002806904D01*
X001113801Y002809002D01*
X001116228Y002810916D01*
X001118799Y002812634D01*
X001121496Y002814144D01*
X001124303Y002815438D01*
X001127203Y002816508D01*
X001130179Y002817347D01*
X001133211Y002817950D01*
X001136280Y002818314D01*
X001139369Y002818435D01*
X001139370Y002818435D01*
X001142458Y002818314D01*
X001145528Y002817950D01*
X001148560Y002817347D01*
X001151536Y002816508D01*
X001154436Y002815438D01*
X001157243Y002814144D01*
X001159940Y002812634D01*
X001162511Y002810916D01*
X001164938Y002809002D01*
X001167208Y002806904D01*
X001169307Y002804634D01*
X001171221Y002802206D01*
X001172938Y002799636D01*
X001174449Y002796939D01*
X001175743Y002794131D01*
X001176813Y002791231D01*
X001177652Y002788256D01*
X001178255Y002785224D01*
X001178618Y002782154D01*
X001178740Y002779065D01*
X001178740Y002158739D01*
X001179134Y002146182D01*
X001180317Y002133673D01*
X001182282Y002121264D01*
X001185023Y002109002D01*
X001188528Y002096937D01*
X001192784Y002085115D01*
X001197774Y002073584D01*
X001203478Y002062389D01*
X001209874Y002051574D01*
X001216936Y002041183D01*
X001224637Y002031255D01*
X001232946Y002021831D01*
X001241830Y002012946D01*
X001251255Y002004637D01*
X001261182Y001996936D01*
X001271574Y001989875D01*
X001282389Y001983478D01*
X001293584Y001977774D01*
X001305115Y001972785D01*
X001316936Y001968528D01*
X001329002Y001965023D01*
X001341263Y001962283D01*
X001353673Y001960317D01*
X001366182Y001959135D01*
X001378739Y001958740D01*
X001609065Y001958740D01*
X001612154Y001958619D01*
X001615224Y001958255D01*
X001618256Y001957652D01*
X001621231Y001956813D01*
X001624131Y001955743D01*
X001626939Y001954449D01*
X001629636Y001952938D01*
X001632206Y001951221D01*
X001634634Y001949307D01*
X001636904Y001947209D01*
X001639002Y001944939D01*
X001640916Y001942511D01*
X001642634Y001939941D01*
X001644144Y001937244D01*
X001645438Y001934436D01*
X001646508Y001931536D01*
X001647347Y001928561D01*
X001647950Y001925529D01*
X001648314Y001922459D01*
X001648435Y001919370D01*
X001648435Y001919370D01*
X001648314Y001916281D01*
X001647950Y001913211D01*
X001647347Y001910179D01*
X001646508Y001907204D01*
X001645438Y001904303D01*
X001644144Y001901496D01*
X001642634Y001898799D01*
X001640916Y001896228D01*
X001639002Y001893801D01*
X001636904Y001891531D01*
X001634634Y001889432D01*
X001632206Y001887519D01*
X001629636Y001885801D01*
X001626939Y001884291D01*
X001624131Y001882996D01*
X001621231Y001881926D01*
X001618256Y001881087D01*
X001615224Y001880484D01*
X001612154Y001880121D01*
X001609065Y001879999D01*
X001378739Y001879999D01*
X001366182Y001879605D01*
X001353673Y001878423D01*
X001341263Y001876457D01*
X001329002Y001873716D01*
X001316936Y001870211D01*
X001305115Y001865955D01*
X001293584Y001860965D01*
X001282389Y001855261D01*
X001271574Y001848865D01*
X001261182Y001841803D01*
X001251255Y001834102D01*
X001241830Y001825794D01*
X001232946Y001816909D01*
X001224637Y001807484D01*
X001216936Y001797557D01*
X001209874Y001787165D01*
X001203478Y001776350D01*
X001197774Y001765155D01*
X001192784Y001753625D01*
X001188528Y001741803D01*
X001185023Y001729738D01*
X001182282Y001717476D01*
X001180317Y001705066D01*
X001179134Y001692558D01*
X001178740Y001679999D01*
X001178740Y001059674D01*
X001178618Y001056585D01*
X001178255Y001053515D01*
X001177652Y001050483D01*
X001176813Y001047508D01*
X001175743Y001044608D01*
X001174449Y001041801D01*
X001172938Y001039103D01*
X001171221Y001036533D01*
X001169307Y001034105D01*
X001167208Y001031835D01*
X001164938Y001029737D01*
X001162511Y001027823D01*
X001159940Y001026106D01*
X001157243Y001024595D01*
X001154436Y001023301D01*
X001151536Y001022231D01*
X001148560Y001021392D01*
X001145528Y001020789D01*
X001142458Y001020425D01*
X001139370Y001020304D01*
X001139369Y001020304D01*
X001136280Y001020425D01*
X001133211Y001020789D01*
X001130179Y001021392D01*
X001127203Y001022231D01*
X001124303Y001023301D01*
X001121496Y001024595D01*
X001118799Y001026106D01*
X001116228Y001027823D01*
X001113801Y001029737D01*
X001111530Y001031835D01*
X001109432Y001034105D01*
X001107518Y001036533D01*
X001105801Y001039103D01*
X001104290Y001041801D01*
X001102996Y001044608D01*
X001101926Y001047508D01*
X001101087Y001050483D01*
X001100484Y001053515D01*
X001100121Y001056585D01*
X001099999Y001059674D01*
X001099999Y001679999D01*
X000900000Y000000000D02*
X000900000Y000000000D01*
X000912558Y000000395D01*
X000925066Y000001577D01*
X000937476Y000003542D01*
X000949737Y000006283D01*
X000961803Y000009788D01*
X000973624Y000014045D01*
X000985155Y000019034D01*
X000996350Y000024738D01*
X001007165Y000031134D01*
X001017556Y000038196D01*
X001027484Y000045897D01*
X001036908Y000054206D01*
X001045793Y000063091D01*
X001054102Y000072515D01*
X001061802Y000082443D01*
X001068865Y000092834D01*
X001075261Y000103649D01*
X001080965Y000114844D01*
X001085955Y000126374D01*
X001090211Y000138196D01*
X001093716Y000150262D01*
X001096457Y000162523D01*
X001098422Y000174933D01*
X001099605Y000187441D01*
X001099999Y000199999D01*
X001099999Y000820325D01*
X001100121Y000823414D01*
X001100484Y000826484D01*
X001101087Y000829516D01*
X001101926Y000832491D01*
X001102996Y000835391D01*
X001104290Y000838198D01*
X001105801Y000840896D01*
X001107518Y000843466D01*
X001109432Y000845894D01*
X001111530Y000848164D01*
X001113801Y000850262D01*
X001116228Y000852176D01*
X001118799Y000853893D01*
X001121496Y000855404D01*
X001124303Y000856698D01*
X001127203Y000857768D01*
X001130179Y000858607D01*
X001133211Y000859210D01*
X001136280Y000859574D01*
X001139369Y000859695D01*
X001139370Y000859695D01*
X001142458Y000859574D01*
X001145528Y000859210D01*
X001148560Y000858607D01*
X001151536Y000857768D01*
X001154436Y000856698D01*
X001157243Y000855404D01*
X001159940Y000853893D01*
X001162511Y000852176D01*
X001164938Y000850262D01*
X001167208Y000848164D01*
X001169307Y000845894D01*
X001171221Y000843466D01*
X001172938Y000840896D01*
X001174449Y000838198D01*
X001175743Y000835391D01*
X001176813Y000832491D01*
X001177652Y000829516D01*
X001178255Y000826484D01*
X001178618Y000823414D01*
X001178740Y000820325D01*
X001178740Y000199999D01*
X001179134Y000187441D01*
X001180317Y000174933D01*
X001182282Y000162523D01*
X001185023Y000150262D01*
X001188528Y000138196D01*
X001192784Y000126374D01*
X001197774Y000114844D01*
X001203478Y000103649D01*
X001209874Y000092834D01*
X001216936Y000082443D01*
X001224637Y000072515D01*
X001232946Y000063091D01*
X001241830Y000054206D01*
X001251255Y000045897D01*
X001261182Y000038196D01*
X001271574Y000031134D01*
X001282389Y000024738D01*
X001293584Y000019034D01*
X001305115Y000014045D01*
X001316936Y000009788D01*
X001329002Y000006283D01*
X001341263Y000003542D01*
X001353673Y000001577D01*
X001366182Y000000395D01*
X001378739Y000000000D01*
X002078740Y000000000D01*
X002078740Y000000000D01*
X002091298Y000000395D01*
X002103806Y000001577D01*
X002116216Y000003542D01*
X002128478Y000006283D01*
X002140543Y000009788D01*
X002152364Y000014045D01*
X002163895Y000019034D01*
X002175090Y000024738D01*
X002185905Y000031134D01*
X002196296Y000038196D01*
X002206224Y000045897D01*
X002215649Y000054206D01*
X002224533Y000063091D01*
X002232842Y000072515D01*
X002240543Y000082443D01*
X002247605Y000092834D01*
X002254001Y000103649D01*
X002259705Y000114844D01*
X002264695Y000126374D01*
X002268951Y000138196D01*
X002272456Y000150262D01*
X002275197Y000162523D01*
X002277162Y000174933D01*
X002278345Y000187441D01*
X002278739Y000199999D01*
X002278739Y000820325D01*
X002278861Y000823414D01*
X002279224Y000826484D01*
X002279827Y000829516D01*
X002280666Y000832491D01*
X002281736Y000835391D01*
X002283030Y000838198D01*
X002284541Y000840896D01*
X002286258Y000843466D01*
X002288172Y000845894D01*
X002290271Y000848164D01*
X002292541Y000850262D01*
X002294968Y000852176D01*
X002297539Y000853893D01*
X002300236Y000855404D01*
X002303043Y000856698D01*
X002305943Y000857768D01*
X002308919Y000858607D01*
X002311951Y000859210D01*
X002315021Y000859574D01*
X002318109Y000859695D01*
X002318110Y000859695D01*
X002321199Y000859574D01*
X002324269Y000859210D01*
X002327300Y000858607D01*
X002330276Y000857768D01*
X002333176Y000856698D01*
X002335983Y000855404D01*
X002338681Y000853893D01*
X002341251Y000852176D01*
X002343679Y000850262D01*
X002345949Y000848164D01*
X002348047Y000845894D01*
X002349961Y000843466D01*
X002351678Y000840896D01*
X002353189Y000838198D01*
X002354483Y000835391D01*
X002355553Y000832491D01*
X002356392Y000829516D01*
X002356995Y000826484D01*
X002357358Y000823414D01*
X002357480Y000820325D01*
X002357480Y000199999D01*
X002357874Y000187441D01*
X002359057Y000174933D01*
X002361022Y000162523D01*
X002363763Y000150262D01*
X002367269Y000138196D01*
X002371524Y000126374D01*
X002376514Y000114844D01*
X002382219Y000103649D01*
X002388614Y000092834D01*
X002395676Y000082443D01*
X002403377Y000072515D01*
X002411686Y000063091D01*
X002420570Y000054206D01*
X002429995Y000045897D01*
X002439923Y000038196D01*
X002450314Y000031134D01*
X002461129Y000024738D01*
X002472324Y000019034D01*
X002483855Y000014045D01*
X002495676Y000009788D01*
X002507742Y000006283D01*
X002520004Y000003542D01*
X002532413Y000001577D01*
X002544922Y000000395D01*
X002557480Y000000000D01*
X003257480Y000000000D01*
X003257480Y000000000D01*
X003270038Y000000395D01*
X003282547Y000001577D01*
X003294956Y000003542D01*
X003307218Y000006283D01*
X003319283Y000009788D01*
X003331104Y000014045D01*
X003342636Y000019034D01*
X003353830Y000024738D01*
X003364645Y000031134D01*
X003375036Y000038196D01*
X003384964Y000045897D01*
X003394389Y000054206D01*
X003403274Y000063091D01*
X003411582Y000072515D01*
X003419283Y000082443D01*
X003426345Y000092834D01*
X003432741Y000103649D01*
X003438445Y000114844D01*
X003443435Y000126374D01*
X003447691Y000138196D01*
X003451196Y000150262D01*
X003453937Y000162523D01*
X003455903Y000174933D01*
X003457085Y000187441D01*
X003457480Y000199999D01*
X003457480Y001679999D01*
X003457085Y001692558D01*
X003455903Y001705066D01*
X003453937Y001717476D01*
X003451196Y001729738D01*
X003447691Y001741803D01*
X003443435Y001753625D01*
X003438445Y001765155D01*
X003432741Y001776350D01*
X003426345Y001787165D01*
X003419283Y001797557D01*
X003411582Y001807484D01*
X003403274Y001816909D01*
X003394389Y001825794D01*
X003384964Y001834102D01*
X003375036Y001841803D01*
X003364645Y001848865D01*
X003353830Y001855261D01*
X003342636Y001860965D01*
X003331104Y001865955D01*
X003319283Y001870211D01*
X003307218Y001873716D01*
X003294956Y001876457D01*
X003282547Y001878423D01*
X003270038Y001879605D01*
X003257480Y001879999D01*
X003027154Y001879999D01*
X003024065Y001880121D01*
X003020996Y001880484D01*
X003017964Y001881087D01*
X003014988Y001881926D01*
X003012088Y001882996D01*
X003009281Y001884291D01*
X003006584Y001885801D01*
X003004013Y001887519D01*
X003001586Y001889432D01*
X002999316Y001891531D01*
X002997217Y001893801D01*
X002995303Y001896228D01*
X002993586Y001898799D01*
X002992075Y001901496D01*
X002990781Y001904303D01*
X002989711Y001907204D01*
X002988872Y001910179D01*
X002988269Y001913211D01*
X002987906Y001916281D01*
X002987784Y001919370D01*
X002987784Y001919370D01*
X002987906Y001922459D01*
X002988269Y001925529D01*
X002988872Y001928561D01*
X002989711Y001931536D01*
X002990781Y001934436D01*
X002992075Y001937244D01*
X002993586Y001939941D01*
X002995303Y001942511D01*
X002997217Y001944939D01*
X002999316Y001947209D01*
X003001586Y001949307D01*
X003004013Y001951221D01*
X003006584Y001952938D01*
X003009281Y001954449D01*
X003012088Y001955743D01*
X003014988Y001956813D01*
X003017964Y001957652D01*
X003020996Y001958255D01*
X003024065Y001958619D01*
X003027154Y001958740D01*
X003257480Y001958740D01*
X003257480Y001958739D01*
X003270038Y001959135D01*
X003282547Y001960317D01*
X003294956Y001962283D01*
X003307218Y001965023D01*
X003319283Y001968528D01*
X003331104Y001972785D01*
X003342636Y001977774D01*
X003353830Y001983478D01*
X003364645Y001989875D01*
X003375036Y001996936D01*
X003384964Y002004637D01*
X003394389Y002012946D01*
X003403274Y002021831D01*
X003411582Y002031255D01*
X003419283Y002041183D01*
X003426345Y002051574D01*
X003432741Y002062389D01*
X003438445Y002073584D01*
X003443435Y002085115D01*
X003447691Y002096937D01*
X003451196Y002109002D01*
X003453937Y002121264D01*
X003455903Y002133673D01*
X003457085Y002146182D01*
X003457480Y002158739D01*
X003457480Y003638740D01*
X003457085Y003651298D01*
X003455903Y003663807D01*
X003453937Y003676216D01*
X003451196Y003688478D01*
X003447691Y003700543D01*
X003443435Y003712365D01*
X003438445Y003723896D01*
X003432741Y003735090D01*
X003426345Y003745906D01*
X003419283Y003756297D01*
X003411582Y003766225D01*
X003403274Y003775649D01*
X003394389Y003784534D01*
X003384964Y003792843D01*
X003375036Y003800543D01*
X003364645Y003807605D01*
X003353830Y003814001D01*
X003342636Y003819706D01*
X003331104Y003824695D01*
X003319283Y003828951D01*
X003307218Y003832457D01*
X003294956Y003835197D01*
X003282547Y003837163D01*
X003270038Y003838345D01*
X003257480Y003838740D01*
X002557480Y003838740D01*
X002544922Y003838345D01*
X002532413Y003837163D01*
X002520004Y003835197D01*
X002507742Y003832457D01*
X002495676Y003828951D01*
X002483855Y003824695D01*
X002472324Y003819706D01*
X002461129Y003814001D01*
X002450314Y003807605D01*
X002439923Y003800543D01*
X002429995Y003792843D01*
X002420570Y003784534D01*
X002411686Y003775649D01*
X002403377Y003766225D01*
X002395676Y003756297D01*
X002388614Y003745906D01*
X002382219Y003735090D01*
X002376514Y003723896D01*
X002371524Y003712365D01*
X002367269Y003700543D01*
X002363763Y003688478D01*
X002361022Y003676216D01*
X002359057Y003663807D01*
X002357874Y003651298D01*
X002357480Y003638740D01*
X002357480Y003018414D01*
X002357358Y003015325D01*
X002356995Y003012255D01*
X002356392Y003009224D01*
X002355553Y003006248D01*
X002354483Y003003348D01*
X002353189Y003000541D01*
X002351678Y002997843D01*
X002349961Y002995273D01*
X002348047Y002992845D01*
X002345949Y002990575D01*
X002343679Y002988477D01*
X002341251Y002986563D01*
X002338681Y002984846D01*
X002335983Y002983335D01*
X002333176Y002982041D01*
X002330276Y002980971D01*
X002327300Y002980132D01*
X002324269Y002979529D01*
X002321199Y002979166D01*
X002318110Y002979044D01*
X002318109Y002979044D01*
X002315021Y002979166D01*
X002311951Y002979529D01*
X002308919Y002980132D01*
X002305943Y002980971D01*
X002303043Y002982041D01*
X002300236Y002983335D01*
X002297539Y002984846D01*
X002294968Y002986563D01*
X002292541Y002988477D01*
X002290271Y002990575D01*
X002288172Y002992845D01*
X002286258Y002995273D01*
X002284541Y002997843D01*
X002283030Y003000541D01*
X002281736Y003003348D01*
X002280666Y003006248D01*
X002279827Y003009224D01*
X002279224Y003012255D01*
X002278861Y003015325D01*
X002278739Y003018414D01*
X002278739Y003638740D01*
X002278345Y003651298D01*
X002277162Y003663807D01*
X002275197Y003676216D01*
X002272456Y003688478D01*
X002268951Y003700543D01*
X002264695Y003712365D01*
X002259705Y003723896D01*
X002254001Y003735090D01*
X002247605Y003745906D01*
X002240543Y003756297D01*
X002232842Y003766225D01*
X002224533Y003775649D01*
X002215649Y003784534D01*
X002206224Y003792843D01*
X002196296Y003800543D01*
X002185905Y003807605D01*
X002175090Y003814001D01*
X002163895Y003819706D01*
X002152364Y003824695D01*
X002140543Y003828951D01*
X002128478Y003832457D01*
X002116216Y003835197D01*
X002103806Y003837163D01*
X002091298Y003838345D01*
X002078740Y003838740D01*
X001378739Y003838740D01*
X001366182Y003838345D01*
X001353673Y003837163D01*
X001341263Y003835197D01*
X001329002Y003832457D01*
X001316936Y003828951D01*
X001305115Y003824695D01*
X001293584Y003819706D01*
X001282389Y003814001D01*
X001271574Y003807605D01*
X001261182Y003800543D01*
X001251255Y003792843D01*
X001241830Y003784534D01*
X001232946Y003775649D01*
X001224637Y003766225D01*
X001216936Y003756297D01*
X001209874Y003745906D01*
X001203478Y003735090D01*
X001197774Y003723896D01*
X001192784Y003712365D01*
X001188528Y003700543D01*
X001185023Y003688478D01*
X001182282Y003676216D01*
X001180317Y003663807D01*
X001179134Y003651298D01*
X001178740Y003638740D01*
X001178740Y003018414D01*
X001178618Y003015325D01*
X001178255Y003012255D01*
X001177652Y003009224D01*
X001176813Y003006248D01*
X001175743Y003003348D01*
X001174449Y003000541D01*
X001172938Y002997843D01*
X001171221Y002995273D01*
X001169307Y002992845D01*
X001167208Y002990575D01*
X001164938Y002988477D01*
X001162511Y002986563D01*
X001159940Y002984846D01*
X001157243Y002983335D01*
X001154436Y002982041D01*
X001151536Y002980971D01*
X001148560Y002980132D01*
X001145528Y002979529D01*
X001142458Y002979166D01*
X001139370Y002979044D01*
X001139369Y002979044D01*
X001136280Y002979166D01*
X001133211Y002979529D01*
X001130179Y002980132D01*
X001127203Y002980971D01*
X001124303Y002982041D01*
X001121496Y002983335D01*
X001118799Y002984846D01*
X001116228Y002986563D01*
X001113801Y002988477D01*
X001111530Y002990575D01*
X001109432Y002992845D01*
X001107518Y002995273D01*
X001105801Y002997843D01*
X001104290Y003000541D01*
X001102996Y003003348D01*
X001101926Y003006248D01*
X001101087Y003009224D01*
X001100484Y003012255D01*
X001100121Y003015325D01*
X001099999Y003018414D01*
X001099999Y003638740D01*
X001099605Y003651298D01*
X001098422Y003663807D01*
X001096457Y003676216D01*
X001093716Y003688478D01*
X001090211Y003700543D01*
X001085955Y003712365D01*
X001080965Y003723896D01*
X001075261Y003735090D01*
X001068865Y003745906D01*
X001061802Y003756297D01*
X001054102Y003766225D01*
X001045793Y003775649D01*
X001036908Y003784534D01*
X001027484Y003792843D01*
X001017556Y003800543D01*
X001007165Y003807605D01*
X000996350Y003814001D01*
X000985155Y003819706D01*
X000973624Y003824695D01*
X000961803Y003828951D01*
X000949737Y003832457D01*
X000937476Y003835197D01*
X000925066Y003837163D01*
X000912558Y003838345D01*
X000900000Y003838740D01*
X000199999Y003838740D01*
X000187441Y003838345D01*
X000174933Y003837163D01*
X000162523Y003835197D01*
X000150262Y003832457D01*
X000138196Y003828951D01*
X000126374Y003824695D01*
X000114843Y003819706D01*
X000103649Y003814001D01*
X000092834Y003807605D01*
X000082442Y003800543D01*
X000072514Y003792843D01*
X000063090Y003784534D01*
X000054205Y003775649D01*
X000045897Y003766225D01*
X000038196Y003756297D01*
X000031134Y003745906D01*
X000024738Y003735090D01*
X000019034Y003723896D01*
X000014044Y003712365D01*
X000009788Y003700543D01*
X000006283Y003688478D01*
X000003542Y003676216D01*
X000001576Y003663807D01*
X000000394Y003651298D01*
X000000000Y003638740D01*
X000000000Y002158739D01*
X000000394Y002146182D01*
X000001576Y002133673D01*
X000003542Y002121264D01*
X000006283Y002109002D01*
X000009788Y002096937D01*
X000014044Y002085115D01*
X000019034Y002073584D01*
X000024738Y002062389D01*
X000031134Y002051574D01*
X000038196Y002041183D01*
X000045897Y002031255D01*
X000054205Y002021831D01*
X000063090Y002012946D01*
X000072514Y002004637D01*
X000082442Y001996936D01*
X000092834Y001989875D01*
X000103649Y001983478D01*
X000114843Y001977774D01*
X000126374Y001972785D01*
X000138196Y001968528D01*
X000150262Y001965023D01*
X000162523Y001962283D01*
X000174933Y001960317D01*
X000187441Y001959135D01*
X000199999Y001958740D01*
X000430325Y001958740D01*
X000433414Y001958619D01*
X000436484Y001958255D01*
X000439516Y001957652D01*
X000442491Y001956813D01*
X000445391Y001955743D01*
X000448199Y001954449D01*
X000450896Y001952938D01*
X000453466Y001951221D01*
X000455894Y001949307D01*
X000458164Y001947209D01*
X000460262Y001944939D01*
X000462176Y001942511D01*
X000463893Y001939941D01*
X000465404Y001937244D01*
X000466698Y001934436D01*
X000467768Y001931536D01*
X000468607Y001928561D01*
X000469210Y001925529D01*
X000469574Y001922459D01*
X000469695Y001919370D01*
X000469695Y001919370D01*
X000469574Y001916281D01*
X000469210Y001913211D01*
X000468607Y001910179D01*
X000467768Y001907204D01*
X000466698Y001904303D01*
X000465404Y001901496D01*
X000463893Y001898799D01*
X000462176Y001896228D01*
X000460262Y001893801D01*
X000458164Y001891531D01*
X000455894Y001889432D01*
X000453466Y001887519D01*
X000450896Y001885801D01*
X000448199Y001884291D01*
X000445391Y001882996D01*
X000442491Y001881926D01*
X000439516Y001881087D01*
X000436484Y001880484D01*
X000433414Y001880121D01*
X000430325Y001879999D01*
X000199999Y001879999D01*
X000187441Y001879605D01*
X000174933Y001878423D01*
X000162523Y001876457D01*
X000150262Y001873716D01*
X000138196Y001870211D01*
X000126374Y001865955D01*
X000114843Y001860965D01*
X000103649Y001855261D01*
X000092834Y001848865D01*
X000082442Y001841803D01*
X000072514Y001834102D01*
X000063090Y001825794D01*
X000054205Y001816909D01*
X000045897Y001807484D01*
X000038196Y001797557D01*
X000031134Y001787165D01*
X000024738Y001776350D01*
X000019034Y001765155D01*
X000014044Y001753625D01*
X000009788Y001741803D01*
X000006283Y001729738D01*
X000003542Y001717476D01*
X000001576Y001705066D01*
X000000394Y001692558D01*
X000000000Y001679999D01*
X000000000Y000199999D01*
X000000394Y000187441D01*
X000001576Y000174933D01*
X000003542Y000162523D01*
X000006283Y000150262D01*
X000009788Y000138196D01*
X000014044Y000126374D01*
X000019034Y000114844D01*
X000024738Y000103649D01*
X000031134Y000092834D01*
X000038196Y000082443D01*
X000045897Y000072515D01*
X000054205Y000063091D01*
X000063090Y000054206D01*
X000072514Y000045897D01*
X000082442Y000038196D01*
X000092834Y000031134D01*
X000103649Y000024738D01*
X000114843Y000019034D01*
X000126374Y000014045D01*
X000138196Y000009788D01*
X000150262Y000006283D01*
X000162523Y000003542D01*
X000174933Y000001577D01*
X000187441Y000000395D01*
X000199999Y000000000D01*
X000900000Y000000000D01*
X000900000Y000000000D01*
M02*