%
M48
METRIC,000.000
T01C0.40
T02C1.00
%
T01
X008762Y009779
X008762Y007729
X009215Y022118
X010650Y023553
X012529Y036195
X012529Y033893
X013081Y025273
X013334Y020828
X014477Y026035
X014516Y021823
X014986Y031750
X015430Y036195
X015493Y014467
X015808Y028473
X016271Y038887
X016306Y031419
X016443Y010668
X016443Y006858
X016510Y034544
X016672Y022019
X019049Y040005
X019049Y010160
X019049Y008109
X021653Y037383
X008762Y059531
X008762Y057481
X009215Y071870
X010650Y073305
X012529Y085947
X012529Y083645
X013081Y075025
X013334Y070580
X014477Y075787
X014516Y071575
X014986Y081502
X015430Y085947
X015493Y064218
X015808Y078225
X016271Y088639
X016306Y081171
X016443Y060420
X016443Y056610
X016510Y084296
X016672Y071771
X019049Y089757
X019049Y059912
X019049Y057862
X021653Y087135
X038703Y009779
X038703Y007729
X039155Y022118
X040590Y023553
X042469Y036195
X042469Y033893
X043021Y025273
X043275Y020828
X044418Y026035
X044456Y021823
X044926Y031750
X045370Y036195
X045434Y014467
X045748Y028473
X046211Y038887
X046246Y031419
X046383Y010668
X046383Y006858
X046450Y034544
X046612Y022019
X048990Y040005
X048990Y010160
X048990Y008109
X051593Y037383
X068643Y009779
X068643Y007729
X069095Y022118
X070530Y023553
X072409Y036195
X072409Y033893
X072961Y025273
X073215Y020828
X074358Y026035
X074396Y021823
X074866Y031750
X075310Y036195
X075374Y014467
X075688Y028473
X076151Y038887
X076186Y031419
X076323Y010668
X076323Y006858
X076390Y034544
X076552Y022019
X078930Y040005
X078930Y010160
X078930Y008109
X081533Y037383
X038703Y059531
X038703Y057481
X039155Y071870
X040590Y073305
X042469Y085947
X042469Y083645
X043021Y075025
X043275Y070580
X044418Y075787
X044456Y071575
X044926Y081502
X045370Y085947
X045434Y064218
X045748Y078225
X046211Y088639
X046246Y081171
X046383Y060420
X046383Y056610
X046450Y084296
X046612Y071771
X048990Y089757
X048990Y059912
X048990Y057862
X051593Y087135
X068643Y059531
X068643Y057481
X069095Y071870
X070530Y073305
X072409Y085947
X072409Y083645
X072961Y075025
X073215Y070580
X074358Y075787
X074396Y071575
X074866Y081502
X075310Y085947
X075374Y064218
X075688Y078225
X076151Y088639
X076186Y081171
X076323Y060420
X076323Y056610
X076390Y084296
X076552Y071771
X078930Y089757
X078930Y059912
X078930Y057862
X081533Y087135
T02
X009017Y002921
X011557Y002921
X014096Y002921
X016636Y002921
X019177Y002921
X002540Y010922
X002540Y008382
X025400Y010922
X025400Y008382
X025400Y016001
X025400Y013462
X002540Y031242
X002540Y028702
X002540Y026162
X002540Y023622
X002540Y021082
X002540Y018542
X002540Y016001
X002540Y013462
X002540Y036322
X002540Y033782
X025400Y031242
X025400Y028702
X025400Y026162
X025400Y023622
X025400Y021082
X025400Y018542
X009017Y052673
X011557Y052673
X014096Y052673
X016636Y052673
X019177Y052673
X002540Y060674
X002540Y058134
X025400Y060674
X025400Y058134
X025400Y065754
X025400Y063214
X002540Y080994
X002540Y078454
X002540Y075914
X002540Y073374
X002540Y070834
X002540Y068294
X002540Y065754
X002540Y063214
X002540Y086074
X002540Y083534
X025400Y080994
X025400Y078454
X025400Y075914
X025400Y073374
X025400Y070834
X025400Y068294
X038957Y002921
X041497Y002921
X044037Y002921
X046577Y002921
X049117Y002921
X032479Y010922
X032479Y008382
X055340Y010922
X055340Y008382
X055340Y016001
X055340Y013462
X032479Y031242
X032479Y028702
X032479Y026162
X032479Y023622
X032479Y021082
X032479Y018542
X032479Y016001
X032479Y013462
X032479Y036322
X032479Y033782
X055340Y031242
X055340Y028702
X055340Y026162
X055340Y023622
X055340Y021082
X055340Y018542
X068897Y002921
X071437Y002921
X073977Y002921
X076517Y002921
X079057Y002921
X062420Y010922
X062420Y008382
X085280Y010922
X085280Y008382
X085280Y016001
X085280Y013462
X062420Y031242
X062420Y028702
X062420Y026162
X062420Y023622
X062420Y021082
X062420Y018542
X062420Y016001
X062420Y013462
X062420Y036322
X062420Y033782
X085280Y031242
X085280Y028702
X085280Y026162
X085280Y023622
X085280Y021082
X085280Y018542
X038957Y052673
X041497Y052673
X044037Y052673
X046577Y052673
X049117Y052673
X032479Y060674
X032479Y058134
X055340Y060674
X055340Y058134
X055340Y065754
X055340Y063214
X032479Y080994
X032479Y078454
X032479Y075914
X032479Y073374
X032479Y070834
X032479Y068294
X032479Y065754
X032479Y063214
X032479Y086074
X032479Y083534
X055340Y080994
X055340Y078454
X055340Y075914
X055340Y073374
X055340Y070834
X055340Y068294
X068897Y052673
X071437Y052673
X073977Y052673
X076517Y052673
X079057Y052673
X062420Y060674
X062420Y058134
X085280Y060674
X085280Y058134
X085280Y065754
X085280Y063214
X062420Y080994
X062420Y078454
X062420Y075914
X062420Y073374
X062420Y070834
X062420Y068294
X062420Y065754
X062420Y063214
X062420Y086074
X062420Y083534
X085280Y080994
X085280Y078454
X085280Y075914
X085280Y073374
X085280Y070834
X085280Y068294
M30