%MOIN*%
%OFA0B0*%
%FSLAX46Y46*%
%IPPOS*%
%LPD*%
%ADD10C,0.0019685039370078744*%
%ADD21C,0.0019685039370078744*%
%ADD22C,0.0019685039370078744*%
%ADD23C,0.0019685039370078744*%
%ADD24C,0.0019685039370078744*%
%ADD25C,0.0019685039370078744*%
D10*
X0000199999Y0001880000D02*
X0000900000Y0001880000D01*
X0000000000Y0000200000D02*
X0000000000Y0001680000D01*
X0000900000Y0000000000D02*
X0000199999Y0000000000D01*
X0001100000Y0001680000D02*
X0001100000Y0000200000D01*
X0001100000Y0000200000D02*
G75*
G02X0000900000Y0000000000I-0000200000D01*
G01*
X0000199999Y0000000000D02*
G75*
G02X0000000000Y0000200000J0000200000D01*
G01*
X0000900000Y0001880000D02*
G75*
G02X0001100000Y0001680000J-0000200000D01*
G01*
X0000000000Y0001680000D02*
G75*
G02X0000199999Y0001880000I0000200000D01*
G01*
G04 next file*
G04 #@! TF.GenerationSoftware,KiCad,Pcbnew,(5.1.4)-1*
G04 #@! TF.CreationDate,2020-10-29T20:30:17+08:00*
G04 #@! TF.ProjectId,custom_microcontroller,63757374-6f6d-45f6-9d69-63726f636f6e,rev?*
G04 #@! TF.SameCoordinates,Original*
G04 #@! TF.FileFunction,Profile,NP*
G04 Gerber Fmt 4.6, Leading zero omitted, Abs format (unit mm)*
G04 Created by KiCad (PCBNEW (5.1.4)-1) date 2020-10-29 20:30:17*
G04 APERTURE LIST*
G04 APERTURE END LIST*
D21*
X0000199999Y0003838740D02*
X0000900000Y0003838740D01*
X0000000000Y0002158740D02*
X0000000000Y0003638740D01*
X0000900000Y0001958740D02*
X0000199999Y0001958740D01*
X0001100000Y0003638740D02*
X0001100000Y0002158740D01*
X0001100000Y0002158740D02*
G75*
G02X0000900000Y0001958740I-0000200000D01*
G01*
X0000199999Y0001958740D02*
G75*
G02X0000000000Y0002158740J0000200000D01*
G01*
X0000900000Y0003838740D02*
G75*
G02X0001100000Y0003638740J-0000200000D01*
G01*
X0000000000Y0003638740D02*
G75*
G02X0000199999Y0003838740I0000200000D01*
G01*
G04 next file*
G04 #@! TF.GenerationSoftware,KiCad,Pcbnew,(5.1.4)-1*
G04 #@! TF.CreationDate,2020-10-29T20:30:17+08:00*
G04 #@! TF.ProjectId,custom_microcontroller,63757374-6f6d-45f6-9d69-63726f636f6e,rev?*
G04 #@! TF.SameCoordinates,Original*
G04 #@! TF.FileFunction,Profile,NP*
G04 Gerber Fmt 4.6, Leading zero omitted, Abs format (unit mm)*
G04 Created by KiCad (PCBNEW (5.1.4)-1) date 2020-10-29 20:30:17*
G04 APERTURE LIST*
G04 APERTURE END LIST*
D22*
X0001378740Y0001880000D02*
X0002078740Y0001880000D01*
X0001178740Y0000200000D02*
X0001178740Y0001680000D01*
X0002078740Y0000000000D02*
X0001378740Y0000000000D01*
X0002278740Y0001680000D02*
X0002278740Y0000200000D01*
X0002278740Y0000200000D02*
G75*
G02X0002078740Y0000000000I-0000200000D01*
G01*
X0001378740Y0000000000D02*
G75*
G02X0001178740Y0000200000J0000200000D01*
G01*
X0002078740Y0001880000D02*
G75*
G02X0002278740Y0001680000J-0000200000D01*
G01*
X0001178740Y0001680000D02*
G75*
G02X0001378740Y0001880000I0000200000D01*
G01*
G04 next file*
G04 #@! TF.GenerationSoftware,KiCad,Pcbnew,(5.1.4)-1*
G04 #@! TF.CreationDate,2020-10-29T20:30:17+08:00*
G04 #@! TF.ProjectId,custom_microcontroller,63757374-6f6d-45f6-9d69-63726f636f6e,rev?*
G04 #@! TF.SameCoordinates,Original*
G04 #@! TF.FileFunction,Profile,NP*
G04 Gerber Fmt 4.6, Leading zero omitted, Abs format (unit mm)*
G04 Created by KiCad (PCBNEW (5.1.4)-1) date 2020-10-29 20:30:17*
G04 APERTURE LIST*
G04 APERTURE END LIST*
D23*
X0002557480Y0001880000D02*
X0003257480Y0001880000D01*
X0002357480Y0000200000D02*
X0002357480Y0001680000D01*
X0003257480Y0000000000D02*
X0002557480Y0000000000D01*
X0003457480Y0001680000D02*
X0003457480Y0000200000D01*
X0003457480Y0000200000D02*
G75*
G02X0003257480Y0000000000I-0000200000D01*
G01*
X0002557480Y0000000000D02*
G75*
G02X0002357480Y0000200000J0000200000D01*
G01*
X0003257480Y0001880000D02*
G75*
G02X0003457480Y0001680000J-0000200000D01*
G01*
X0002357480Y0001680000D02*
G75*
G02X0002557480Y0001880000I0000200000D01*
G01*
G04 next file*
G04 #@! TF.GenerationSoftware,KiCad,Pcbnew,(5.1.4)-1*
G04 #@! TF.CreationDate,2020-10-29T20:30:17+08:00*
G04 #@! TF.ProjectId,custom_microcontroller,63757374-6f6d-45f6-9d69-63726f636f6e,rev?*
G04 #@! TF.SameCoordinates,Original*
G04 #@! TF.FileFunction,Profile,NP*
G04 Gerber Fmt 4.6, Leading zero omitted, Abs format (unit mm)*
G04 Created by KiCad (PCBNEW (5.1.4)-1) date 2020-10-29 20:30:17*
G04 APERTURE LIST*
G04 APERTURE END LIST*
D24*
X0001378740Y0003838740D02*
X0002078740Y0003838740D01*
X0001178740Y0002158740D02*
X0001178740Y0003638740D01*
X0002078740Y0001958740D02*
X0001378740Y0001958740D01*
X0002278740Y0003638740D02*
X0002278740Y0002158740D01*
X0002278740Y0002158740D02*
G75*
G02X0002078740Y0001958740I-0000200000D01*
G01*
X0001378740Y0001958740D02*
G75*
G02X0001178740Y0002158740J0000200000D01*
G01*
X0002078740Y0003838740D02*
G75*
G02X0002278740Y0003638740J-0000200000D01*
G01*
X0001178740Y0003638740D02*
G75*
G02X0001378740Y0003838740I0000200000D01*
G01*
G04 next file*
G04 #@! TF.GenerationSoftware,KiCad,Pcbnew,(5.1.4)-1*
G04 #@! TF.CreationDate,2020-10-29T20:30:17+08:00*
G04 #@! TF.ProjectId,custom_microcontroller,63757374-6f6d-45f6-9d69-63726f636f6e,rev?*
G04 #@! TF.SameCoordinates,Original*
G04 #@! TF.FileFunction,Profile,NP*
G04 Gerber Fmt 4.6, Leading zero omitted, Abs format (unit mm)*
G04 Created by KiCad (PCBNEW (5.1.4)-1) date 2020-10-29 20:30:17*
G04 APERTURE LIST*
G04 APERTURE END LIST*
D25*
X0002557480Y0003838740D02*
X0003257480Y0003838740D01*
X0002357480Y0002158740D02*
X0002357480Y0003638740D01*
X0003257480Y0001958740D02*
X0002557480Y0001958740D01*
X0003457480Y0003638740D02*
X0003457480Y0002158740D01*
X0003457480Y0002158740D02*
G75*
G02X0003257480Y0001958740I-0000200000D01*
G01*
X0002557480Y0001958740D02*
G75*
G02X0002357480Y0002158740J0000200000D01*
G01*
X0003257480Y0003838740D02*
G75*
G02X0003457480Y0003638740J-0000200000D01*
G01*
X0002357480Y0003638740D02*
G75*
G02X0002557480Y0003838740I0000200000D01*
G01*
M02*