%
M48
METRIC,000.000
T01C0.50
%
T01
X028189Y021709
X028189Y022709
X028189Y023709
X028189Y024709
X028189Y025709
X028189Y026709
X029689Y026156
X029689Y025156
X029689Y024156
X029689Y023156
X029689Y022156
X029689Y021156
X016193Y048001
X015193Y048001
X014193Y048001
X013193Y048001
X012193Y048001
X011193Y048001
X011632Y049501
X012632Y049501
X013632Y049501
X014632Y049501
X015632Y049501
X016632Y049501
X046133Y048001
X045133Y048001
X044133Y048001
X043133Y048001
X042133Y048001
X041133Y048001
X041572Y049501
X042572Y049501
X043572Y049501
X044572Y049501
X045572Y049501
X046572Y049501
X028189Y071461
X028189Y072461
X028189Y073461
X028189Y074461
X028189Y075461
X028189Y076461
X029689Y075908
X029689Y074908
X029689Y073908
X029689Y072908
X029689Y071908
X029689Y070908
X076073Y048001
X075073Y048001
X074073Y048001
X073073Y048001
X072073Y048001
X071073Y048001
X071512Y049501
X072512Y049501
X073512Y049501
X074512Y049501
X075512Y049501
X076512Y049501
X058129Y071461
X058129Y072461
X058129Y073461
X058129Y074461
X058129Y075461
X058129Y076461
X059629Y075908
X059629Y074908
X059629Y073908
X059629Y072908
X059629Y071908
X059629Y070908
X058129Y021709
X058129Y022709
X058129Y023709
X058129Y024709
X058129Y025709
X058129Y026709
X059629Y026156
X059629Y025156
X059629Y024156
X059629Y023156
X059629Y022156
X059629Y021156
M30