M48
; DRILL file {KiCad (5.1.6)-1} date 10/29/20 18:05:48
; FORMAT={-:-/ absolute / inch / decimal}
; #@! TF.CreationDate,2020-10-29T18:05:48+08:00
; #@! TF.GenerationSoftware,Kicad,Pcbnew,(5.1.6)-1
; #@! TF.FileFunction,Plated,1,2,PTH
FMAT,2
INCH
T1C0.0157
T2C0.0394
%
G90
G05
T1
X3.495Y-3.82
X3.495Y-3.9007
X3.495Y-5.9
X3.495Y-5.9807
X3.5128Y-3.3342
X3.5128Y-5.4142
X3.5693Y-3.2777
X3.5693Y-5.3577
X3.6433Y-2.78
X3.6433Y-2.8706
X3.6433Y-4.86
X3.6433Y-4.9506
X3.665Y-3.21
X3.665Y-5.29
X3.675Y-3.385
X3.675Y-5.465
X3.72Y-3.18
X3.72Y-5.26
X3.7215Y-3.3458
X3.7215Y-5.4258
X3.74Y-2.955
X3.74Y-5.035
X3.7575Y-2.78
X3.7575Y-4.86
X3.76Y-3.6354
X3.76Y-5.7154
X3.7724Y-3.084
X3.7724Y-5.164
X3.7906Y-2.674
X3.7906Y-4.754
X3.792Y-2.968
X3.792Y-5.048
X3.7974Y-3.785
X3.7974Y-3.935
X3.7974Y-5.865
X3.7974Y-6.015
X3.8Y-2.845
X3.8Y-4.925
X3.8064Y-3.3381
X3.8064Y-5.4181
X3.9Y-2.63
X3.9Y-3.805
X3.9Y-3.8857
X3.9Y-4.71
X3.9Y-5.885
X3.9Y-5.9657
X4.0025Y-2.7332
X4.0025Y-4.8132
X4.795Y-3.82
X4.795Y-3.9007
X4.795Y-5.9
X4.795Y-5.9807
X4.8128Y-3.3342
X4.8128Y-5.4142
X4.8693Y-3.2777
X4.8693Y-5.3577
X4.9433Y-2.78
X4.9433Y-2.8706
X4.9433Y-4.86
X4.9433Y-4.9506
X4.965Y-3.21
X4.965Y-5.29
X4.975Y-3.385
X4.975Y-5.465
X5.02Y-3.18
X5.02Y-5.26
X5.0215Y-3.3458
X5.0215Y-5.4258
X5.04Y-2.955
X5.04Y-5.035
X5.0575Y-2.78
X5.0575Y-4.86
X5.06Y-3.6354
X5.06Y-5.7154
X5.0724Y-3.084
X5.0724Y-5.164
X5.0906Y-2.674
X5.0906Y-4.754
X5.092Y-2.968
X5.092Y-5.048
X5.0974Y-3.785
X5.0974Y-3.935
X5.0974Y-5.865
X5.0974Y-6.015
X5.1Y-2.845
X5.1Y-4.925
X5.1064Y-3.3381
X5.1064Y-5.4181
X5.2Y-2.63
X5.2Y-3.805
X5.2Y-3.8857
X5.2Y-4.71
X5.2Y-5.885
X5.2Y-5.9657
X5.3025Y-2.7332
X5.3025Y-4.8132
X6.095Y-3.82
X6.095Y-3.9007
X6.095Y-5.9
X6.095Y-5.9807
X6.1128Y-3.3342
X6.1128Y-5.4142
X6.1693Y-3.2777
X6.1693Y-5.3577
X6.2433Y-2.78
X6.2433Y-2.8706
X6.2433Y-4.86
X6.2433Y-4.9506
X6.265Y-3.21
X6.265Y-5.29
X6.275Y-3.385
X6.275Y-5.465
X6.32Y-3.18
X6.32Y-5.26
X6.3215Y-3.3458
X6.3215Y-5.4258
X6.34Y-2.955
X6.34Y-5.035
X6.3575Y-2.78
X6.3575Y-4.86
X6.36Y-3.6354
X6.36Y-5.7154
X6.3724Y-3.084
X6.3724Y-5.164
X6.3906Y-2.674
X6.3906Y-4.754
X6.392Y-2.968
X6.392Y-5.048
X6.3974Y-3.785
X6.3974Y-3.935
X6.3974Y-5.865
X6.3974Y-6.015
X6.4Y-2.845
X6.4Y-4.925
X6.4064Y-3.3381
X6.4064Y-5.4181
X6.5Y-2.63
X6.5Y-3.805
X6.5Y-3.8857
X6.5Y-4.71
X6.5Y-5.885
X6.5Y-5.9657
X6.6025Y-2.7332
X6.6025Y-4.8132
T2
X3.505Y-6.17
X3.605Y-6.17
X3.705Y-6.17
X3.805Y-6.17
X3.905Y-6.17
X4.805Y-6.17
X4.905Y-6.17
X5.005Y-6.17
X5.105Y-6.17
X5.205Y-6.17
X6.75Y-5.055
X6.75Y-5.155
X6.75Y-5.255
X6.75Y-5.355
X6.75Y-5.455
X6.75Y-5.555
X4.55Y-5.855
X4.55Y-5.955
X5.45Y-3.575
X5.45Y-3.675
X4.805Y-4.09
X4.905Y-4.09
X5.005Y-4.09
X5.105Y-4.09
X5.205Y-4.09
X4.15Y-5.855
X4.15Y-5.955
X3.25Y-2.775
X3.25Y-2.875
X6.75Y-5.855
X6.75Y-5.955
X3.25Y-5.855
X3.25Y-5.955
X4.15Y-5.655
X4.15Y-5.755
X5.85Y-2.775
X5.85Y-2.875
X5.85Y-2.975
X5.85Y-3.075
X5.85Y-3.175
X5.85Y-3.275
X5.85Y-3.375
X5.85Y-3.475
X5.85Y-3.575
X5.85Y-3.675
X5.45Y-5.655
X5.45Y-5.755
X5.45Y-5.855
X5.45Y-5.955
X5.45Y-3.775
X5.45Y-3.875
X3.505Y-4.09
X3.605Y-4.09
X3.705Y-4.09
X3.805Y-4.09
X3.905Y-4.09
X5.85Y-5.855
X5.85Y-5.955
X6.75Y-5.655
X6.75Y-5.755
X5.85Y-4.855
X5.85Y-4.955
X6.75Y-3.575
X6.75Y-3.675
X3.25Y-5.055
X3.25Y-5.155
X3.25Y-5.255
X3.25Y-5.355
X3.25Y-5.455
X3.25Y-5.555
X3.25Y-5.655
X3.25Y-5.755
X6.75Y-3.775
X6.75Y-3.875
X6.105Y-4.09
X6.205Y-4.09
X6.305Y-4.09
X6.405Y-4.09
X6.505Y-4.09
X4.55Y-3.775
X4.55Y-3.875
X5.45Y-2.975
X5.45Y-3.075
X5.45Y-3.175
X5.45Y-3.275
X5.45Y-3.375
X5.45Y-3.475
X5.85Y-5.055
X5.85Y-5.155
X5.85Y-5.255
X5.85Y-5.355
X5.85Y-5.455
X5.85Y-5.555
X5.85Y-5.655
X5.85Y-5.755
X4.15Y-3.775
X4.15Y-3.875
X3.25Y-3.775
X3.25Y-3.875
X5.85Y-3.775
X5.85Y-3.875
X4.15Y-2.975
X4.15Y-3.075
X4.15Y-3.175
X4.15Y-3.275
X4.15Y-3.375
X4.15Y-3.475
X5.45Y-5.055
X5.45Y-5.155
X5.45Y-5.255
X5.45Y-5.355
X5.45Y-5.455
X5.45Y-5.555
X4.55Y-2.775
X4.55Y-2.875
X4.15Y-3.575
X4.15Y-3.675
X4.55Y-2.975
X4.55Y-3.075
X4.55Y-3.175
X4.55Y-3.275
X4.55Y-3.375
X4.55Y-3.475
X4.55Y-3.575
X4.55Y-3.675
X6.75Y-2.975
X6.75Y-3.075
X6.75Y-3.175
X6.75Y-3.275
X6.75Y-3.375
X6.75Y-3.475
X6.105Y-6.17
X6.205Y-6.17
X6.305Y-6.17
X6.405Y-6.17
X6.505Y-6.17
X3.25Y-2.975
X3.25Y-3.075
X3.25Y-3.175
X3.25Y-3.275
X3.25Y-3.375
X3.25Y-3.475
X3.25Y-3.575
X3.25Y-3.675
X3.25Y-4.855
X3.25Y-4.955
X4.15Y-5.055
X4.15Y-5.155
X4.15Y-5.255
X4.15Y-5.355
X4.15Y-5.455
X4.15Y-5.555
X4.55Y-4.855
X4.55Y-4.955
X4.55Y-5.055
X4.55Y-5.155
X4.55Y-5.255
X4.55Y-5.355
X4.55Y-5.455
X4.55Y-5.555
X4.55Y-5.655
X4.55Y-5.755
T0
M30
