M48
; DRILL file {KiCad (5.1.6)-1} date 10/29/20 18:05:48
; FORMAT={-:-/ absolute / inch / decimal}
; #@! TF.CreationDate,2020-10-29T18:05:48+08:00
; #@! TF.GenerationSoftware,Kicad,Pcbnew,(5.1.6)-1
; #@! TF.FileFunction,NonPlated,1,2,NPTH
FMAT,2
INCH
T1C0.0591
%
G90
G05
T1
X5.55Y-5.135
X5.55Y-5.25
X5.55Y-5.335
X5.55Y-5.425
X5.55Y-5.535
X5.75Y-5.135
X5.75Y-5.25
X5.75Y-5.335
X5.75Y-5.425
X5.75Y-5.535
X3.5Y-4.205
X3.5Y-4.405
X3.615Y-4.205
X3.615Y-4.405
X3.7Y-4.205
X3.7Y-4.405
X3.79Y-4.205
X3.79Y-4.405
X3.9Y-4.205
X3.9Y-4.405
X6.1Y-4.205
X6.1Y-4.405
X6.215Y-4.205
X6.215Y-4.405
X6.3Y-4.205
X6.3Y-4.405
X6.39Y-4.205
X6.39Y-4.405
X6.5Y-4.205
X6.5Y-4.405
X4.8Y-4.205
X4.8Y-4.405
X4.915Y-4.205
X4.915Y-4.405
X5.0Y-4.205
X5.0Y-4.405
X5.09Y-4.205
X5.09Y-4.405
X5.2Y-4.205
X5.2Y-4.405
X5.55Y-3.055
X5.55Y-3.17
X5.55Y-3.255
X5.55Y-3.345
X5.55Y-3.455
X5.75Y-3.055
X5.75Y-3.17
X5.75Y-3.255
X5.75Y-3.345
X5.75Y-3.455
X4.25Y-5.135
X4.25Y-5.25
X4.25Y-5.335
X4.25Y-5.425
X4.25Y-5.535
X4.45Y-5.135
X4.45Y-5.25
X4.45Y-5.335
X4.45Y-5.425
X4.45Y-5.535
X4.25Y-3.055
X4.25Y-3.17
X4.25Y-3.255
X4.25Y-3.345
X4.25Y-3.455
X4.45Y-3.055
X4.45Y-3.17
X4.45Y-3.255
X4.45Y-3.345
X4.45Y-3.455
T0
M30
