G04 #@! TF.GenerationSoftware,KiCad,Pcbnew,(5.1.6)-1*
G04 #@! TF.CreationDate,2020-10-29T18:05:45+08:00*
G04 #@! TF.ProjectId,panelized,70616e65-6c69-47a6-9564-2e6b69636164,rev?*
G04 #@! TF.SameCoordinates,Original*
G04 #@! TF.FileFunction,Profile,NP*
%FSLAX46Y46*%
G04 Gerber Fmt 4.6, Leading zero omitted, Abs format (unit mm)*
G04 Created by KiCad (PCBNEW (5.1.6)-1) date 2020-10-29 18:05:45*
%MOMM*%
%LPD*%
G01*
G04 APERTURE LIST*
G04 #@! TA.AperFunction,Profile*
%ADD10C,0.050000*%
G04 #@! TD*
G04 APERTURE END LIST*
D10*
X118110000Y-159639000D02*
X135890000Y-159639000D01*
X173990000Y-116967000D02*
X173990000Y-154559000D01*
X80010000Y-87757000D02*
X80010000Y-77597000D01*
X99060000Y-159639000D02*
X88900000Y-159639000D01*
X165100000Y-159639000D02*
X154940000Y-159639000D01*
X173990000Y-77597000D02*
X173990000Y-87757000D01*
X154940000Y-59055000D02*
X165100000Y-59055000D01*
X121920000Y-59055000D02*
X132080000Y-59055000D01*
X88900000Y-59055000D02*
X99060000Y-59055000D01*
X80010000Y-116967000D02*
X80010000Y-154559000D01*
X165100000Y-111887000D02*
X168910000Y-111887000D01*
X132080000Y-111887000D02*
X135890000Y-111887000D01*
X99060000Y-111887000D02*
X102870000Y-111887000D01*
X165100000Y-59055000D02*
X168910000Y-59055000D01*
X132080000Y-59055000D02*
X135890000Y-59055000D01*
X168910000Y-111887000D02*
G75*
G02*
X173990000Y-116967000I0J-5080000D01*
G01*
X135890000Y-111887000D02*
G75*
G02*
X140970000Y-116967000I0J-5080000D01*
G01*
X102870000Y-111887000D02*
G75*
G02*
X107950000Y-116967000I0J-5080000D01*
G01*
X168910000Y-59055000D02*
G75*
G02*
X173990000Y-64135000I0J-5080000D01*
G01*
X135890000Y-59055000D02*
G75*
G02*
X140970000Y-64135000I0J-5080000D01*
G01*
X151130000Y-159639000D02*
G75*
G02*
X146050000Y-154559000I0J5080000D01*
G01*
X118110000Y-159639000D02*
G75*
G02*
X113030000Y-154559000I0J5080000D01*
G01*
X85090000Y-159639000D02*
G75*
G02*
X80010000Y-154559000I0J5080000D01*
G01*
X151130000Y-106807000D02*
G75*
G02*
X146050000Y-101727000I0J5080000D01*
G01*
X118110000Y-106807000D02*
G75*
G02*
X113030000Y-101727000I0J5080000D01*
G01*
X173990000Y-154559000D02*
G75*
G02*
X168910000Y-159639000I-5080000J0D01*
G01*
X140970000Y-154559000D02*
G75*
G02*
X135890000Y-159639000I-5080000J0D01*
G01*
X107950000Y-154559000D02*
G75*
G02*
X102870000Y-159639000I-5080000J0D01*
G01*
X173990000Y-101727000D02*
G75*
G02*
X168910000Y-106807000I-5080000J0D01*
G01*
X140970000Y-101727000D02*
G75*
G02*
X135890000Y-106807000I-5080000J0D01*
G01*
X140970000Y-140589000D02*
X140970000Y-154559000D01*
X107950000Y-140589000D02*
X107950000Y-154559000D01*
X173990000Y-87757000D02*
X173990000Y-101727000D01*
X140970000Y-87757000D02*
X140970000Y-101727000D01*
X146050000Y-130429000D02*
X146050000Y-116967000D01*
X113030000Y-130429000D02*
X113030000Y-116967000D01*
X146050000Y-77597000D02*
X146050000Y-64135000D01*
X113030000Y-77597000D02*
X113030000Y-64135000D01*
X154940000Y-159639000D02*
X151130000Y-159639000D01*
X88900000Y-159639000D02*
X85090000Y-159639000D01*
X154940000Y-106807000D02*
X151130000Y-106807000D01*
X121920000Y-106807000D02*
X118110000Y-106807000D01*
X165100000Y-159639000D02*
X168910000Y-159639000D01*
X99060000Y-159639000D02*
X102870000Y-159639000D01*
X165100000Y-106807000D02*
X168910000Y-106807000D01*
X132080000Y-106807000D02*
X135890000Y-106807000D01*
X146050000Y-116967000D02*
G75*
G02*
X151130000Y-111887000I5080000J0D01*
G01*
X113030000Y-116967000D02*
G75*
G02*
X118110000Y-111887000I5080000J0D01*
G01*
X80010000Y-116967000D02*
G75*
G02*
X85090000Y-111887000I5080000J0D01*
G01*
X146050000Y-64135000D02*
G75*
G02*
X151130000Y-59055000I5080000J0D01*
G01*
X113030000Y-64135000D02*
G75*
G02*
X118110000Y-59055000I5080000J0D01*
G01*
X140970000Y-140589000D02*
G75*
G02*
X146050000Y-140589000I2540000J0D01*
G01*
X107950000Y-140589000D02*
G75*
G02*
X113030000Y-140589000I2540000J0D01*
G01*
X140970000Y-87757000D02*
G75*
G02*
X146050000Y-87757000I2540000J0D01*
G01*
X165100000Y-111887000D02*
G75*
G02*
X165100000Y-106807000I0J2540000D01*
G01*
X132080000Y-111887000D02*
G75*
G02*
X132080000Y-106807000I0J2540000D01*
G01*
X140970000Y-116967000D02*
X140970000Y-130429000D01*
X107950000Y-116967000D02*
X107950000Y-130429000D01*
X173990000Y-64135000D02*
X173990000Y-77597000D01*
X140970000Y-64135000D02*
X140970000Y-77597000D01*
X151130000Y-111887000D02*
X154940000Y-111887000D01*
X118110000Y-111887000D02*
X121920000Y-111887000D01*
X85090000Y-111887000D02*
X88900000Y-111887000D01*
X151130000Y-59055000D02*
X154940000Y-59055000D01*
X118110000Y-59055000D02*
X121920000Y-59055000D01*
X154940000Y-106807000D02*
G75*
G02*
X154940000Y-111887000I0J-2540000D01*
G01*
X121920000Y-106807000D02*
G75*
G02*
X121920000Y-111887000I0J-2540000D01*
G01*
X146050000Y-130429000D02*
G75*
G02*
X140970000Y-130429000I-2540000J0D01*
G01*
X113030000Y-130429000D02*
G75*
G02*
X107950000Y-130429000I-2540000J0D01*
G01*
X146050000Y-77597000D02*
G75*
G02*
X140970000Y-77597000I-2540000J0D01*
G01*
X146050000Y-140589000D02*
X146050000Y-154559000D01*
X113030000Y-140589000D02*
X113030000Y-154559000D01*
X146050000Y-87757000D02*
X146050000Y-101727000D01*
X113030000Y-87757000D02*
X113030000Y-101727000D01*
X85090000Y-59055000D02*
X88900000Y-59055000D01*
X80010000Y-87757000D02*
X80010000Y-101727000D01*
X107950000Y-64135000D02*
X107950000Y-77597000D01*
X99060000Y-111887000D02*
G75*
G02*
X99060000Y-106807000I0J2540000D01*
G01*
X88900000Y-106807000D02*
G75*
G02*
X88900000Y-111887000I0J-2540000D01*
G01*
X113030000Y-77597000D02*
G75*
G02*
X107950000Y-77597000I-2540000J0D01*
G01*
X107950000Y-87757000D02*
G75*
G02*
X113030000Y-87757000I2540000J0D01*
G01*
X107950000Y-87757000D02*
X107950000Y-101727000D01*
X88900000Y-106807000D02*
X85090000Y-106807000D01*
X99060000Y-106807000D02*
X102870000Y-106807000D01*
X99060000Y-59055000D02*
X102870000Y-59055000D01*
X80010000Y-77597000D02*
X80010000Y-64135000D01*
X107950000Y-101727000D02*
G75*
G02*
X102870000Y-106807000I-5080000J0D01*
G01*
X85090000Y-106807000D02*
G75*
G02*
X80010000Y-101727000I0J5080000D01*
G01*
X102870000Y-59055000D02*
G75*
G02*
X107950000Y-64135000I0J-5080000D01*
G01*
X80010000Y-64135000D02*
G75*
G02*
X85090000Y-59055000I5080000J0D01*
G01*
M02*
